# Exported from Wings 3D 1.5.4
mtllib arrow_fuel_tank_s1_1.mtl
o mesh
#48 vertices, 24 faces
v 0.62500000 0.31250000 -1.2576745e-17
v 0.60370364 0.31250000 0.16176190
v 0.54126588 0.31250000 0.31250000
v 0.44194174 0.31250000 0.44194174
v 0.31250000 0.31250000 0.54126588
v 0.16176190 0.31250000 0.60370364
v -1.3771492e-17 0.31250000 0.62500000
v -0.16176190 0.31250000 0.60370364
v -0.31250000 0.31250000 0.54126588
v -0.44194174 0.31250000 0.44194174
v -0.54126588 0.31250000 0.31250000
v -0.60370364 0.31250000 0.16176190
v -0.62500000 0.31250000 6.3963680e-17
v -0.60370364 0.31250000 -0.16176190
v -0.54126588 0.31250000 -0.31250000
v -0.44194174 0.31250000 -0.44194174
v -0.31250000 0.31250000 -0.54126588
v -0.16176190 0.31250000 -0.60370364
v -1.6685234e-16 0.31250000 -0.62500000
v 0.16176190 0.31250000 -0.60370364
v 0.31250000 0.31250000 -0.54126588
v 0.44194174 0.31250000 -0.44194174
v 0.54126588 0.31250000 -0.31250000
v 0.60370364 0.31250000 -0.16176190
v 0.62500000 -0.31250000 -1.2576745e-17
v 0.60370364 -0.31250000 0.16176190
v 0.54126588 -0.31250000 0.31250000
v 0.44194174 -0.31250000 0.44194174
v 0.31250000 -0.31250000 0.54126588
v 0.16176190 -0.31250000 0.60370364
v -1.3771492e-17 -0.31250000 0.62500000
v -0.16176190 -0.31250000 0.60370364
v -0.31250000 -0.31250000 0.54126588
v -0.44194174 -0.31250000 0.44194174
v -0.54126588 -0.31250000 0.31250000
v -0.60370364 -0.31250000 0.16176190
v -0.62500000 -0.31250000 6.3963680e-17
v -0.60370364 -0.31250000 -0.16176190
v -0.54126588 -0.31250000 -0.31250000
v -0.44194174 -0.31250000 -0.44194174
v -0.31250000 -0.31250000 -0.54126588
v -0.16176190 -0.31250000 -0.60370364
v -1.6685234e-16 -0.31250000 -0.62500000
v 0.16176190 -0.31250000 -0.60370364
v 0.31250000 -0.31250000 -0.54126588
v 0.44194174 -0.31250000 -0.44194174
v 0.54126588 -0.31250000 -0.31250000
v 0.60370364 -0.31250000 -0.16176190
vt 1.9670505e-2 8.9340886e-2
vt 1.9670505e-2 0.21050878
vt 1.9670505e-2 8.9340886e-2
vt 1.9670505e-2 0.21050878
vt 5.1490167e-2 8.9340886e-2
vt 5.1490167e-2 0.21050878
vt 5.1490167e-2 8.9340886e-2
vt 5.1490167e-2 0.21050878
vt 8.3309828e-2 8.9340886e-2
vt 8.3309828e-2 0.21050878
vt 8.3309828e-2 8.9340886e-2
vt 8.3309828e-2 0.21050878
vt 0.11512949 8.9340886e-2
vt 0.11512949 0.21050878
vt 0.11512949 8.9340886e-2
vt 0.11512949 0.21050878
vt 0.14694915 8.9340886e-2
vt 0.14694915 0.21050878
vt 0.14694915 8.9340886e-2
vt 0.14694915 0.21050878
vt 0.17876881 0.21050878
vt 0.17876881 8.9340886e-2
vt 0.17876881 8.9340886e-2
vt 0.17876881 0.21050878
vt 0.21058847 0.21050878
vt 0.21058847 8.9340886e-2
vt 0.21058847 8.9340886e-2
vt 0.21058847 0.21050878
vt 0.24240814 0.21050878
vt 0.24240814 8.9340886e-2
vt 0.24240814 8.9340886e-2
vt 0.24240814 0.21050878
vt 0.27422780 0.21050878
vt 0.27422780 8.9340886e-2
vt 0.27422780 8.9340886e-2
vt 0.27422780 0.21050878
vt 0.30604746 0.21050878
vt 0.30604746 8.9340886e-2
vt 0.30604746 8.9340886e-2
vt 0.30604746 0.21050878
vt 0.33786712 0.21050878
vt 0.33786712 8.9340886e-2
vt 0.33786712 8.9340886e-2
vt 0.33786712 0.21050878
vt 0.36968678 0.21050878
vt 0.36968678 8.9340886e-2
vt 0.36968678 8.9340886e-2
vt 0.36968678 0.21050878
vt 0.40150644 0.21050878
vt 0.40150644 8.9340886e-2
vt 0.40150644 8.9340886e-2
vt 0.40150644 0.21050878
vn 1.00000000 0.0000000e+0 -1.2597785e-16
vn 1.00000000 0.0000000e+0 -1.2597785e-16
vn 0.96592583 0.0000000e+0 0.25881905
vn 0.96592583 0.0000000e+0 0.25881905
vn 0.86602540 0.0000000e+0 0.50000000
vn 0.86602540 0.0000000e+0 0.50000000
vn 0.70710678 0.0000000e+0 0.70710678
vn 0.70710678 0.0000000e+0 0.70710678
vn 0.50000000 0.0000000e+0 0.86602540
vn 0.50000000 0.0000000e+0 0.86602540
vn 0.25881905 0.0000000e+0 0.96592583
vn 0.25881905 0.0000000e+0 0.96592583
vn 3.0794585e-16 0.0000000e+0 1.00000000
vn 3.0794585e-16 0.0000000e+0 1.00000000
vn -0.25881905 0.0000000e+0 0.96592583
vn -0.25881905 0.0000000e+0 0.96592583
vn -0.50000000 0.0000000e+0 0.86602540
vn -0.50000000 0.0000000e+0 0.86602540
vn -0.70710678 0.0000000e+0 0.70710678
vn -0.70710678 0.0000000e+0 0.70710678
vn -0.86602540 0.0000000e+0 0.50000000
vn -0.86602540 0.0000000e+0 0.50000000
vn -0.96592583 0.0000000e+0 0.25881905
vn -0.96592583 0.0000000e+0 0.25881905
vn -1.00000000 0.0000000e+0 5.5990155e-16
vn -1.00000000 0.0000000e+0 5.5990155e-16
vn -0.96592583 0.0000000e+0 -0.25881905
vn -0.96592583 0.0000000e+0 -0.25881905
vn -0.86602540 0.0000000e+0 -0.50000000
vn -0.86602540 0.0000000e+0 -0.50000000
vn -0.70710678 0.0000000e+0 -0.70710678
vn -0.70710678 0.0000000e+0 -0.70710678
vn -0.50000000 0.0000000e+0 -0.86602540
vn -0.50000000 0.0000000e+0 -0.86602540
vn -0.25881905 0.0000000e+0 -0.96592583
vn -0.25881905 0.0000000e+0 -0.96592583
vn -4.6191878e-16 0.0000000e+0 -1.00000000
vn -4.6191878e-16 0.0000000e+0 -1.00000000
vn 0.25881905 0.0000000e+0 -0.96592583
vn 0.25881905 0.0000000e+0 -0.96592583
vn 0.50000000 0.0000000e+0 -0.86602540
vn 0.50000000 0.0000000e+0 -0.86602540
vn 0.70710678 0.0000000e+0 -0.70710678
vn 0.70710678 0.0000000e+0 -0.70710678
vn 0.86602540 0.0000000e+0 -0.50000000
vn 0.86602540 0.0000000e+0 -0.50000000
vn 0.96592583 0.0000000e+0 -0.25881905
vn 0.96592583 0.0000000e+0 -0.25881905
vn 1.00000000 0.0000000e+0 -1.2597785e-16
vn 1.00000000 0.0000000e+0 -1.2597785e-16
vn 0.96592583 0.0000000e+0 0.25881905
vn 0.96592583 0.0000000e+0 0.25881905
vn 0.86602540 0.0000000e+0 0.50000000
vn 0.86602540 0.0000000e+0 0.50000000
vn 0.70710678 0.0000000e+0 0.70710678
vn 0.70710678 0.0000000e+0 0.70710678
vn 0.50000000 0.0000000e+0 0.86602540
vn 0.50000000 0.0000000e+0 0.86602540
vn 0.25881905 0.0000000e+0 0.96592583
vn 0.25881905 0.0000000e+0 0.96592583
vn 3.0794585e-16 0.0000000e+0 1.00000000
vn 3.0794585e-16 0.0000000e+0 1.00000000
vn -0.25881905 0.0000000e+0 0.96592583
vn -0.25881905 0.0000000e+0 0.96592583
vn -0.50000000 0.0000000e+0 0.86602540
vn -0.50000000 0.0000000e+0 0.86602540
vn -0.70710678 0.0000000e+0 0.70710678
vn -0.70710678 0.0000000e+0 0.70710678
vn -0.86602540 0.0000000e+0 0.50000000
vn -0.86602540 0.0000000e+0 0.50000000
vn -0.96592583 0.0000000e+0 0.25881905
vn -0.96592583 0.0000000e+0 0.25881905
vn -1.00000000 0.0000000e+0 5.5990155e-16
vn -1.00000000 0.0000000e+0 5.5990155e-16
vn -0.96592583 0.0000000e+0 -0.25881905
vn -0.96592583 0.0000000e+0 -0.25881905
vn -0.86602540 0.0000000e+0 -0.50000000
vn -0.86602540 0.0000000e+0 -0.50000000
vn -0.70710678 0.0000000e+0 -0.70710678
vn -0.70710678 0.0000000e+0 -0.70710678
vn -0.50000000 0.0000000e+0 -0.86602540
vn -0.50000000 0.0000000e+0 -0.86602540
vn -0.25881905 0.0000000e+0 -0.96592583
vn -0.25881905 0.0000000e+0 -0.96592583
vn -4.6191878e-16 0.0000000e+0 -1.00000000
vn -4.6191878e-16 0.0000000e+0 -1.00000000
vn 0.25881905 0.0000000e+0 -0.96592583
vn 0.25881905 0.0000000e+0 -0.96592583
vn 0.50000000 0.0000000e+0 -0.86602540
vn 0.50000000 0.0000000e+0 -0.86602540
vn 0.70710678 0.0000000e+0 -0.70710678
vn 0.70710678 0.0000000e+0 -0.70710678
vn 0.86602540 0.0000000e+0 -0.50000000
vn 0.86602540 0.0000000e+0 -0.50000000
vn 0.96592583 0.0000000e+0 -0.25881905
vn 0.96592583 0.0000000e+0 -0.25881905
g mesh_mesh_auv
usemtl mesh_auv
s 2
f 1/4/1 25/1/49 48/5/95 24/8/47
f 2/45/4 26/47/52 25/51/50 1/49/2
f 3/41/6 27/43/54 26/47/51 2/45/3
f 4/37/8 28/39/56 27/43/53 3/41/5
f 5/33/10 29/35/58 28/39/55 4/37/7
f 6/29/12 30/31/60 29/35/57 5/33/9
f 7/25/14 31/27/62 30/31/59 6/29/11
f 8/21/16 32/23/64 31/27/61 7/25/13
f 9/18/18 33/19/66 32/23/63 8/21/15
f 10/14/20 34/15/68 33/19/65 9/18/17
f 11/10/22 35/11/70 34/15/67 10/14/19
f 12/6/24 36/7/72 35/11/69 11/10/21
f 13/2/26 37/3/74 36/7/71 12/6/23
f 14/48/28 38/46/76 37/50/73 13/52/25
f 15/44/30 39/42/78 38/46/75 14/48/27
f 16/40/32 40/38/80 39/42/77 15/44/29
f 17/36/34 41/34/82 40/38/79 16/40/31
f 18/32/36 42/30/84 41/34/81 17/36/33
f 19/28/38 43/26/86 42/30/83 18/32/35
f 20/24/40 44/22/88 43/26/85 19/28/37
f 21/20/42 45/17/90 44/22/87 20/24/39
f 22/16/44 46/13/92 45/17/89 21/20/41
f 23/12/46 47/9/94 46/13/91 22/16/43
f 24/8/48 48/5/96 47/9/93 23/12/45
