# Exported from Wings 3D 1.5.4
mtllib arrow_fuel_tank_s0p5_1.mtl
o mesh2
#48 vertices, 24 faces
v 0.46875000 0.31250000 -1.7817056e-17
v 0.45277773 0.31250000 0.12132143
v 0.40594941 0.31250000 0.23437500
v 0.33145630 0.31250000 0.33145630
v 0.23437500 0.31250000 0.40594941
v 0.12132143 0.31250000 0.45277773
v -4.5023088e-17 0.31250000 0.46875000
v -0.12132143 0.31250000 0.45277773
v -0.23437500 0.31250000 0.40594941
v -0.33145630 0.31250000 0.33145630
v -0.40594941 0.31250000 0.23437500
v -0.45277773 0.31250000 0.12132143
v -0.46875000 0.31250000 3.9588263e-17
v -0.45277773 0.31250000 -0.12132143
v -0.40594941 0.31250000 -0.23437500
v -0.33145630 0.31250000 -0.33145630
v -0.23437500 0.31250000 -0.40594941
v -0.12132143 0.31250000 -0.45277773
v -1.5983373e-16 0.31250000 -0.46875000
v 0.12132143 0.31250000 -0.45277773
v 0.23437500 0.31250000 -0.40594941
v 0.33145630 0.31250000 -0.33145630
v 0.40594941 0.31250000 -0.23437500
v 0.45277773 0.31250000 -0.12132143
v 0.46875000 -0.31250000 -1.7817056e-17
v 0.45277773 -0.31250000 0.12132143
v 0.40594941 -0.31250000 0.23437500
v 0.33145630 -0.31250000 0.33145630
v 0.23437500 -0.31250000 0.40594941
v 0.12132143 -0.31250000 0.45277773
v -4.5023088e-17 -0.31250000 0.46875000
v -0.12132143 -0.31250000 0.45277773
v -0.23437500 -0.31250000 0.40594941
v -0.33145630 -0.31250000 0.33145630
v -0.40594941 -0.31250000 0.23437500
v -0.45277773 -0.31250000 0.12132143
v -0.46875000 -0.31250000 3.9588263e-17
v -0.45277773 -0.31250000 -0.12132143
v -0.40594941 -0.31250000 -0.23437500
v -0.33145630 -0.31250000 -0.33145630
v -0.23437500 -0.31250000 -0.40594941
v -0.12132143 -0.31250000 -0.45277773
v -1.5983373e-16 -0.31250000 -0.46875000
v 0.12132143 -0.31250000 -0.45277773
v 0.23437500 -0.31250000 -0.40594941
v 0.33145630 -0.31250000 -0.33145630
v 0.40594941 -0.31250000 -0.23437500
v 0.45277773 -0.31250000 -0.12132143
vt 1.8750000e-2 0.59523436
vt 1.8750000e-2 0.59523436
vt 1.8750000e-2 0.71731819
vt 1.8750000e-2 0.71731819
vt 4.2602259e-2 0.59523436
vt 4.2602259e-2 0.71731819
vt 4.2602259e-2 0.59523436
vt 4.2602259e-2 0.71731819
vt 6.6454519e-2 0.59523436
vt 6.6454519e-2 0.59523436
vt 6.6454519e-2 0.71731819
vt 6.6454519e-2 0.71731819
vt 9.0306778e-2 0.59523436
vt 9.0306778e-2 0.59523436
vt 9.0306778e-2 0.71731819
vt 9.0306778e-2 0.71731819
vt 0.11415904 0.59523436
vt 0.11415904 0.59523436
vt 0.11415904 0.71731819
vt 0.11415904 0.71731819
vt 0.13801130 0.59523436
vt 0.13801130 0.59523436
vt 0.13801130 0.71731819
vt 0.13801130 0.71731819
vt 0.16186356 0.59523436
vt 0.16186356 0.59523436
vt 0.16186356 0.71731819
vt 0.16186356 0.71731819
vt 0.18571582 0.59523436
vt 0.18571582 0.59523436
vt 0.18571582 0.71731819
vt 0.18571582 0.71731819
vt 0.20956808 0.59523436
vt 0.20956808 0.59523436
vt 0.20956808 0.71731819
vt 0.20956808 0.71731819
vt 0.23342034 0.59523436
vt 0.23342034 0.59523436
vt 0.23342034 0.71731819
vt 0.23342034 0.71731819
vt 0.25727259 0.59523436
vt 0.25727259 0.59523436
vt 0.25727259 0.71731819
vt 0.25727259 0.71731819
vt 0.28112485 0.59523436
vt 0.28112485 0.59523436
vt 0.28112485 0.71731819
vt 0.28112485 0.71731819
vt 0.30497711 0.59523436
vt 0.30497711 0.59523436
vt 0.30497711 0.71731819
vt 0.30497711 0.71731819
vn 1.00000000 0.0000000e+0 -2.6595324e-16
vn 1.00000000 0.0000000e+0 -2.6595324e-16
vn 0.96592583 0.0000000e+0 0.25881905
vn 0.96592583 0.0000000e+0 0.25881905
vn 0.86602540 0.0000000e+0 0.50000000
vn 0.86602540 0.0000000e+0 0.50000000
vn 0.70710678 0.0000000e+0 0.70710678
vn 0.70710678 0.0000000e+0 0.70710678
vn 0.50000000 0.0000000e+0 0.86602540
vn 0.50000000 0.0000000e+0 0.86602540
vn 0.25881905 0.0000000e+0 0.96592583
vn 0.25881905 0.0000000e+0 0.96592583
vn 1.8196800e-16 0.0000000e+0 1.00000000
vn 1.8196800e-16 0.0000000e+0 1.00000000
vn -0.25881905 0.0000000e+0 0.96592583
vn -0.25881905 0.0000000e+0 0.96592583
vn -0.50000000 0.0000000e+0 0.86602540
vn -0.50000000 0.0000000e+0 0.86602540
vn -0.70710678 0.0000000e+0 0.70710678
vn -0.70710678 0.0000000e+0 0.70710678
vn -0.86602540 0.0000000e+0 0.50000000
vn -0.86602540 0.0000000e+0 0.50000000
vn -0.96592583 0.0000000e+0 0.25881905
vn -0.96592583 0.0000000e+0 0.25881905
vn -1.00000000 0.0000000e+0 3.4993847e-16
vn -1.00000000 0.0000000e+0 3.4993847e-16
vn -0.96592583 0.0000000e+0 -0.25881905
vn -0.96592583 0.0000000e+0 -0.25881905
vn -0.86602540 0.0000000e+0 -0.50000000
vn -0.86602540 0.0000000e+0 -0.50000000
vn -0.70710678 0.0000000e+0 -0.70710678
vn -0.70710678 0.0000000e+0 -0.70710678
vn -0.50000000 0.0000000e+0 -0.86602540
vn -0.50000000 0.0000000e+0 -0.86602540
vn -0.25881905 0.0000000e+0 -0.96592583
vn -0.25881905 0.0000000e+0 -0.96592583
vn -4.7591632e-16 0.0000000e+0 -1.00000000
vn -4.7591632e-16 0.0000000e+0 -1.00000000
vn 0.25881905 0.0000000e+0 -0.96592583
vn 0.25881905 0.0000000e+0 -0.96592583
vn 0.50000000 0.0000000e+0 -0.86602540
vn 0.50000000 0.0000000e+0 -0.86602540
vn 0.70710678 0.0000000e+0 -0.70710678
vn 0.70710678 0.0000000e+0 -0.70710678
vn 0.86602540 0.0000000e+0 -0.50000000
vn 0.86602540 0.0000000e+0 -0.50000000
vn 0.96592583 0.0000000e+0 -0.25881905
vn 0.96592583 0.0000000e+0 -0.25881905
vn 1.00000000 0.0000000e+0 -2.6595324e-16
vn 1.00000000 0.0000000e+0 -2.6595324e-16
vn 0.96592583 0.0000000e+0 0.25881905
vn 0.96592583 0.0000000e+0 0.25881905
vn 0.86602540 0.0000000e+0 0.50000000
vn 0.86602540 0.0000000e+0 0.50000000
vn 0.70710678 0.0000000e+0 0.70710678
vn 0.70710678 0.0000000e+0 0.70710678
vn 0.50000000 0.0000000e+0 0.86602540
vn 0.50000000 0.0000000e+0 0.86602540
vn 0.25881905 0.0000000e+0 0.96592583
vn 0.25881905 0.0000000e+0 0.96592583
vn 1.8196800e-16 0.0000000e+0 1.00000000
vn 1.8196800e-16 0.0000000e+0 1.00000000
vn -0.25881905 0.0000000e+0 0.96592583
vn -0.25881905 0.0000000e+0 0.96592583
vn -0.50000000 0.0000000e+0 0.86602540
vn -0.50000000 0.0000000e+0 0.86602540
vn -0.70710678 0.0000000e+0 0.70710678
vn -0.70710678 0.0000000e+0 0.70710678
vn -0.86602540 0.0000000e+0 0.50000000
vn -0.86602540 0.0000000e+0 0.50000000
vn -0.96592583 0.0000000e+0 0.25881905
vn -0.96592583 0.0000000e+0 0.25881905
vn -1.00000000 0.0000000e+0 3.4993847e-16
vn -1.00000000 0.0000000e+0 3.4993847e-16
vn -0.96592583 0.0000000e+0 -0.25881905
vn -0.96592583 0.0000000e+0 -0.25881905
vn -0.86602540 0.0000000e+0 -0.50000000
vn -0.86602540 0.0000000e+0 -0.50000000
vn -0.70710678 0.0000000e+0 -0.70710678
vn -0.70710678 0.0000000e+0 -0.70710678
vn -0.50000000 0.0000000e+0 -0.86602540
vn -0.50000000 0.0000000e+0 -0.86602540
vn -0.25881905 0.0000000e+0 -0.96592583
vn -0.25881905 0.0000000e+0 -0.96592583
vn -4.7591632e-16 0.0000000e+0 -1.00000000
vn -4.7591632e-16 0.0000000e+0 -1.00000000
vn 0.25881905 0.0000000e+0 -0.96592583
vn 0.25881905 0.0000000e+0 -0.96592583
vn 0.50000000 0.0000000e+0 -0.86602540
vn 0.50000000 0.0000000e+0 -0.86602540
vn 0.70710678 0.0000000e+0 -0.70710678
vn 0.70710678 0.0000000e+0 -0.70710678
vn 0.86602540 0.0000000e+0 -0.50000000
vn 0.86602540 0.0000000e+0 -0.50000000
vn 0.96592583 0.0000000e+0 -0.25881905
vn 0.96592583 0.0000000e+0 -0.25881905
g mesh2_mesh2_auv
usemtl mesh2_auv
s 2
f 1/4/1 25/1/49 48/5/95 24/8/47
f 2/47/4 26/46/52 25/50/50 1/51/2
f 3/43/6 27/42/54 26/46/51 2/47/3
f 4/39/8 28/38/56 27/42/53 3/43/5
f 5/35/10 29/34/58 28/38/55 4/39/7
f 6/31/12 30/30/60 29/34/57 5/35/9
f 7/27/14 31/26/62 30/30/59 6/31/11
f 8/23/16 32/22/64 31/26/61 7/27/13
f 9/19/18 33/18/66 32/22/63 8/23/15
f 10/15/20 34/14/68 33/18/65 9/19/17
f 11/11/22 35/10/70 34/14/67 10/15/19
f 12/6/24 36/7/72 35/10/69 11/11/21
f 13/3/26 37/2/74 36/7/71 12/6/23
f 14/48/28 38/45/76 37/49/73 13/52/25
f 15/44/30 39/41/78 38/45/75 14/48/27
f 16/40/32 40/37/80 39/41/77 15/44/29
f 17/36/34 41/33/82 40/37/79 16/40/31
f 18/32/36 42/29/84 41/33/81 17/36/33
f 19/28/38 43/25/86 42/29/83 18/32/35
f 20/24/40 44/21/88 43/25/85 19/28/37
f 21/20/42 45/17/90 44/21/87 20/24/39
f 22/16/44 46/13/92 45/17/89 21/20/41
f 23/12/46 47/9/94 46/13/91 22/16/43
f 24/8/48 48/5/96 47/9/93 23/12/45
