# Exported from Wings 3D 1.5.4
mtllib blue_steel_landing_skid_srf_2_skid.mtl
o mesh1
#82 vertices, 80 faces
v 1.2500000e-2 2.1650635e-2 -0.25000000
v 8.8388348e-3 2.1650635e-2 -0.24116117
v -1.3877788e-17 2.1650635e-2 -0.23750000
v -8.8388348e-3 2.1650635e-2 -0.24116117
v -1.2500000e-2 2.1650635e-2 -0.25000000
v -8.8388348e-3 2.1650635e-2 -0.25883883
v 6.9388939e-18 2.1650635e-2 -0.26250000
v 8.8388348e-3 2.1650635e-2 -0.25883883
v 2.1650635e-2 1.2500000e-2 -0.25000000
v 1.5309311e-2 1.2500000e-2 -0.23469069
v -2.0816682e-17 1.2500000e-2 -0.22834936
v -1.5309311e-2 1.2500000e-2 -0.23469069
v -2.1650635e-2 1.2500000e-2 -0.25000000
v -1.5309311e-2 1.2500000e-2 -0.26530931
v 1.3877788e-17 1.2500000e-2 -0.27165064
v 1.5309311e-2 1.2500000e-2 -0.26530931
v 2.5000000e-2 -5.5511151e-17 -0.25000000
v 1.7677670e-2 -5.5511151e-17 -0.23232233
v -2.4286129e-17 -5.5511151e-17 -0.22500000
v -1.7677670e-2 -5.5511151e-17 -0.23232233
v -2.5000000e-2 -5.5511151e-17 -0.25000000
v -1.7677670e-2 -5.5511151e-17 -0.26767767
v 1.7347235e-17 -5.5511151e-17 -0.27500000
v 1.7677670e-2 -5.5511151e-17 -0.26767767
v 0.0000000e+0 2.5000000e-2 -0.25000000
v -1.2500000e-2 2.1650635e-2 0.25000000
v -8.8388348e-3 2.1650635e-2 0.24116117
v 1.3877788e-17 2.1650635e-2 0.23750000
v 8.8388348e-3 2.1650635e-2 0.24116117
v 1.2500000e-2 2.1650635e-2 0.25000000
v 8.8388348e-3 2.1650635e-2 0.25883883
v -6.9388939e-18 2.1650635e-2 0.26250000
v -8.8388348e-3 2.1650635e-2 0.25883883
v -2.1650635e-2 1.2500000e-2 0.25000000
v -1.5309311e-2 1.2500000e-2 0.23469069
v 2.0816682e-17 1.2500000e-2 0.22834936
v 1.5309311e-2 1.2500000e-2 0.23469069
v 2.1650635e-2 1.2500000e-2 0.25000000
v 1.5309311e-2 1.2500000e-2 0.26530931
v -1.3877788e-17 1.2500000e-2 0.27165064
v -1.5309311e-2 1.2500000e-2 0.26530931
v -2.5000000e-2 -5.5511151e-17 0.25000000
v -1.7677670e-2 -5.5511151e-17 0.23232233
v 2.4286129e-17 -5.5511151e-17 0.22500000
v 1.7677670e-2 -5.5511151e-17 0.23232233
v 2.5000000e-2 -5.5511151e-17 0.25000000
v 1.7677670e-2 -5.5511151e-17 0.26767767
v -1.7347235e-17 -5.5511151e-17 0.27500000
v -1.7677670e-2 -5.5511151e-17 0.26767767
v 0.0000000e+0 2.5000000e-2 0.25000000
v -7.5000000e-2 -2.5000000e-2 0.0000000e+0
v -7.5000000e-2 -2.5000000e-2 -0.41250000
v 7.5000000e-2 -2.5000000e-2 -0.41250000
v 7.5000000e-2 -2.5000000e-2 0.0000000e+0
v -7.5000000e-2 0.0000000e+0 0.0000000e+0
v 7.5000000e-2 0.0000000e+0 0.0000000e+0
v 7.5000000e-2 0.0000000e+0 -0.41250000
v -7.5000000e-2 0.0000000e+0 -0.41250000
v -7.5000000e-2 3.9623412e-3 -0.42103766
v 7.5000000e-2 3.9623412e-3 -0.42103766
v 7.5000000e-2 -1.9975953e-2 -0.43125000
v -7.5000000e-2 -1.9975953e-2 -0.43125000
v 7.5000000e-2 -6.2500000e-3 -0.44497595
v -7.5000000e-2 -6.2500000e-3 -0.44497595
v -7.5000000e-2 1.2500000e-2 -0.42500000
v 7.5000000e-2 1.2500000e-2 -0.42500000
v 7.5000000e-2 1.2500000e-2 -0.45000000
v -7.5000000e-2 1.2500000e-2 -0.45000000
v -7.5000000e-2 -2.5000000e-2 0.41250000
v 7.5000000e-2 -2.5000000e-2 0.41250000
v 7.5000000e-2 0.0000000e+0 0.41250000
v -7.5000000e-2 0.0000000e+0 0.41250000
v -7.5000000e-2 3.9623412e-3 0.42103766
v 7.5000000e-2 3.9623412e-3 0.42103766
v 7.5000000e-2 -1.9975953e-2 0.43125000
v -7.5000000e-2 -1.9975953e-2 0.43125000
v 7.5000000e-2 -6.2500000e-3 0.44497595
v -7.5000000e-2 -6.2500000e-3 0.44497595
v -7.5000000e-2 1.2500000e-2 0.42500000
v 7.5000000e-2 1.2500000e-2 0.42500000
v 7.5000000e-2 1.2500000e-2 0.45000000
v -7.5000000e-2 1.2500000e-2 0.45000000
vt 0.22034961 5.3507280e-2
vt 0.22038368 5.3406243e-2
vt 0.22213217 4.6192727e-2
vt 0.22218342 4.6084196e-2
vt 0.22733558 4.0747204e-2
vt 0.22740464 4.0641936e-2
vt 0.23004170 5.3288319e-2
vt 0.23009139 5.3204849e-2
vt 0.23150222 4.9944119e-2
vt 0.23156076 4.9857810e-2
vt 0.23456927 3.7500000e-2
vt 0.23465055 3.7500000e-2
vt 0.23477731 4.7195440e-2
vt 0.23484320 4.7195563e-2
vt 0.33241426 0.36556879
vt 0.33371336 0.36556879
vt 0.33525433 0.35871226
vt 0.33525433 0.35871226
vt 0.33525433 0.37242532
vt 0.33617293 0.35963086
vt 0.33617293 0.35963086
vt 0.33617293 0.37150672
vt 0.33726256 0.36556879
vt 0.33868260 0.36214053
vt 0.33868260 0.36214053
vt 0.33868260 0.36899706
vt 0.34211086 0.35587219
vt 0.34211086 0.35587219
vt 0.34211086 0.35717129
vt 0.34211086 0.35717129
vt 0.34211086 0.36072049
vt 0.34211086 0.36072049
vt 0.34211086 0.36556879
vt 0.34211086 0.37041709
vt 0.34211086 0.37396629
vt 0.34211086 0.37526539
vt 0.34553913 0.36214053
vt 0.34553913 0.36214053
vt 0.34553913 0.36899706
vt 0.34695916 0.36556879
vt 0.34804879 0.35963086
vt 0.34804879 0.37150672
vt 0.34896739 0.35871226
vt 0.34896739 0.35871226
vt 0.34896739 0.37242532
vt 0.35050836 0.36556879
vt 0.35180746 0.36556879
vt 0.39465474 4.7195440e-2
vt 0.39465507 3.7500000e-2
vt 0.39488267 4.7195563e-2
vt 0.39488346 3.7500000e-2
vt 0.55451863 4.7195440e-2
vt 0.55460449 4.7195563e-2
vt 0.55472709 3.7500000e-2
vt 0.55479898 3.7500000e-2
vt 0.55779406 4.9949376e-2
vt 0.55787674 4.9866583e-2
vt 0.55925778 5.3294558e-2
vt 0.55934187 5.3204899e-2
vt 0.56195555 4.0754472e-2
vt 0.56202207 4.0678032e-2
vt 0.56716348 4.6192701e-2
vt 0.56722842 4.6104260e-2
vt 0.56895304 5.3507280e-2
vt 0.56902313 5.3406243e-2
vt 0.59733825 0.15370870
vt 0.59733825 0.21188830
vt 0.60486725 0.21188830
vt 0.60486725 0.15370870
vt 0.60851622 3.7500000e-2
vt 0.60851622 9.5679597e-2
vt 0.61239624 0.21188830
vt 0.61239624 0.15370870
vt 0.61821282 3.7500000e-2
vt 0.61821282 9.5679597e-2
vt 0.61992524 0.21188830
vt 0.61992524 0.15370870
vt 0.62186352 3.7500000e-2
vt 0.62186352 9.5679597e-2
vt 0.62551422 3.7500000e-2
vt 0.62551422 9.5679597e-2
vt 0.77991913 0.15370870
vt 0.77991913 0.21188830
vt 0.78550811 3.7500000e-2
vt 0.78550811 9.5679597e-2
vt 0.93991302 0.21188830
vt 0.93991302 0.15370870
vt 0.94550200 3.7500000e-2
vt 0.94550200 9.5679597e-2
vt 0.94744201 0.21188830
vt 0.94744201 0.15370870
vt 0.94915270 3.7500000e-2
vt 0.94915270 9.5679597e-2
vt 0.95280340 3.7500000e-2
vt 0.95280340 9.5679597e-2
vt 0.95497101 0.15370870
vt 0.95497101 0.21188830
vt 0.96250000 3.7500000e-2
vt 0.96250000 9.5679597e-2
vt 0.96250000 0.15370870
vt 0.96250000 0.21188830
vn 0.49588308 0.86838930 5.7351509e-16
vn 0.35064229 0.86838930 0.35064229
vn -2.4999376e-16 0.86838930 0.49588308
vn -0.35064229 0.86838930 0.35064229
vn -0.49588308 0.86838930 -7.6468679e-16
vn -0.35064229 0.86838930 -0.35064229
vn 4.7057648e-16 0.86838930 -0.49588308
vn 0.35064229 0.86838930 -0.35064229
vn 0.86380037 0.50383422 5.4786469e-16
vn 0.61079910 0.50383422 0.61079910
vn -6.8483086e-16 0.50383422 0.86380037
vn -0.61079910 0.50383422 0.61079910
vn -0.86380037 0.50383422 -1.1109478e-15
vn -0.61079910 0.50383422 -0.61079910
vn 1.2326955e-15 0.50383422 -0.86380037
vn 0.61079910 0.50383422 -0.61079910
vn 0.96592583 0.25881905 4.7831514e-16
vn 0.68301270 0.25881905 0.68301270
vn -8.3705150e-16 0.25881905 0.96592583
vn -0.68301270 0.25881905 0.68301270
vn -0.96592583 0.25881905 -1.0164197e-15
vn -0.68301270 0.25881905 -0.68301270
vn 1.4947348e-15 0.25881905 -0.96592583
vn 0.68301270 0.25881905 -0.68301270
vn 0.0000000e+0 1.00000000 2.0048918e-16
vn -0.49588308 0.86838930 -5.7351509e-16
vn -0.35064229 0.86838930 -0.35064229
vn 2.4999376e-16 0.86838930 -0.49588308
vn 0.35064229 0.86838930 -0.35064229
vn 0.49588308 0.86838930 7.6468679e-16
vn 0.35064229 0.86838930 0.35064229
vn -4.7057648e-16 0.86838930 0.49588308
vn -0.35064229 0.86838930 0.35064229
vn -0.86380037 0.50383422 -5.4786469e-16
vn -0.61079910 0.50383422 -0.61079910
vn 6.8483086e-16 0.50383422 -0.86380037
vn 0.61079910 0.50383422 -0.61079910
vn 0.86380037 0.50383422 1.1109478e-15
vn 0.61079910 0.50383422 0.61079910
vn -1.2326955e-15 0.50383422 0.86380037
vn -0.61079910 0.50383422 0.61079910
vn -0.96592583 0.25881905 -4.7831514e-16
vn -0.68301270 0.25881905 -0.68301270
vn 8.3705150e-16 0.25881905 -0.96592583
vn 0.68301270 0.25881905 -0.68301270
vn 0.96592583 0.25881905 1.0164197e-15
vn 0.68301270 0.25881905 0.68301270
vn -1.4947348e-15 0.25881905 0.96592583
vn -0.68301270 0.25881905 0.68301270
vn 0.0000000e+0 1.00000000 -2.0048918e-16
vn 0.0000000e+0 -1.00000000 0.0000000e+0
vn -1.00000000 0.0000000e+0 0.0000000e+0
vn 0.0000000e+0 -1.00000000 0.0000000e+0
vn -1.00000000 0.0000000e+0 0.0000000e+0
vn 0.0000000e+0 -0.99144486 -0.13052619
vn -1.00000000 0.0000000e+0 6.7286244e-17
vn 0.0000000e+0 -0.99144486 -0.13052619
vn -1.00000000 0.0000000e+0 6.7286244e-17
vn 0.0000000e+0 -0.99144486 -0.13052619
vn 1.00000000 0.0000000e+0 -5.0464683e-17
vn 1.00000000 0.0000000e+0 -5.0464683e-17
vn 0.0000000e+0 -0.99144486 -0.13052619
vn 0.0000000e+0 -1.00000000 0.0000000e+0
vn 1.00000000 0.0000000e+0 0.0000000e+0
vn 0.0000000e+0 -1.00000000 0.0000000e+0
vn 1.00000000 0.0000000e+0 0.0000000e+0
vn 0.0000000e+0 1.00000000 0.0000000e+0
vn -1.00000000 0.0000000e+0 0.0000000e+0
vn 0.0000000e+0 1.00000000 0.0000000e+0
vn -1.00000000 0.0000000e+0 0.0000000e+0
vn 0.0000000e+0 1.00000000 0.0000000e+0
vn 1.00000000 0.0000000e+0 0.0000000e+0
vn 0.0000000e+0 1.00000000 0.0000000e+0
vn 1.00000000 0.0000000e+0 0.0000000e+0
vn 0.0000000e+0 0.97649187 0.21555424
vn 1.00000000 0.0000000e+0 -5.0464683e-17
vn 0.0000000e+0 0.97649187 0.21555424
vn 1.00000000 0.0000000e+0 -5.0464683e-17
vn 0.0000000e+0 0.97649187 0.21555424
vn -1.00000000 0.0000000e+0 6.7286244e-17
vn 0.0000000e+0 0.97649187 0.21555424
vn -1.00000000 0.0000000e+0 6.7286244e-17
vn 0.0000000e+0 0.70710678 0.70710678
vn -1.00000000 -1.5419764e-16 0.0000000e+0
vn -1.00000000 -1.5419764e-16 0.0000000e+0
vn 0.0000000e+0 0.70710678 0.70710678
vn -1.00000000 -1.5419764e-16 0.0000000e+0
vn 0.0000000e+0 0.70710678 0.70710678
vn 1.00000000 0.0000000e+0 0.0000000e+0
vn 1.00000000 0.0000000e+0 0.0000000e+0
vn 0.0000000e+0 0.70710678 0.70710678
vn 1.00000000 0.0000000e+0 0.0000000e+0
vn 1.00000000 0.0000000e+0 0.0000000e+0
vn 0.0000000e+0 -0.86602540 -0.50000000
vn 1.00000000 0.0000000e+0 0.0000000e+0
vn 0.0000000e+0 -0.86602540 -0.50000000
vn 0.0000000e+0 -0.86602540 -0.50000000
vn -1.00000000 -2.3129646e-16 0.0000000e+0
vn 0.0000000e+0 -0.86602540 -0.50000000
vn -1.00000000 -2.3129646e-16 0.0000000e+0
vn 1.00000000 0.0000000e+0 0.0000000e+0
vn 0.0000000e+0 -0.50000000 -0.86602540
vn 1.00000000 0.0000000e+0 0.0000000e+0
vn 0.0000000e+0 -0.50000000 -0.86602540
vn 0.0000000e+0 -0.50000000 -0.86602540
vn -1.00000000 -2.3129646e-16 0.0000000e+0
vn 0.0000000e+0 -0.50000000 -0.86602540
vn -1.00000000 -2.3129646e-16 0.0000000e+0
vn 0.0000000e+0 1.00000000 2.2204460e-15
vn 0.0000000e+0 0.42097392 0.90707274
vn -1.00000000 0.0000000e+0 0.0000000e+0
vn 0.0000000e+0 1.00000000 2.2204460e-15
vn 0.0000000e+0 0.42097392 0.90707274
vn 1.00000000 0.0000000e+0 0.0000000e+0
vn 0.0000000e+0 1.00000000 2.2204460e-15
vn 1.00000000 0.0000000e+0 0.0000000e+0
vn 0.0000000e+0 -0.25881905 -0.96592583
vn 0.0000000e+0 1.00000000 2.2204460e-15
vn 0.0000000e+0 -0.25881905 -0.96592583
vn -1.00000000 0.0000000e+0 0.0000000e+0
vn 0.0000000e+0 -0.99144486 0.13052619
vn -1.00000000 0.0000000e+0 -6.7286244e-17
vn 0.0000000e+0 -0.99144486 0.13052619
vn -1.00000000 0.0000000e+0 -6.7286244e-17
vn 0.0000000e+0 -0.99144486 0.13052619
vn 1.00000000 0.0000000e+0 5.0464683e-17
vn 1.00000000 0.0000000e+0 5.0464683e-17
vn 0.0000000e+0 -0.99144486 0.13052619
vn 0.0000000e+0 0.97649187 -0.21555424
vn 1.00000000 0.0000000e+0 5.0464683e-17
vn 0.0000000e+0 0.97649187 -0.21555424
vn 1.00000000 0.0000000e+0 5.0464683e-17
vn 0.0000000e+0 0.97649187 -0.21555424
vn -1.00000000 0.0000000e+0 -6.7286244e-17
vn 0.0000000e+0 0.97649187 -0.21555424
vn -1.00000000 0.0000000e+0 -6.7286244e-17
vn 0.0000000e+0 0.70710678 -0.70710678
vn -1.00000000 -1.5419764e-16 0.0000000e+0
vn -1.00000000 -1.5419764e-16 0.0000000e+0
vn 0.0000000e+0 0.70710678 -0.70710678
vn -1.00000000 -1.5419764e-16 0.0000000e+0
vn 0.0000000e+0 0.70710678 -0.70710678
vn 1.00000000 0.0000000e+0 0.0000000e+0
vn 1.00000000 0.0000000e+0 0.0000000e+0
vn 0.0000000e+0 0.70710678 -0.70710678
vn 1.00000000 0.0000000e+0 0.0000000e+0
vn 1.00000000 0.0000000e+0 0.0000000e+0
vn 0.0000000e+0 -0.86602540 0.50000000
vn 1.00000000 0.0000000e+0 0.0000000e+0
vn 0.0000000e+0 -0.86602540 0.50000000
vn 0.0000000e+0 -0.86602540 0.50000000
vn -1.00000000 -2.3129646e-16 0.0000000e+0
vn 0.0000000e+0 -0.86602540 0.50000000
vn -1.00000000 -2.3129646e-16 0.0000000e+0
vn 1.00000000 0.0000000e+0 0.0000000e+0
vn 0.0000000e+0 -0.50000000 0.86602540
vn 1.00000000 0.0000000e+0 0.0000000e+0
vn 0.0000000e+0 -0.50000000 0.86602540
vn 0.0000000e+0 -0.50000000 0.86602540
vn -1.00000000 -2.3129646e-16 0.0000000e+0
vn 0.0000000e+0 -0.50000000 0.86602540
vn -1.00000000 -2.3129646e-16 0.0000000e+0
vn 0.0000000e+0 1.00000000 -2.2204460e-15
vn 0.0000000e+0 0.42097392 -0.90707274
vn -1.00000000 0.0000000e+0 0.0000000e+0
vn 0.0000000e+0 1.00000000 -2.2204460e-15
vn 0.0000000e+0 0.42097392 -0.90707274
vn 1.00000000 0.0000000e+0 0.0000000e+0
vn 0.0000000e+0 1.00000000 -2.2204460e-15
vn 1.00000000 0.0000000e+0 0.0000000e+0
vn 0.0000000e+0 -0.25881905 0.96592583
vn 0.0000000e+0 1.00000000 -2.2204460e-15
vn 0.0000000e+0 -0.25881905 0.96592583
vn -1.00000000 0.0000000e+0 0.0000000e+0
g mesh1_mesh1_auv
usemtl mesh1_auv
s 1
f 1/40/1 9/46/9 16/42/16 8/39/8
f 1/40/1 25/33/25 2/37/2
f 2/37/2 10/41/10 9/46/9 1/40/1
f 2/37/2 25/33/25 3/31/3
f 3/31/3 11/29/11 10/41/10 2/37/2
f 3/31/3 25/33/25 4/24/4
f 4/24/4 12/20/12 11/29/11 3/31/3
f 4/24/4 25/33/25 5/23/5
f 5/23/5 13/16/13 12/20/12 4/24/4
f 5/23/5 25/33/25 6/26/6
f 6/26/6 14/22/14 13/16/13 5/23/5
f 6/26/6 25/33/25 7/34/7
f 7/34/7 15/35/15 14/22/14 6/26/6
f 7/34/7 25/33/25 8/39/8
f 8/39/8 16/42/16 15/35/15 7/34/7
f 8/39/8 25/33/25 1/40/1
f 9/46/9 17/47/17 24/45/24 16/42/16
f 10/41/10 18/43/18 17/47/17 9/46/9
f 11/29/11 19/27/19 18/43/18 10/41/10
f 12/20/12 20/17/20 19/27/19 11/29/11
f 13/16/13 21/15/21 20/17/20 12/20/12
f 14/22/14 22/19/22 21/15/21 13/16/13
f 15/35/15 23/36/23 22/19/22 14/22/14
f 16/42/16 24/45/24 23/36/23 15/35/15
f 26/23/26 34/16/34 41/21/41 33/25/33
f 26/23/26 50/33/50 27/26/27
f 27/26/27 35/22/35 34/16/34 26/23/26
f 27/26/27 50/33/50 28/34/28
f 28/34/28 36/35/36 35/22/35 27/26/27
f 28/34/28 50/33/50 29/39/29
f 29/39/29 37/42/37 36/35/36 28/34/28
f 29/39/29 50/33/50 30/40/30
f 30/40/30 38/46/38 37/42/37 29/39/29
f 30/40/30 50/33/50 31/38/31
f 31/38/31 39/41/39 38/46/38 30/40/30
f 31/38/31 50/33/50 32/32/32
f 32/32/32 40/30/40 39/41/39 31/38/31
f 32/32/32 50/33/50 33/25/33
f 33/25/33 41/21/41 40/30/40 32/32/32
f 33/25/33 50/33/50 26/23/26
f 34/16/34 42/15/42 49/18/49 41/21/41
f 35/22/35 43/19/43 42/15/42 34/16/34
f 36/35/36 44/36/44 43/19/43 35/22/35
f 37/42/37 45/45/45 44/36/44 36/35/36
f 38/46/38 46/47/46 45/45/45 37/42/37
f 39/41/39 47/44/47 46/47/46 38/46/38
f 40/30/40 48/28/48 47/44/47 39/41/39
f 41/21/41 49/18/49 48/28/48 40/30/40
f 66/94/112 67/98/115 68/99/118 65/95/109
f 79/75/163 82/71/172 81/70/169 80/74/166
s 2
f 52/87/57 62/91/97 61/90/94 53/86/62
f 53/86/59 54/83/63 51/82/51 52/87/55
f 54/83/65 70/76/125 69/77/121 51/82/53
f 55/85/69 72/81/133 71/80/129 56/84/73
f 56/84/71 57/88/75 58/89/79 55/85/67
f 57/88/77 60/92/88 59/93/83 58/89/81
f 60/92/91 66/94/113 65/95/110 59/93/86
f 62/91/99 64/96/105 63/97/102 61/90/96
f 64/96/107 68/100/119 67/101/117 63/97/104
f 70/76/128 75/72/148 76/73/151 69/77/123
f 72/81/135 73/79/137 74/78/142 71/80/131
f 73/79/140 79/75/164 80/74/167 74/78/145
f 75/72/150 77/68/156 78/69/159 76/73/153
f 77/68/158 81/67/171 82/66/173 78/69/161
s 3
f 51/49/52 55/48/68 58/13/80 52/11/56
f 51/49/54 69/54/122 72/52/134 55/48/70
f 53/55/60 57/53/76 56/50/72 54/51/64
f 53/55/61 61/61/93 60/57/89 57/53/78
f 56/50/74 71/14/130 70/12/126 54/51/66
f 58/13/82 59/9/84 62/5/98 52/11/58
f 59/9/85 64/3/106 62/5/100
f 59/9/87 65/7/111 68/1/120 64/3/108
f 61/61/95 63/63/101 60/57/90
f 63/63/103 67/65/116 66/59/114 60/57/92
f 69/54/124 76/60/152 73/56/138 72/52/136
f 71/14/132 74/10/143 75/6/147 70/12/127
f 74/10/144 77/4/155 75/6/149
f 74/10/146 80/8/168 81/2/170 77/4/157
f 76/60/154 78/62/160 73/56/139
f 78/62/162 82/64/174 79/58/165 73/56/141
