# Exported from Wings 3D 1.5.4
mtllib black_anvil_hemisphere_fuel_tank_s1_1_collider.mtl
o collider
#37 vertices, 37 faces
v 0.31250000 0.22876588 -8.3734123e-2
v 0.31250000 0.22876588 8.3734123e-2
v 0.22876588 0.22876588 0.22876588
v 8.3734123e-2 0.22876588 0.31250000
v -8.3734123e-2 0.22876588 0.31250000
v -0.22876588 0.22876588 0.22876588
v -0.31250000 0.22876588 8.3734123e-2
v -0.31250000 0.22876588 -8.3734123e-2
v -0.22876588 0.22876588 -0.22876588
v -8.3734123e-2 0.22876588 -0.31250000
v 8.3734123e-2 0.22876588 -0.31250000
v 0.22876588 0.22876588 -0.22876588
v 0.54126588 0.0000000e+0 -0.14503175
v 0.54126588 0.0000000e+0 0.14503175
v 0.39623412 0.0000000e+0 0.39623412
v 0.14503175 0.0000000e+0 0.54126588
v -0.14503175 0.0000000e+0 0.54126588
v -0.39623412 0.0000000e+0 0.39623412
v -0.54126588 0.0000000e+0 0.14503175
v -0.54126588 0.0000000e+0 -0.14503175
v -0.39623412 0.0000000e+0 -0.39623412
v -0.14503175 0.0000000e+0 -0.54126588
v 0.14503175 0.0000000e+0 -0.54126588
v 0.39623412 0.0000000e+0 -0.39623412
v 0.62500000 -0.31250000 -0.16746825
v 0.62500000 -0.31250000 0.16746825
v 0.45753175 -0.31250000 0.45753175
v 0.16746825 -0.31250000 0.62500000
v -0.16746825 -0.31250000 0.62500000
v -0.45753175 -0.31250000 0.45753175
v -0.62500000 -0.31250000 0.16746825
v -0.62500000 -0.31250000 -0.16746825
v -0.45753175 -0.31250000 -0.45753175
v -0.16746825 -0.31250000 -0.62500000
v 0.16746825 -0.31250000 -0.62500000
v 0.45753175 -0.31250000 -0.45753175
v -3.0984651e-17 0.31250000 -1.6078455e-17
vn 0.25881904 0.96592583 0.0000000e+0
vn 0.70710678 0.70710678 0.0000000e+0
vn 0.61237244 0.70710677 -0.35355340
vn 0.22414386 0.96592583 -0.12940951
vn 0.25881904 0.96592583 0.0000000e+0
vn 0.61237244 0.70710677 0.35355340
vn 0.70710678 0.70710678 0.0000000e+0
vn 0.22414386 0.96592583 0.12940951
vn 0.61237244 0.70710677 0.35355340
vn 0.12940951 0.96592583 0.22414386
vn 0.22414386 0.96592583 0.12940951
vn 0.35355340 0.70710677 0.61237244
vn 0.12940951 0.96592583 0.22414386
vn 0.35355340 0.70710677 0.61237244
vn 0.0000000e+0 0.96592583 0.25881904
vn 0.0000000e+0 0.70710678 0.70710678
vn -0.35355340 0.70710677 0.61237244
vn -0.12940951 0.96592583 0.22414386
vn 0.0000000e+0 0.96592583 0.25881904
vn 0.0000000e+0 0.70710678 0.70710678
vn -0.35355340 0.70710677 0.61237244
vn -0.22414386 0.96592583 0.12940951
vn -0.12940951 0.96592583 0.22414386
vn -0.61237244 0.70710677 0.35355340
vn -0.22414386 0.96592583 0.12940951
vn -0.61237244 0.70710677 0.35355340
vn -0.25881904 0.96592583 0.0000000e+0
vn -0.70710678 0.70710678 0.0000000e+0
vn -0.61237244 0.70710677 -0.35355340
vn -0.25881904 0.96592583 0.0000000e+0
vn -0.70710678 0.70710678 0.0000000e+0
vn -0.22414386 0.96592583 -0.12940951
vn -0.61237244 0.70710677 -0.35355340
vn -0.35355340 0.70710677 -0.61237244
vn -0.22414386 0.96592583 -0.12940951
vn -0.12940951 0.96592583 -0.22414386
vn 0.0000000e+0 0.96592583 -0.25881904
vn -0.35355340 0.70710677 -0.61237244
vn 0.0000000e+0 0.70710678 -0.70710678
vn -0.12940951 0.96592583 -0.22414386
vn 0.0000000e+0 0.96592583 -0.25881904
vn 0.35355340 0.70710677 -0.61237244
vn 0.12940951 0.96592583 -0.22414386
vn 0.0000000e+0 0.70710678 -0.70710678
vn 0.35355340 0.70710677 -0.61237244
vn 0.12940951 0.96592583 -0.22414386
vn 0.61237244 0.70710677 -0.35355340
vn 0.22414386 0.96592583 -0.12940951
vn 0.83651629 0.25881904 -0.48296293
vn 0.70710678 0.70710678 0.0000000e+0
vn 0.61237244 0.70710677 -0.35355340
vn 0.96592583 0.25881904 0.0000000e+0
vn 0.61237244 0.70710677 0.35355340
vn 0.70710678 0.70710678 0.0000000e+0
vn 0.83651629 0.25881904 0.48296293
vn 0.96592583 0.25881904 0.0000000e+0
vn 0.61237244 0.70710677 0.35355340
vn 0.35355340 0.70710677 0.61237244
vn 0.83651629 0.25881904 0.48296293
vn 0.48296293 0.25881904 0.83651629
vn 0.0000000e+0 0.25881904 0.96592583
vn 0.35355340 0.70710677 0.61237244
vn 0.48296293 0.25881904 0.83651629
vn 0.0000000e+0 0.70710678 0.70710678
vn -0.35355340 0.70710677 0.61237244
vn 0.0000000e+0 0.25881904 0.96592583
vn -0.48296293 0.25881904 0.83651629
vn 0.0000000e+0 0.70710678 0.70710678
vn -0.35355340 0.70710677 0.61237244
vn -0.61237244 0.70710677 0.35355340
vn -0.48296293 0.25881904 0.83651629
vn -0.83651629 0.25881904 0.48296293
vn -0.96592583 0.25881904 0.0000000e+0
vn -0.61237244 0.70710677 0.35355340
vn -0.70710678 0.70710678 0.0000000e+0
vn -0.83651629 0.25881904 0.48296293
vn -0.61237244 0.70710677 -0.35355340
vn -0.96592583 0.25881904 0.0000000e+0
vn -0.83651629 0.25881904 -0.48296293
vn -0.70710678 0.70710678 0.0000000e+0
vn -0.61237244 0.70710677 -0.35355340
vn -0.35355340 0.70710677 -0.61237244
vn -0.83651629 0.25881904 -0.48296293
vn -0.48296293 0.25881904 -0.83651629
vn 0.0000000e+0 0.25881904 -0.96592583
vn -0.35355340 0.70710677 -0.61237244
vn 0.0000000e+0 0.70710678 -0.70710678
vn -0.48296293 0.25881904 -0.83651629
vn 0.35355340 0.70710677 -0.61237244
vn 0.0000000e+0 0.25881904 -0.96592583
vn 0.48296293 0.25881904 -0.83651629
vn 0.0000000e+0 0.70710678 -0.70710678
vn 0.35355340 0.70710677 -0.61237244
vn 0.83651629 0.25881904 -0.48296293
vn 0.48296293 0.25881904 -0.83651629
vn 0.61237244 0.70710677 -0.35355340
vn 0.83651629 0.25881904 -0.48296293
vn 0.96592583 0.25881904 0.0000000e+0
vn 0.0000000e+0 -1.00000000 -5.5245450e-18
vn 0.83651629 0.25881904 0.48296293
vn 0.96592583 0.25881904 0.0000000e+0
vn 0.0000000e+0 -1.00000000 -5.5245450e-18
vn 0.83651629 0.25881904 0.48296293
vn 0.48296293 0.25881904 0.83651629
vn 0.0000000e+0 -1.00000000 -5.5245450e-18
vn 0.0000000e+0 0.25881904 0.96592583
vn 0.48296293 0.25881904 0.83651629
vn 0.0000000e+0 -1.00000000 -5.5245450e-18
vn 0.0000000e+0 0.25881904 0.96592583
vn -0.48296293 0.25881904 0.83651629
vn 0.0000000e+0 -1.00000000 -5.5245450e-18
vn -0.48296293 0.25881904 0.83651629
vn -0.83651629 0.25881904 0.48296293
vn 0.0000000e+0 -1.00000000 -5.5245450e-18
vn -0.96592583 0.25881904 0.0000000e+0
vn -0.83651629 0.25881904 0.48296293
vn 0.0000000e+0 -1.00000000 -5.5245450e-18
vn -0.96592583 0.25881904 0.0000000e+0
vn -0.83651629 0.25881904 -0.48296293
vn 0.0000000e+0 -1.00000000 -5.5245450e-18
vn -0.83651629 0.25881904 -0.48296293
vn -0.48296293 0.25881904 -0.83651629
vn 0.0000000e+0 -1.00000000 -5.5245450e-18
vn 0.0000000e+0 0.25881904 -0.96592583
vn -0.48296293 0.25881904 -0.83651629
vn 0.0000000e+0 -1.00000000 -5.5245450e-18
vn 0.0000000e+0 0.25881904 -0.96592583
vn 0.48296293 0.25881904 -0.83651629
vn 0.0000000e+0 -1.00000000 -5.5245450e-18
vn 0.83651629 0.25881904 -0.48296293
vn 0.48296293 0.25881904 -0.83651629
vn 0.0000000e+0 -1.00000000 -5.5245450e-18
vn 0.25881904 0.96592583 0.0000000e+0
vn 0.12940951 0.96592583 0.22414386
vn -0.22414386 0.96592583 0.12940951
vn 0.0000000e+0 0.96592583 -0.25881904
vn 0.22414386 0.96592583 0.12940951
vn -0.12940951 0.96592583 0.22414386
vn -0.25881904 0.96592583 0.0000000e+0
vn 0.12940951 0.96592583 -0.22414386
vn 0.0000000e+0 0.96592583 0.25881904
vn -0.22414386 0.96592583 -0.12940951
vn -0.12940951 0.96592583 -0.22414386
vn 0.22414386 0.96592583 -0.12940951
g collider_default2
usemtl default2
s 1
f 1//1 37//133 2//5
f 3//9 15//57 14//53 2//6
f 3//10 37//134 4//13
f 5//20 17//68 16//64 4//16
f 5//18 37//138 6//23
f 7//27 37//139 8//30
f 9//33 21//81 20//77 8//29
f 10//37 37//136 11//41
f 12//45 24//93 23//89 11//42
f 14//56 26//101 25//98 13//52
f 16//63 28//107 27//104 15//60
f 19//76 31//116 30//113 18//72
f 22//88 34//125 33//122 21//84
s 2
f 2//7 14//54 13//50 1//2
f 2//8 37//137 3//11
f 4//14 16//62 15//58 3//12
f 4//15 37//141 5//19
f 6//21 18//69 17//65 5//17
f 6//22 37//135 7//25
f 8//31 20//80 19//75 7//28
f 8//32 37//142 9//35
f 10//38 22//86 21//82 9//34
f 11//43 37//140 12//46
f 15//59 27//103 26//100 14//55
f 17//66 29//109 28//106 16//61
f 21//83 33//121 32//119 20//79
f 24//95 36//131 35//128 23//91
s 3
f 7//26 19//74 18//70 6//24
f 9//36 37//143 10//40
f 11//44 23//92 22//87 10//39
f 12//48 37//144 1//4
f 13//49 25//97 36//130 24//94
f 18//71 30//112 29//110 17//67
f 20//78 32//118 31//115 19//73
s 4
f 1//3 13//51 24//96 12//47
f 26//102 27//105 28//108 29//111 30//114 31//117 32//120 33//123 34//126 35//129 36//132 25//99
s 5
f 23//90 35//127 34//124 22//85
