# Exported from Wings 3D 1.5.4
mtllib black_anvil_fuel_tank_s1_1.mtl
o mesh1
#48 vertices, 24 faces
v 0.62500000 0.31250000 -1.2576745e-17
v 0.60370364 0.31250000 0.16176190
v 0.54126588 0.31250000 0.31250000
v 0.44194174 0.31250000 0.44194174
v 0.31250000 0.31250000 0.54126588
v 0.16176190 0.31250000 0.60370364
v -1.3771492e-17 0.31250000 0.62500000
v -0.16176190 0.31250000 0.60370364
v -0.31250000 0.31250000 0.54126588
v -0.44194174 0.31250000 0.44194174
v -0.54126588 0.31250000 0.31250000
v -0.60370364 0.31250000 0.16176190
v -0.62500000 0.31250000 6.3963680e-17
v -0.60370364 0.31250000 -0.16176190
v -0.54126588 0.31250000 -0.31250000
v -0.44194174 0.31250000 -0.44194174
v -0.31250000 0.31250000 -0.54126588
v -0.16176190 0.31250000 -0.60370364
v -1.6685234e-16 0.31250000 -0.62500000
v 0.16176190 0.31250000 -0.60370364
v 0.31250000 0.31250000 -0.54126588
v 0.44194174 0.31250000 -0.44194174
v 0.54126588 0.31250000 -0.31250000
v 0.60370364 0.31250000 -0.16176190
v 0.62500000 -0.31250000 -1.2576745e-17
v 0.60370364 -0.31250000 0.16176190
v 0.54126588 -0.31250000 0.31250000
v 0.44194174 -0.31250000 0.44194174
v 0.31250000 -0.31250000 0.54126588
v 0.16176190 -0.31250000 0.60370364
v -1.3771492e-17 -0.31250000 0.62500000
v -0.16176190 -0.31250000 0.60370364
v -0.31250000 -0.31250000 0.54126588
v -0.44194174 -0.31250000 0.44194174
v -0.54126588 -0.31250000 0.31250000
v -0.60370364 -0.31250000 0.16176190
v -0.62500000 -0.31250000 6.3963680e-17
v -0.60370364 -0.31250000 -0.16176190
v -0.54126588 -0.31250000 -0.31250000
v -0.44194174 -0.31250000 -0.44194174
v -0.31250000 -0.31250000 -0.54126588
v -0.16176190 -0.31250000 -0.60370364
v -1.6685234e-16 -0.31250000 -0.62500000
v 0.16176190 -0.31250000 -0.60370364
v 0.31250000 -0.31250000 -0.54126588
v 0.44194174 -0.31250000 -0.44194174
v 0.54126588 -0.31250000 -0.31250000
v 0.60370364 -0.31250000 -0.16176190
vt 0.59893192 0.14103791
vt 0.59893192 0.26219937
vt 0.59893192 0.14103791
vt 0.59893192 0.26219937
vt 0.63073611 0.14103791
vt 0.63073611 0.26219937
vt 0.63073611 0.14103791
vt 0.63073611 0.26219937
vt 0.66254029 0.14103791
vt 0.66254029 0.26219937
vt 0.66254029 0.14103791
vt 0.66254029 0.26219937
vt 0.69434447 0.14103791
vt 0.69434447 0.26219937
vt 0.69434447 0.14103791
vt 0.69434447 0.26219937
vt 0.72614865 0.14103791
vt 0.72614865 0.26219937
vt 0.72614865 0.14103791
vt 0.72614865 0.26219937
vt 0.75795283 0.14103791
vt 0.75795283 0.26219937
vt 0.75795283 0.14103791
vt 0.75795283 0.26219937
vt 0.78974711 0.14103791
vt 0.78974711 0.14103791
vt 0.78974711 0.26219937
vt 0.78975701 0.14103791
vt 0.78975701 0.26219937
vt 0.78975701 0.14103791
vt 0.78975701 0.26219937
vt 0.82155129 0.14103791
vt 0.82155129 0.14103791
vt 0.82155129 0.26219937
vt 0.85335547 0.14103791
vt 0.85335547 0.14103791
vt 0.85335547 0.26219937
vt 0.88515966 0.14103791
vt 0.88515966 0.26219937
vt 0.91696384 0.26219937
vt 0.91696384 0.14103791
vt 0.94876802 0.14103791
vt 0.94876802 0.26219937
vt 0.94876802 0.26219937
vt 0.98102284 0.14103791
vt 0.98102284 0.26219937
vn 1.00000000 0.0000000e+0 -1.2597785e-16
vn 0.96592583 0.0000000e+0 0.25881905
vn 0.86602540 0.0000000e+0 0.50000000
vn 0.70710678 0.0000000e+0 0.70710678
vn 0.50000000 0.0000000e+0 0.86602540
vn 0.25881905 0.0000000e+0 0.96592583
vn 3.0794585e-16 0.0000000e+0 1.00000000
vn -0.25881905 0.0000000e+0 0.96592583
vn -0.50000000 0.0000000e+0 0.86602540
vn -0.70710678 0.0000000e+0 0.70710678
vn -0.86602540 0.0000000e+0 0.50000000
vn -0.96592583 0.0000000e+0 0.25881905
vn -1.00000000 0.0000000e+0 5.5990155e-16
vn -0.96592583 0.0000000e+0 -0.25881905
vn -0.86602540 0.0000000e+0 -0.50000000
vn -0.70710678 0.0000000e+0 -0.70710678
vn -0.50000000 0.0000000e+0 -0.86602540
vn -0.25881905 0.0000000e+0 -0.96592583
vn -4.6191878e-16 0.0000000e+0 -1.00000000
vn 0.25881905 0.0000000e+0 -0.96592583
vn 0.50000000 0.0000000e+0 -0.86602540
vn 0.70710678 0.0000000e+0 -0.70710678
vn 0.86602540 0.0000000e+0 -0.50000000
vn 0.96592583 0.0000000e+0 -0.25881905
vn 1.00000000 0.0000000e+0 -1.2597785e-16
vn 0.96592583 0.0000000e+0 0.25881905
vn 0.86602540 0.0000000e+0 0.50000000
vn 0.70710678 0.0000000e+0 0.70710678
vn 0.50000000 0.0000000e+0 0.86602540
vn 0.25881905 0.0000000e+0 0.96592583
vn 3.0794585e-16 0.0000000e+0 1.00000000
vn -0.25881905 0.0000000e+0 0.96592583
vn -0.50000000 0.0000000e+0 0.86602540
vn -0.70710678 0.0000000e+0 0.70710678
vn -0.86602540 0.0000000e+0 0.50000000
vn -0.96592583 0.0000000e+0 0.25881905
vn -1.00000000 0.0000000e+0 5.5990155e-16
vn -0.96592583 0.0000000e+0 -0.25881905
vn -0.86602540 0.0000000e+0 -0.50000000
vn -0.70710678 0.0000000e+0 -0.70710678
vn -0.50000000 0.0000000e+0 -0.86602540
vn -0.25881905 0.0000000e+0 -0.96592583
vn -4.6191878e-16 0.0000000e+0 -1.00000000
vn 0.25881905 0.0000000e+0 -0.96592583
vn 0.50000000 0.0000000e+0 -0.86602540
vn 0.70710678 0.0000000e+0 -0.70710678
vn 0.86602540 0.0000000e+0 -0.50000000
vn 0.96592583 0.0000000e+0 -0.25881905
g mesh1_mesh1_auv
usemtl mesh1_auv
s 1
f 1/16/1 25/15/25 48/19/48 24/20/24
f 2/12/2 26/11/26 25/15/25 1/16/1
f 3/8/3 27/7/27 26/11/26 2/12/2
f 4/4/4 28/3/28 27/7/27 3/8/3
f 5/44/5 29/42/29 28/45/28 4/46/4
f 6/40/6 30/41/30 29/42/29 5/44/5
f 7/39/7 31/38/31 30/41/30 6/40/6
f 8/37/8 32/36/32 31/38/31 7/39/7
f 9/34/9 33/33/33 32/36/32 8/37/8
f 10/27/10 34/26/34 33/33/33 9/34/9
f 11/22/11 35/21/35 34/28/34 10/29/10
f 12/18/12 36/17/36 35/21/35 11/22/11
f 13/14/13 37/13/37 36/17/36 12/18/12
f 14/10/14 38/9/38 37/13/37 13/14/13
f 15/6/15 39/5/39 38/9/38 14/10/14
f 16/2/16 40/1/40 39/5/39 15/6/15
f 17/43/17 41/42/41 40/45/40 16/46/16
f 18/40/18 42/41/42 41/42/41 17/43/17
f 19/39/19 43/38/43 42/41/42 18/40/18
f 20/37/20 44/35/44 43/38/43 19/39/19
f 21/34/21 45/32/45 44/35/44 20/37/20
f 22/27/22 46/25/46 45/32/45 21/34/21
f 23/24/23 47/23/47 46/30/46 22/31/22
f 24/20/24 48/19/48 47/23/47 23/24/23
