# Exported from Wings 3D 1.5.4
mtllib Arrow_Engine_0p5_1_Rotator.mtl
o Arrow_Engine_0p5_1_Rotator
#36 vertices, 24 faces
v -0.10000000 -2.5000000e-2 -1.2500000e-2
v 1.0000000e-1 -2.5000000e-2 -1.2500000e-2
v -0.10000000 2.5000000e-2 -1.2500000e-2
v 1.0000000e-1 2.5000000e-2 -1.2500000e-2
v -7.5000000e-2 -2.5000000e-2 -3.7500000e-2
v 7.5000000e-2 -2.5000000e-2 -3.7500000e-2
v -7.5000000e-2 2.5000000e-2 -3.7500000e-2
v 7.5000000e-2 2.5000000e-2 -3.7500000e-2
v 1.0000000e-1 2.5000000e-2 -0.12500000
v 1.0000000e-1 -1.7347235e-17 -0.15000000
v 1.0000000e-1 -2.5000000e-2 -0.12500000
v 7.5000000e-2 -2.5000000e-2 -0.12500000
v 7.5000000e-2 -1.7347235e-17 -0.15000000
v 7.5000000e-2 2.5000000e-2 -0.12500000
v -1.0000000e-1 -2.5000000e-2 -0.12500000
v -1.0000000e-1 -1.7347235e-17 -0.15000000
v -1.0000000e-1 2.5000000e-2 -0.12500000
v -7.5000000e-2 2.5000000e-2 -0.12500000
v -7.5000000e-2 -1.7347235e-17 -0.15000000
v -7.5000000e-2 -2.5000000e-2 -0.12500000
v -1.0000000e-1 -1.6919417e-2 -0.14191942
v 1.0000000e-1 -1.6919417e-2 -0.14191942
v 7.5000000e-2 -1.6919417e-2 -0.14191942
v -7.5000000e-2 -1.6919417e-2 -0.14191942
v -7.5000000e-2 1.6919417e-2 -0.14191942
v 7.5000000e-2 1.6919417e-2 -0.14191942
v -1.0000000e-1 1.6919417e-2 -0.14191942
v 1.0000000e-1 1.6919417e-2 -0.14191942
v 0.0000000e+0 1.8750000e-2 5.3022568e-17
v 1.8750000e-2 -1.7347235e-17 5.4170675e-17
v 4.8982980e-18 -1.8750000e-2 5.3022568e-17
v -1.8750000e-2 -1.7347235e-17 5.1874462e-17
v -1.5887941e-17 1.8750000e-2 -1.2500000e-2
v 1.8750000e-2 -1.7347235e-17 -1.2500000e-2
v -1.0989643e-17 -1.8750000e-2 -1.2500000e-2
v -1.8750000e-2 -1.7347235e-17 -1.2500000e-2
vt 0.74862603 0.12855373
vt 0.74862603 8.8889947e-2
vt 0.74862603 9.8175662e-2
vt 0.74862603 0.12855373
vt 0.74862603 0.13203587
vt 0.74862603 0.10766087
vt 0.74862603 0.13203587
vt 0.74862603 0.10766087
vt 0.74862603 0.13551802
vt 0.74862603 0.13551802
vt 0.75326889 0.12855373
vt 0.75326889 0.13551802
vt 0.75326889 0.11230373
vt 0.75326889 0.12855373
vt 0.75326889 0.13551802
vt 0.75326889 0.11230373
vt 0.75326889 0.13203587
vt 0.75326889 0.13203587
vt 0.75336341 7.0303792e-2
vt 0.75336341 7.9589506e-2
vt 0.75425457 3.8273863e-2
vt 0.75575525 3.5131686e-2
vt 0.75575525 4.1416041e-2
vt 0.75575525 3.5131686e-2
vt 0.75575525 4.1416041e-2
vt 0.75889742 3.3631006e-2
vt 0.75889742 4.2916720e-2
vt 0.75889742 5.6773687e-2
vt 0.75889742 5.6773687e-2
vt 0.76039810 5.3631509e-2
vt 0.76039810 5.9915864e-2
vt 0.76039810 5.3631509e-2
vt 0.76039810 5.9915864e-2
vt 0.76226315 1.8750000e-2
vt 0.76226315 2.1071429e-2
vt 0.76226315 1.8750000e-2
vt 0.76226315 2.1071429e-2
vt 0.76354028 5.2130830e-2
vt 0.76354028 6.1416544e-2
vt 0.76718764 1.8750000e-2
vt 0.76718764 2.1071429e-2
vt 0.77211213 1.8750000e-2
vt 0.77211213 2.1071429e-2
vt 0.77211213 2.1071429e-2
vt 0.77979028 3.3631006e-2
vt 0.77979028 4.2916720e-2
vt 0.77979028 5.2130830e-2
vt 0.77979028 6.1416544e-2
vt 0.78066341 7.0303792e-2
vt 0.78066341 7.9589506e-2
vt 0.78112603 0.12855373
vt 0.78112603 0.13551802
vt 0.78112603 0.12855373
vt 0.78112603 0.13551802
vt 0.78112603 0.13203587
vt 0.78112603 0.13203587
vt 0.78112603 0.11230373
vt 0.78112603 0.11230373
vt 0.78576889 0.13203587
vt 0.78576889 0.10766087
vt 0.78576889 0.13551802
vt 0.78576889 0.12855373
vt 0.78576889 0.13203587
vt 0.78576889 8.8889947e-2
vt 0.78576889 9.8175662e-2
vt 0.78576889 0.10766087
vt 0.78576889 0.13551802
vt 0.78576889 0.12855373
vn -7.8504623e-17 1.00000000 5.7824116e-17
vn 1.00000000 -7.0654161e-16 -1.2143064e-15
vn 1.5700925e-16 -1.00000000 5.7824116e-17
vn -1.00000000 -7.8504623e-16 1.3299547e-15
vn -7.8504623e-17 1.00000000 5.7824116e-17
vn 1.00000000 -7.0654161e-16 -1.2143064e-15
vn 1.5700925e-16 -1.00000000 5.7824116e-17
vn -1.00000000 -7.8504623e-16 1.3299547e-15
vn 0.0000000e+0 -1.00000000 0.0000000e+0
vn 1.0408341e-16 0.0000000e+0 1.00000000
vn -1.00000000 0.0000000e+0 -1.0723111e-16
vn 0.0000000e+0 -1.00000000 0.0000000e+0
vn 0.0000000e+0 -1.00000000 0.0000000e+0
vn 1.0408341e-16 0.0000000e+0 1.00000000
vn 1.00000000 0.0000000e+0 1.0723111e-16
vn 0.0000000e+0 -1.00000000 0.0000000e+0
vn 0.0000000e+0 1.00000000 0.0000000e+0
vn 1.0408341e-16 0.0000000e+0 1.00000000
vn -1.00000000 0.0000000e+0 -1.0723111e-16
vn 0.0000000e+0 1.00000000 0.0000000e+0
vn 0.0000000e+0 1.00000000 0.0000000e+0
vn 1.0408341e-16 0.0000000e+0 1.00000000
vn 1.00000000 0.0000000e+0 1.0723111e-16
vn 0.0000000e+0 1.00000000 0.0000000e+0
vn 0.0000000e+0 -1.00000000 0.0000000e+0
vn -9.2518585e-17 0.0000000e+0 -1.00000000
vn 1.00000000 0.0000000e+0 1.3290428e-16
vn 0.0000000e+0 -1.00000000 0.0000000e+0
vn 0.0000000e+0 -1.00000000 0.0000000e+0
vn -9.2518585e-17 0.0000000e+0 -1.00000000
vn 0.0000000e+0 -1.00000000 0.0000000e+0
vn -1.00000000 -1.6613035e-16 -1.3290428e-16
vn 0.0000000e+0 1.00000000 0.0000000e+0
vn -9.2518585e-17 0.0000000e+0 -1.00000000
vn 0.0000000e+0 1.00000000 0.0000000e+0
vn 1.00000000 0.0000000e+0 1.3290428e-16
vn 0.0000000e+0 1.00000000 0.0000000e+0
vn -9.2518585e-17 0.0000000e+0 -1.00000000
vn -1.00000000 -1.6613035e-16 -1.3290428e-16
vn 0.0000000e+0 1.00000000 0.0000000e+0
vn 1.00000000 0.0000000e+0 1.0723111e-16
vn 0.0000000e+0 0.97528686 -0.22094238
vn 0.0000000e+0 0.97528686 -0.22094238
vn 1.00000000 0.0000000e+0 1.0723111e-16
vn 0.0000000e+0 0.0000000e+0 -1.00000000
vn 0.0000000e+0 0.0000000e+0 -1.00000000
vn 1.00000000 0.0000000e+0 1.0723111e-16
vn 0.0000000e+0 -0.97528686 -0.22094238
vn 0.0000000e+0 -0.97528686 -0.22094238
vn 0.0000000e+0 -0.97528686 -0.22094238
vn -1.00000000 -1.6613035e-16 -1.3290428e-16
vn 0.0000000e+0 -0.97528686 -0.22094238
vn -1.00000000 -1.6613035e-16 -1.3290428e-16
vn 0.0000000e+0 0.0000000e+0 -1.00000000
vn 0.0000000e+0 0.0000000e+0 -1.00000000
vn -1.00000000 -1.6613035e-16 -1.3290428e-16
vn 0.0000000e+0 0.97528686 -0.22094238
vn 0.0000000e+0 0.97528686 -0.22094238
vn -1.00000000 0.0000000e+0 -1.0723111e-16
vn 0.0000000e+0 -0.97528686 -0.22094238
vn 0.0000000e+0 -0.97528686 -0.22094238
vn -1.00000000 0.0000000e+0 -1.0723111e-16
vn 0.0000000e+0 0.0000000e+0 -1.00000000
vn 0.0000000e+0 0.0000000e+0 -1.00000000
vn -1.00000000 0.0000000e+0 -1.0723111e-16
vn 0.0000000e+0 0.97528686 -0.22094238
vn 0.0000000e+0 0.97528686 -0.22094238
vn 0.0000000e+0 0.97528686 -0.22094238
vn 1.00000000 0.0000000e+0 1.3290428e-16
vn 0.0000000e+0 0.97528686 -0.22094238
vn 1.00000000 0.0000000e+0 1.3290428e-16
vn 0.0000000e+0 0.0000000e+0 -1.00000000
vn 0.0000000e+0 0.0000000e+0 -1.00000000
vn 1.00000000 0.0000000e+0 1.3290428e-16
vn 0.0000000e+0 -0.97528686 -0.22094238
vn 0.0000000e+0 -0.97528686 -0.22094238
vn -1.00000000 0.0000000e+0 -1.0723111e-16
vn 0.0000000e+0 -0.70710678 -0.70710678
vn 0.0000000e+0 -0.70710678 -0.70710678
vn 1.00000000 0.0000000e+0 1.0723111e-16
vn 0.0000000e+0 -0.70710678 -0.70710678
vn 0.0000000e+0 -0.70710678 -0.70710678
vn -1.00000000 -1.6613035e-16 -1.3290428e-16
vn 0.0000000e+0 -0.70710678 -0.70710678
vn 0.0000000e+0 -0.70710678 -0.70710678
vn 1.00000000 0.0000000e+0 1.3290428e-16
vn 0.0000000e+0 -0.70710678 -0.70710678
vn 0.0000000e+0 -0.70710678 -0.70710678
vn 1.00000000 0.0000000e+0 1.3290428e-16
vn 0.0000000e+0 0.70710678 -0.70710678
vn 0.0000000e+0 0.70710678 -0.70710678
vn -1.00000000 -1.6613035e-16 -1.3290428e-16
vn 0.0000000e+0 0.70710678 -0.70710678
vn 0.0000000e+0 0.70710678 -0.70710678
vn -1.00000000 0.0000000e+0 -1.0723111e-16
vn 0.0000000e+0 0.70710678 -0.70710678
vn 0.0000000e+0 0.70710678 -0.70710678
vn 1.00000000 0.0000000e+0 1.0723111e-16
vn 0.0000000e+0 0.70710678 -0.70710678
vn 0.0000000e+0 0.70710678 -0.70710678
g Arrow_Engine_0p5_1_Rotator_Arrow_Engine_0p5_1_Rotator_auv
usemtl Arrow_Engine_0p5_1_Rotator_auv
s 1
f 2/64/14 4/65/22 3/3/18 1/2/10
f 5/49/26 7/50/34 8/20/38 6/19/30
f 29/37/1 33/36/5 36/40/8 32/41/4
f 30/40/2 34/41/6 33/35/5 29/34/1
f 31/42/3 35/43/7 34/41/6 30/40/2
f 32/41/4 36/40/8 35/42/7 31/44/3
s 2
f 2/46/15 11/27/47 22/23/80 10/21/44 28/22/98 9/26/41 4/45/23
f 3/46/19 17/27/65 27/25/95 16/21/62 21/24/77 15/26/59 1/45/11
f 5/48/27 20/39/74 24/31/86 19/28/71 25/30/89 18/38/69 7/47/36
f 8/48/39 14/39/56 26/33/92 13/29/53 23/32/83 12/38/51 6/47/32
s 3
f 1/60/9 5/57/25 6/16/29 2/8/13
f 1/60/12 15/62/60 20/53/75 5/57/28
f 4/66/21 8/58/37 7/13/33 3/6/17
f 4/66/24 9/68/42 14/51/57 8/58/40
f 6/16/31 12/14/50 11/4/48 2/8/16
f 7/13/35 18/11/68 17/1/66 3/6/20
f 12/14/52 23/18/84 22/7/81 11/4/49
f 13/54/55 26/56/94 28/59/100 10/67/46
f 15/62/61 21/63/78 24/55/87 20/53/76
f 16/10/64 27/5/97 25/17/91 19/12/73
f 18/11/70 25/17/90 27/5/96 17/1/67
f 22/7/82 23/18/85 13/15/54 10/9/45
f 24/55/88 21/63/79 16/61/63 19/52/72
f 28/59/99 26/56/93 14/51/58 9/68/43
