# Exported from Wings 3D 1.5.4
mtllib blue_steel_landing_gear_srf_1_base.mtl
o mesh1
#52 vertices, 53 faces
v 0.10000000 0.70000000 0.16250000
v 7.0710678e-2 0.70000000 0.23321068
v 1.1385229e-17 0.70000000 0.26250000
v -7.0710678e-2 0.70000000 0.23321068
v -0.10000000 0.70000000 0.16250000
v 0.10000000 -5.0000000e-2 0.16250000
v 7.0710678e-2 -5.0000000e-2 0.23321068
v 1.1385229e-17 -5.0000000e-2 0.26250000
v -7.0710678e-2 -5.0000000e-2 0.23321068
v -0.10000000 -5.0000000e-2 0.16250000
v 7.5000000e-2 -5.0000000e-2 0.16250000
v 5.3033009e-2 -5.0000000e-2 0.21553301
v 7.2378788e-18 -5.0000000e-2 0.23750000
v -5.3033009e-2 -5.0000000e-2 0.21553301
v -7.5000000e-2 -5.0000000e-2 0.16250000
v 0.10000000 0.70000000 -0.16250000
v 7.0710678e-2 0.70000000 -0.23321068
v 1.1385229e-17 0.70000000 -0.26250000
v -7.0710678e-2 0.70000000 -0.23321068
v -0.10000000 0.70000000 -0.16250000
v 0.10000000 -5.0000000e-2 -0.16250000
v 7.0710678e-2 -5.0000000e-2 -0.23321068
v 1.1385229e-17 -5.0000000e-2 -0.26250000
v -7.0710678e-2 -5.0000000e-2 -0.23321068
v -0.10000000 -5.0000000e-2 -0.16250000
v 7.5000000e-2 -5.0000000e-2 -0.16250000
v 5.3033009e-2 -5.0000000e-2 -0.21553301
v 7.2378788e-18 -5.0000000e-2 -0.23750000
v -5.3033009e-2 -5.0000000e-2 -0.21553301
v -7.5000000e-2 -5.0000000e-2 -0.16250000
v 7.5000000e-2 0.70000000 0.16250000
v -7.5000000e-2 0.70000000 0.16250000
v 7.5000000e-2 0.70000000 -0.16250000
v -7.5000000e-2 0.70000000 -0.16250000
v 5.3033009e-2 0.70000000 0.21553301
v 7.2378788e-18 0.70000000 0.23750000
v -5.3033009e-2 0.70000000 0.21553301
v -5.3033009e-2 0.70000000 -0.21553301
v 7.2378788e-18 0.70000000 -0.23750000
v 5.3033009e-2 0.70000000 -0.21553301
v 7.0710678e-2 0.75000000 -0.21250000
v 1.1385229e-17 0.77071068 -0.23321068
v -7.0710678e-2 0.75000000 -0.21250000
v 7.0710678e-2 0.77071068 -0.16250000
v 1.1385229e-17 0.80000000 -0.16250000
v -7.0710678e-2 0.77071068 -0.16250000
v 7.0710678e-2 0.75000000 0.21250000
v -7.0710678e-2 0.75000000 0.21250000
v 1.1385229e-17 0.77071068 0.23321068
v -7.0710678e-2 0.77071068 0.16250000
v 1.1385229e-17 0.80000000 0.16250000
v 7.0710678e-2 0.77071068 0.16250000
vt 0.37629875 0.62973606
vt 0.37629875 0.92130358
vt 0.37631210 0.62977935
vt 0.37631210 0.92130894
vt 0.38774269 0.62973606
vt 0.38774269 0.92130358
vt 0.38774269 0.95111970
vt 0.38775455 0.62977935
vt 0.38775455 0.92130894
vt 0.38775455 0.95112118
vt 0.39583478 0.94016278
vt 0.39584559 0.94016569
vt 0.41537082 0.62973606
vt 0.41537082 0.92130358
vt 0.41537082 0.94820987
vt 0.41537082 0.96250000
vt 0.41537909 0.62977935
vt 0.41537909 0.92130894
vt 0.41537909 0.94821173
vt 0.41537909 0.96250000
vt 0.54234680 0.62977935
vt 0.54234680 0.92130894
vt 0.54234680 0.94821173
vt 0.54234680 0.96250000
vt 0.54235507 0.62973606
vt 0.54235507 0.92130358
vt 0.54235507 0.96250000
vt 0.54235507 0.94820987
vt 0.56188030 0.94016569
vt 0.56189111 0.94016278
vt 0.56997134 0.62977935
vt 0.56997134 0.92130894
vt 0.56997134 0.95112118
vt 0.56998320 0.62973606
vt 0.56998320 0.95111970
vt 0.56998320 0.92130358
vt 0.58141379 0.92130894
vt 0.58141379 0.62977935
vt 0.58142714 0.62973606
vt 0.58142714 0.92130358
vt 0.61859278 0.60221103
vt 0.61893937 0.66879801
vt 0.61893937 0.96250356
vt 0.61893937 0.66879801
vt 0.61893937 0.96250356
vt 0.62717842 0.58148344
vt 0.62717842 0.62293861
vt 0.62752502 0.66879801
vt 0.62752502 0.96250356
vt 0.62752502 0.66879801
vt 0.62752502 0.96250356
vt 0.64790601 0.57289780
vt 0.64790601 0.63152426
vt 0.64825260 0.66879801
vt 0.64825260 0.96250356
vt 0.64825260 0.66879801
vt 0.64825260 0.96250356
vt 0.77493001 0.57289780
vt 0.77493001 0.63152426
vt 0.77527661 0.66879801
vt 0.77527661 0.96250356
vt 0.77527661 0.66879801
vt 0.77527661 0.96250356
vt 0.79565759 0.58148344
vt 0.79565759 0.62293861
vt 0.79600419 0.66879801
vt 0.79600419 0.96250356
vt 0.79600419 0.66879801
vt 0.79600419 0.96250356
vt 0.80424324 0.60221103
vt 0.80458984 0.66879801
vt 0.80458984 0.96250356
vt 0.80458984 0.66879801
vt 0.80458984 0.96250356
vt 0.84225234 0.75697716
vt 0.84225234 0.75697716
vt 0.84225234 0.76674824
vt 0.84225234 0.76674824
vt 0.84225234 0.95239871
vt 0.84225234 0.95239871
vt 0.84225234 0.96216978
vt 0.84225234 0.96216978
vt 0.86297992 0.77533389
vt 0.86297992 0.77533389
vt 0.86297992 0.94381306
vt 0.86297992 0.94381306
vt 0.86988912 0.76842469
vt 0.86988912 0.76842469
vt 0.86988912 0.95072225
vt 0.86988912 0.95072225
vt 0.87156557 0.79606147
vt 0.87156557 0.79606147
vt 0.87156557 0.92308547
vt 0.87156557 0.92308547
vt 0.88133665 0.79606147
vt 0.88133665 0.79606147
vt 0.88133665 0.92308547
vt 0.88133665 0.92308547
vn 0.96356343 0.18913687 0.18913687
vn 0.70405892 0.14044927 0.69611424
vn 3.0464949e-17 0.19614758 0.98057439
vn -0.70405892 0.14044927 0.69611424
vn -0.96356343 0.18913687 0.18913687
vn 0.96356343 0.18913687 -0.18913687
vn 0.70405892 0.14044927 -0.69611424
vn 3.0464949e-17 0.19614758 -0.98057439
vn -0.70405892 0.14044927 -0.69611424
vn -0.96356343 0.18913687 -0.18913687
vn 0.71524683 0.49417708 -0.49417708
vn 4.8250639e-17 0.70710678 -0.70710678
vn -0.71524683 0.49417708 -0.49417708
vn 0.70405892 0.69611424 -0.14044927
vn 6.0929898e-17 0.98057439 -0.19614758
vn -0.70405892 0.69611424 -0.14044927
vn 0.71524683 0.49417708 0.49417708
vn -0.71524683 0.49417708 0.49417708
vn 4.8250639e-17 0.70710678 0.70710678
vn -0.70405892 0.69611424 0.14044927
vn 6.0929898e-17 0.98057439 0.19614758
vn 0.70405892 0.69611424 0.14044927
vn 0.98078528 0.0000000e+0 0.19509032
vn 0.0000000e+0 -1.00000000 0.0000000e+0
vn 0.98078528 0.0000000e+0 0.19509032
vn 0.0000000e+0 -1.00000000 0.0000000e+0
vn 0.70710678 0.0000000e+0 0.70710678
vn 0.70710678 0.0000000e+0 0.70710678
vn 0.0000000e+0 -1.00000000 0.0000000e+0
vn 0.0000000e+0 -1.00000000 0.0000000e+0
vn 3.0042419e-17 0.0000000e+0 1.00000000
vn 3.0042419e-17 0.0000000e+0 1.00000000
vn 0.0000000e+0 -1.00000000 0.0000000e+0
vn 0.0000000e+0 -1.00000000 0.0000000e+0
vn -0.70710678 0.0000000e+0 0.70710678
vn -0.70710678 0.0000000e+0 0.70710678
vn 0.0000000e+0 -1.00000000 0.0000000e+0
vn 0.0000000e+0 -1.00000000 0.0000000e+0
vn -0.98078528 0.0000000e+0 0.19509032
vn 0.0000000e+0 -1.00000000 0.0000000e+0
vn -0.98078528 0.0000000e+0 0.19509032
vn 0.0000000e+0 -1.00000000 0.0000000e+0
vn 0.0000000e+0 -1.00000000 0.0000000e+0
vn 0.0000000e+0 -1.00000000 0.0000000e+0
vn -0.98078528 0.0000000e+0 -0.19509032
vn -0.98078528 0.0000000e+0 -0.19509032
vn 0.0000000e+0 -1.00000000 0.0000000e+0
vn 0.0000000e+0 -1.00000000 0.0000000e+0
vn -0.70710678 0.0000000e+0 -0.70710678
vn -0.70710678 0.0000000e+0 -0.70710678
vn 0.0000000e+0 -1.00000000 0.0000000e+0
vn 0.0000000e+0 -1.00000000 0.0000000e+0
vn 0.0000000e+0 0.0000000e+0 -1.00000000
vn 0.0000000e+0 0.0000000e+0 -1.00000000
vn 0.0000000e+0 -1.00000000 0.0000000e+0
vn 0.0000000e+0 -1.00000000 0.0000000e+0
vn 0.70710678 0.0000000e+0 -0.70710678
vn 0.70710678 0.0000000e+0 -0.70710678
vn 0.0000000e+0 -1.00000000 0.0000000e+0
vn 0.0000000e+0 -1.00000000 0.0000000e+0
vn 0.98078528 0.0000000e+0 -0.19509032
vn 0.98078528 0.0000000e+0 -0.19509032
vn 0.98078528 0.0000000e+0 -0.19509032
vn 0.0000000e+0 -1.00000000 0.0000000e+0
vn 0.98078528 0.0000000e+0 -0.19509032
vn 0.0000000e+0 -1.00000000 0.0000000e+0
vn 0.70710678 0.0000000e+0 -0.70710678
vn 0.70710678 0.0000000e+0 -0.70710678
vn 0.0000000e+0 -1.00000000 0.0000000e+0
vn 0.0000000e+0 -1.00000000 0.0000000e+0
vn 3.0042419e-17 0.0000000e+0 -1.00000000
vn 3.0042419e-17 0.0000000e+0 -1.00000000
vn 0.0000000e+0 -1.00000000 0.0000000e+0
vn 0.0000000e+0 -1.00000000 0.0000000e+0
vn -0.70710678 0.0000000e+0 -0.70710678
vn -0.70710678 0.0000000e+0 -0.70710678
vn 0.0000000e+0 -1.00000000 0.0000000e+0
vn 0.0000000e+0 -1.00000000 0.0000000e+0
vn -0.98078528 0.0000000e+0 -0.19509032
vn 0.0000000e+0 -1.00000000 0.0000000e+0
vn -0.98078528 0.0000000e+0 -0.19509032
vn 0.0000000e+0 -1.00000000 0.0000000e+0
vn 0.0000000e+0 -1.00000000 0.0000000e+0
vn 0.0000000e+0 -1.00000000 0.0000000e+0
vn -0.98078528 0.0000000e+0 0.19509032
vn -0.98078528 0.0000000e+0 0.19509032
vn 0.0000000e+0 -1.00000000 0.0000000e+0
vn 0.0000000e+0 -1.00000000 0.0000000e+0
vn -0.70710678 0.0000000e+0 0.70710678
vn -0.70710678 0.0000000e+0 0.70710678
vn 0.0000000e+0 -1.00000000 0.0000000e+0
vn 0.0000000e+0 -1.00000000 0.0000000e+0
vn 0.0000000e+0 0.0000000e+0 1.00000000
vn 0.0000000e+0 0.0000000e+0 1.00000000
vn 0.0000000e+0 -1.00000000 0.0000000e+0
vn 0.0000000e+0 -1.00000000 0.0000000e+0
vn 0.70710678 0.0000000e+0 0.70710678
vn 0.70710678 0.0000000e+0 0.70710678
vn 0.0000000e+0 -1.00000000 0.0000000e+0
vn 0.0000000e+0 -1.00000000 0.0000000e+0
vn 0.98078528 0.0000000e+0 0.19509032
vn 0.98078528 0.0000000e+0 0.19509032
vn 0.0000000e+0 -1.00000000 -8.7227359e-16
vn 0.0000000e+0 -1.00000000 -8.7227359e-16
vn -0.98078528 0.0000000e+0 -0.19509032
vn -0.98078528 0.0000000e+0 -0.19509032
vn 0.0000000e+0 -1.00000000 -8.7227359e-16
vn 0.0000000e+0 -1.00000000 -8.7227359e-16
vn 0.98078528 0.0000000e+0 -0.19509032
vn 0.98078528 0.0000000e+0 -0.19509032
vn 0.0000000e+0 -1.00000000 -8.7227359e-16
vn 0.0000000e+0 -1.00000000 -8.7227359e-16
vn -0.98078528 0.0000000e+0 0.19509032
vn -0.98078528 0.0000000e+0 0.19509032
vn 0.0000000e+0 -1.00000000 -8.7227359e-16
vn 0.0000000e+0 -1.00000000 -8.7227359e-16
vn 0.98078528 0.0000000e+0 0.19509032
vn 0.98078528 0.0000000e+0 0.19509032
vn 0.0000000e+0 -1.00000000 -1.7445472e-15
vn -0.70710678 0.0000000e+0 -0.70710678
vn -0.70710678 0.0000000e+0 -0.70710678
vn 0.0000000e+0 -1.00000000 -1.7445472e-15
vn 0.0000000e+0 0.0000000e+0 -1.00000000
vn 0.0000000e+0 0.0000000e+0 -1.00000000
vn 0.0000000e+0 -1.00000000 -1.7445472e-15
vn 0.70710678 0.0000000e+0 -0.70710678
vn 0.70710678 0.0000000e+0 -0.70710678
vn 0.0000000e+0 -1.00000000 -1.7445472e-15
vn 0.70710678 0.0000000e+0 0.70710678
vn 0.70710678 0.0000000e+0 0.70710678
vn 0.0000000e+0 -1.00000000 -1.7445472e-15
vn 0.0000000e+0 0.0000000e+0 1.00000000
vn 0.0000000e+0 0.0000000e+0 1.00000000
vn 0.0000000e+0 -1.00000000 -1.7445472e-15
vn -0.70710678 0.0000000e+0 0.70710678
vn -0.70710678 0.0000000e+0 0.70710678
g mesh1_mesh1_auv
usemtl mesh1_auv
s 1
f 1/14/1 47/11/17 2/6/2
f 1/14/1 52/15/22 47/11/17
f 2/6/2 7/5/28 6/13/23 1/14/1
f 2/6/2 47/11/17 49/7/19 3/2/3
f 3/2/3 8/1/32 7/5/27 2/6/2
f 3/37/3 49/33/19 48/29/18 4/32/4
f 4/32/4 9/31/36 8/38/31 3/37/3
f 4/32/4 48/29/18 5/22/5
f 5/22/5 10/21/39 9/31/35 4/32/4
f 5/22/5 20/18/10 25/17/81 10/21/41
f 5/22/5 50/23/20 46/19/16 20/18/10
f 6/13/25 21/25/65 16/26/6 1/14/1
f 16/26/6 21/25/63 22/34/68 17/36/7
f 16/26/6 44/28/14 52/15/22 1/14/1
f 17/36/7 22/34/67 23/39/72 18/40/8
f 17/36/7 41/30/11 16/26/6
f 18/4/8 23/3/71 24/8/76 19/9/9
f 18/40/8 42/35/12 41/30/11 17/36/7
f 19/9/9 24/8/75 25/17/79 20/18/10
f 19/9/9 43/12/13 42/10/12 18/4/8
f 20/18/10 43/12/13 19/9/9
f 20/18/10 46/19/16 43/12/13
f 31/53/103 35/47/119 36/41/122 37/46/125 32/52/107
f 32/52/108 34/58/116 33/59/112 31/53/104
f 34/58/115 38/64/128 39/70/131 40/65/134 33/59/111
f 41/30/11 44/28/14 16/26/6
f 42/35/12 45/27/15 44/28/14 41/30/11
f 43/12/13 46/19/16 45/20/15 42/10/12
f 45/27/15 51/16/21 52/15/22 44/28/14
f 46/19/16 50/23/20 51/24/21 45/20/15
f 47/11/17 52/15/22 51/16/21 49/7/19
f 48/29/18 50/23/20 5/22/5
f 49/33/19 51/24/21 50/23/20 48/29/18
s 2
f 12/68/49 35/69/120 31/63/105 11/62/45
f 13/73/53 36/74/123 35/69/121 12/68/50
f 14/48/57 37/49/126 36/43/124 13/42/54
f 15/54/61 32/55/109 37/49/127 14/48/58
f 26/56/86 33/57/114 40/51/136 27/50/90
f 27/50/89 40/51/135 39/45/133 28/44/94
f 28/71/93 39/72/132 38/67/130 29/66/98
f 29/66/97 38/67/129 34/61/118 30/60/102
f 31/63/106 33/57/113 26/56/85 11/62/46
f 34/61/117 32/55/110 15/54/62 30/60/101
s 3
f 7/90/29 12/86/47 11/94/43 6/98/24
f 8/82/33 13/80/51 12/86/48 7/90/30
f 9/88/37 14/84/55 13/78/52 8/76/34
f 10/96/40 15/92/59 14/84/56 9/88/38
f 10/96/42 25/97/82 30/93/100 15/92/60
f 11/94/44 26/91/84 21/95/66 6/98/26
f 21/95/64 26/91/83 27/83/87 22/87/69
f 22/87/70 27/83/88 28/77/91 23/75/73
f 23/81/74 28/79/92 29/85/95 24/89/77
f 24/89/78 29/85/96 30/93/99 25/97/80
