# Exported from Wings 3D 1.5.4
mtllib blue_steel_landing_gear_srf_1_steering.mtl
o mesh1
#105 vertices, 76 faces
v 3.7500000e-2 2.5000000e-2 1.1707608e-17
v 3.7500000e-2 1.7677670e-2 1.7677670e-2
v 3.7500000e-2 1.8651126e-17 2.5000000e-2
v 3.7500000e-2 -1.7677670e-2 1.7677670e-2
v 3.7500000e-2 -2.5000000e-2 1.7409660e-17
v 3.7500000e-2 -1.7677670e-2 -1.7677670e-2
v 3.7500000e-2 9.8874561e-18 -2.5000000e-2
v 3.7500000e-2 1.7677670e-2 -1.7677670e-2
v 5.0000000e-2 2.5000000e-2 1.1707608e-17
v 5.0000000e-2 1.7677670e-2 1.7677670e-2
v 5.0000000e-2 1.4269291e-17 2.5000000e-2
v 5.0000000e-2 -1.7677670e-2 1.7677670e-2
v 5.0000000e-2 -2.5000000e-2 1.7409660e-17
v 5.0000000e-2 -1.7677670e-2 -1.7677670e-2
v 5.0000000e-2 5.5056214e-18 -2.5000000e-2
v 5.0000000e-2 1.7677670e-2 -1.7677670e-2
v 5.0000000e-2 9.0752174e-18 3.7500000e-2
v 5.0000000e-2 -2.6516504e-2 2.6516504e-2
v 5.0000000e-2 -3.7500000e-2 1.3055531e-17
v 5.0000000e-2 -2.6516504e-2 -2.6516504e-2
v 5.0000000e-2 4.1072780e-18 -3.7500000e-2
v 7.5000000e-2 1.3164000e-17 3.7500000e-2
v 7.5000000e-2 -2.6516504e-2 2.6516504e-2
v 7.5000000e-2 -3.7500000e-2 1.3055531e-17
v 7.5000000e-2 -2.6516504e-2 -2.6516504e-2
v 7.5000000e-2 8.1960604e-18 -3.7500000e-2
v 5.0000000e-2 0.16250000 -3.7500000e-2
v 5.0000000e-2 0.16250000 3.7500000e-2
v 7.5000000e-2 0.16250000 3.7500000e-2
v 7.5000000e-2 0.16250000 -3.7500000e-2
v -2.7755576e-17 0.21250000 -3.7500000e-2
v -2.7755576e-17 0.21250000 3.7500000e-2
v -2.7755576e-17 0.23750000 3.7500000e-2
v -2.7755576e-17 0.23750000 -3.7500000e-2
v 3.5355339e-2 0.19785534 -3.7500000e-2
v 3.5355339e-2 0.19785534 3.7500000e-2
v 5.3033009e-2 0.21553301 3.7500000e-2
v 5.3033009e-2 0.21553301 -3.7500000e-2
v -5.0000000e-2 9.0752174e-18 3.7500000e-2
v -5.0000000e-2 -2.6516504e-2 2.6516504e-2
v -5.0000000e-2 -3.7500000e-2 1.3055531e-17
v -5.0000000e-2 -2.6516504e-2 -2.6516504e-2
v -5.0000000e-2 4.1072780e-18 -3.7500000e-2
v -7.5000000e-2 1.3164000e-17 3.7500000e-2
v -7.5000000e-2 -2.6516504e-2 2.6516504e-2
v -7.5000000e-2 -3.7500000e-2 1.3055531e-17
v -7.5000000e-2 -2.6516504e-2 -2.6516504e-2
v -7.5000000e-2 8.1960604e-18 -3.7500000e-2
v -5.0000000e-2 0.16250000 -3.7500000e-2
v -5.0000000e-2 0.16250000 3.7500000e-2
v -7.5000000e-2 0.16250000 3.7500000e-2
v -7.5000000e-2 0.16250000 -3.7500000e-2
v -3.5355339e-2 0.19785534 -3.7500000e-2
v -3.5355339e-2 0.19785534 3.7500000e-2
v -5.3033009e-2 0.21553301 3.7500000e-2
v -5.3033009e-2 0.21553301 -3.7500000e-2
v -3.7500000e-2 2.5000000e-2 1.1707608e-17
v -3.7500000e-2 1.7677670e-2 1.7677670e-2
v -3.7500000e-2 1.8651126e-17 2.5000000e-2
v -3.7500000e-2 -1.7677670e-2 1.7677670e-2
v -3.7500000e-2 -2.5000000e-2 1.7409660e-17
v -3.7500000e-2 -1.7677670e-2 -1.7677670e-2
v -3.7500000e-2 9.8874561e-18 -2.5000000e-2
v -3.7500000e-2 1.7677670e-2 -1.7677670e-2
v -5.0000000e-2 2.5000000e-2 1.1707608e-17
v -5.0000000e-2 1.7677670e-2 1.7677670e-2
v -5.0000000e-2 1.4269291e-17 2.5000000e-2
v -5.0000000e-2 -1.7677670e-2 1.7677670e-2
v -5.0000000e-2 -2.5000000e-2 1.7409660e-17
v -5.0000000e-2 -1.7677670e-2 -1.7677670e-2
v -5.0000000e-2 5.5056214e-18 -2.5000000e-2
v -5.0000000e-2 1.7677670e-2 -1.7677670e-2
v 2.5000000e-2 0.50000000 -6.9238205e-18
v 1.7677670e-2 0.50000000 1.7677670e-2
v -2.5325718e-18 0.50000000 2.5000000e-2
v -1.7677670e-2 0.50000000 1.7677670e-2
v -2.5000000e-2 0.50000000 -1.5631883e-17
v -1.7677670e-2 0.50000000 -1.7677670e-2
v 3.1138741e-18 0.50000000 -2.5000000e-2
v 1.7677670e-2 0.50000000 -1.7677670e-2
v 2.5000000e-2 0.25000000 4.8458594e-18
v 1.7677670e-2 0.25000000 1.7677670e-2
v -2.5325718e-18 0.25000000 2.5000000e-2
v -1.7677670e-2 0.25000000 1.7677670e-2
v -2.5000000e-2 0.25000000 -3.8622035e-18
v -1.7677670e-2 0.25000000 -1.7677670e-2
v 3.1138741e-18 0.25000000 -2.5000000e-2
v 1.7677670e-2 0.25000000 -1.7677670e-2
v 3.7500000e-2 0.25000000 1.7517601e-18
v 2.6516504e-2 0.25000000 2.6516504e-2
v 4.6334298e-18 0.25000000 3.7500000e-2
v -2.6516504e-2 0.25000000 2.6516504e-2
v -3.7500000e-2 0.25000000 6.8552834e-18
v -2.6516504e-2 0.25000000 -2.6516504e-2
v -5.0625190e-18 0.25000000 -3.7500000e-2
v 2.6516504e-2 0.25000000 -2.6516504e-2
v -5.7799004e-18 0.23750000 -3.7500000e-2
v -2.6516504e-2 0.22651650 -2.6516504e-2
v -3.7500000e-2 0.22196699 6.8399620e-18
v -2.6516504e-2 0.22651650 2.6516504e-2
v 3.9160484e-18 0.23750000 3.7500000e-2
v 2.6516504e-2 0.22651650 -2.6516504e-2
v 2.6516504e-2 0.22651650 2.6516504e-2
v 3.7500000e-2 0.22196699 1.7364387e-18
v 8.6736174e-19 0.25000000 -1.0389805e-18
vt 3.7500000e-2 0.58906739
vt 3.7500000e-2 0.58906739
vt 3.7500000e-2 0.58906739
vt 3.7634699e-2 0.52140699
vt 3.7634699e-2 0.52893220
vt 3.7634699e-2 0.53645742
vt 3.7634699e-2 0.54398263
vt 3.7634699e-2 0.55150784
vt 3.7634699e-2 0.52140699
vt 3.7634699e-2 0.52893220
vt 3.7634699e-2 0.53645742
vt 3.7634699e-2 0.54398263
vt 3.7634699e-2 0.55150784
vt 4.6139323e-2 0.60992456
vt 4.6139323e-2 0.60992456
vt 4.6139323e-2 0.60992456
vt 4.6139323e-2 0.60992456
vt 4.7332165e-2 0.58906739
vt 4.7332165e-2 0.58906739
vt 4.7332165e-2 0.58906739
vt 4.7332165e-2 0.58906739
vt 5.3091713e-2 0.60297217
vt 5.3091713e-2 0.60297217
vt 5.3091713e-2 0.60297217
vt 5.3091713e-2 0.60297217
vt 6.3630858e-2 0.67055299
vt 6.6996494e-2 0.60873172
vt 6.6996494e-2 0.61856388
vt 6.6996494e-2 0.60873172
vt 6.6996494e-2 0.60873172
vt 6.6996494e-2 0.61856388
vt 6.6996494e-2 0.61856388
vt 6.6996494e-2 0.61856388
vt 6.6996494e-2 0.60873172
vt 6.7950519e-2 0.66012441
vt 6.7950519e-2 0.68098158
vt 7.8379104e-2 0.65580475
vt 7.8379104e-2 0.68530124
vt 7.8681283e-2 0.73864028
vt 8.3000945e-2 0.72821170
vt 8.3000945e-2 0.74906887
vt 9.3429530e-2 0.72389204
vt 9.3429530e-2 0.75338853
vt 0.13090556 0.61856388
vt 0.13090556 0.60873172
vt 0.13090556 0.61856388
vt 0.13090556 0.60873172
vt 0.13090556 0.61856388
vt 0.13090556 0.60873172
vt 0.13090556 0.61856388
vt 0.13090556 0.60873172
vt 0.13595634 0.52140699
vt 0.13595634 0.52893220
vt 0.13595634 0.53645742
vt 0.13595634 0.54398263
vt 0.13595634 0.55150784
vt 0.13595634 0.52893220
vt 0.13595634 0.53645742
vt 0.13595634 0.54398263
vt 0.13595634 0.55150784
vt 0.13595634 0.52140699
vt 0.14219338 0.60873172
vt 0.14219338 0.61856388
vt 0.14219338 0.61856388
vt 0.14219338 0.60873172
vt 0.14219338 0.60873172
vt 0.14219338 0.61856388
vt 0.14219338 0.61856388
vt 0.14219338 0.60873172
vt 0.14228817 0.65580475
vt 0.14228817 0.68530124
vt 0.15348120 0.60873172
vt 0.15348120 0.61856388
vt 0.15348120 0.61856388
vt 0.15348120 0.61856388
vt 0.15348120 0.60873172
vt 0.15348120 0.60873172
vt 0.15348120 0.60873172
vt 0.15348120 0.61856388
vt 0.15733860 0.72389204
vt 0.15733860 0.75338853
vt 0.16486381 0.65580475
vt 0.16486381 0.68530124
vt 0.17238903 0.72389204
vt 0.17238903 0.75338853
vt 0.17352358 0.52155263
vt 0.17352358 0.52155263
vt 0.17352358 0.52907784
vt 0.17352358 0.52907784
vt 0.17352358 0.53660305
vt 0.17352358 0.53660305
vt 0.17352358 0.54412827
vt 0.17352358 0.54412827
vt 0.17352358 0.55165348
vt 0.17352358 0.55165348
vt 0.18335574 0.54412827
vt 0.18335574 0.55165348
vt 0.18335574 0.52155263
vt 0.18335574 0.52155263
vt 0.18335574 0.52907784
vt 0.18335574 0.52907784
vt 0.18335574 0.53660305
vt 0.18335574 0.53660305
vt 0.18335574 0.54412827
vt 0.18335574 0.55165348
vt 0.18743945 0.65580475
vt 0.18743945 0.68530124
vt 0.18743945 0.72389204
vt 0.18743945 0.75338853
vt 0.19150882 0.60866253
vt 0.19150882 0.60866253
vt 0.19150882 0.61856652
vt 0.20248988 0.75338853
vt 0.20248988 0.72389204
vt 0.20279664 0.60866253
vt 0.20279664 0.60866253
vt 0.20279664 0.61856652
vt 0.21001509 0.65580475
vt 0.21001509 0.68530124
vt 0.21408446 0.60866253
vt 0.21408446 0.60866253
vt 0.21408446 0.61856652
vt 0.21754030 0.72389204
vt 0.21754030 0.75338853
vt 0.22150484 0.53646333
vt 0.22537228 0.60866253
vt 0.22537228 0.60866253
vt 0.22537228 0.61856652
vt 0.22582451 0.52603475
vt 0.22582451 0.54689192
vt 0.23259073 0.68530124
vt 0.23259073 0.65580475
vt 0.23625309 0.52171509
vt 0.23625309 0.53646333
vt 0.23625309 0.55121158
vt 0.23666010 0.60866253
vt 0.23666010 0.60866253
vt 0.23666010 0.61856652
vt 0.23666010 0.61856652
vt 0.24668168 0.52603475
vt 0.24668168 0.54689192
vt 0.25100134 0.53646333
vt 0.28144937 0.72389204
vt 0.28144937 0.75338853
vt 0.29187796 0.72821170
vt 0.29187796 0.74906887
vt 0.29619762 0.73864028
vt 0.29649980 0.68530124
vt 0.29649980 0.65580475
vt 0.30692838 0.66012441
vt 0.30692838 0.68098158
vt 0.31124805 0.67055299
vn 2.1466108e-16 1.00000000 -2.1029693e-16
vn 1.2266347e-16 0.70710678 0.70710678
vn -3.0665868e-17 -3.0042419e-17 1.00000000
vn -3.9865629e-16 -0.70710678 0.70710678
vn -5.2131976e-16 -1.00000000 1.8025451e-16
vn -2.7599282e-16 -0.70710678 -0.70710678
vn 3.0665868e-17 -9.0127256e-17 -1.00000000
vn 2.4532695e-16 0.70710678 -0.70710678
vn 2.1466108e-16 1.00000000 -2.1029693e-16
vn 1.2266347e-16 0.70710678 0.70710678
vn -3.0665868e-17 -3.0042419e-17 1.00000000
vn -3.9865629e-16 -0.70710678 0.70710678
vn -5.2131976e-16 -1.00000000 1.8025451e-16
vn -2.7599282e-16 -0.70710678 -0.70710678
vn 3.0665868e-17 -9.0127256e-17 -1.00000000
vn 2.4532695e-16 0.70710678 -0.70710678
vn -2.1466108e-16 1.00000000 -2.1029693e-16
vn -1.2266347e-16 0.70710678 0.70710678
vn 3.0665868e-17 -3.0042419e-17 1.00000000
vn 3.9865629e-16 -0.70710678 0.70710678
vn 5.2131976e-16 -1.00000000 1.8025451e-16
vn 2.7599282e-16 -0.70710678 -0.70710678
vn -3.0665868e-17 -9.0127256e-17 -1.00000000
vn -2.4532695e-16 0.70710678 -0.70710678
vn -2.1466108e-16 1.00000000 -2.1029693e-16
vn -1.2266347e-16 0.70710678 0.70710678
vn 3.0665868e-17 -3.0042419e-17 1.00000000
vn 3.9865629e-16 -0.70710678 0.70710678
vn 5.2131976e-16 -1.00000000 1.8025451e-16
vn 2.7599282e-16 -0.70710678 -0.70710678
vn -3.0665868e-17 -9.0127256e-17 -1.00000000
vn -2.4532695e-16 0.70710678 -0.70710678
vn 1.00000000 1.6676892e-33 6.0084837e-17
vn 0.70710678 3.2199162e-17 0.70710678
vn -2.1029693e-16 4.7532096e-17 1.00000000
vn -0.70710678 3.3732455e-17 0.70710678
vn -1.00000000 -1.5332934e-18 -1.2016967e-16
vn -0.70710678 -3.3732455e-17 -0.70710678
vn 2.4033935e-16 -4.7532096e-17 -1.00000000
vn 0.70710678 -3.3732455e-17 -0.70710678
vn 1.00000000 1.6676892e-33 6.0084837e-17
vn 0.70710678 3.2199162e-17 0.70710678
vn -2.1029693e-16 4.7532096e-17 1.00000000
vn -0.70710678 3.3732455e-17 0.70710678
vn -1.00000000 -1.5332934e-18 -1.2016967e-16
vn -0.70710678 -3.3732455e-17 -0.70710678
vn 2.4033935e-16 -4.7532096e-17 -1.00000000
vn 0.70710678 -3.3732455e-17 -0.70710678
vn -2.4033935e-16 -2.8407346e-17 -1.00000000
vn -0.70710678 0.0000000e+0 -0.70710678
vn -1.00000000 0.0000000e+0 2.1029693e-16
vn -0.70710678 0.0000000e+0 0.70710678
vn 6.0084837e-17 0.0000000e+0 1.00000000
vn 0.70710678 -2.8407346e-17 -0.70710678
vn 0.70710678 0.0000000e+0 0.70710678
vn 1.00000000 0.0000000e+0 -6.0084837e-17
vn 0.0000000e+0 1.00000000 0.0000000e+0
vn -1.00000000 3.4510794e-17 0.0000000e+0
vn 3.8515488e-17 -0.19509032 0.98078528
vn -1.00000000 3.4510794e-17 0.0000000e+0
vn 3.8515488e-17 -0.19509032 0.98078528
vn -1.00000000 -2.7258550e-16 0.0000000e+0
vn 1.6355130e-16 -0.70710678 0.70710678
vn 1.6355130e-16 -0.70710678 0.70710678
vn -1.00000000 -2.7258550e-16 0.0000000e+0
vn 2.2488303e-16 -1.00000000 3.0042419e-17
vn 2.2488303e-16 -1.00000000 3.0042419e-17
vn -1.00000000 -2.7258550e-16 0.0000000e+0
vn 1.2266347e-16 -0.70710678 -0.70710678
vn 1.2266347e-16 -0.70710678 -0.70710678
vn -1.00000000 3.4510794e-17 0.0000000e+0
vn 1.9257744e-17 -0.19509032 -0.98078528
vn -1.00000000 3.4510794e-17 0.0000000e+0
vn 1.9257744e-17 -0.19509032 -0.98078528
vn 1.00000000 1.8355760e-16 0.0000000e+0
vn 3.8515488e-17 -0.19509032 0.98078528
vn 3.8515488e-17 -0.19509032 0.98078528
vn 1.00000000 1.8355760e-16 0.0000000e+0
vn 1.00000000 7.0872229e-16 0.0000000e+0
vn 1.6355130e-16 -0.70710678 0.70710678
vn 1.6355130e-16 -0.70710678 0.70710678
vn 1.00000000 7.0872229e-16 0.0000000e+0
vn 2.2488303e-16 -1.00000000 3.0042419e-17
vn 2.2488303e-16 -1.00000000 3.0042419e-17
vn 1.00000000 7.0872229e-16 0.0000000e+0
vn 1.2266347e-16 -0.70710678 -0.70710678
vn 1.2266347e-16 -0.70710678 -0.70710678
vn 1.00000000 1.8355760e-16 0.0000000e+0
vn 1.9257744e-17 -0.19509032 -0.98078528
vn 1.00000000 1.8355760e-16 0.0000000e+0
vn 1.9257744e-17 -0.19509032 -0.98078528
vn -0.98078528 -0.19509032 0.0000000e+0
vn 2.7755576e-17 -6.7007887e-17 -1.00000000
vn -0.98078528 -0.19509032 0.0000000e+0
vn 2.7755576e-17 -6.7007887e-17 -1.00000000
vn -0.98078528 -0.19509032 0.0000000e+0
vn -5.5511151e-17 1.3401577e-16 1.00000000
vn -0.98078528 -0.19509032 0.0000000e+0
vn -5.5511151e-17 1.3401577e-16 1.00000000
vn -5.5511151e-17 1.3401577e-16 1.00000000
vn 0.98078528 0.19509032 0.0000000e+0
vn -5.5511151e-17 1.3401577e-16 1.00000000
vn 0.98078528 0.19509032 0.0000000e+0
vn 0.98078528 0.19509032 0.0000000e+0
vn 2.7755576e-17 -6.7007887e-17 -1.00000000
vn 0.98078528 0.19509032 0.0000000e+0
vn 2.7755576e-17 -6.7007887e-17 -1.00000000
vn 0.0000000e+0 -1.00000000 0.0000000e+0
vn 0.0000000e+0 0.0000000e+0 -1.00000000
vn 0.0000000e+0 -1.00000000 0.0000000e+0
vn 0.0000000e+0 0.0000000e+0 -1.00000000
vn 0.0000000e+0 -1.00000000 0.0000000e+0
vn 0.0000000e+0 0.0000000e+0 1.00000000
vn 0.0000000e+0 -1.00000000 0.0000000e+0
vn 0.0000000e+0 0.0000000e+0 1.00000000
vn 0.0000000e+0 0.0000000e+0 1.00000000
vn 0.0000000e+0 1.00000000 0.0000000e+0
vn 0.0000000e+0 0.0000000e+0 1.00000000
vn 0.0000000e+0 1.00000000 0.0000000e+0
vn 0.0000000e+0 1.00000000 0.0000000e+0
vn 0.0000000e+0 0.0000000e+0 -1.00000000
vn 0.0000000e+0 1.00000000 0.0000000e+0
vn 0.0000000e+0 0.0000000e+0 -1.00000000
vn -0.70710678 -0.70710678 0.0000000e+0
vn 2.7755576e-17 -6.7007887e-17 -1.00000000
vn -0.70710678 -0.70710678 0.0000000e+0
vn 2.7755576e-17 -6.7007887e-17 -1.00000000
vn -0.70710678 -0.70710678 0.0000000e+0
vn -5.5511151e-17 1.3401577e-16 1.00000000
vn -0.70710678 -0.70710678 0.0000000e+0
vn -5.5511151e-17 1.3401577e-16 1.00000000
vn -5.5511151e-17 1.3401577e-16 1.00000000
vn 0.70710678 0.70710678 0.0000000e+0
vn -5.5511151e-17 1.3401577e-16 1.00000000
vn 0.70710678 0.70710678 0.0000000e+0
vn 0.70710678 0.70710678 0.0000000e+0
vn 2.7755576e-17 -6.7007887e-17 -1.00000000
vn 0.70710678 0.70710678 0.0000000e+0
vn 2.7755576e-17 -6.7007887e-17 -1.00000000
vn 1.00000000 8.9027893e-17 0.0000000e+0
vn -3.8515488e-17 -0.19509032 0.98078528
vn 1.00000000 8.9027893e-17 0.0000000e+0
vn -3.8515488e-17 -0.19509032 0.98078528
vn 1.00000000 -1.6355130e-16 0.0000000e+0
vn -1.6355130e-16 -0.70710678 0.70710678
vn -1.6355130e-16 -0.70710678 0.70710678
vn 1.00000000 -1.6355130e-16 0.0000000e+0
vn -2.2488303e-16 -1.00000000 3.0042419e-17
vn -2.2488303e-16 -1.00000000 3.0042419e-17
vn 1.00000000 -1.6355130e-16 0.0000000e+0
vn -1.2266347e-16 -0.70710678 -0.70710678
vn -1.2266347e-16 -0.70710678 -0.70710678
vn 1.00000000 8.9027893e-17 0.0000000e+0
vn -1.9257744e-17 -0.19509032 -0.98078528
vn 1.00000000 8.9027893e-17 0.0000000e+0
vn -1.9257744e-17 -0.19509032 -0.98078528
vn -1.00000000 -1.9806209e-16 0.0000000e+0
vn -3.8515488e-17 -0.19509032 0.98078528
vn -3.8515488e-17 -0.19509032 0.98078528
vn -1.00000000 -1.9806209e-16 0.0000000e+0
vn -1.00000000 -5.4517099e-17 0.0000000e+0
vn -1.6355130e-16 -0.70710678 0.70710678
vn -1.6355130e-16 -0.70710678 0.70710678
vn -1.00000000 -5.4517099e-17 0.0000000e+0
vn -2.2488303e-16 -1.00000000 3.0042419e-17
vn -2.2488303e-16 -1.00000000 3.0042419e-17
vn -1.00000000 -5.4517099e-17 0.0000000e+0
vn -1.2266347e-16 -0.70710678 -0.70710678
vn -1.2266347e-16 -0.70710678 -0.70710678
vn -1.00000000 -1.9806209e-16 0.0000000e+0
vn -1.9257744e-17 -0.19509032 -0.98078528
vn -1.00000000 -1.9806209e-16 0.0000000e+0
vn -1.9257744e-17 -0.19509032 -0.98078528
vn 0.98078528 -0.19509032 0.0000000e+0
vn -2.7755576e-17 -6.7007887e-17 -1.00000000
vn 0.98078528 -0.19509032 0.0000000e+0
vn -2.7755576e-17 -6.7007887e-17 -1.00000000
vn 0.98078528 -0.19509032 0.0000000e+0
vn 5.5511151e-17 1.3401577e-16 1.00000000
vn 0.98078528 -0.19509032 0.0000000e+0
vn 5.5511151e-17 1.3401577e-16 1.00000000
vn 5.5511151e-17 1.3401577e-16 1.00000000
vn -0.98078528 0.19509032 0.0000000e+0
vn 5.5511151e-17 1.3401577e-16 1.00000000
vn -0.98078528 0.19509032 0.0000000e+0
vn -0.98078528 0.19509032 0.0000000e+0
vn -2.7755576e-17 -6.7007887e-17 -1.00000000
vn -0.98078528 0.19509032 0.0000000e+0
vn -2.7755576e-17 -6.7007887e-17 -1.00000000
vn 0.70710678 -0.70710678 0.0000000e+0
vn -2.7755576e-17 -6.7007887e-17 -1.00000000
vn 0.70710678 -0.70710678 0.0000000e+0
vn -2.7755576e-17 -6.7007887e-17 -1.00000000
vn 0.70710678 -0.70710678 0.0000000e+0
vn 5.5511151e-17 1.3401577e-16 1.00000000
vn 0.70710678 -0.70710678 0.0000000e+0
vn 5.5511151e-17 1.3401577e-16 1.00000000
vn 5.5511151e-17 1.3401577e-16 1.00000000
vn -0.70710678 0.70710678 0.0000000e+0
vn 5.5511151e-17 1.3401577e-16 1.00000000
vn -0.70710678 0.70710678 0.0000000e+0
vn -0.70710678 0.70710678 0.0000000e+0
vn -2.7755576e-17 -6.7007887e-17 -1.00000000
vn -0.70710678 0.70710678 0.0000000e+0
vn -2.7755576e-17 -6.7007887e-17 -1.00000000
vn 1.00000000 0.0000000e+0 -6.0084837e-17
vn 1.00000000 0.0000000e+0 -6.0084837e-17
vn 0.0000000e+0 1.00000000 0.0000000e+0
vn 0.0000000e+0 1.00000000 0.0000000e+0
vn 0.70710678 0.0000000e+0 0.70710678
vn 0.70710678 0.0000000e+0 0.70710678
vn 0.0000000e+0 1.00000000 0.0000000e+0
vn 0.0000000e+0 1.00000000 0.0000000e+0
vn 6.0084837e-17 0.0000000e+0 1.00000000
vn 6.0084837e-17 0.0000000e+0 1.00000000
vn 0.0000000e+0 1.00000000 0.0000000e+0
vn 0.0000000e+0 1.00000000 0.0000000e+0
vn -0.70710678 0.0000000e+0 0.70710678
vn -0.70710678 0.0000000e+0 0.70710678
vn 0.0000000e+0 1.00000000 0.0000000e+0
vn 0.0000000e+0 1.00000000 0.0000000e+0
vn -1.00000000 0.0000000e+0 2.1029693e-16
vn -1.00000000 0.0000000e+0 2.1029693e-16
vn 0.0000000e+0 1.00000000 0.0000000e+0
vn 0.0000000e+0 1.00000000 0.0000000e+0
vn -0.70710678 0.0000000e+0 -0.70710678
vn -0.70710678 0.0000000e+0 -0.70710678
vn 0.0000000e+0 1.00000000 8.7227359e-16
vn 0.0000000e+0 1.00000000 8.7227359e-16
vn -2.4033935e-16 -2.8407346e-17 -1.00000000
vn -2.4033935e-16 -2.8407346e-17 -1.00000000
vn 0.0000000e+0 1.00000000 0.0000000e+0
vn 0.0000000e+0 1.00000000 0.0000000e+0
vn 0.70710678 -2.8407346e-17 -0.70710678
vn 0.70710678 -2.8407346e-17 -0.70710678
vn 0.0000000e+0 1.00000000 -8.7227359e-16
vn 0.0000000e+0 1.00000000 -8.7227359e-16
g mesh1_mesh1_auv
usemtl mesh1_auv
s 1
f 1/97/1 9/94/9 16/93/16 8/96/8
f 2/92/2 10/104/10 9/105/9 1/95/1
f 3/91/3 11/103/11 10/104/10 2/92/2
f 4/88/4 12/100/12 11/103/11 3/91/3
f 5/87/5 13/99/13 12/100/12 4/88/4
f 6/101/6 14/89/14 13/87/13 5/99/5
f 7/103/7 15/91/15 14/89/14 6/101/6
f 8/96/8 16/93/16 15/91/15 7/103/7
f 18/65/63 23/67/80 22/48/76 17/49/59
f 19/76/66 24/74/83 23/67/81 18/65/64
f 20/62/69 25/64/86 24/73/84 19/72/67
f 21/45/72 26/44/89 25/64/87 20/62/70
f 21/45/74 27/27/93 30/28/105 26/44/91
f 22/48/77 29/32/100 28/29/97 17/49/61
f 27/27/95 35/22/127 38/16/139 30/28/107
f 29/32/102 37/17/134 36/25/131 28/29/99
f 31/18/111 53/24/191 56/14/203 34/3/123
f 32/20/113 36/25/129 37/17/132 33/3/116
f 33/1/118 55/15/198 54/23/195 32/19/115
f 34/2/121 38/16/137 35/22/125 31/21/109
f 39/51/141 44/50/158 45/68/162 40/69/145
f 39/51/143 50/34/179 51/33/182 44/50/159
f 40/69/146 45/68/163 46/79/165 41/78/148
f 41/77/149 46/75/166 47/63/168 42/66/151
f 42/66/152 47/63/169 48/46/171 43/47/154
f 48/46/173 52/31/187 49/30/175 43/47/156
f 50/34/181 54/23/197 55/15/200 51/33/184
f 52/31/189 56/14/205 53/24/193 49/30/177
f 57/105/17 65/95/25 66/92/26 58/104/18
f 58/104/18 66/92/26 67/90/27 59/102/19
f 59/102/19 67/90/27 68/88/28 60/100/20
f 60/100/20 68/88/28 69/86/29 61/98/21
f 61/87/21 69/99/29 70/100/30 62/88/22
f 62/88/22 70/100/30 71/103/31 63/91/23
f 63/91/23 71/103/31 72/104/32 64/92/24
f 64/92/24 72/104/32 65/105/25 57/95/17
f 73/58/33 81/11/41 88/10/48 80/57/40
f 74/59/34 82/12/42 81/11/41 73/58/33
f 75/60/35 83/13/43 82/12/42 74/59/34
f 76/53/36 84/5/44 83/4/43 75/52/35
f 77/54/37 85/6/45 84/5/44 76/53/36
f 78/55/38 86/7/46 85/6/45 77/54/37
f 79/56/39 87/8/47 86/7/46 78/55/38
f 80/57/40 88/10/48 87/9/47 79/61/39
f 89/142/208 105/134/57 90/140/212
f 90/140/213 105/134/57 91/133/217
f 91/133/216 105/134/57 92/129/221
f 92/129/220 105/134/57 93/125/225
f 93/125/224 105/134/57 94/130/229
f 94/130/228 105/134/57 95/135/233
f 95/135/232 105/134/57 96/141/237
f 96/141/236 105/134/57 89/142/209
s 2
f 17/42/58 21/43/71 20/41/68 19/39/65 18/40/62
f 17/42/60 28/80/96 27/81/92 21/43/73
f 23/150/79 24/152/82 25/151/85 26/148/88 22/149/75
f 26/148/90 30/131/104 29/132/101 22/149/78
f 28/80/98 36/84/130 35/85/126 27/81/94
f 30/131/106 38/119/138 37/118/135 29/132/103
f 31/109/108 35/85/124 36/84/128 32/108/112
f 32/108/114 54/114/194 53/113/190 31/109/110
f 33/106/117 37/118/133 38/119/136 34/107/120
f 34/107/122 56/83/202 55/82/199 33/106/119
f 40/145/144 41/147/147 42/146/150 43/144/153 39/143/140
f 43/144/155 49/124/174 50/123/178 39/143/142
f 44/37/157 48/38/170 47/36/167 46/26/164 45/35/161
f 44/37/160 51/70/183 52/71/186 48/38/172
f 49/124/176 53/113/192 54/114/196 50/123/180
f 51/70/185 55/82/201 56/83/204 52/71/188
f 89/122/206 104/120/56 102/127/54 96/128/234
f 90/117/211 103/116/55 104/120/56 89/122/207
f 91/112/215 101/110/53 103/116/55 90/117/210
f 92/128/219 100/126/52 101/137/53 91/138/214
f 93/122/223 99/121/51 100/126/52 92/128/218
f 94/117/227 98/115/50 99/121/51 93/122/222
f 95/112/231 97/111/49 98/115/50 94/117/226
f 96/128/235 102/127/54 97/136/49 95/139/230
