# Exported from Wings 3D 1.5.4
mtllib black_knight_winglet_srf_1_collider.mtl
o collider
#8 vertices, 6 faces
v -0.32500000 -0.52500000 -1.2500000e-2
v -0.32500000 -0.52500000 1.2500000e-2
v -0.32500000 0.12500000 -1.2500000e-2
v -0.32500000 0.12500000 1.2500000e-2
v -2.5000000e-2 -0.42500000 -1.2500000e-2
v -2.5000000e-2 -0.42500000 1.2500000e-2
v -2.5000000e-2 0.42500000 -1.2500000e-2
v -2.5000000e-2 0.42500000 1.2500000e-2
vn 0.31622777 -0.94868330 0.0000000e+0
vn 0.0000000e+0 0.0000000e+0 -1.00000000
vn -1.00000000 0.0000000e+0 0.0000000e+0
vn 0.31622777 -0.94868330 0.0000000e+0
vn 0.0000000e+0 0.0000000e+0 1.00000000
vn -1.00000000 0.0000000e+0 0.0000000e+0
vn -0.70710678 0.70710678 0.0000000e+0
vn 0.0000000e+0 0.0000000e+0 -1.00000000
vn -1.00000000 0.0000000e+0 0.0000000e+0
vn -0.70710678 0.70710678 0.0000000e+0
vn 0.0000000e+0 0.0000000e+0 1.00000000
vn -1.00000000 0.0000000e+0 0.0000000e+0
vn 0.31622777 -0.94868330 0.0000000e+0
vn 0.0000000e+0 0.0000000e+0 -1.00000000
vn 1.00000000 0.0000000e+0 0.0000000e+0
vn 0.31622777 -0.94868330 0.0000000e+0
vn 0.0000000e+0 0.0000000e+0 1.00000000
vn 1.00000000 0.0000000e+0 0.0000000e+0
vn -0.70710678 0.70710678 0.0000000e+0
vn 0.0000000e+0 0.0000000e+0 -1.00000000
vn 1.00000000 0.0000000e+0 0.0000000e+0
vn -0.70710678 0.70710678 0.0000000e+0
vn 0.0000000e+0 0.0000000e+0 1.00000000
vn 1.00000000 0.0000000e+0 0.0000000e+0
g collider_default
usemtl default
s 1
f 2//6 4//12 3//9 1//3
f 5//15 7//21 8//24 6//18
s 2
f 2//5 6//17 8//23 4//11
f 3//8 7//20 5//14 1//2
s 3
f 1//1 5//13 6//16 2//4
f 4//10 8//22 7//19 3//7
