# Exported from Wings 3D 1.5.4
mtllib blue_steel_winglet_srf_3_winglet.mtl
o winglet2
#20 vertices, 12 faces
v 0.57500000 -0.29285714 1.8750000e-2
v 0.57500000 -0.34285714 0.0000000e+0
v 0.57500000 -0.24285714 2.5000000e-2
v -0.57500000 -0.13214286 2.5000000e-2
v -0.57500000 -0.23214286 0.0000000e+0
v -0.57500000 -0.18214286 1.8750000e-2
v -0.57500000 -1.2500000e-2 2.5000000e-2
v 0.57500000 -1.2500000e-2 2.5000000e-2
v -0.57500000 -1.2500000e-2 -2.5000000e-2
v -0.57500000 -0.13214286 -2.5000000e-2
v 0.57500000 -1.2500000e-2 -2.5000000e-2
v 0.57500000 -0.24285714 -2.5000000e-2
v -0.57500000 -0.18214286 -1.8750000e-2
v 0.57500000 -0.29285714 -1.8750000e-2
v 0.57500000 0.0000000e+0 0.0000000e+0
v -0.57500000 0.0000000e+0 0.0000000e+0
v -0.57500000 -3.4549150e-3 -1.3897542e-2
v 0.57500000 -3.4549150e-3 1.3897542e-2
v 0.57500000 -3.4549150e-3 -1.3897542e-2
v -0.57500000 -3.4549150e-3 1.3897542e-2
vt 0.71165132 0.95799189
vt 0.71165132 0.95799189
vt 0.71165985 0.91380274
vt 0.71165985 0.91380274
vt 0.71169297 0.93796101
vt 0.71169297 0.93796101
vt 0.71169969 0.94768596
vt 0.71169969 0.94768596
vt 0.93360626 0.91348433
vt 0.93360626 0.91348433
vt 0.93362839 0.97904100
vt 0.93362839 0.97904100
vt 0.93367004 0.95901012
vt 0.93367004 0.95901012
vt 0.93367676 0.96873506
vt 0.93367676 0.96873506
vt 0.97096715 0.43779013
vt 0.97096715 0.21528180
vt 0.97127188 8.6562737e-2
vt 0.97127188 0.13220176
vt 0.97127188 0.17218398
vt 0.97127188 0.19645546
vt 0.97247812 7.6912883e-2
vt 0.97247812 0.16253412
vt 0.97341463 0.19645546
vt 0.97341463 0.13220176
vt 0.97353198 0.43779013
vt 0.97353198 0.21528180
vt 0.97609681 0.43779013
vt 0.97609681 6.7263029e-2
vt 0.97609681 0.13220176
vt 0.97609681 0.15288427
vt 0.97609681 0.19645546
vt 0.97609681 0.21528180
vt 0.97866164 0.43779013
vt 0.97866164 0.21528180
vt 0.97877900 0.19645546
vt 0.97877900 0.13220176
vt 0.97971551 7.6912883e-2
vt 0.97971551 0.16253412
vt 0.98092174 8.6562737e-2
vt 0.98092174 0.13220176
vt 0.98092174 0.17218398
vt 0.98092174 0.19645546
vt 0.98122647 0.43779013
vt 0.98122647 0.21528180
vn -2.3021680e-2 -0.23912841 0.97071500
vn -2.3021680e-2 -0.23912841 0.97071500
vn 1.00000000 0.0000000e+0 0.0000000e+0
vn -3.3784512e-2 -0.35092300 -0.93579467
vn -3.3784512e-2 -0.35092300 0.93579467
vn 1.00000000 0.0000000e+0 0.0000000e+0
vn -5.9818558e-3 -6.2134115e-2 0.99804988
vn -5.9818558e-3 -6.2134115e-2 0.99804988
vn 1.00000000 0.0000000e+0 0.0000000e+0
vn -5.9818558e-3 -6.2134115e-2 0.99804988
vn -5.9818558e-3 -6.2134115e-2 0.99804988
vn -1.00000000 0.0000000e+0 0.0000000e+0
vn -3.3784512e-2 -0.35092300 -0.93579467
vn -3.3784512e-2 -0.35092300 0.93579467
vn -1.00000000 0.0000000e+0 0.0000000e+0
vn -2.3021680e-2 -0.23912841 0.97071500
vn -2.3021680e-2 -0.23912841 0.97071500
vn -1.00000000 0.0000000e+0 0.0000000e+0
vn 0.0000000e+0 0.0000000e+0 1.00000000
vn -1.00000000 0.0000000e+0 0.0000000e+0
vn -6.8303171e-17 0.77528155 0.63161580
vn 0.0000000e+0 0.0000000e+0 1.00000000
vn 1.00000000 0.0000000e+0 0.0000000e+0
vn -6.8303171e-17 0.77528155 0.63161580
vn 0.0000000e+0 0.0000000e+0 -1.00000000
vn -1.00000000 0.0000000e+0 0.0000000e+0
vn 0.0000000e+0 0.77528155 -0.63161580
vn -5.9818558e-3 -6.2134115e-2 -0.99804988
vn -5.9818558e-3 -6.2134115e-2 -0.99804988
vn -1.00000000 0.0000000e+0 0.0000000e+0
vn 0.0000000e+0 0.0000000e+0 -1.00000000
vn 1.00000000 0.0000000e+0 0.0000000e+0
vn 0.0000000e+0 0.77528155 -0.63161580
vn -5.9818558e-3 -6.2134115e-2 -0.99804988
vn -5.9818558e-3 -6.2134115e-2 -0.99804988
vn 1.00000000 0.0000000e+0 0.0000000e+0
vn -2.3021680e-2 -0.23912841 -0.97071500
vn -2.3021680e-2 -0.23912841 -0.97071500
vn -1.00000000 0.0000000e+0 0.0000000e+0
vn -2.3021680e-2 -0.23912841 -0.97071500
vn -2.3021680e-2 -0.23912841 -0.97071500
vn 1.00000000 0.0000000e+0 0.0000000e+0
vn -6.0418412e-18 1.00000000 -4.2900579e-16
vn 1.00000000 0.0000000e+0 0.0000000e+0
vn -6.0418412e-18 1.00000000 -4.2900579e-16
vn -6.0418412e-18 1.00000000 -4.2900579e-16
vn -1.00000000 0.0000000e+0 0.0000000e+0
vn -6.0418412e-18 1.00000000 -4.2900579e-16
vn -1.00000000 0.0000000e+0 0.0000000e+0
vn 0.0000000e+0 0.89442719 -0.44721360
vn 0.0000000e+0 0.89442719 -0.44721360
vn -4.1003133e-17 0.89442719 0.44721360
vn 1.00000000 0.0000000e+0 0.0000000e+0
vn -4.1003133e-17 0.89442719 0.44721360
vn 1.00000000 0.0000000e+0 0.0000000e+0
vn 0.0000000e+0 0.89442719 -0.44721360
vn 0.0000000e+0 0.89442719 -0.44721360
vn -4.1003133e-17 0.89442719 0.44721360
vn -1.00000000 0.0000000e+0 0.0000000e+0
vn -4.1003133e-17 0.89442719 0.44721360
g winglet2_winglet2_auv
usemtl winglet2_auv
s 1
f 5/2/13 13/7/37 14/15/40 2/11/4
f 9/3/25 11/10/31 12/13/35 10/6/29
f 12/13/34 14/15/41 13/7/38 10/6/28
s 2
f 2/30/6 14/39/42 12/41/36 11/42/32 19/38/55 15/31/44 18/26/53 8/20/23 3/19/9 1/23/3
f 6/40/18 4/43/12 7/44/20 20/37/59 16/33/47 17/25/49 9/22/26 10/21/30 13/24/39 5/32/15
s 3
f 1/16/2 3/14/7 4/5/10 6/8/17
f 3/14/8 8/9/22 7/4/19 4/5/11
f 6/8/16 5/1/14 2/12/5 1/16/1
s 4
f 8/45/24 18/35/54 20/36/60 7/46/21
f 9/18/27 17/28/51 19/27/57 11/17/33
f 15/29/43 16/34/46 20/36/58 18/35/52
f 16/34/48 15/29/45 19/27/56 17/28/50
