# Exported from Wings 3D 1.5.4
mtllib blue_steel_winglet_srf_1.mtl
o winglet2
#20 vertices, 20 faces
v -2.5000000e-2 -0.62500000 -2.5000000e-2
v -2.5000000e-2 -0.62500000 2.5000000e-2
v -2.5000000e-2 0.62500000 -2.5000000e-2
v -2.5000000e-2 0.62500000 2.5000000e-2
v -0.40000000 -0.62500000 -2.5000000e-2
v -0.40000000 -0.62500000 2.5000000e-2
v -0.40000000 -0.50000000 -2.5000000e-2
v -0.40000000 -0.50000000 2.5000000e-2
v -2.5000000e-2 0.72500000 0.0000000e+0
v -0.40000000 -0.40000000 0.0000000e+0
v -2.5000000e-2 -0.72500000 0.0000000e+0
v -0.40000000 -0.72500000 0.0000000e+0
v -0.40000000 -0.45000000 -1.8750000e-2
v -2.5000000e-2 0.67500000 1.8750000e-2
v -2.5000000e-2 0.67500000 -1.8750000e-2
v -0.40000000 -0.45000000 1.8750000e-2
v -0.40000000 -0.67500000 -1.8750000e-2
v -2.5000000e-2 -0.67500000 1.8750000e-2
v -2.5000000e-2 -0.67500000 -1.8750000e-2
v -0.40000000 -0.67500000 1.8750000e-2
vt 1.9032687e-2 4.2552381e-2
vt 1.9032687e-2 4.2552381e-2
vt 1.9705113e-2 2.4013533e-2
vt 2.9283030e-2 4.2552381e-2
vt 2.9283030e-2 4.2552381e-2
vt 2.9419964e-2 2.0370464e-2
vt 2.9419964e-2 2.7656602e-2
vt 3.9071025e-2 4.2552381e-2
vt 3.9071025e-2 4.2552381e-2
vt 3.9134816e-2 1.9156107e-2
vt 3.9134816e-2 2.8870959e-2
vt 0.23761684 0.11443794
vt 0.23761684 0.11443794
vt 0.24042240 0.13404884
vt 0.24786719 0.11443794
vt 0.24786719 0.11443794
vt 0.24955436 0.13062436
vt 0.24955436 0.13747333
vt 0.25765518 0.11443794
vt 0.25765518 0.11443794
vt 0.25868632 0.12948286
vt 0.25868632 0.13861482
vt 0.28151622 0.12948286
vt 0.28151622 0.13861482
vt 0.28194231 0.11443794
vt 0.28194231 4.2552381e-2
vt 0.28194231 4.2552381e-2
vt 0.28194231 0.11443794
vt 0.28200610 1.9156107e-2
vt 0.28200610 2.8870959e-2
vt 0.29064818 0.13062436
vt 0.29064818 0.13747333
vt 0.29172095 2.0370464e-2
vt 0.29172095 2.7656602e-2
vt 0.29173276 4.2552381e-2
vt 0.29173276 0.11443794
vt 0.29173276 0.11443794
vt 0.29173276 4.2552381e-2
vt 0.29978014 0.13404884
vt 0.30143580 2.4013533e-2
vt 0.30210823 0.11443794
vt 0.30210823 4.2552381e-2
vt 0.30210823 4.2552381e-2
vt 0.30210823 0.11443794
vn 0.0000000e+0 -6.2137442e-2 -0.99806760
vn 1.00000000 0.0000000e+0 0.0000000e+0
vn 0.0000000e+0 -6.2137442e-2 -0.99806760
vn 1.00000000 0.0000000e+0 0.0000000e+0
vn 0.0000000e+0 -6.2137442e-2 0.99806760
vn 1.00000000 0.0000000e+0 0.0000000e+0
vn 0.0000000e+0 -6.2137442e-2 0.99806760
vn 1.00000000 0.0000000e+0 0.0000000e+0
vn -0.17750634 5.9168780e-2 -0.98233933
vn -0.17750634 5.9168780e-2 -0.98233933
vn 1.00000000 0.0000000e+0 0.0000000e+0
vn 1.00000000 0.0000000e+0 0.0000000e+0
vn -0.17750634 5.9168780e-2 0.98233933
vn -0.17750634 5.9168780e-2 0.98233933
vn 1.00000000 0.0000000e+0 0.0000000e+0
vn 1.00000000 0.0000000e+0 0.0000000e+0
vn 0.0000000e+0 -6.2137442e-2 -0.99806760
vn -1.00000000 0.0000000e+0 0.0000000e+0
vn 0.0000000e+0 -6.2137442e-2 -0.99806760
vn -1.00000000 0.0000000e+0 0.0000000e+0
vn 0.0000000e+0 -6.2137442e-2 0.99806760
vn -1.00000000 0.0000000e+0 0.0000000e+0
vn -1.00000000 0.0000000e+0 0.0000000e+0
vn 0.0000000e+0 -6.2137442e-2 0.99806760
vn -0.17750634 5.9168780e-2 -0.98233933
vn -1.00000000 0.0000000e+0 0.0000000e+0
vn -1.00000000 0.0000000e+0 0.0000000e+0
vn -0.17750634 5.9168780e-2 -0.98233933
vn -0.17750634 5.9168780e-2 0.98233933
vn -1.00000000 0.0000000e+0 0.0000000e+0
vn -0.17750634 5.9168780e-2 0.98233933
vn -1.00000000 0.0000000e+0 0.0000000e+0
vn -0.72524067 0.24174689 0.64465837
vn -0.72524067 0.24174689 -0.64465837
vn 1.00000000 0.0000000e+0 0.0000000e+0
vn -0.72524067 0.24174689 0.64465837
vn -1.00000000 0.0000000e+0 0.0000000e+0
vn -0.72524067 0.24174689 -0.64465837
vn 0.0000000e+0 -0.35112344 -0.93632918
vn 0.0000000e+0 -0.35112344 0.93632918
vn 1.00000000 0.0000000e+0 0.0000000e+0
vn 0.0000000e+0 -0.35112344 -0.93632918
vn -1.00000000 0.0000000e+0 0.0000000e+0
vn 0.0000000e+0 -0.35112344 0.93632918
vn -1.00000000 0.0000000e+0 0.0000000e+0
vn -0.55378446 0.18459482 -0.81194059
vn -1.00000000 0.0000000e+0 0.0000000e+0
vn -0.55378446 0.18459482 -0.81194059
vn -0.55378446 0.18459482 0.81194059
vn -0.55378446 0.18459482 0.81194059
vn 1.00000000 0.0000000e+0 0.0000000e+0
vn 1.00000000 0.0000000e+0 0.0000000e+0
vn -0.55378446 0.18459482 -0.81194059
vn -0.55378446 0.18459482 -0.81194059
vn 1.00000000 0.0000000e+0 0.0000000e+0
vn 1.00000000 0.0000000e+0 0.0000000e+0
vn -0.55378446 0.18459482 0.81194059
vn -1.00000000 0.0000000e+0 0.0000000e+0
vn -0.55378446 0.18459482 0.81194059
vn -1.00000000 0.0000000e+0 0.0000000e+0
vn 0.0000000e+0 -0.23922037 -0.97096530
vn -1.00000000 0.0000000e+0 0.0000000e+0
vn 0.0000000e+0 -0.23922037 -0.97096530
vn -1.00000000 0.0000000e+0 0.0000000e+0
vn 1.00000000 0.0000000e+0 0.0000000e+0
vn 0.0000000e+0 -0.23922037 0.97096530
vn 1.00000000 0.0000000e+0 0.0000000e+0
vn 0.0000000e+0 -0.23922037 0.97096530
vn 0.0000000e+0 -0.23922037 -0.97096530
vn 1.00000000 0.0000000e+0 0.0000000e+0
vn 0.0000000e+0 -0.23922037 -0.97096530
vn 1.00000000 0.0000000e+0 0.0000000e+0
vn -1.00000000 0.0000000e+0 0.0000000e+0
vn 0.0000000e+0 -0.23922037 0.97096530
vn -1.00000000 0.0000000e+0 0.0000000e+0
vn 0.0000000e+0 -0.23922037 0.97096530
g winglet2_mesh2_auv
usemtl mesh2_auv
s 1
f 1/26/1 5/25/17 7/19/25 3/9/9
f 1/26/3 19/35/71 17/36/63 5/25/19
f 7/19/28 13/15/48 15/5/54 3/9/10
f 9/2/34 15/5/53 13/15/46 10/12/38
f 12/41/42 17/36/61 19/35/69 11/42/39
s 2
f 4/8/13 8/20/29 6/28/21 2/27/5
f 4/8/14 14/4/50 16/16/59 8/20/31
f 6/28/24 20/37/76 18/38/68 2/27/7
f 9/1/33 10/13/36 16/16/57 14/4/49
f 11/43/40 18/38/66 20/37/74 12/44/44
s 3
f 1/29/2 2/30/6 18/34/65 19/33/70
f 3/10/11 4/11/15 2/30/8 1/29/4
f 5/24/18 6/23/22 8/21/30 7/22/26
f 7/22/27 8/21/32 16/17/60 13/18/47
f 10/14/37 13/18/45 16/17/58
f 11/40/41 19/33/72 18/34/67
f 14/7/51 15/6/55 9/3/35
f 15/6/56 14/7/52 4/11/16 3/10/12
f 17/32/64 20/31/75 6/23/23 5/24/20
f 20/31/73 17/32/62 12/39/43
o mesh2
#24 vertices, 20 faces
v -2.5000000e-2 -0.62500000 -2.5000000e-2
v -2.5000000e-2 -0.62500000 2.5000000e-2
v -2.5000000e-2 0.62500000 -2.5000000e-2
v -2.5000000e-2 0.62500000 2.5000000e-2
v -2.5000000e-2 0.72500000 0.0000000e+0
v -2.5000000e-2 -0.72500000 0.0000000e+0
v -2.5000000e-2 0.67500000 1.8750000e-2
v -2.5000000e-2 0.67500000 -1.8750000e-2
v -2.5000000e-2 -0.67500000 1.8750000e-2
v -2.5000000e-2 -0.67500000 -1.8750000e-2
v 2.5000000e-2 -0.62500000 -2.5000000e-2
v 2.5000000e-2 -0.62500000 2.5000000e-2
v 2.5000000e-2 0.62500000 -2.5000000e-2
v 2.5000000e-2 0.62500000 2.5000000e-2
v 2.5000000e-2 0.67500000 1.8750000e-2
v 2.5000000e-2 0.67500000 -1.8750000e-2
v 2.5000000e-2 -0.67500000 1.8750000e-2
v 2.5000000e-2 -0.67500000 -1.8750000e-2
v 2.5000000e-2 0.72500000 0.0000000e+0
v 2.5000000e-2 -0.72500000 0.0000000e+0
v 2.5000000e-2 0.0000000e+0 -2.5000000e-2
v 2.5000000e-2 0.0000000e+0 2.5000000e-2
v -2.5000000e-2 0.0000000e+0 2.5000000e-2
v -2.5000000e-2 0.0000000e+0 -2.5000000e-2
vt 0.32191217 0.13122610
vt 0.32191217 0.14160156
vt 0.32191217 1.8750000e-2
vt 0.32191217 0.13122610
vt 0.32191217 0.13122610
vt 0.32191217 0.14160156
vt 0.32191217 0.12143564
vt 0.32191217 0.12143564
vt 0.32191217 0.12143564
vt 0.32191217 1.8750000e-2
vt 0.32191217 1.8750000e-2
vt 0.32191217 0.14160156
vt 0.32191217 1.8750000e-2
vt 0.32191217 0.13122610
vt 0.32191217 0.14160156
vt 0.32191217 0.12143564
vt 0.33162702 0.13122610
vt 0.33162702 0.13122610
vt 0.33162702 1.8750000e-2
vt 0.33162702 0.13122610
vt 0.33162702 0.14160156
vt 0.33162702 0.12143564
vt 0.33162702 0.14160156
vt 0.33162702 0.14160156
vt 0.33162702 0.12143564
vt 0.33162702 0.14160156
vt 0.33162702 1.8750000e-2
vt 0.33162702 0.12143564
vt 0.33162702 0.13122610
vt 0.33162702 1.8750000e-2
vt 0.33162702 1.8750000e-2
vt 0.33162702 0.12143564
vt 0.35025721 1.9381186e-2
vt 0.35025721 0.12124534
vt 0.35025721 0.12135054
vt 0.35025721 1.9486383e-2
vt 0.35025721 0.12135054
vt 0.35025721 0.12124534
vt 0.35025721 1.9381186e-2
vt 0.35146185 0.13088248
vt 0.35146185 0.13098767
vt 0.35146185 0.13098767
vt 0.35146185 0.13088248
vt 0.35507577 0.14051961
vt 0.35507577 0.14062481
vt 0.35507577 0.14062481
vt 0.35507577 0.14051961
vt 0.35868970 0.13088248
vt 0.35868970 0.13098767
vt 0.35868970 0.13098767
vt 0.35868970 0.13088248
vt 0.35989434 1.9381186e-2
vt 0.35989434 0.12124534
vt 0.35989434 0.12135054
vt 0.35989434 1.9486383e-2
vt 0.35989434 0.12135054
vt 0.35989434 0.12124534
vt 0.35989434 1.9381186e-2
vn 0.0000000e+0 -6.2137442e-2 -0.99806760
vn 0.0000000e+0 -6.2137442e-2 -0.99806760
vn -1.00000000 0.0000000e+0 0.0000000e+0
vn 0.0000000e+0 -6.2137442e-2 0.99806760
vn -1.00000000 0.0000000e+0 0.0000000e+0
vn 0.0000000e+0 -6.2137442e-2 0.99806760
vn -1.00000000 0.0000000e+0 0.0000000e+0
vn 0.0000000e+0 6.2137442e-2 -0.99806760
vn 0.0000000e+0 6.2137442e-2 -0.99806760
vn -1.00000000 0.0000000e+0 0.0000000e+0
vn 0.0000000e+0 6.2137442e-2 0.99806760
vn 0.0000000e+0 6.2137442e-2 0.99806760
vn -1.00000000 0.0000000e+0 0.0000000e+0
vn 0.0000000e+0 1.00000000 0.0000000e+0
vn 0.0000000e+0 1.00000000 0.0000000e+0
vn 0.0000000e+0 -1.00000000 0.0000000e+0
vn 0.0000000e+0 -1.00000000 0.0000000e+0
vn -1.00000000 0.0000000e+0 0.0000000e+0
vn -1.00000000 0.0000000e+0 0.0000000e+0
vn 0.0000000e+0 0.23922037 0.97096530
vn 0.0000000e+0 0.23922037 0.97096530
vn -1.00000000 0.0000000e+0 0.0000000e+0
vn 0.0000000e+0 0.23922037 -0.97096530
vn 0.0000000e+0 0.23922037 -0.97096530
vn 0.0000000e+0 -0.23922037 0.97096530
vn 0.0000000e+0 -0.23922037 0.97096530
vn -1.00000000 0.0000000e+0 0.0000000e+0
vn 0.0000000e+0 -0.23922037 -0.97096530
vn 0.0000000e+0 -0.23922037 -0.97096530
vn -1.00000000 0.0000000e+0 0.0000000e+0
vn 1.00000000 0.0000000e+0 0.0000000e+0
vn 1.00000000 0.0000000e+0 0.0000000e+0
vn 0.0000000e+0 -6.2137442e-2 -0.99806760
vn 0.0000000e+0 -6.2137442e-2 -0.99806760
vn 1.00000000 0.0000000e+0 0.0000000e+0
vn 1.00000000 0.0000000e+0 0.0000000e+0
vn 0.0000000e+0 -6.2137442e-2 0.99806760
vn 0.0000000e+0 -6.2137442e-2 0.99806760
vn 1.00000000 0.0000000e+0 0.0000000e+0
vn 0.0000000e+0 6.2137442e-2 -0.99806760
vn 1.00000000 0.0000000e+0 0.0000000e+0
vn 0.0000000e+0 6.2137442e-2 -0.99806760
vn 1.00000000 0.0000000e+0 0.0000000e+0
vn 0.0000000e+0 6.2137442e-2 0.99806760
vn 0.0000000e+0 6.2137442e-2 0.99806760
vn 1.00000000 0.0000000e+0 0.0000000e+0
vn 1.00000000 0.0000000e+0 0.0000000e+0
vn 1.00000000 0.0000000e+0 0.0000000e+0
vn 0.0000000e+0 0.23922037 0.97096530
vn 0.0000000e+0 0.23922037 0.97096530
vn 1.00000000 0.0000000e+0 0.0000000e+0
vn 1.00000000 0.0000000e+0 0.0000000e+0
vn 0.0000000e+0 0.23922037 -0.97096530
vn 0.0000000e+0 0.23922037 -0.97096530
vn 1.00000000 0.0000000e+0 0.0000000e+0
vn 1.00000000 0.0000000e+0 0.0000000e+0
vn 0.0000000e+0 -0.23922037 0.97096530
vn 0.0000000e+0 -0.23922037 0.97096530
vn 1.00000000 0.0000000e+0 0.0000000e+0
vn 1.00000000 0.0000000e+0 0.0000000e+0
vn 0.0000000e+0 -0.23922037 -0.97096530
vn 0.0000000e+0 -0.23922037 -0.97096530
vn 1.00000000 0.0000000e+0 0.0000000e+0
vn 0.0000000e+0 1.00000000 0.0000000e+0
vn 0.0000000e+0 1.00000000 0.0000000e+0
vn 1.00000000 0.0000000e+0 0.0000000e+0
vn 0.0000000e+0 -1.00000000 0.0000000e+0
vn 0.0000000e+0 -1.00000000 0.0000000e+0
vn 1.00000000 0.0000000e+0 0.0000000e+0
vn 0.0000000e+0 0.0000000e+0 -1.00000000
vn 1.00000000 0.0000000e+0 0.0000000e+0
vn 0.0000000e+0 0.0000000e+0 -1.00000000
vn 1.00000000 0.0000000e+0 0.0000000e+0
vn 0.0000000e+0 0.0000000e+0 1.00000000
vn 1.00000000 0.0000000e+0 0.0000000e+0
vn 0.0000000e+0 0.0000000e+0 1.00000000
vn -1.00000000 0.0000000e+0 0.0000000e+0
vn 0.0000000e+0 0.0000000e+0 1.00000000
vn -1.00000000 0.0000000e+0 0.0000000e+0
vn 0.0000000e+0 0.0000000e+0 1.00000000
vn -1.00000000 0.0000000e+0 0.0000000e+0
vn 0.0000000e+0 0.0000000e+0 -1.00000000
vn -1.00000000 0.0000000e+0 0.0000000e+0
vn 0.0000000e+0 0.0000000e+0 -1.00000000
g mesh2_mesh2_auv
usemtl mesh2_auv
s 1
f 21/100/79 30/94/106 26/89/94 29/86/103 22/81/81 43/80/155 44/99/159
f 25/90/89 28/93/98 23/98/83 44/99/157 43/80/153 24/79/86 27/85/95
f 31/78/108 41/83/145 42/102/149 32/97/112
f 32/97/111 37/92/131 38/84/135 31/78/107
f 33/82/115 36/87/128 35/95/124 34/101/119
f 34/101/122 42/96/151 41/77/147 33/82/117
f 36/87/127 39/91/139 35/95/123
f 37/92/132 40/88/142 38/84/136
s 2
f 21/53/77 31/69/109 38/73/138 30/48/105
f 22/76/82 32/60/114 42/57/152 43/75/156
f 24/72/87 34/52/120 35/45/126 27/62/97
f 24/72/88 43/74/154 42/55/150 34/52/121
f 25/50/91 39/65/141 36/64/129 28/49/99
f 26/68/93 40/59/144 37/58/133 29/61/101
f 27/62/96 35/45/125 39/56/140 25/67/90
f 28/49/100 36/64/130 33/66/116 23/51/84
f 29/61/102 37/58/134 32/60/113 22/76/80
f 30/48/104 38/73/137 40/70/143 26/46/92
f 33/66/118 41/63/148 44/47/160 23/51/85
f 44/54/158 41/71/146 31/69/110 21/53/78
