# Exported from Wings 3D 1.5.4
mtllib blue_steel_winglet_srf_3.mtl
o mesh2
#54 vertices, 54 faces
v -2.5000000e-2 -1.25000000 -2.5000000e-2
v -2.5000000e-2 -1.25000000 2.5000000e-2
v -2.5000000e-2 1.25000000 -2.5000000e-2
v -2.5000000e-2 1.25000000 2.5000000e-2
v -1.27500000 -1.12500000 -2.5000000e-2
v -1.27500000 -1.12500000 2.5000000e-2
v -1.27500000 -0.75000000 -2.5000000e-2
v -1.27500000 -0.75000000 2.5000000e-2
v -2.5000000e-2 1.35000000 0.0000000e+0
v -1.27500000 -0.65000000 0.0000000e+0
v -2.5000000e-2 -1.35000000 0.0000000e+0
v -1.27500000 -1.22500000 0.0000000e+0
v -1.27500000 -0.70000000 -1.8750000e-2
v -2.5000000e-2 1.30000000 1.8750000e-2
v -2.5000000e-2 1.30000000 -1.8750000e-2
v -1.27500000 -0.70000000 1.8750000e-2
v -1.27500000 -1.17500000 -1.8750000e-2
v -2.5000000e-2 -1.30000000 1.8750000e-2
v -2.5000000e-2 -1.30000000 -1.8750000e-2
v -1.27500000 -1.17500000 1.8750000e-2
v 2.5000000e-2 -1.25000000 -2.5000000e-2
v 2.5000000e-2 -1.25000000 2.5000000e-2
v 2.5000000e-2 1.25000000 -2.5000000e-2
v 2.5000000e-2 1.25000000 2.5000000e-2
v 2.5000000e-2 1.30000000 1.8750000e-2
v 2.5000000e-2 1.30000000 -1.8750000e-2
v 2.5000000e-2 -1.30000000 1.8750000e-2
v 2.5000000e-2 -1.30000000 -1.8750000e-2
v 2.5000000e-2 -1.35000000 0.0000000e+0
v 2.5000000e-2 1.35000000 0.0000000e+0
v -7.5000000e-2 -1.29285714 1.8750000e-2
v -7.5000000e-2 -1.34285714 0.0000000e+0
v -7.5000000e-2 -1.24285714 2.5000000e-2
v -1.22500000 -1.13214286 2.5000000e-2
v -1.22500000 -1.23214286 0.0000000e+0
v -1.22500000 -1.18214286 1.8750000e-2
v -1.22500000 -1.00000000 2.5000000e-2
v -7.5000000e-2 -1.00000000 2.5000000e-2
v -1.22500000 -1.00000000 -2.5000000e-2
v -1.22500000 -1.13214286 -2.5000000e-2
v -7.5000000e-2 -1.00000000 -2.5000000e-2
v -7.5000000e-2 -1.24285714 -2.5000000e-2
v -1.22500000 -1.18214286 -1.8750000e-2
v -7.5000000e-2 -1.29285714 -1.8750000e-2
v -2.5000000e-2 -0.75000000 2.5000000e-2
v -2.5000000e-2 -0.75000000 -2.5000000e-2
v -1.27500000 -1.00000000 -2.5000000e-2
v -1.27500000 -1.00000000 2.5000000e-2
v -2.5000000e-2 -1.00000000 -2.5000000e-2
v 2.5000000e-2 -1.00000000 2.5000000e-2
v 2.5000000e-2 -1.00000000 -2.5000000e-2
v -2.5000000e-2 -1.00000000 2.5000000e-2
v 2.5000000e-2 -0.75000000 -2.5000000e-2
v 2.5000000e-2 -0.75000000 2.5000000e-2
vt 0.67250547 0.86399009
vt 0.67250547 0.91246187
vt 0.67250547 0.93669775
vt 0.67371726 0.85429574
vt 0.67371726 0.94639211
vt 0.67735265 0.84460138
vt 0.67735265 0.95608646
vt 0.68098803 0.85429574
vt 0.68098803 0.94639211
vt 0.68219982 0.86399009
vt 0.68219982 0.91246187
vt 0.68219982 0.93669775
vt 0.70118247 0.95701704
vt 0.70118247 0.95701704
vt 0.70122953 0.84554540
vt 0.70128539 0.94738030
vt 0.70128539 0.94738030
vt 0.70132242 0.93770593
vt 0.70132242 0.93770593
vt 0.70132427 0.85529504
vt 0.70132427 0.85529504
vt 0.70133265 0.91347297
vt 0.70133265 0.91347297
vt 0.70135312 0.86500704
vt 0.70135312 0.86500704
vt 0.71087265 0.95840178
vt 0.71087265 0.95840178
vt 0.71097557 0.94876504
vt 0.71097557 0.94876504
vt 0.71101261 0.93909067
vt 0.71101261 0.93909067
vt 0.71102343 0.91347297
vt 0.71102343 0.91347297
vt 0.93375132 0.97986526
vt 0.93375132 0.97986526
vt 0.93385424 0.97022852
vt 0.93385424 0.97022852
vt 0.93389127 0.96055416
vt 0.93389127 0.96055416
vt 0.93391115 0.91347297
vt 0.93391115 0.91347297
vt 0.94344150 0.98125000
vt 0.94344150 0.98125000
vt 0.94354442 0.97161327
vt 0.94354442 0.97161327
vt 0.94358146 0.96193890
vt 0.94358146 0.96193890
vt 0.94360192 0.91347297
vt 0.94360192 0.91347297
vt 0.94362239 0.86500704
vt 0.94362239 0.86500704
vt 0.94366252 0.45781797
vt 0.94366252 0.45781797
vt 0.94375725 0.46756761
vt 0.94375725 0.46756761
vt 0.94378610 0.47727961
vt 0.95313227 0.98125000
vt 0.95323520 0.97161327
vt 0.95323520 0.97161327
vt 0.95327223 0.96193890
vt 0.95327223 0.96193890
vt 0.95329269 0.91347297
vt 0.95329269 0.91347297
vt 0.95331316 0.86500704
vt 0.95335329 0.45781797
vt 0.95344802 0.46756761
vt 0.95344802 0.46756761
vt 0.95347687 0.47727961
vt 0.97155565 0.21505819
vt 0.97155565 0.43802835
vt 0.97155565 8.5523248e-2
vt 0.97155565 0.13261011
vt 0.97155565 0.17077229
vt 0.97155565 0.19639308
vt 0.97155565 0.47714357
vt 0.97155565 0.52561534
vt 0.97155565 0.57408711
vt 0.97155565 0.96186129
vt 0.97276744 7.5828893e-2
vt 0.97276744 0.16107793
vt 0.97276744 0.46744921
vt 0.97276744 0.97155565
vt 0.97640282 6.6134539e-2
vt 0.97640282 0.15138358
vt 0.97640282 0.45775486
vt 0.97640282 0.98125000
vt 0.98003821 7.5828893e-2
vt 0.98003821 0.16107793
vt 0.98003821 0.46744921
vt 0.98003821 0.97155565
vt 0.98125000 0.21505819
vt 0.98125000 8.5523248e-2
vt 0.98125000 0.13261011
vt 0.98125000 0.17077229
vt 0.98125000 0.19639308
vt 0.98125000 0.43802835
vt 0.98125000 0.47714357
vt 0.98125000 0.52561534
vt 0.98125000 0.57408711
vt 0.98125000 0.96186129
vn 0.0000000e+0 -6.2137442e-2 -0.99806760
vn 0.0000000e+0 -6.2137442e-2 -0.99806760
vn -8.8757311e-3 -6.2130118e-2 -0.99802859
vn -8.8757311e-3 -6.2130118e-2 -0.99802859
vn -8.8757311e-3 -6.2130118e-2 0.99802859
vn 0.0000000e+0 -6.2137442e-2 0.99806760
vn -8.8757311e-3 -6.2130118e-2 0.99802859
vn 0.0000000e+0 -6.2137442e-2 0.99806760
vn -9.7985991e-2 6.1241245e-2 -0.99330169
vn 0.0000000e+0 6.2137442e-2 -0.99806760
vn -9.7985991e-2 6.1241245e-2 -0.99330169
vn 0.0000000e+0 6.2137442e-2 -0.99806760
vn -9.7985991e-2 6.1241245e-2 0.99330169
vn 0.0000000e+0 6.2137442e-2 0.99806760
vn 0.0000000e+0 6.2137442e-2 0.99806760
vn -9.7985991e-2 6.1241245e-2 0.99330169
vn -1.00000000 0.0000000e+0 0.0000000e+0
vn -1.00000000 0.0000000e+0 0.0000000e+0
vn -8.8757311e-3 -6.2130118e-2 -0.99802859
vn -8.8757311e-3 -6.2130118e-2 -0.99802859
vn -1.00000000 0.0000000e+0 0.0000000e+0
vn -1.00000000 0.0000000e+0 0.0000000e+0
vn -8.8757311e-3 -6.2130118e-2 0.99802859
vn -8.8757311e-3 -6.2130118e-2 0.99802859
vn -1.00000000 0.0000000e+0 0.0000000e+0
vn -4.8910331e-2 3.0568957e-2 -0.99833527
vn -4.8910331e-2 3.0568957e-2 -0.99833527
vn -1.00000000 0.0000000e+0 0.0000000e+0
vn -4.8910331e-2 3.0568957e-2 -0.99833527
vn -4.8910331e-2 3.0568957e-2 -0.99833527
vn -4.8910331e-2 3.0568957e-2 0.99833527
vn -1.00000000 0.0000000e+0 0.0000000e+0
vn -4.8910331e-2 3.0568957e-2 0.99833527
vn -4.8910331e-2 3.0568957e-2 0.99833527
vn -4.8910331e-2 3.0568957e-2 0.99833527
vn -1.00000000 0.0000000e+0 0.0000000e+0
vn -0.48979592 0.30612245 0.81632653
vn -0.48979592 0.30612245 -0.81632653
vn 0.0000000e+0 0.35112344 0.93632918
vn 0.0000000e+0 0.35112344 -0.93632918
vn -0.48979592 0.30612245 0.81632653
vn -1.00000000 0.0000000e+0 0.0000000e+0
vn -0.48979592 0.30612245 -0.81632653
vn 0.0000000e+0 -0.35112344 -0.93632918
vn 0.0000000e+0 -0.35112344 0.93632918
vn -5.0097507e-2 -0.35068255 0.93515346
vn -5.0097507e-2 -0.35068255 -0.93515346
vn -1.00000000 0.0000000e+0 0.0000000e+0
vn -5.0097507e-2 -0.35068255 0.93515346
vn -5.0097507e-2 -0.35068255 -0.93515346
vn -1.00000000 0.0000000e+0 0.0000000e+0
vn -0.34863925 0.21789953 -0.91157582
vn -1.00000000 0.0000000e+0 0.0000000e+0
vn -0.34863925 0.21789953 -0.91157582
vn -0.34863925 0.21789953 0.91157582
vn -0.34863925 0.21789953 0.91157582
vn 0.0000000e+0 0.23922037 0.97096530
vn 0.0000000e+0 0.23922037 0.97096530
vn -0.34863925 0.21789953 -0.91157582
vn -0.34863925 0.21789953 -0.91157582
vn 0.0000000e+0 0.23922037 -0.97096530
vn 0.0000000e+0 0.23922037 -0.97096530
vn -0.34863925 0.21789953 0.91157582
vn -1.00000000 0.0000000e+0 0.0000000e+0
vn -0.34863925 0.21789953 0.91157582
vn -1.00000000 0.0000000e+0 0.0000000e+0
vn -1.00000000 0.0000000e+0 0.0000000e+0
vn -1.00000000 0.0000000e+0 0.0000000e+0
vn -3.4145438e-2 -0.23901806 -0.97041458
vn -3.4145438e-2 -0.23901806 -0.97041458
vn -3.4145438e-2 -0.23901806 0.97041458
vn 0.0000000e+0 -0.23922037 0.97096530
vn 0.0000000e+0 -0.23922037 0.97096530
vn -3.4145438e-2 -0.23901806 0.97041458
vn 0.0000000e+0 -0.23922037 -0.97096530
vn 0.0000000e+0 -0.23922037 -0.97096530
vn -3.4145438e-2 -0.23901806 -0.97041458
vn -3.4145438e-2 -0.23901806 -0.97041458
vn -1.00000000 0.0000000e+0 0.0000000e+0
vn -1.00000000 0.0000000e+0 0.0000000e+0
vn -3.4145438e-2 -0.23901806 0.97041458
vn -3.4145438e-2 -0.23901806 0.97041458
vn 1.00000000 0.0000000e+0 0.0000000e+0
vn 1.00000000 0.0000000e+0 0.0000000e+0
vn 0.0000000e+0 -6.2137442e-2 -0.99806760
vn 0.0000000e+0 -6.2137442e-2 -0.99806760
vn 1.00000000 0.0000000e+0 0.0000000e+0
vn 1.00000000 0.0000000e+0 0.0000000e+0
vn 0.0000000e+0 -6.2137442e-2 0.99806760
vn 0.0000000e+0 -6.2137442e-2 0.99806760
vn 1.00000000 0.0000000e+0 0.0000000e+0
vn 0.0000000e+0 6.2137442e-2 -0.99806760
vn 1.00000000 0.0000000e+0 0.0000000e+0
vn 0.0000000e+0 6.2137442e-2 -0.99806760
vn 1.00000000 0.0000000e+0 0.0000000e+0
vn 0.0000000e+0 6.2137442e-2 0.99806760
vn 0.0000000e+0 6.2137442e-2 0.99806760
vn 1.00000000 0.0000000e+0 0.0000000e+0
vn 1.00000000 0.0000000e+0 0.0000000e+0
vn 1.00000000 0.0000000e+0 0.0000000e+0
vn 0.0000000e+0 0.23922037 0.97096530
vn 0.0000000e+0 0.23922037 0.97096530
vn 1.00000000 0.0000000e+0 0.0000000e+0
vn 1.00000000 0.0000000e+0 0.0000000e+0
vn 0.0000000e+0 0.23922037 -0.97096530
vn 0.0000000e+0 0.23922037 -0.97096530
vn 1.00000000 0.0000000e+0 0.0000000e+0
vn 1.00000000 0.0000000e+0 0.0000000e+0
vn 0.0000000e+0 -0.23922037 0.97096530
vn 0.0000000e+0 -0.23922037 0.97096530
vn 1.00000000 0.0000000e+0 0.0000000e+0
vn 1.00000000 0.0000000e+0 0.0000000e+0
vn 0.0000000e+0 -0.23922037 -0.97096530
vn 0.0000000e+0 -0.23922037 -0.97096530
vn 1.00000000 0.0000000e+0 0.0000000e+0
vn 0.0000000e+0 -0.35112344 -0.93632918
vn 0.0000000e+0 -0.35112344 0.93632918
vn 1.00000000 0.0000000e+0 0.0000000e+0
vn 0.0000000e+0 0.35112344 0.93632918
vn 0.0000000e+0 0.35112344 -0.93632918
vn -3.4145438e-2 -0.23901806 0.97041458
vn -3.4145438e-2 -0.23901806 0.97041458
vn -1.00000000 -2.8404829e-17 -1.8179090e-16
vn -5.0097507e-2 -0.35068255 0.93515346
vn -5.0097507e-2 -0.35068255 -0.93515346
vn -1.00000000 -2.8404829e-17 -1.8179090e-16
vn -8.8757311e-3 -6.2130118e-2 0.99802859
vn -1.00000000 -2.8404829e-17 -1.8179090e-16
vn -8.8757311e-3 -6.2130118e-2 0.99802859
vn -8.8757311e-3 -6.2130118e-2 0.99802859
vn 1.00000000 0.0000000e+0 0.0000000e+0
vn -8.8757311e-3 -6.2130118e-2 0.99802859
vn -5.0097507e-2 -0.35068255 0.93515346
vn -5.0097507e-2 -0.35068255 -0.93515346
vn 1.00000000 0.0000000e+0 0.0000000e+0
vn -3.4145438e-2 -0.23901806 0.97041458
vn -3.4145438e-2 -0.23901806 0.97041458
vn 1.00000000 0.0000000e+0 0.0000000e+0
vn 0.0000000e+0 0.0000000e+0 1.00000000
vn 4.8270566e-17 -1.00000000 1.1102230e-15
vn 1.00000000 0.0000000e+0 0.0000000e+0
vn 0.0000000e+0 0.0000000e+0 1.00000000
vn 0.0000000e+0 0.0000000e+0 1.00000000
vn 4.8270566e-17 -1.00000000 1.1102230e-15
vn -1.00000000 -2.8404829e-17 -1.8179090e-16
vn 0.0000000e+0 0.0000000e+0 1.00000000
vn 0.0000000e+0 0.0000000e+0 1.00000000
vn 0.0000000e+0 0.0000000e+0 1.00000000
vn 4.8270566e-17 -1.00000000 1.1102230e-15
vn 1.00000000 0.0000000e+0 0.0000000e+0
vn 0.0000000e+0 0.0000000e+0 -1.00000000
vn 0.0000000e+0 0.0000000e+0 -1.00000000
vn 0.0000000e+0 0.0000000e+0 -1.00000000
vn -8.8757311e-3 -6.2130118e-2 -0.99802859
vn 1.00000000 0.0000000e+0 0.0000000e+0
vn -8.8757311e-3 -6.2130118e-2 -0.99802859
vn 4.8270566e-17 -1.00000000 1.1102230e-15
vn -1.00000000 -2.8404829e-17 -1.8179090e-16
vn 0.0000000e+0 0.0000000e+0 -1.00000000
vn 0.0000000e+0 0.0000000e+0 -1.00000000
vn 0.0000000e+0 0.0000000e+0 -1.00000000
vn -8.8757311e-3 -6.2130118e-2 -0.99802859
vn -1.00000000 -2.8404829e-17 -1.8179090e-16
vn -8.8757311e-3 -6.2130118e-2 -0.99802859
vn -3.4145438e-2 -0.23901806 -0.97041458
vn -3.4145438e-2 -0.23901806 -0.97041458
vn 1.00000000 0.0000000e+0 0.0000000e+0
vn -3.4145438e-2 -0.23901806 -0.97041458
vn -3.4145438e-2 -0.23901806 -0.97041458
vn -1.00000000 -2.8404829e-17 -1.8179090e-16
vn 0.0000000e+0 0.0000000e+0 1.00000000
vn 0.0000000e+0 0.0000000e+0 1.00000000
vn 0.0000000e+0 0.0000000e+0 1.00000000
vn 0.0000000e+0 0.0000000e+0 1.00000000
vn 0.0000000e+0 0.0000000e+0 1.00000000
vn 0.0000000e+0 0.0000000e+0 -1.00000000
vn 0.0000000e+0 0.0000000e+0 -1.00000000
vn 0.0000000e+0 0.0000000e+0 -1.00000000
vn 0.0000000e+0 0.0000000e+0 -1.00000000
vn 0.0000000e+0 0.0000000e+0 -1.00000000
vn -1.00000000 0.0000000e+0 0.0000000e+0
vn 0.0000000e+0 0.0000000e+0 -1.00000000
vn -1.00000000 0.0000000e+0 0.0000000e+0
vn 0.0000000e+0 0.0000000e+0 -1.00000000
vn -1.00000000 0.0000000e+0 0.0000000e+0
vn 0.0000000e+0 0.0000000e+0 1.00000000
vn -1.00000000 0.0000000e+0 0.0000000e+0
vn 0.0000000e+0 0.0000000e+0 1.00000000
vn 0.0000000e+0 0.0000000e+0 -1.00000000
vn 0.0000000e+0 0.0000000e+0 -1.00000000
vn 0.0000000e+0 0.0000000e+0 -1.00000000
vn 0.0000000e+0 0.0000000e+0 -1.00000000
vn 1.00000000 0.0000000e+0 0.0000000e+0
vn 0.0000000e+0 0.0000000e+0 1.00000000
vn 0.0000000e+0 0.0000000e+0 1.00000000
vn 1.00000000 0.0000000e+0 0.0000000e+0
vn 1.00000000 0.0000000e+0 0.0000000e+0
vn 0.0000000e+0 0.0000000e+0 -1.00000000
vn 1.00000000 0.0000000e+0 0.0000000e+0
vn 0.0000000e+0 0.0000000e+0 -1.00000000
vn 0.0000000e+0 0.0000000e+0 1.00000000
vn 0.0000000e+0 0.0000000e+0 1.00000000
vn 0.0000000e+0 0.0000000e+0 1.00000000
vn 0.0000000e+0 0.0000000e+0 1.00000000
vn 1.00000000 0.0000000e+0 0.0000000e+0
vn 0.0000000e+0 0.0000000e+0 -1.00000000
vn 1.00000000 0.0000000e+0 0.0000000e+0
vn 0.0000000e+0 0.0000000e+0 -1.00000000
vn 0.0000000e+0 0.0000000e+0 1.00000000
vn 1.00000000 0.0000000e+0 0.0000000e+0
vn 0.0000000e+0 0.0000000e+0 1.00000000
vn 1.00000000 0.0000000e+0 0.0000000e+0
g mesh2_mesh2_auv
usemtl mesh2_auv
s 1
f 2/47/8 22/61/90 50/63/194 52/49/202
f 4/56/14 24/68/96 25/67/101 14/55/57
f 4/56/15 45/51/171 54/64/209 24/68/97
f 7/10/25 8/1/32 16/4/66 13/8/53
f 7/10/28 47/11/183 48/2/187 8/1/36
f 10/6/42 13/8/51 16/4/64
f 11/43/45 29/57/117 27/59/110 18/45/73
f 14/55/58 25/67/102 30/65/119 9/53/39
f 17/9/68 20/5/80 6/3/22 5/12/18
f 18/45/72 27/59/109 22/61/89 2/47/6
f 20/5/79 17/9/67 12/7/48
f 37/96/140 39/70/149 41/69/157 38/91/144
f 48/2/185 47/11/181 5/12/17 6/3/21
f 52/49/203 50/63/195 54/64/211 45/51/174
s 2
f 21/97/84 51/98/197 50/76/193 22/75/88
f 22/75/87 27/81/107 28/89/111 21/97/83
f 23/100/91 26/90/104 25/82/100 24/78/95
f 24/78/98 54/77/210 53/99/205 23/100/93
f 26/90/103 30/86/118 25/82/99
f 27/81/108 29/85/115 28/89/112
f 31/87/123 33/92/128 38/93/145 41/72/158 42/71/163 44/79/170 32/83/126
f 35/84/135 43/88/167 40/94/155 39/95/150 37/74/141 34/73/131 36/80/138
f 53/99/207 54/77/212 50/76/196 51/98/199
s 3
f 1/46/3 19/44/78 44/36/169 42/38/162
f 3/56/11 46/50/176 7/24/27
f 5/18/19 40/30/154 43/28/166 17/16/70
f 5/18/20 47/22/182 39/32/151 40/30/156
f 7/24/26 13/20/54 15/54/60 3/56/9
f 7/24/29 39/32/152 47/22/184
f 9/52/38 15/54/59 13/20/52 10/15/43
f 17/16/69 43/28/165 35/26/134 12/13/50
f 32/34/125 44/36/168 19/44/77 11/42/47
f 39/32/153 7/24/30 46/50/180 41/40/161
f 42/38/164 41/40/159 49/48/190 1/46/4
f 49/48/191 41/40/160 46/50/178
s 4
f 1/46/2 21/60/86 28/58/114 19/44/76
f 1/46/1 49/48/189 51/62/198 21/60/85
f 6/19/24 34/31/132 37/33/143 48/23/188
f 8/25/34 45/51/172 4/56/16
f 8/25/33 48/23/186 37/33/139
f 9/53/37 10/15/41 16/21/63 14/55/55
f 9/52/40 30/65/120 26/66/106 15/54/62
f 11/43/46 18/45/74 31/37/122 32/35/124
f 12/14/49 35/27/133 36/29/136 20/17/81
f 14/55/56 16/21/65 8/25/31 4/56/13
f 15/54/61 26/66/105 23/68/92 3/56/10
f 19/44/75 28/58/113 29/57/116 11/42/44
f 20/17/82 36/29/137 34/31/130 6/19/23
f 23/68/94 53/64/206 46/50/177 3/56/12
f 33/39/127 31/37/121 18/45/71 2/47/5
f 38/41/147 45/51/173 8/25/35 37/33/142
f 45/51/175 38/41/148 52/49/204
f 46/50/179 53/64/208 51/62/200 49/48/192
f 52/49/201 38/41/146 33/39/129 2/47/7
