# Exported from Wings 3D 1.5.4
mtllib blue_sun_probe_core_s0_1_collider.mtl
o collider
#32 vertices, 26 faces
v 0.31250000 0.35000000 -0.12944174
v 0.31250000 0.35000000 0.12944174
v 0.12944174 0.35000000 0.31250000
v -0.12944174 0.35000000 0.31250000
v -0.31250000 0.35000000 0.12944174
v -0.31250000 0.35000000 -0.12944174
v -0.12944174 0.35000000 -0.31250000
v 0.12944174 0.35000000 -0.31250000
v 0.31250000 -0.35000000 -0.12944174
v 0.31250000 -0.35000000 0.12944174
v 0.12944174 -0.35000000 0.31250000
v -0.12944174 -0.35000000 0.31250000
v -0.31250000 -0.35000000 0.12944174
v -0.31250000 -0.35000000 -0.12944174
v -0.12944174 -0.35000000 -0.31250000
v 0.12944174 -0.35000000 -0.31250000
v 0.17345193 0.12500000 -0.41875000
v 0.17345193 -0.12500000 -0.41875000
v -0.17345193 0.12500000 -0.41875000
v -0.17345193 -0.12500000 -0.41875000
v -0.41875000 0.12500000 -0.17345193
v -0.41875000 -0.12500000 -0.17345193
v -0.41875000 0.12500000 0.17345193
v -0.41875000 -0.12500000 0.17345193
v -0.17345193 0.12500000 0.41875000
v -0.17345193 -0.12500000 0.41875000
v 0.17345193 0.12500000 0.41875000
v 0.17345193 -0.12500000 0.41875000
v 0.41875000 0.12500000 0.17345193
v 0.41875000 -0.12500000 0.17345193
v 0.41875000 0.12500000 -0.17345193
v 0.41875000 -0.12500000 -0.17345193
vn 0.0000000e+0 1.00000000 -4.2885048e-17
vn 0.63940035 0.42700631 -0.63940035
vn 0.90424865 0.42700631 0.0000000e+0
vn 0.0000000e+0 1.00000000 -4.2885048e-17
vn 0.63940035 0.42700631 0.63940035
vn 0.90424865 0.42700631 0.0000000e+0
vn 0.0000000e+0 1.00000000 -4.2885048e-17
vn 0.0000000e+0 0.42700631 0.90424865
vn 0.63940035 0.42700631 0.63940035
vn 0.0000000e+0 1.00000000 -4.2885048e-17
vn -0.63940035 0.42700631 0.63940035
vn 0.0000000e+0 0.42700631 0.90424865
vn 0.0000000e+0 1.00000000 -4.2885048e-17
vn -0.90424865 0.42700631 1.6111777e-16
vn -0.63940035 0.42700631 0.63940035
vn 0.0000000e+0 1.00000000 -4.2885048e-17
vn -0.63940035 0.42700631 -0.63940035
vn -0.90424865 0.42700631 1.6111777e-16
vn 0.0000000e+0 1.00000000 -4.2885048e-17
vn -4.1430285e-16 0.42700631 -0.90424865
vn -0.63940035 0.42700631 -0.63940035
vn 0.0000000e+0 1.00000000 -4.2885048e-17
vn 0.63940035 0.42700631 -0.63940035
vn -4.1430285e-16 0.42700631 -0.90424865
vn 0.0000000e+0 -1.00000000 0.0000000e+0
vn 0.63940035 -0.42700631 -0.63940035
vn 0.90424865 -0.42700631 0.0000000e+0
vn 0.0000000e+0 -1.00000000 0.0000000e+0
vn 0.63940035 -0.42700631 0.63940035
vn 0.90424865 -0.42700631 0.0000000e+0
vn 0.0000000e+0 -1.00000000 0.0000000e+0
vn 0.0000000e+0 -0.42700631 0.90424865
vn 0.63940035 -0.42700631 0.63940035
vn 0.0000000e+0 -1.00000000 0.0000000e+0
vn -0.63940035 -0.42700631 0.63940035
vn 0.0000000e+0 -0.42700631 0.90424865
vn 0.0000000e+0 -1.00000000 0.0000000e+0
vn -0.90424865 -0.42700631 1.6111777e-16
vn -0.63940035 -0.42700631 0.63940035
vn 0.0000000e+0 -1.00000000 0.0000000e+0
vn -0.63940035 -0.42700631 -0.63940035
vn -0.90424865 -0.42700631 1.6111777e-16
vn 0.0000000e+0 -1.00000000 0.0000000e+0
vn -4.1430285e-16 -0.42700631 -0.90424865
vn -0.63940035 -0.42700631 -0.63940035
vn 0.0000000e+0 -1.00000000 0.0000000e+0
vn 0.63940035 -0.42700631 -0.63940035
vn -4.1430285e-16 -0.42700631 -0.90424865
vn 0.63940035 0.42700631 -0.63940035
vn -4.1430285e-16 0.42700631 -0.90424865
vn 0.70710678 0.0000000e+0 -0.70710678
vn -4.8005650e-16 0.0000000e+0 -1.00000000
vn 0.63940035 -0.42700631 -0.63940035
vn -4.1430285e-16 -0.42700631 -0.90424865
vn 0.70710678 0.0000000e+0 -0.70710678
vn -4.8005650e-16 0.0000000e+0 -1.00000000
vn -4.1430285e-16 0.42700631 -0.90424865
vn -0.63940035 0.42700631 -0.63940035
vn -4.8005650e-16 0.0000000e+0 -1.00000000
vn -0.70710678 0.0000000e+0 -0.70710678
vn -4.1430285e-16 -0.42700631 -0.90424865
vn -0.63940035 -0.42700631 -0.63940035
vn -4.8005650e-16 0.0000000e+0 -1.00000000
vn -0.70710678 0.0000000e+0 -0.70710678
vn -0.63940035 0.42700631 -0.63940035
vn -0.90424865 0.42700631 1.6111777e-16
vn -1.00000000 0.0000000e+0 1.6001883e-16
vn -0.70710678 0.0000000e+0 -0.70710678
vn -0.63940035 -0.42700631 -0.63940035
vn -0.90424865 -0.42700631 1.6111777e-16
vn -1.00000000 0.0000000e+0 1.6001883e-16
vn -0.70710678 0.0000000e+0 -0.70710678
vn -0.90424865 0.42700631 1.6111777e-16
vn -0.63940035 0.42700631 0.63940035
vn -0.70710678 0.0000000e+0 0.70710678
vn -1.00000000 0.0000000e+0 1.6001883e-16
vn -0.90424865 -0.42700631 1.6111777e-16
vn -0.63940035 -0.42700631 0.63940035
vn -0.70710678 0.0000000e+0 0.70710678
vn -1.00000000 0.0000000e+0 1.6001883e-16
vn -0.63940035 0.42700631 0.63940035
vn 0.0000000e+0 0.42700631 0.90424865
vn -0.70710678 0.0000000e+0 0.70710678
vn 0.0000000e+0 0.0000000e+0 1.00000000
vn -0.63940035 -0.42700631 0.63940035
vn 0.0000000e+0 -0.42700631 0.90424865
vn -0.70710678 0.0000000e+0 0.70710678
vn 0.0000000e+0 0.0000000e+0 1.00000000
vn 0.0000000e+0 0.42700631 0.90424865
vn 0.63940035 0.42700631 0.63940035
vn 0.70710678 0.0000000e+0 0.70710678
vn 0.0000000e+0 0.0000000e+0 1.00000000
vn 0.0000000e+0 -0.42700631 0.90424865
vn 0.63940035 -0.42700631 0.63940035
vn 0.70710678 0.0000000e+0 0.70710678
vn 0.0000000e+0 0.0000000e+0 1.00000000
vn 0.63940035 0.42700631 0.63940035
vn 0.90424865 0.42700631 0.0000000e+0
vn 1.00000000 0.0000000e+0 0.0000000e+0
vn 0.70710678 0.0000000e+0 0.70710678
vn 0.63940035 -0.42700631 0.63940035
vn 0.90424865 -0.42700631 0.0000000e+0
vn 1.00000000 0.0000000e+0 0.0000000e+0
vn 0.70710678 0.0000000e+0 0.70710678
vn 0.63940035 0.42700631 -0.63940035
vn 0.90424865 0.42700631 0.0000000e+0
vn 0.70710678 0.0000000e+0 -0.70710678
vn 1.00000000 0.0000000e+0 0.0000000e+0
vn 0.63940035 -0.42700631 -0.63940035
vn 0.90424865 -0.42700631 0.0000000e+0
vn 0.70710678 0.0000000e+0 -0.70710678
vn 1.00000000 0.0000000e+0 0.0000000e+0
g collider_default
usemtl default
s 1
f 1//2 31//105 17//49 8//23
f 3//9 27//90 29//97 2//5
f 6//18 21//66 23//73 5//14
f 9//27 32//110 30//102 10//30
f 12//35 26//85 24//78 13//39
f 14//41 22//69 20//62 15//45
f 18//56 20//63 19//59 17//52
f 26//88 28//96 27//92 25//84
s 2
f 2//6 29//98 31//106 1//3
f 5//15 23//74 25//81 4//11
f 7//21 19//58 21//65 6//17
f 10//29 30//101 28//94 11//33
f 15//44 20//61 18//54 16//48
f 17//51 31//107 32//111 18//55
f 22//71 24//80 23//76 21//67
s 3
f 1//1 8//22 7//19 6//16 5//13 4//10 3//7 2//4
f 11//32 28//93 26//86 12//36
f 13//38 24//77 22//70 14//42
f 16//47 18//53 32//109 9//26
f 20//64 22//72 21//68 19//60
f 24//79 26//87 25//83 23//75
f 30//103 32//112 31//108 29//99
s 4
f 4//12 25//82 27//89 3//8
f 8//24 17//50 19//57 7//20
f 10//28 11//31 12//34 13//37 14//40 15//43 16//46 9//25
f 28//95 30//104 29//100 27//91
