# Exported from Wings 3D 1.5.4
mtllib blue_streak_engine_mount_s1p5_1_collider.mtl
o collider
#12 vertices, 8 faces
v -0.96783007 0.54048020 0.46875000
v -1.18749998 0.35024047 0.19416261
v -1.18749998 0.35024047 -0.19416261
v -0.96783007 0.54048020 -0.46875000
v -0.96783007 -0.75000000 0.46875000
v -1.18749998 -0.75000000 0.19416261
v -1.18749998 -0.75000000 -0.19416261
v -0.96783007 -0.75000000 -0.46875000
v -0.81249998 -0.75000000 -0.46875000
v -0.81249998 -0.75000000 0.46875000
v -0.81249998 0.67500000 -0.46875000
v -0.81249998 0.67500000 0.46875000
vn -0.78086881 7.4285047e-17 0.62469505
vn 0.0000000e+0 0.0000000e+0 1.00000000
vn -0.65465367 0.75592895 0.0000000e+0
vn -1.00000000 0.0000000e+0 0.0000000e+0
vn -0.78086881 7.4285047e-17 0.62469505
vn -0.65465367 0.75592895 0.0000000e+0
vn -0.78086881 7.4285047e-17 -0.62469505
vn -1.00000000 0.0000000e+0 0.0000000e+0
vn -0.65465367 0.75592895 0.0000000e+0
vn -0.78086881 7.4285047e-17 -0.62469505
vn -0.65465367 0.75592895 0.0000000e+0
vn -3.5737540e-16 2.9222559e-32 -1.00000000
vn -0.78086881 7.4285047e-17 0.62469505
vn 0.0000000e+0 0.0000000e+0 1.00000000
vn 0.0000000e+0 -1.00000000 0.0000000e+0
vn -1.00000000 0.0000000e+0 0.0000000e+0
vn -0.78086881 7.4285047e-17 0.62469505
vn 0.0000000e+0 -1.00000000 0.0000000e+0
vn -0.78086881 7.4285047e-17 -0.62469505
vn -1.00000000 0.0000000e+0 0.0000000e+0
vn 0.0000000e+0 -1.00000000 0.0000000e+0
vn -0.78086881 7.4285047e-17 -0.62469505
vn 0.0000000e+0 -1.00000000 0.0000000e+0
vn -3.5737540e-16 2.9222559e-32 -1.00000000
vn 0.0000000e+0 -1.00000000 0.0000000e+0
vn -3.5737540e-16 2.9222559e-32 -1.00000000
vn 1.00000000 0.0000000e+0 0.0000000e+0
vn 0.0000000e+0 0.0000000e+0 1.00000000
vn 0.0000000e+0 -1.00000000 0.0000000e+0
vn 1.00000000 0.0000000e+0 0.0000000e+0
vn -0.65465367 0.75592895 0.0000000e+0
vn -3.5737540e-16 2.9222559e-32 -1.00000000
vn 1.00000000 0.0000000e+0 0.0000000e+0
vn 0.0000000e+0 0.0000000e+0 1.00000000
vn -0.65465367 0.75592895 0.0000000e+0
vn 1.00000000 0.0000000e+0 0.0000000e+0
g collider_default
usemtl default
s 1
f 1//3 12//35 11//31 4//11 3//9 2//6
f 6//18 7//21 8//23 9//25 10//29 5//15
s 2
f 2//5 6//17 5//13 1//1
f 11//32 9//26 8//24 4//12
s 3
f 4//10 8//22 7//19 3//7
f 5//14 10//28 12//34 1//2
s 4
f 3//8 7//20 6//16 2//4
f 12//36 10//30 9//27 11//33
