# Exported from Wings 3D 1.5.4
mtllib black_knight_fuel_tank_s0_3.mtl
o mesh1
#174 vertices, 144 faces
v 0.31250000 1.25000000 -2.3057366e-17
v 0.30185182 1.25000000 8.0880952e-2
v 0.27063294 1.25000000 0.15625000
v 0.22097087 1.25000000 0.22097087
v 0.15625000 1.25000000 0.27063294
v 8.0880952e-2 1.25000000 0.30185182
v -7.6274685e-17 1.25000000 0.31250000
v -8.0880952e-2 1.25000000 0.30185182
v -0.15625000 1.25000000 0.27063294
v -0.22097087 1.25000000 0.22097087
v -0.27063294 1.25000000 0.15625000
v -0.30185182 1.25000000 8.0880952e-2
v -0.31250000 1.25000000 1.5212846e-17
v -0.30185182 1.25000000 -8.0880952e-2
v -0.27063294 1.25000000 -0.15625000
v -0.22097087 1.25000000 -0.22097087
v -0.15625000 1.25000000 -0.27063294
v -8.0880952e-2 1.25000000 -0.30185182
v -1.5281511e-16 1.25000000 -0.31250000
v 8.0880952e-2 1.25000000 -0.30185182
v 0.15625000 1.25000000 -0.27063294
v 0.22097087 1.25000000 -0.22097087
v 0.27063294 1.25000000 -0.15625000
v 0.30185182 1.25000000 -8.0880952e-2
v 0.31250000 -1.25000000 -2.3057366e-17
v 0.30185182 -1.25000000 8.0880952e-2
v 0.27063294 -1.25000000 0.15625000
v 0.22097087 -1.25000000 0.22097087
v 0.15625000 -1.25000000 0.27063294
v 8.0880952e-2 -1.25000000 0.30185182
v -7.6274685e-17 -1.25000000 0.31250000
v -8.0880952e-2 -1.25000000 0.30185182
v -0.15625000 -1.25000000 0.27063294
v -0.22097087 -1.25000000 0.22097087
v -0.27063294 -1.25000000 0.15625000
v -0.30185182 -1.25000000 8.0880952e-2
v -0.31250000 -1.25000000 1.5212846e-17
v -0.30185182 -1.25000000 -8.0880952e-2
v -0.27063294 -1.25000000 -0.15625000
v -0.22097087 -1.25000000 -0.22097087
v -0.15625000 -1.25000000 -0.27063294
v -8.0880952e-2 -1.25000000 -0.30185182
v -1.5281511e-16 -1.25000000 -0.31250000
v 8.0880952e-2 -1.25000000 -0.30185182
v 0.15625000 -1.25000000 -0.27063294
v 0.22097087 -1.25000000 -0.22097087
v 0.27063294 -1.25000000 -0.15625000
v 0.30185182 -1.25000000 -8.0880952e-2
v -0.14709936 1.15000000 -0.30478357
v -0.19040064 1.15000000 -0.27978357
v -0.19289815 1.15000000 -0.29875405
v -0.18125000 1.15000000 -0.31393421
v -0.16227952 1.15000000 -0.31643172
v -0.14542468 1.16250000 -0.30188294
v -0.15942066 1.17133883 -0.31148003
v -0.17790064 1.17500000 -0.30813294
v -0.19003928 1.17133883 -0.29380236
v -0.18872595 1.16250000 -0.27688294
v -0.14084936 1.17165064 -0.29395826
v -0.15161011 1.18695995 -0.29795175
v -0.16875000 1.19330127 -0.29228357
v -0.18222873 1.18695995 -0.28027408
v -0.18415064 1.17165064 -0.26895826
v -0.15625000 1.20000000 -0.27063294
v -0.17625498 1.15000000 -0.25528258
v -0.17625498 1.17500000 -0.25528258
v -0.17039566 1.19267767 -0.25977859
v -0.13977703 1.19267767 -0.27745626
v -0.13295371 1.17500000 -0.28028258
v -0.13295371 1.15000000 -0.28028258
v -0.14709936 -1.15000000 -0.30478357
v -0.19040064 -1.15000000 -0.27978357
v -0.19289815 -1.15000000 -0.29875405
v -0.18125000 -1.15000000 -0.31393421
v -0.16227952 -1.15000000 -0.31643172
v -0.14542468 -1.16250000 -0.30188294
v -0.15942066 -1.17133883 -0.31148003
v -0.17790064 -1.17500000 -0.30813294
v -0.19003928 -1.17133883 -0.29380236
v -0.18872595 -1.16250000 -0.27688294
v -0.14084936 -1.17165064 -0.29395826
v -0.15161011 -1.18695995 -0.29795175
v -0.16875000 -1.19330127 -0.29228357
v -0.18222873 -1.18695995 -0.28027408
v -0.18415064 -1.17165064 -0.26895826
v -0.15625000 -1.20000000 -0.27063294
v -0.17625498 -1.15000000 -0.25528258
v -0.17625498 -1.17500000 -0.25528258
v -0.17039566 -1.19267767 -0.25977859
v -0.13977703 -1.19267767 -0.27745626
v -0.13295371 -1.17500000 -0.28028258
v -0.13295371 -1.15000000 -0.28028258
v 0.14709936 1.15000000 0.30478357
v 0.19040064 1.15000000 0.27978357
v 0.19289815 1.15000000 0.29875405
v 0.18125000 1.15000000 0.31393421
v 0.16227952 1.15000000 0.31643172
v 0.14542468 1.16250000 0.30188294
v 0.15942066 1.17133883 0.31148003
v 0.17790064 1.17500000 0.30813294
v 0.19003928 1.17133883 0.29380236
v 0.18872595 1.16250000 0.27688294
v 0.14084936 1.17165064 0.29395826
v 0.15161011 1.18695995 0.29795175
v 0.16875000 1.19330127 0.29228357
v 0.18222873 1.18695995 0.28027408
v 0.18415064 1.17165064 0.26895826
v 0.15625000 1.20000000 0.27063294
v 0.17625498 1.15000000 0.25528258
v 0.17625498 1.17500000 0.25528258
v 0.17039566 1.19267767 0.25977859
v 0.13977703 1.19267767 0.27745626
v 0.13295371 1.17500000 0.28028258
v 0.13295371 1.15000000 0.28028258
v 0.14709936 -1.15000000 0.30478357
v 0.19040064 -1.15000000 0.27978357
v 0.19289815 -1.15000000 0.29875405
v 0.18125000 -1.15000000 0.31393421
v 0.16227952 -1.15000000 0.31643172
v 0.14542468 -1.16250000 0.30188294
v 0.15942066 -1.17133883 0.31148003
v 0.17790064 -1.17500000 0.30813294
v 0.19003928 -1.17133883 0.29380236
v 0.18872595 -1.16250000 0.27688294
v 0.14084936 -1.17165064 0.29395826
v 0.15161011 -1.18695995 0.29795175
v 0.16875000 -1.19330127 0.29228357
v 0.18222873 -1.18695995 0.28027408
v 0.18415064 -1.17165064 0.26895826
v 0.15625000 -1.20000000 0.27063294
v 0.17625498 -1.15000000 0.25528258
v 0.17625498 -1.17500000 0.25528258
v 0.17039566 -1.19267767 0.25977859
v 0.13977703 -1.19267767 0.27745626
v 0.13295371 -1.17500000 0.28028258
v 0.13295371 -1.15000000 0.28028258
v 0.13295371 0.0000000e+0 0.28028258
v 0.17625498 0.0000000e+0 0.25528258
v 0.16227952 0.0000000e+0 0.31643172
v 0.18125000 0.0000000e+0 0.31393421
v 0.19289815 0.0000000e+0 0.29875405
v 0.19040064 0.0000000e+0 0.27978357
v 0.14709936 0.0000000e+0 0.30478357
v -0.13295371 0.0000000e+0 -0.28028258
v -0.17625498 0.0000000e+0 -0.25528258
v -0.16227952 0.0000000e+0 -0.31643172
v -0.18125000 0.0000000e+0 -0.31393421
v -0.19289815 0.0000000e+0 -0.29875405
v -0.19040064 0.0000000e+0 -0.27978357
v -0.14709936 0.0000000e+0 -0.30478357
v 0.30185182 0.0000000e+0 -8.0880952e-2
v 0.27063294 0.0000000e+0 -0.15625000
v 0.22097087 0.0000000e+0 -0.22097087
v 0.15625000 0.0000000e+0 -0.27063294
v 8.0880952e-2 0.0000000e+0 -0.30185182
v -1.5281511e-16 0.0000000e+0 -0.31250000
v -8.0880952e-2 0.0000000e+0 -0.30185182
v -0.15625000 0.0000000e+0 -0.27063294
v -0.22097087 0.0000000e+0 -0.22097087
v -0.27063294 0.0000000e+0 -0.15625000
v -0.30185182 0.0000000e+0 -8.0880952e-2
v -0.31250000 0.0000000e+0 1.5212846e-17
v -0.30185182 0.0000000e+0 8.0880952e-2
v -0.27063294 0.0000000e+0 0.15625000
v -0.22097087 0.0000000e+0 0.22097087
v -0.15625000 0.0000000e+0 0.27063294
v -8.0880952e-2 0.0000000e+0 0.30185182
v -7.6274685e-17 0.0000000e+0 0.31250000
v 8.0880952e-2 0.0000000e+0 0.30185182
v 0.15625000 0.0000000e+0 0.27063294
v 0.22097087 0.0000000e+0 0.22097087
v 0.27063294 0.0000000e+0 0.15625000
v 0.30185182 0.0000000e+0 8.0880952e-2
v 0.31250000 0.0000000e+0 -2.3057366e-17
vt 0.23418628 0.45072298
vt 0.23418628 0.45072298
vt 0.23421256 0.46866610
vt 0.23421256 0.46866610
vt 0.23551411 0.45515378
vt 0.23551411 0.45515378
vt 0.23554202 0.46422983
vt 0.23554202 0.46422983
vt 0.23564291 0.44883783
vt 0.23564291 0.44883783
vt 0.23567099 0.47055358
vt 0.23567099 0.47055358
vt 0.23677778 0.45303222
vt 0.23677778 0.45303222
vt 0.23680725 0.46635400
vt 0.23680725 0.46635400
vt 0.23910975 0.45839738
vt 0.23910975 0.45839738
vt 0.23911412 0.44805701
vt 0.23911412 0.44805701
vt 0.23914211 0.46098222
vt 0.23914211 0.46098222
vt 0.23914648 0.47133537
vt 0.23914648 0.47133537
vt 0.23978014 0.45085573
vt 0.23978014 0.45085573
vt 0.23981333 0.46853319
vt 0.23981333 0.46853319
vt 0.23984685 0.45580081
vt 0.23984685 0.45580081
vt 0.23988012 0.46358200
vt 0.23988012 0.46358200
vt 0.24157796 0.45247753
vt 0.24157796 0.45247753
vt 0.24161337 0.46690938
vt 0.24161337 0.46690938
vt 0.24400977 0.45958466
vt 0.24400977 0.45958466
vt 0.24400983 0.44805706
vt 0.24400983 0.44805706
vt 0.24402797 0.45307117
vt 0.24402797 0.45307117
vt 0.24402927 0.45681422
vt 0.24402927 0.45681422
vt 0.24404818 0.45979347
vt 0.24404818 0.45979347
vt 0.24404825 0.47133531
vt 0.24404825 0.47133531
vt 0.24406640 0.46631501
vt 0.24406640 0.46631501
vt 0.24406771 0.46256734
vt 0.24406771 0.46256734
vt 0.46819185 0.45957482
vt 0.46819185 0.45957482
vt 0.46819192 0.44807800
vt 0.46819192 0.44807800
vt 0.46819192 0.45681178
vt 0.46819192 0.45681178
vt 0.46819194 0.45307872
vt 0.46819194 0.45307872
vt 0.46825165 0.45981044
vt 0.46825165 0.45981044
vt 0.46825172 0.47130722
vt 0.46825172 0.47130722
vt 0.46825174 0.46257348
vt 0.46825174 0.46257348
vt 0.46825176 0.46630652
vt 0.46825176 0.46630652
vt 0.69359098 0.46258518
vt 0.69359098 0.46258518
vt 0.69359232 0.46630359
vt 0.69359232 0.46630359
vt 0.69360502 0.45680379
vt 0.69360502 0.45680379
vt 0.69360636 0.45308073
vt 0.69360636 0.45308073
vt 0.69361033 0.45983298
vt 0.69361033 0.45983298
vt 0.69361040 0.47128468
vt 0.69361040 0.47128468
vt 0.69362439 0.45955944
vt 0.69362439 0.45955944
vt 0.69362445 0.44809339
vt 0.69362445 0.44809339
vt 0.69602621 0.46689329
vt 0.69602621 0.46689329
vt 0.69604329 0.45249028
vt 0.69604329 0.45249028
vt 0.69774588 0.46359187
vt 0.69774588 0.46359187
vt 0.69776512 0.45579584
vt 0.69776512 0.45579584
vt 0.69781221 0.46850439
vt 0.69781221 0.46850439
vt 0.69783153 0.45087716
vt 0.69783153 0.45087716
vt 0.69847389 0.47128468
vt 0.69847389 0.47128468
vt 0.69847810 0.46101238
vt 0.69847810 0.46101238
vt 0.69849403 0.44809339
vt 0.69849403 0.44809339
vt 0.69849825 0.45837855
vt 0.69849825 0.45837855
vt 0.70079479 0.46634219
vt 0.70079479 0.46634219
vt 0.70081784 0.45304207
vt 0.70081784 0.45304207
vt 0.70192223 0.47050896
vt 0.70192223 0.47050896
vt 0.70194669 0.44887009
vt 0.70194669 0.44887009
vt 0.70205011 0.46423459
vt 0.70205011 0.46423459
vt 0.70207474 0.45515231
vt 0.70207474 0.45515231
vt 0.70336925 0.46863620
vt 0.70336925 0.46863620
vt 0.70339553 0.45074519
vt 0.70339553 0.45074519
vt 0.78969992 0.49264332
vt 0.78969992 0.73677206
vt 0.78969992 0.98092364
vt 0.78969992 0.73677206
vt 0.78969992 0.98092364
vt 0.78969992 0.49264332
vt 0.80563329 0.49264332
vt 0.80563329 0.73677206
vt 0.80563329 0.98092364
vt 0.80563329 0.73677206
vt 0.80563329 0.98092364
vt 0.80563329 0.49264332
vt 0.82156666 0.49264332
vt 0.82156666 0.73677206
vt 0.82156666 0.98092364
vt 0.82156666 0.73677206
vt 0.82156666 0.98092364
vt 0.82156666 0.49264332
vt 0.83750004 0.49264332
vt 0.83750004 0.73677206
vt 0.83750004 0.98092364
vt 0.83750004 0.73677206
vt 0.83750004 0.98092364
vt 0.83750004 0.49264332
vt 0.85343341 0.49264332
vt 0.85343341 0.98092364
vt 0.85343341 0.73677206
vt 0.85343341 0.73677206
vt 0.85343341 0.98092364
vt 0.85343341 0.49264332
vt 0.86936678 0.49264332
vt 0.86936678 0.73677206
vt 0.86936678 0.98092364
vt 0.86936678 0.73677206
vt 0.86936678 0.98092364
vt 0.86936678 0.49264332
vt 0.88528988 0.98092364
vt 0.88528988 0.98092364
vt 0.88528988 0.73677206
vt 0.88528988 0.49264332
vt 0.88528988 0.73677206
vt 0.88528988 0.49264332
vt 0.88530016 0.49264332
vt 0.88530016 0.73677206
vt 0.88530016 0.98092364
vt 0.88530016 0.73677206
vt 0.88530016 0.98092364
vt 0.88530016 0.49264332
vt 0.90122325 0.98092364
vt 0.90122325 0.98092364
vt 0.90122325 0.73677206
vt 0.90122325 0.49264332
vt 0.90122325 0.73677206
vt 0.90122325 0.49264332
vt 0.91715663 0.98092364
vt 0.91715663 0.98092364
vt 0.91715663 0.73677206
vt 0.91715663 0.49264332
vt 0.91715663 0.73677206
vt 0.91715663 0.49264332
vt 0.93309000 0.98092364
vt 0.93309000 0.98092364
vt 0.93309000 0.73677206
vt 0.93309000 0.49264332
vt 0.93309000 0.73677206
vt 0.93309000 0.49264332
vt 0.94902337 0.98092364
vt 0.94902337 0.98092364
vt 0.94902337 0.73677206
vt 0.94902337 0.49264332
vt 0.94902337 0.73677206
vt 0.94902337 0.49264332
vt 0.96495675 0.98092364
vt 0.96495675 0.98092364
vt 0.96495675 0.73677206
vt 0.96495675 0.49264332
vt 0.96495675 0.73677206
vt 0.96495675 0.49264332
vt 0.98089012 0.98092364
vt 0.98089012 0.98092364
vt 0.98089012 0.73677206
vt 0.98089012 0.49264332
vt 0.98089012 0.73677206
vt 0.98089012 0.49264332
vn 1.00000000 0.0000000e+0 -1.2597785e-16
vn 0.96592583 0.0000000e+0 0.25881905
vn 0.86602540 0.0000000e+0 0.50000000
vn 0.70710678 0.0000000e+0 0.70710678
vn 0.50000000 0.0000000e+0 0.86602540
vn 0.25881905 0.0000000e+0 0.96592583
vn 3.0794585e-16 0.0000000e+0 1.00000000
vn -0.25881905 0.0000000e+0 0.96592583
vn -0.50000000 0.0000000e+0 0.86602540
vn -0.70710678 0.0000000e+0 0.70710678
vn -0.86602540 0.0000000e+0 0.50000000
vn -0.96592583 0.0000000e+0 0.25881905
vn -1.00000000 0.0000000e+0 5.7389909e-16
vn -0.96592583 0.0000000e+0 -0.25881905
vn -0.86602540 0.0000000e+0 -0.50000000
vn -0.70710678 0.0000000e+0 -0.70710678
vn -0.50000000 0.0000000e+0 -0.86602540
vn -0.25881905 0.0000000e+0 -0.96592583
vn -4.6191878e-16 0.0000000e+0 -1.00000000
vn 0.25881905 0.0000000e+0 -0.96592583
vn 0.50000000 0.0000000e+0 -0.86602540
vn 0.70710678 0.0000000e+0 -0.70710678
vn 0.86602540 0.0000000e+0 -0.50000000
vn 0.96592583 0.0000000e+0 -0.25881905
vn 1.00000000 0.0000000e+0 -1.2597785e-16
vn 0.96592583 0.0000000e+0 0.25881905
vn 0.86602540 0.0000000e+0 0.50000000
vn 0.70710678 0.0000000e+0 0.70710678
vn 0.50000000 0.0000000e+0 0.86602540
vn 0.25881905 0.0000000e+0 0.96592583
vn 3.0794585e-16 0.0000000e+0 1.00000000
vn -0.25881905 0.0000000e+0 0.96592583
vn -0.50000000 0.0000000e+0 0.86602540
vn -0.70710678 0.0000000e+0 0.70710678
vn -0.86602540 0.0000000e+0 0.50000000
vn -0.96592583 0.0000000e+0 0.25881905
vn -1.00000000 0.0000000e+0 5.7389909e-16
vn -0.96592583 0.0000000e+0 -0.25881905
vn -0.86602540 0.0000000e+0 -0.50000000
vn -0.70710678 0.0000000e+0 -0.70710678
vn -0.50000000 0.0000000e+0 -0.86602540
vn -0.25881905 0.0000000e+0 -0.96592583
vn -4.6191878e-16 0.0000000e+0 -1.00000000
vn 0.25881905 0.0000000e+0 -0.96592583
vn 0.50000000 0.0000000e+0 -0.86602540
vn 0.70710678 0.0000000e+0 -0.70710678
vn 0.86602540 0.0000000e+0 -0.50000000
vn 0.96592583 0.0000000e+0 -0.25881905
vn 0.75175630 2.6025943e-2 -0.65892725
vn -0.94652588 2.6025943e-2 0.32157643
vn -0.96238238 9.3027609e-2 -0.25527634
vn -0.49570123 0.13084788 -0.85857971
vn 0.26011540 9.3027609e-2 -0.96108576
vn 0.76521705 9.7290080e-2 -0.63637843
vn 0.31084461 0.35175430 -0.88297482
vn -0.43301270 0.50000000 -0.75000000
vn -0.92010093 0.35175430 -0.17228808
vn -0.93372841 9.7290080e-2 0.34450819
vn 0.80287593 0.16892906 -0.57171078
vn 0.44644857 0.60903067 -0.65556489
vn -0.24773763 0.86862205 -0.42909417
vn -0.79096013 0.60903067 5.8853355e-2
vn -0.89655402 0.16892906 0.40945556
vn -0.12360802 0.96896039 -0.21409537
vn -0.86602540 1.3516603e-14 0.50000000
vn -0.87091290 0.19508413 0.45105753
vn -0.69508603 0.68929391 0.20427755
vn 0.52445257 0.68929391 -0.49982338
vn 0.82608373 0.19508413 -0.52870393
vn 0.86602540 -1.2483635e-14 -0.50000000
vn 0.75175630 -2.6025943e-2 -0.65892725
vn -0.94652588 -2.6025943e-2 0.32157643
vn -0.96238238 -9.3027609e-2 -0.25527634
vn -0.49570123 -0.13084788 -0.85857971
vn 0.26011540 -9.3027609e-2 -0.96108576
vn 0.76521705 -9.7290080e-2 -0.63637843
vn 0.31084461 -0.35175430 -0.88297482
vn -0.43301270 -0.50000000 -0.75000000
vn -0.92010093 -0.35175430 -0.17228808
vn -0.93372841 -9.7290080e-2 0.34450819
vn 0.80287593 -0.16892906 -0.57171078
vn 0.44644857 -0.60903067 -0.65556489
vn -0.24773763 -0.86862205 -0.42909417
vn -0.79096013 -0.60903067 5.8853355e-2
vn -0.89655402 -0.16892906 0.40945556
vn -0.12360802 -0.96896039 -0.21409537
vn -0.86602540 -1.3516603e-14 0.50000000
vn -0.87091290 -0.19508413 0.45105753
vn -0.69508603 -0.68929391 0.20427755
vn 0.52445257 -0.68929391 -0.49982338
vn 0.82608373 -0.19508413 -0.52870393
vn 0.86602540 1.2483635e-14 -0.50000000
vn -0.75175630 2.6025943e-2 0.65892725
vn 0.94652588 2.6025943e-2 -0.32157643
vn 0.96238238 9.3027609e-2 0.25527634
vn 0.49570123 0.13084788 0.85857971
vn -0.26011540 9.3027609e-2 0.96108576
vn -0.76521705 9.7290080e-2 0.63637843
vn -0.31084461 0.35175430 0.88297482
vn 0.43301270 0.50000000 0.75000000
vn 0.92010093 0.35175430 0.17228808
vn 0.93372841 9.7290080e-2 -0.34450819
vn -0.80287593 0.16892906 0.57171078
vn -0.44644857 0.60903067 0.65556489
vn 0.24773763 0.86862205 0.42909417
vn 0.79096013 0.60903067 -5.8853355e-2
vn 0.89655402 0.16892906 -0.40945556
vn 0.12360802 0.96896039 0.21409537
vn 0.86602540 1.3516603e-14 -0.50000000
vn 0.87091290 0.19508413 -0.45105753
vn 0.69508603 0.68929391 -0.20427755
vn -0.52445257 0.68929391 0.49982338
vn -0.82608373 0.19508413 0.52870393
vn -0.86602540 -1.2483635e-14 0.50000000
vn -0.75175630 -2.6025943e-2 0.65892725
vn 0.94652588 -2.6025943e-2 -0.32157643
vn 0.96238238 -9.3027609e-2 0.25527634
vn 0.49570123 -0.13084788 0.85857971
vn -0.26011540 -9.3027609e-2 0.96108576
vn -0.76521705 -9.7290080e-2 0.63637843
vn -0.31084461 -0.35175430 0.88297482
vn 0.43301270 -0.50000000 0.75000000
vn 0.92010093 -0.35175430 0.17228808
vn 0.93372841 -9.7290080e-2 -0.34450819
vn -0.80287593 -0.16892906 0.57171078
vn -0.44644857 -0.60903067 0.65556489
vn 0.24773763 -0.86862205 0.42909417
vn 0.79096013 -0.60903067 -5.8853355e-2
vn 0.89655402 -0.16892906 -0.40945556
vn 0.12360802 -0.96896039 0.21409537
vn 0.86602540 -1.3516603e-14 -0.50000000
vn 0.87091290 -0.19508413 -0.45105753
vn 0.69508603 -0.68929391 -0.20427755
vn -0.52445257 -0.68929391 0.49982338
vn -0.82608373 -0.19508413 0.52870393
vn -0.86602540 1.2483635e-14 0.50000000
vn -0.86602540 0.0000000e+0 0.50000000
vn 0.86602540 0.0000000e+0 -0.50000000
vn -0.25881905 0.0000000e+0 0.96592583
vn 0.50000000 0.0000000e+0 0.86602540
vn 0.96592583 0.0000000e+0 0.25881905
vn 0.94693013 0.0000000e+0 -0.32143947
vn -0.75183981 0.0000000e+0 0.65934582
vn 0.86602540 0.0000000e+0 -0.50000000
vn -0.86602540 0.0000000e+0 0.50000000
vn 0.25881905 0.0000000e+0 -0.96592583
vn -0.50000000 0.0000000e+0 -0.86602540
vn -0.96592583 0.0000000e+0 -0.25881905
vn -0.94693013 0.0000000e+0 0.32143947
vn 0.75183981 0.0000000e+0 -0.65934582
vn 0.96592583 0.0000000e+0 -0.25881905
vn 0.86602540 0.0000000e+0 -0.50000000
vn 0.70710678 0.0000000e+0 -0.70710678
vn 0.50000000 0.0000000e+0 -0.86602540
vn 0.25881905 0.0000000e+0 -0.96592583
vn -4.6191878e-16 0.0000000e+0 -1.00000000
vn -0.25881905 0.0000000e+0 -0.96592583
vn -0.50000000 0.0000000e+0 -0.86602540
vn -0.70710678 0.0000000e+0 -0.70710678
vn -0.86602540 0.0000000e+0 -0.50000000
vn -0.96592583 0.0000000e+0 -0.25881905
vn -1.00000000 0.0000000e+0 5.7389909e-16
vn -0.96592583 0.0000000e+0 0.25881905
vn -0.86602540 0.0000000e+0 0.50000000
vn -0.70710678 0.0000000e+0 0.70710678
vn -0.50000000 0.0000000e+0 0.86602540
vn -0.25881905 0.0000000e+0 0.96592583
vn 3.0794585e-16 0.0000000e+0 1.00000000
vn 0.25881905 0.0000000e+0 0.96592583
vn 0.50000000 0.0000000e+0 0.86602540
vn 0.70710678 0.0000000e+0 0.70710678
vn 0.86602540 0.0000000e+0 0.50000000
vn 0.96592583 0.0000000e+0 0.25881905
vn 1.00000000 0.0000000e+0 -1.2597785e-16
g mesh1_mesh1_auv
usemtl mesh1_auv
s 1
f 1/143/1 174/140/174 151/147/151 24/149/24
f 2/137/2 173/134/173 174/140/174 1/143/1
f 3/131/3 172/128/172 173/134/173 2/137/2
f 4/125/4 171/122/171 172/128/172 3/131/3
f 5/194/5 170/195/170 171/201/171 4/199/4
f 6/187/6 169/189/169 170/195/170 5/194/5
f 7/181/7 168/183/168 169/189/169 6/187/6
f 8/175/8 167/177/167 168/183/168 7/181/7
f 9/169/9 166/171/166 167/177/167 8/175/8
f 10/157/10 165/159/165 166/171/166 9/169/9
f 11/153/11 164/154/164 165/166/165 10/165/10
f 12/146/12 163/148/163 164/154/164 11/153/11
f 13/141/13 162/142/162 163/148/163 12/146/12
f 14/135/14 161/136/161 162/142/162 13/141/13
f 15/129/15 160/130/160 161/136/161 14/135/14
f 16/123/16 159/124/159 160/130/160 15/129/15
f 17/193/17 158/197/158 159/203/159 16/200/16
f 18/188/18 157/191/157 158/197/158 17/193/17
f 19/182/19 156/185/156 157/191/157 18/188/18
f 20/176/20 155/179/155 156/185/156 19/182/19
f 21/170/21 154/173/154 155/179/155 20/176/20
f 22/158/22 153/161/153 154/173/154 21/170/21
f 23/155/23 152/152/152 153/164/153 22/167/22
f 24/149/24 151/147/151 152/152/152 23/155/23
f 25/139/25 174/140/174 173/134/173 26/133/26
f 26/133/26 173/134/173 172/128/172 27/127/27
f 27/127/27 172/128/172 171/122/171 28/121/28
f 28/202/28 171/201/171 170/195/170 29/196/29
f 29/196/29 170/195/170 169/189/169 30/190/30
f 30/190/30 169/189/169 168/183/168 31/184/31
f 31/184/31 168/183/168 167/177/167 32/178/32
f 32/178/32 167/177/167 166/171/166 33/172/33
f 33/172/33 166/171/166 165/159/165 34/160/34
f 34/168/34 165/166/165 164/154/164 35/156/35
f 35/156/35 164/154/164 163/148/163 36/150/36
f 36/150/36 163/148/163 162/142/162 37/144/37
f 37/144/37 162/142/162 161/136/161 38/138/38
f 38/138/38 161/136/161 160/130/160 39/132/39
f 39/132/39 160/130/160 159/124/159 40/126/40
f 40/204/40 159/203/159 158/197/158 41/198/41
f 41/198/41 158/197/158 157/191/157 42/192/42
f 42/192/42 157/191/157 156/185/156 43/186/43
f 43/186/43 156/185/156 155/179/155 44/180/44
f 44/180/44 155/179/155 154/173/154 45/174/45
f 45/174/45 154/173/154 153/161/153 46/162/46
f 46/163/46 153/164/153 152/152/152 47/151/47
f 47/151/47 152/152/152 151/147/151 48/145/48
f 48/145/48 151/147/151 174/140/174 25/139/25
f 49/71/49 150/68/150 146/66/146 53/69/53
f 50/76/50 58/88/58 57/92/57 51/74/51
f 50/76/50 65/84/65 58/88/58
f 50/76/50 149/60/149 145/56/145 65/84/65
f 51/74/51 57/92/57 56/104/56 52/82/52
f 51/74/51 148/58/148 149/60/149 50/76/50
f 52/77/52 56/99/56 55/89/55 53/69/53
f 52/82/52 147/54/147 148/58/148 51/74/51
f 53/69/53 55/89/55 54/85/54 49/71/49
f 53/69/53 146/66/146 147/62/147 52/77/52
f 54/85/54 70/79/70 49/71/49
f 55/89/55 60/105/60 59/93/59 54/85/54
f 56/99/56 61/113/61 60/105/60 55/89/55
f 57/92/57 62/108/62 61/116/61 56/104/56
f 58/88/58 63/96/63 62/108/62 57/92/57
f 58/88/58 65/84/65 63/96/63
f 59/93/59 70/79/70 54/85/54
f 60/105/60 68/109/68 69/97/69 59/93/59
f 61/113/61 64/117/64 68/109/68 60/105/60
f 62/108/62 67/112/67 64/120/64 61/116/61
f 63/96/63 65/84/65 66/102/66
f 63/96/63 66/102/66 67/112/67 62/108/62
f 69/97/69 70/79/70 59/93/59
f 70/79/70 144/64/144 150/68/150 49/71/49
f 71/50/71 76/36/76 77/32/77 75/52/75
f 71/50/71 92/48/92 76/36/76
f 71/50/71 150/68/150 144/64/144 92/48/92
f 72/41/72 149/60/149 148/58/148 73/43/73
f 73/43/73 79/29/79 80/33/80 72/41/72
f 73/43/73 148/58/148 147/54/147 74/37/74
f 74/37/74 78/18/78 79/29/79 73/43/73
f 74/46/74 147/62/147 146/66/146 75/52/75
f 75/52/75 77/32/77 78/22/78 74/46/74
f 75/52/75 146/66/146 150/68/150 71/50/71
f 76/36/76 81/28/81 82/16/82 77/32/77
f 76/36/76 92/48/92 81/28/81
f 77/32/77 82/16/82 83/8/83 78/22/78
f 78/18/78 83/5/83 84/13/84 79/29/79
f 79/29/79 84/13/84 85/25/85 80/33/80
f 80/33/80 87/39/87 72/41/72
f 81/28/81 91/24/91 90/12/90 82/16/82
f 81/28/81 92/48/92 91/24/91
f 82/16/82 90/12/90 86/4/86 83/8/83
f 83/5/83 86/1/86 89/9/89 84/13/84
f 84/13/84 89/9/89 88/19/88 85/25/85
f 85/25/85 87/39/87 80/33/80
f 87/39/87 145/56/145 149/60/149 72/41/72
f 88/19/88 87/39/87 85/25/85
f 93/72/93 143/67/143 139/65/139 97/70/97
f 94/75/94 102/87/102 101/91/101 95/73/95
f 94/75/94 109/83/109 102/87/102
f 94/75/94 142/59/142 138/55/138 109/83/109
f 95/73/95 101/91/101 100/103/100 96/81/96
f 95/73/95 141/57/141 142/59/142 94/75/94
f 96/78/96 100/100/100 99/90/99 97/70/97
f 96/81/96 140/53/140 141/57/141 95/73/95
f 97/70/97 99/90/99 98/86/98 93/72/93
f 97/70/97 139/65/139 140/61/140 96/78/96
f 98/86/98 114/80/114 93/72/93
f 99/90/99 104/106/104 103/94/103 98/86/98
f 100/100/100 105/114/105 104/106/104 99/90/99
f 101/91/101 106/107/106 105/115/105 100/103/100
f 102/87/102 107/95/107 106/107/106 101/91/101
f 102/87/102 109/83/109 107/95/107
f 103/94/103 114/80/114 98/86/98
f 104/106/104 112/110/112 113/98/113 103/94/103
f 105/114/105 108/118/108 112/110/112 104/106/104
f 106/107/106 111/111/111 108/119/108 105/115/105
f 107/95/107 109/83/109 110/101/110
f 107/95/107 110/101/110 111/111/111 106/107/106
f 113/98/113 114/80/114 103/94/103
f 114/80/114 137/63/137 143/67/143 93/72/93
f 115/49/115 120/35/120 121/31/121 119/51/119
f 115/49/115 136/47/136 120/35/120
f 115/49/115 143/67/143 137/63/137 136/47/136
f 116/42/116 142/59/142 141/57/141 117/44/117
f 117/44/117 123/30/123 124/34/124 116/42/116
f 117/44/117 141/57/141 140/53/140 118/38/118
f 118/38/118 122/17/122 123/30/123 117/44/117
f 118/45/118 140/61/140 139/65/139 119/51/119
f 119/51/119 121/31/121 122/21/122 118/45/118
f 119/51/119 139/65/139 143/67/143 115/49/115
f 120/35/120 125/27/125 126/15/126 121/31/121
f 120/35/120 136/47/136 125/27/125
f 121/31/121 126/15/126 127/7/127 122/21/122
f 122/17/122 127/6/127 128/14/128 123/30/123
f 123/30/123 128/14/128 129/26/129 124/34/124
f 124/34/124 131/40/131 116/42/116
f 125/27/125 135/23/135 134/11/134 126/15/126
f 125/27/125 136/47/136 135/23/135
f 126/15/126 134/11/134 130/3/130 127/7/127
f 127/6/127 130/2/130 133/10/133 128/14/128
f 128/14/128 133/10/133 132/20/132 129/26/129
f 129/26/129 131/40/131 124/34/124
f 131/40/131 138/55/138 142/59/142 116/42/116
f 132/20/132 131/40/131 129/26/129
