# Exported from Wings 3D 1.5.4
mtllib black_anvil_engine_s1_1_piston2.mtl
o piston1
#16 vertices, 9 faces
v 6.2500000e-3 1.7387483e-17 0.20000000
v 4.4194174e-3 -4.4194174e-3 0.20000000
v 1.0006974e-18 -6.2500000e-3 0.20000000
v -4.4194174e-3 -4.4194174e-3 0.20000000
v -6.2500000e-3 1.6622079e-17 0.20000000
v -4.4194174e-3 4.4194174e-3 0.20000000
v -5.3011114e-19 6.2500000e-3 0.20000000
v 4.4194174e-3 4.4194174e-3 0.20000000
v 6.2500000e-3 1.6622079e-17 -1.3877788e-17
v 4.4194174e-3 -4.4194174e-3 -1.3877788e-17
v 1.0006974e-18 -6.2500000e-3 0.0000000e+0
v -4.4194174e-3 -4.4194174e-3 -1.3877788e-17
v -6.2500000e-3 1.5856675e-17 -1.3877788e-17
v -4.4194174e-3 4.4194174e-3 -1.3877788e-17
v -5.3011114e-19 6.2500000e-3 -1.3877788e-17
v 4.4194174e-3 4.4194174e-3 -1.3877788e-17
vt 0.53533538 0.39083506
vt 0.53646228 0.48795916
vt 0.53646228 0.39094317
vt 0.53646228 0.48795916
vt 0.53646228 0.39094317
vt 0.53646228 0.39094317
vt 0.53646228 0.48795916
vt 0.53646228 0.48795916
vt 0.53646228 0.39094317
vt 0.53711133 0.39079218
vt 0.53711133 0.39087793
vt 0.54110309 0.48795916
vt 0.54110309 0.39094317
vt 0.54110309 0.39094317
vt 0.54110309 0.48795916
vt 0.54110309 0.39094317
vt 0.54110309 0.48795916
vt 0.54110309 0.39094317
vt 0.54139888 0.39077442
vt 0.54139888 0.39089569
vt 0.54568642 0.39079218
vt 0.54568642 0.39087793
vt 0.54574389 0.48795916
vt 0.54574389 0.39094317
vt 0.54574389 0.48795916
vt 0.54574389 0.48795916
vt 0.54574389 0.39094317
vt 0.54574389 0.39094317
vt 0.54574389 0.48795916
vt 0.54574389 0.39094317
vt 0.54746238 0.39083506
vn 1.00000000 9.0127256e-17 4.7915419e-19
vn 0.70710678 -0.70710678 4.7915419e-18
vn 6.0084837e-17 -1.00000000 5.7498503e-18
vn -0.70710678 -0.70710678 3.3540793e-18
vn -1.00000000 -1.8025451e-16 -4.7915419e-19
vn -0.70710678 0.70710678 -4.7915419e-18
vn -1.2016967e-16 1.00000000 -5.7498503e-18
vn 0.70710678 0.70710678 -3.3540793e-18
vn 0.0000000e+0 1.1102230e-15 1.00000000
vn 1.00000000 9.0127256e-17 4.7915419e-19
vn 1.00000000 9.0127256e-17 4.7915419e-19
vn 0.0000000e+0 1.1102230e-15 1.00000000
vn 0.70710678 -0.70710678 4.7915419e-18
vn 0.70710678 -0.70710678 4.7915419e-18
vn 0.0000000e+0 1.1102230e-15 1.00000000
vn 6.0084837e-17 -1.00000000 5.7498503e-18
vn 6.0084837e-17 -1.00000000 5.7498503e-18
vn 0.0000000e+0 1.1102230e-15 1.00000000
vn -0.70710678 -0.70710678 3.3540793e-18
vn -0.70710678 -0.70710678 3.3540793e-18
vn 0.0000000e+0 1.1102230e-15 1.00000000
vn -1.00000000 -1.8025451e-16 -4.7915419e-19
vn -1.00000000 -1.8025451e-16 -4.7915419e-19
vn 0.0000000e+0 1.1102230e-15 1.00000000
vn -0.70710678 0.70710678 -4.7915419e-18
vn -0.70710678 0.70710678 -4.7915419e-18
vn 0.0000000e+0 1.1102230e-15 1.00000000
vn -1.2016967e-16 1.00000000 -5.7498503e-18
vn -1.2016967e-16 1.00000000 -5.7498503e-18
vn 0.0000000e+0 1.1102230e-15 1.00000000
vn 0.70710678 0.70710678 -3.3540793e-18
vn 0.70710678 0.70710678 -3.3540793e-18
g piston1_piston1_auv
usemtl piston1_auv
s 1
f 1/31/9 8/22/30 7/20/27 6/11/24 5/1/21 4/10/18 3/19/15 2/21/12
s 2
f 1/13/10 9/15/1 16/8/8 8/6/31
f 2/28/14 10/26/2 9/15/1 1/13/11
f 3/16/17 11/15/3 10/4/2 2/5/13
f 4/27/20 12/25/4 11/15/3 3/16/16
f 5/14/23 13/12/5 12/2/4 4/3/19
f 6/24/26 14/23/6 13/12/5 5/14/22
f 7/18/29 15/17/7 14/7/6 6/9/25
f 8/30/32 16/29/8 15/17/7 7/18/28
