# Exported from Wings 3D 1.5.4
mtllib blue_streak_engine_s0_3_collider.mtl
o collider
#16 vertices, 10 faces
v 0.31250000 1.12500000 0.0000000e+0
v 0.22097087 1.12500000 0.22097087
v -1.9028810e-17 1.12500000 0.31250000
v -0.22097087 1.12500000 0.22097087
v -0.31250000 1.12500000 3.8270212e-17
v -0.22097087 1.12500000 -0.22097087
v -9.5569235e-17 1.12500000 -0.31250000
v 0.22097087 1.12500000 -0.22097087
v 0.56250000 -1.12500000 2.7755576e-18
v 0.39774756 -1.12500000 0.39774756
v 4.6059474e-18 -1.12500000 0.56250000
v -0.39774756 -1.12500000 0.39774756
v -0.56250000 -1.12500000 7.1661940e-17
v -0.39774756 -1.12500000 -0.39774756
v -1.3316682e-16 -1.12500000 -0.56250000
v 0.39774756 -1.12500000 -0.39774756
vn 0.0000000e+0 1.00000000 1.0048592e-16
vn 0.91904989 0.10211665 -0.38068293
vn 0.91904989 0.10211665 0.38068293
vn 0.0000000e+0 1.00000000 1.0048592e-16
vn 0.38068293 0.10211665 0.91904989
vn 0.91904989 0.10211665 0.38068293
vn 0.0000000e+0 1.00000000 1.0048592e-16
vn -0.38068293 0.10211665 0.91904989
vn 0.38068293 0.10211665 0.91904989
vn 0.0000000e+0 1.00000000 1.0048592e-16
vn -0.91904989 0.10211665 0.38068293
vn -0.38068293 0.10211665 0.91904989
vn 0.0000000e+0 1.00000000 1.0048592e-16
vn -0.91904989 0.10211665 -0.38068293
vn -0.91904989 0.10211665 0.38068293
vn 0.0000000e+0 1.00000000 1.0048592e-16
vn -0.38068293 0.10211665 -0.91904989
vn -0.91904989 0.10211665 -0.38068293
vn 0.0000000e+0 1.00000000 1.0048592e-16
vn 0.38068293 0.10211665 -0.91904989
vn -0.38068293 0.10211665 -0.91904989
vn 0.0000000e+0 1.00000000 1.0048592e-16
vn 0.91904989 0.10211665 -0.38068293
vn 0.38068293 0.10211665 -0.91904989
vn 0.0000000e+0 -1.00000000 -1.8608503e-16
vn 0.91904989 0.10211665 -0.38068293
vn 0.91904989 0.10211665 0.38068293
vn 0.0000000e+0 -1.00000000 -1.8608503e-16
vn 0.38068293 0.10211665 0.91904989
vn 0.91904989 0.10211665 0.38068293
vn 0.0000000e+0 -1.00000000 -1.8608503e-16
vn -0.38068293 0.10211665 0.91904989
vn 0.38068293 0.10211665 0.91904989
vn 0.0000000e+0 -1.00000000 -1.8608503e-16
vn -0.91904989 0.10211665 0.38068293
vn -0.38068293 0.10211665 0.91904989
vn 0.0000000e+0 -1.00000000 -1.8608503e-16
vn -0.91904989 0.10211665 -0.38068293
vn -0.91904989 0.10211665 0.38068293
vn 0.0000000e+0 -1.00000000 -1.8608503e-16
vn -0.38068293 0.10211665 -0.91904989
vn -0.91904989 0.10211665 -0.38068293
vn 0.0000000e+0 -1.00000000 -1.8608503e-16
vn 0.38068293 0.10211665 -0.91904989
vn -0.38068293 0.10211665 -0.91904989
vn 0.0000000e+0 -1.00000000 -1.8608503e-16
vn 0.91904989 0.10211665 -0.38068293
vn 0.38068293 0.10211665 -0.91904989
g collider_default
usemtl default
s 1
f 1//2 9//26 16//47 8//23
f 4//12 12//36 11//32 3//8
f 6//18 14//42 13//38 5//14
s 2
f 2//6 10//30 9//27 1//3
f 5//15 13//39 12//35 4//11
f 7//21 15//45 14//41 6//17
s 3
f 1//1 8//22 7//19 6//16 5//13 4//10 3//7 2//4
f 10//28 11//31 12//34 13//37 14//40 15//43 16//46 9//25
s 4
f 3//9 11//33 10//29 2//5
f 8//24 16//48 15//44 7//20
