# Exported from Wings 3D 1.5.4
mtllib streak_engine_s0_1_piston1.mtl
o piston1
#16 vertices, 10 faces
v 1.2500000e-2 1.7218911e-17 0.25000000
v 8.8388348e-3 -8.8388348e-3 0.25000000
v 2.1098149e-18 -1.2500000e-2 0.25000000
v -8.8388348e-3 -8.8388348e-3 0.25000000
v -1.2500000e-2 1.5688103e-17 0.25000000
v -8.8388348e-3 8.8388348e-3 0.25000000
v -9.5180205e-19 1.2500000e-2 0.25000000
v 8.8388348e-3 8.8388348e-3 0.25000000
v 1.2500000e-2 1.5688103e-17 0.0000000e+0
v 8.8388348e-3 -8.8388348e-3 0.0000000e+0
v 2.1098149e-18 -1.2500000e-2 1.3877788e-17
v -8.8388348e-3 -8.8388348e-3 0.0000000e+0
v -1.2500000e-2 1.4157294e-17 0.0000000e+0
v -8.8388348e-3 8.8388348e-3 0.0000000e+0
v -9.5180205e-19 1.2500000e-2 0.0000000e+0
v 8.8388348e-3 8.8388348e-3 0.0000000e+0
vt 0.42247952 0.79194900
vt 0.42247952 0.79194900
vt 0.42247952 0.79381757
vt 0.42247952 0.79381757
vt 0.42247952 0.79568614
vt 0.42247952 0.79755472
vt 0.42247952 0.79942329
vt 0.47130765 0.79194900
vt 0.47130765 0.79381757
vt 0.47130765 0.79568614
vt 0.47130765 0.79755472
vt 0.47130765 0.79942329
vt 0.48072072 0.79568614
vt 0.48143579 0.79395981
vt 0.48143579 0.79741248
vt 0.48316212 0.79324474
vt 0.48316212 0.79812755
vt 0.48488846 0.79395981
vt 0.48488846 0.79741248
vt 0.48560353 0.79568614
vn 0.0000000e+0 0.0000000e+0 1.00000000
vn 1.00000000 1.2016967e-16 7.6664671e-19
vn 1.00000000 1.2016967e-16 7.6664671e-19
vn 0.0000000e+0 0.0000000e+0 1.00000000
vn 0.70710678 -0.70710678 7.6664671e-18
vn 0.70710678 -0.70710678 7.6664671e-18
vn 0.0000000e+0 0.0000000e+0 1.00000000
vn 9.0127256e-17 -1.00000000 9.1997605e-18
vn 9.0127256e-17 -1.00000000 9.1997605e-18
vn 0.0000000e+0 0.0000000e+0 1.00000000
vn -0.70710678 -0.70710678 5.3665270e-18
vn -0.70710678 -0.70710678 5.3665270e-18
vn 0.0000000e+0 0.0000000e+0 1.00000000
vn -1.00000000 -1.8025451e-16 -7.6664671e-19
vn -1.00000000 -1.8025451e-16 -7.6664671e-19
vn 0.0000000e+0 0.0000000e+0 1.00000000
vn -0.70710678 0.70710678 -7.6664671e-18
vn -0.70710678 0.70710678 -7.6664671e-18
vn 0.0000000e+0 0.0000000e+0 1.00000000
vn -1.5021209e-16 1.00000000 -9.1997605e-18
vn -1.5021209e-16 1.00000000 -9.1997605e-18
vn 0.0000000e+0 0.0000000e+0 1.00000000
vn 0.70710678 0.70710678 -5.3665270e-18
vn 0.70710678 0.70710678 -5.3665270e-18
vn 0.0000000e+0 -2.7755576e-16 -1.00000000
vn 1.00000000 1.2016967e-16 7.6664671e-19
vn 1.00000000 1.2016967e-16 7.6664671e-19
vn 0.0000000e+0 -2.7755576e-16 -1.00000000
vn 0.70710678 -0.70710678 7.6664671e-18
vn 0.70710678 -0.70710678 7.6664671e-18
vn 0.0000000e+0 -2.7755576e-16 -1.00000000
vn 9.0127256e-17 -1.00000000 9.1997605e-18
vn 9.0127256e-17 -1.00000000 9.1997605e-18
vn 0.0000000e+0 -2.7755576e-16 -1.00000000
vn -0.70710678 -0.70710678 5.3665270e-18
vn -0.70710678 -0.70710678 5.3665270e-18
vn 0.0000000e+0 -2.7755576e-16 -1.00000000
vn -1.00000000 -1.8025451e-16 -7.6664671e-19
vn -1.00000000 -1.8025451e-16 -7.6664671e-19
vn 0.0000000e+0 -2.7755576e-16 -1.00000000
vn -0.70710678 0.70710678 -7.6664671e-18
vn -0.70710678 0.70710678 -7.6664671e-18
vn 0.0000000e+0 -2.7755576e-16 -1.00000000
vn -1.5021209e-16 1.00000000 -9.1997605e-18
vn -1.5021209e-16 1.00000000 -9.1997605e-18
vn 0.0000000e+0 -2.7755576e-16 -1.00000000
vn 0.70710678 0.70710678 -5.3665270e-18
vn 0.70710678 0.70710678 -5.3665270e-18
g piston1_piston1_auv
usemtl piston1_auv
s 1
f 1/16/1 8/18/22 7/20/19 6/19/16 5/17/13 4/15/10 3/13/7 2/14/4
f 10/15/28 11/13/31 12/14/34 13/16/37 14/18/40 15/20/43 16/19/46 9/17/25
s 2
f 1/2/2 9/8/26 16/9/47 8/4/23
f 2/6/6 10/11/30 9/12/27 1/7/3
f 3/5/9 11/10/33 10/11/29 2/6/5
f 4/3/12 12/9/36 11/10/32 3/5/8
f 5/1/15 13/8/39 12/9/35 4/3/11
f 6/6/18 14/11/42 13/12/38 5/7/14
f 7/5/21 15/10/45 14/11/41 6/6/17
f 8/4/24 16/9/48 15/10/44 7/5/20
