# Exported from Wings 3D 1.5.4
mtllib Arrow_Engine_1_1_Arm1.mtl
o Arrow_Engine_1_1_Arm1
#16 vertices, 10 faces
v 1.5625000e-2 1.7314277e-17 0.25000000
v 1.1048543e-2 -1.1048543e-2 0.25000000
v 1.8241170e-18 -1.5625000e-2 0.25000000
v -1.1048543e-2 -1.1048543e-2 0.25000000
v -1.5625000e-2 1.5400766e-17 0.25000000
v -1.1048543e-2 1.1048543e-2 0.25000000
v -2.0029042e-18 1.5625000e-2 0.25000000
v 1.1048543e-2 1.1048543e-2 0.25000000
v 1.5625000e-2 1.5400766e-17 0.0000000e+0
v 1.1048543e-2 -1.1048543e-2 0.0000000e+0
v 1.8241170e-18 -1.5625000e-2 1.3877788e-17
v -1.1048543e-2 -1.1048543e-2 0.0000000e+0
v -1.5625000e-2 1.3487256e-17 0.0000000e+0
v -1.1048543e-2 1.1048543e-2 0.0000000e+0
v -2.0029042e-18 1.5625000e-2 0.0000000e+0
v 1.1048543e-2 1.1048543e-2 0.0000000e+0
vt 0.83335454 4.2407383e-2
vt 0.83449866 3.9645247e-2
vt 0.83449866 4.5169519e-2
vt 0.83726079 3.8501133e-2
vt 0.83726079 4.6313633e-2
vt 0.84002293 3.9645247e-2
vt 0.84002293 4.5169519e-2
vt 0.84116704 4.2407383e-2
vt 0.85982927 3.8501133e-2
vt 0.85982927 3.8501133e-2
vt 0.85982927 3.9645247e-2
vt 0.85982927 4.2407383e-2
vt 0.85982927 4.5169519e-2
vt 0.85982927 4.6313633e-2
vt 0.92232927 3.8501133e-2
vt 0.92232927 3.8501133e-2
vt 0.92232927 3.9645247e-2
vt 0.92232927 4.2407383e-2
vt 0.92232927 4.2407383e-2
vt 0.92232927 4.5169519e-2
vt 0.92232927 4.6313633e-2
vt 0.92232927 4.6313633e-2
vt 0.94117459 4.2407383e-2
vt 0.94231870 3.9645247e-2
vt 0.94231870 4.5169519e-2
vt 0.94508084 3.8501133e-2
vt 0.94508084 4.6313633e-2
vt 0.94784297 3.9645247e-2
vt 0.94784297 4.5169519e-2
vt 0.94898709 4.2407383e-2
vn 0.0000000e+0 0.0000000e+0 1.00000000
vn 1.00000000 9.0127256e-17 4.1692231e-34
vn 1.00000000 9.0127256e-17 4.1692231e-34
vn 0.0000000e+0 0.0000000e+0 1.00000000
vn 0.70710678 -0.70710678 7.3598084e-18
vn 0.70710678 -0.70710678 7.3598084e-18
vn 0.0000000e+0 0.0000000e+0 1.00000000
vn 6.0084837e-17 -1.00000000 9.8130779e-18
vn 6.0084837e-17 -1.00000000 9.8130779e-18
vn 0.0000000e+0 0.0000000e+0 1.00000000
vn -0.70710678 -0.70710678 6.7464910e-18
vn -0.70710678 -0.70710678 6.7464910e-18
vn 0.0000000e+0 0.0000000e+0 1.00000000
vn -1.00000000 -2.1029693e-16 6.2538347e-34
vn -1.00000000 -2.1029693e-16 6.2538347e-34
vn 0.0000000e+0 0.0000000e+0 1.00000000
vn -0.70710678 0.70710678 -8.5864431e-18
vn -0.70710678 0.70710678 -8.5864431e-18
vn 0.0000000e+0 0.0000000e+0 1.00000000
vn -1.2016967e-16 1.00000000 -1.4106299e-17
vn -1.2016967e-16 1.00000000 -1.4106299e-17
vn 0.0000000e+0 0.0000000e+0 1.00000000
vn 0.70710678 0.70710678 -9.8130779e-18
vn 0.70710678 0.70710678 -9.8130779e-18
vn 1.7431528e-32 -2.2204460e-16 -1.00000000
vn 1.00000000 9.0127256e-17 4.1692231e-34
vn 1.00000000 9.0127256e-17 4.1692231e-34
vn 1.7431528e-32 -2.2204460e-16 -1.00000000
vn 0.70710678 -0.70710678 7.3598084e-18
vn 0.70710678 -0.70710678 7.3598084e-18
vn 1.7431528e-32 -2.2204460e-16 -1.00000000
vn 6.0084837e-17 -1.00000000 9.8130779e-18
vn 6.0084837e-17 -1.00000000 9.8130779e-18
vn 1.7431528e-32 -2.2204460e-16 -1.00000000
vn -0.70710678 -0.70710678 6.7464910e-18
vn -0.70710678 -0.70710678 6.7464910e-18
vn 1.7431528e-32 -2.2204460e-16 -1.00000000
vn -1.00000000 -2.1029693e-16 6.2538347e-34
vn -1.00000000 -2.1029693e-16 6.2538347e-34
vn 1.7431528e-32 -2.2204460e-16 -1.00000000
vn -0.70710678 0.70710678 -8.5864431e-18
vn -0.70710678 0.70710678 -8.5864431e-18
vn 1.7431528e-32 -2.2204460e-16 -1.00000000
vn -1.2016967e-16 1.00000000 -1.4106299e-17
vn -1.2016967e-16 1.00000000 -1.4106299e-17
vn 1.7431528e-32 -2.2204460e-16 -1.00000000
vn 0.70710678 0.70710678 -9.8130779e-18
vn 0.70710678 0.70710678 -9.8130779e-18
g Arrow_Engine_1_1_Arm1_Arrow_Engine_1_1_Arm1_auv
usemtl Arrow_Engine_1_1_Arm1_auv
s 1
f 1/8/1 8/7/22 7/5/19 6/3/16 5/1/13 4/2/10 3/4/7 2/6/4
f 10/24/28 11/26/31 12/28/34 13/30/37 14/29/40 15/27/43 16/25/46 9/23/25
s 2
f 1/12/2 9/18/26 16/20/47 8/13/23
f 2/11/6 10/17/30 9/18/27 1/12/3
f 3/10/9 11/15/33 10/17/29 2/11/5
f 4/17/12 12/11/36 11/9/32 3/16/8
f 5/19/15 13/12/39 12/11/35 4/17/11
f 6/20/18 14/13/42 13/12/38 5/19/14
f 7/22/21 15/14/45 14/13/41 6/20/17
f 8/13/24 16/20/48 15/21/44 7/14/20
