# Exported from Wings 3D 1.5.4
mtllib Arrow_Engine_1_1_Arm2.mtl
o Arrow_Engine_1_1_Arm2
#16 vertices, 10 faces
v 1.2500000e-2 1.7277089e-17 0.25000000
v 8.8388348e-3 -8.8388348e-3 0.25000000
v 1.4592936e-18 -1.2500000e-2 0.25000000
v -8.8388348e-3 -8.8388348e-3 0.25000000
v -1.2500000e-2 1.5746280e-17 0.25000000
v -8.8388348e-3 8.8388348e-3 0.25000000
v -1.6023234e-18 1.2500000e-2 0.25000000
v 8.8388348e-3 8.8388348e-3 0.25000000
v 1.2500000e-2 1.5746280e-17 0.0000000e+0
v 8.8388348e-3 -8.8388348e-3 0.0000000e+0
v 1.4592936e-18 -1.2500000e-2 1.3877788e-17
v -8.8388348e-3 -8.8388348e-3 0.0000000e+0
v -1.2500000e-2 1.4215472e-17 0.0000000e+0
v -8.8388348e-3 8.8388348e-3 0.0000000e+0
v -1.6023234e-18 1.2500000e-2 0.0000000e+0
v 8.8388348e-3 8.8388348e-3 0.0000000e+0
vt 0.83335454 2.0335293e-2
vt 0.83449866 1.7573157e-2
vt 0.83449866 2.3097429e-2
vt 0.83726079 1.6429043e-2
vt 0.83726079 2.4241543e-2
vt 0.84002293 1.7573157e-2
vt 0.84002293 2.3097429e-2
vt 0.84116704 2.0335293e-2
vt 0.85982927 1.6429043e-2
vt 0.85982927 1.6429043e-2
vt 0.85982927 1.7573157e-2
vt 0.85982927 2.0335293e-2
vt 0.85982927 2.3097429e-2
vt 0.85982927 2.4241543e-2
vt 0.92232927 1.6429043e-2
vt 0.92232927 1.6429043e-2
vt 0.92232927 1.7573157e-2
vt 0.92232927 2.0335293e-2
vt 0.92232927 2.0335293e-2
vt 0.92232927 2.3097429e-2
vt 0.92232927 2.4241543e-2
vt 0.92232927 2.4241543e-2
vt 0.94117459 2.0335293e-2
vt 0.94231870 1.7573157e-2
vt 0.94231870 2.3097429e-2
vt 0.94508084 1.6429043e-2
vt 0.94508084 2.4241543e-2
vt 0.94784297 1.7573157e-2
vt 0.94784297 2.3097429e-2
vt 0.94898709 2.0335293e-2
vn 0.0000000e+0 0.0000000e+0 1.00000000
vn 1.00000000 3.0042419e-17 7.6664671e-19
vn 1.00000000 3.0042419e-17 7.6664671e-19
vn 0.0000000e+0 0.0000000e+0 1.00000000
vn 0.70710678 -0.70710678 7.6664671e-18
vn 0.70710678 -0.70710678 7.6664671e-18
vn 0.0000000e+0 0.0000000e+0 1.00000000
vn 9.0127256e-17 -1.00000000 9.1997605e-18
vn 9.0127256e-17 -1.00000000 9.1997605e-18
vn 0.0000000e+0 0.0000000e+0 1.00000000
vn -0.70710678 -0.70710678 5.3665270e-18
vn -0.70710678 -0.70710678 5.3665270e-18
vn 0.0000000e+0 0.0000000e+0 1.00000000
vn -1.00000000 -1.8025451e-16 -7.6664671e-19
vn -1.00000000 -1.8025451e-16 -7.6664671e-19
vn 0.0000000e+0 0.0000000e+0 1.00000000
vn -0.70710678 0.70710678 -9.1997605e-18
vn -0.70710678 0.70710678 -9.1997605e-18
vn 0.0000000e+0 0.0000000e+0 1.00000000
vn -1.5021209e-16 1.00000000 -1.2266347e-17
vn -1.5021209e-16 1.00000000 -1.2266347e-17
vn 0.0000000e+0 0.0000000e+0 1.00000000
vn 0.70710678 0.70710678 -6.8998204e-18
vn 0.70710678 0.70710678 -6.8998204e-18
vn 0.0000000e+0 -2.7755576e-16 -1.00000000
vn 1.00000000 3.0042419e-17 7.6664671e-19
vn 1.00000000 3.0042419e-17 7.6664671e-19
vn 0.0000000e+0 -2.7755576e-16 -1.00000000
vn 0.70710678 -0.70710678 7.6664671e-18
vn 0.70710678 -0.70710678 7.6664671e-18
vn 0.0000000e+0 -2.7755576e-16 -1.00000000
vn 9.0127256e-17 -1.00000000 9.1997605e-18
vn 9.0127256e-17 -1.00000000 9.1997605e-18
vn 0.0000000e+0 -2.7755576e-16 -1.00000000
vn -0.70710678 -0.70710678 5.3665270e-18
vn -0.70710678 -0.70710678 5.3665270e-18
vn 0.0000000e+0 -2.7755576e-16 -1.00000000
vn -1.00000000 -1.8025451e-16 -7.6664671e-19
vn -1.00000000 -1.8025451e-16 -7.6664671e-19
vn 0.0000000e+0 -2.7755576e-16 -1.00000000
vn -0.70710678 0.70710678 -9.1997605e-18
vn -0.70710678 0.70710678 -9.1997605e-18
vn 0.0000000e+0 -2.7755576e-16 -1.00000000
vn -1.5021209e-16 1.00000000 -1.2266347e-17
vn -1.5021209e-16 1.00000000 -1.2266347e-17
vn 0.0000000e+0 -2.7755576e-16 -1.00000000
vn 0.70710678 0.70710678 -6.8998204e-18
vn 0.70710678 0.70710678 -6.8998204e-18
g Arrow_Engine_1_1_Arm2_Arrow_Engine_1_1_Arm2_auv
usemtl Arrow_Engine_1_1_Arm2_auv
s 1
f 1/8/1 8/7/22 7/5/19 6/3/16 5/1/13 4/2/10 3/4/7 2/6/4
f 10/24/28 11/26/31 12/28/34 13/30/37 14/29/40 15/27/43 16/25/46 9/23/25
s 2
f 1/12/2 9/18/26 16/20/47 8/13/23
f 2/11/6 10/17/30 9/18/27 1/12/3
f 3/10/9 11/15/33 10/17/29 2/11/5
f 4/17/12 12/11/36 11/9/32 3/16/8
f 5/19/15 13/12/39 12/11/35 4/17/11
f 6/20/18 14/13/42 13/12/38 5/19/14
f 7/22/21 15/14/45 14/13/41 6/20/17
f 8/13/24 16/20/48 15/21/44 7/14/20
