# Exported from Wings 3D 1.5.4
mtllib arrow_fairing_s0_1.mtl
o mesh1
#49 vertices, 48 faces
v 0.30185182 6.2500000e-2 8.0880952e-2
v 0.31250000 6.2500000e-2 -1.4298509e-17
v 0.30185182 6.2500000e-2 -8.0880952e-2
v 0.27063294 6.2500000e-2 -0.15625000
v 0.22097087 6.2500000e-2 -0.22097087
v 0.15625000 6.2500000e-2 -0.27063294
v 8.0880952e-2 6.2500000e-2 -0.30185182
v -1.4188110e-16 6.2500000e-2 -0.31250000
v -8.0880952e-2 6.2500000e-2 -0.30185182
v -0.15625000 6.2500000e-2 -0.27063294
v -0.22097087 6.2500000e-2 -0.22097087
v -0.27063294 6.2500000e-2 -0.15625000
v -0.30185182 6.2500000e-2 -8.0880952e-2
v -0.31250000 6.2500000e-2 2.3971703e-17
v -0.30185182 6.2500000e-2 8.0880952e-2
v -0.27063294 6.2500000e-2 0.15625000
v -0.22097087 6.2500000e-2 0.22097087
v -0.15625000 6.2500000e-2 0.27063294
v -8.0880952e-2 6.2500000e-2 0.30185182
v -6.5340670e-17 6.2500000e-2 0.31250000
v 8.0880952e-2 6.2500000e-2 0.30185182
v 0.15625000 6.2500000e-2 0.27063294
v 0.22097087 6.2500000e-2 0.22097087
v 0.27063294 6.2500000e-2 0.15625000
v -6.5919492e-17 6.2500000e-2 1.6399625e-18
v 0.31250000 -6.2500000e-2 -1.4298509e-17
v 0.30185182 -6.2500000e-2 8.0880952e-2
v 0.27063294 -6.2500000e-2 0.15625000
v 0.22097087 -6.2500000e-2 0.22097087
v 0.15625000 -6.2500000e-2 0.27063294
v 8.0880952e-2 -6.2500000e-2 0.30185182
v -6.5340670e-17 -6.2500000e-2 0.31250000
v -8.0880952e-2 -6.2500000e-2 0.30185182
v -0.15625000 -6.2500000e-2 0.27063294
v -0.22097087 -6.2500000e-2 0.22097087
v -0.27063294 -6.2500000e-2 0.15625000
v -0.30185182 -6.2500000e-2 8.0880952e-2
v -0.31250000 -6.2500000e-2 2.3971703e-17
v -0.30185182 -6.2500000e-2 -8.0880952e-2
v -0.27063294 -6.2500000e-2 -0.15625000
v -0.22097087 -6.2500000e-2 -0.22097087
v -0.15625000 -6.2500000e-2 -0.27063294
v -8.0880952e-2 -6.2500000e-2 -0.30185182
v -1.4188110e-16 -6.2500000e-2 -0.31250000
v 8.0880952e-2 -6.2500000e-2 -0.30185182
v 0.15625000 -6.2500000e-2 -0.27063294
v 0.22097087 -6.2500000e-2 -0.22097087
v 0.27063294 -6.2500000e-2 -0.15625000
v 0.30185182 -6.2500000e-2 -8.0880952e-2
vt 3.7971497e-2 0.84118310
vt 4.2092868e-2 0.80987818
vt 4.2092868e-2 0.87248803
vt 5.4176119e-2 0.78070663
vt 5.4176119e-2 0.90165958
vt 5.9683652e-2 0.22945024
vt 5.9683652e-2 0.28034400
vt 5.9683652e-2 0.22945024
vt 5.9683652e-2 0.22945024
vt 5.9683652e-2 0.28034400
vt 5.9683652e-2 0.28034400
vt 5.9683652e-2 0.22945024
vt 5.9683652e-2 0.28034400
vt 7.3397795e-2 0.75565645
vt 7.3397795e-2 0.92670975
vt 9.3104708e-2 0.22945024
vt 9.3104708e-2 0.28034400
vt 9.3104708e-2 0.28034400
vt 9.3104708e-2 0.22945024
vt 9.3104708e-2 0.22945024
vt 9.3104708e-2 0.28034400
vt 9.3104708e-2 0.28034400
vt 9.8447970e-2 0.73643478
vt 9.8447970e-2 0.94593143
vt 0.12652576 0.22945024
vt 0.12652576 0.28034400
vt 0.12652576 0.22945024
vt 0.12652576 0.22945024
vt 0.12652576 0.28034400
vt 0.12652576 0.28034400
vt 0.12761952 0.72435153
vt 0.12761952 0.95801468
vt 0.15892444 0.72023016
vt 0.15892444 0.84118310
vt 0.15892444 0.96213605
vt 0.15994682 0.22945024
vt 0.15994682 0.28034400
vt 0.15994682 0.22945024
vt 0.15994682 0.22945024
vt 0.15994682 0.28034400
vt 0.15994682 0.28034400
vt 0.19022937 0.72435153
vt 0.19022937 0.95801468
vt 0.19336787 0.22945024
vt 0.19336787 0.28034400
vt 0.19336787 0.22945024
vt 0.19336787 0.22945024
vt 0.19336787 0.28034400
vt 0.19336787 0.28034400
vt 0.21940092 0.73643478
vt 0.21940092 0.94593143
vt 0.22678893 0.22945024
vt 0.22678893 0.28034400
vt 0.22678893 0.22945024
vt 0.22678893 0.28034400
vt 0.24445109 0.75565645
vt 0.24445109 0.92670975
vt 0.26020998 0.22945024
vt 0.26020998 0.28034400
vt 0.26020998 0.22945024
vt 0.26020998 0.22945024
vt 0.26020998 0.28034400
vt 0.26020998 0.28034400
vt 0.26367277 0.78070663
vt 0.26367277 0.90165958
vt 0.27575602 0.80987818
vt 0.27575602 0.87248803
vt 0.27987739 0.84118310
vn 0.0000000e+0 1.00000000 3.0814879e-33
vn 0.0000000e+0 1.00000000 0.0000000e+0
vn 0.0000000e+0 1.00000000 0.0000000e+0
vn 0.96592583 0.0000000e+0 0.25881905
vn 0.96592583 0.0000000e+0 0.25881905
vn 0.0000000e+0 1.00000000 0.0000000e+0
vn 0.0000000e+0 1.00000000 0.0000000e+0
vn 1.00000000 0.0000000e+0 -4.6191878e-16
vn 1.00000000 0.0000000e+0 -4.6191878e-16
vn 0.0000000e+0 1.00000000 0.0000000e+0
vn 0.0000000e+0 1.00000000 0.0000000e+0
vn 0.96592583 0.0000000e+0 -0.25881905
vn 0.96592583 0.0000000e+0 -0.25881905
vn 0.0000000e+0 1.00000000 0.0000000e+0
vn 0.0000000e+0 1.00000000 0.0000000e+0
vn 0.86602540 0.0000000e+0 -0.50000000
vn 0.86602540 0.0000000e+0 -0.50000000
vn 0.0000000e+0 1.00000000 0.0000000e+0
vn 0.0000000e+0 1.00000000 0.0000000e+0
vn 0.70710678 0.0000000e+0 -0.70710678
vn 0.70710678 0.0000000e+0 -0.70710678
vn 0.0000000e+0 1.00000000 3.4316579e-17
vn 0.0000000e+0 1.00000000 3.4316579e-17
vn 0.50000000 0.0000000e+0 -0.86602540
vn 0.50000000 0.0000000e+0 -0.86602540
vn 0.0000000e+0 1.00000000 3.4316579e-17
vn 0.0000000e+0 1.00000000 3.4316579e-17
vn 0.25881905 0.0000000e+0 -0.96592583
vn 0.25881905 0.0000000e+0 -0.96592583
vn 0.0000000e+0 1.00000000 0.0000000e+0
vn 0.0000000e+0 1.00000000 0.0000000e+0
vn -1.1198031e-16 0.0000000e+0 -1.00000000
vn -1.1198031e-16 0.0000000e+0 -1.00000000
vn 0.0000000e+0 1.00000000 -3.4316579e-17
vn 0.0000000e+0 1.00000000 -3.4316579e-17
vn -0.25881905 0.0000000e+0 -0.96592583
vn -0.25881905 0.0000000e+0 -0.96592583
vn 0.0000000e+0 1.00000000 -3.4316579e-17
vn 0.0000000e+0 1.00000000 -3.4316579e-17
vn -0.50000000 0.0000000e+0 -0.86602540
vn -0.50000000 0.0000000e+0 -0.86602540
vn 0.0000000e+0 1.00000000 0.0000000e+0
vn 0.0000000e+0 1.00000000 0.0000000e+0
vn -0.70710678 0.0000000e+0 -0.70710678
vn -0.70710678 0.0000000e+0 -0.70710678
vn 0.0000000e+0 1.00000000 0.0000000e+0
vn 0.0000000e+0 1.00000000 0.0000000e+0
vn -0.86602540 0.0000000e+0 -0.50000000
vn -0.86602540 0.0000000e+0 -0.50000000
vn 0.0000000e+0 1.00000000 0.0000000e+0
vn 0.0000000e+0 1.00000000 0.0000000e+0
vn -0.96592583 0.0000000e+0 -0.25881905
vn -0.96592583 0.0000000e+0 -0.25881905
vn 0.0000000e+0 1.00000000 0.0000000e+0
vn 0.0000000e+0 1.00000000 0.0000000e+0
vn -1.00000000 0.0000000e+0 5.8789663e-16
vn -1.00000000 0.0000000e+0 5.8789663e-16
vn 0.0000000e+0 1.00000000 0.0000000e+0
vn 0.0000000e+0 1.00000000 0.0000000e+0
vn -0.96592583 0.0000000e+0 0.25881905
vn -0.96592583 0.0000000e+0 0.25881905
vn 0.0000000e+0 1.00000000 0.0000000e+0
vn 0.0000000e+0 1.00000000 0.0000000e+0
vn -0.86602540 0.0000000e+0 0.50000000
vn -0.86602540 0.0000000e+0 0.50000000
vn 0.0000000e+0 1.00000000 0.0000000e+0
vn 0.0000000e+0 1.00000000 0.0000000e+0
vn -0.70710678 0.0000000e+0 0.70710678
vn -0.70710678 0.0000000e+0 0.70710678
vn 0.0000000e+0 1.00000000 3.4316579e-17
vn 0.0000000e+0 1.00000000 3.4316579e-17
vn -0.50000000 0.0000000e+0 0.86602540
vn -0.50000000 0.0000000e+0 0.86602540
vn 0.0000000e+0 1.00000000 3.4316579e-17
vn 0.0000000e+0 1.00000000 3.4316579e-17
vn -0.25881905 0.0000000e+0 0.96592583
vn -0.25881905 0.0000000e+0 0.96592583
vn 0.0000000e+0 1.00000000 0.0000000e+0
vn 0.0000000e+0 1.00000000 0.0000000e+0
vn -6.9987693e-17 0.0000000e+0 1.00000000
vn -6.9987693e-17 0.0000000e+0 1.00000000
vn 0.0000000e+0 1.00000000 -3.4316579e-17
vn 0.0000000e+0 1.00000000 -3.4316579e-17
vn 0.25881905 0.0000000e+0 0.96592583
vn 0.25881905 0.0000000e+0 0.96592583
vn 0.0000000e+0 1.00000000 -3.4316579e-17
vn 0.0000000e+0 1.00000000 -3.4316579e-17
vn 0.50000000 0.0000000e+0 0.86602540
vn 0.50000000 0.0000000e+0 0.86602540
vn 0.0000000e+0 1.00000000 0.0000000e+0
vn 0.0000000e+0 1.00000000 0.0000000e+0
vn 0.70710678 0.0000000e+0 0.70710678
vn 0.70710678 0.0000000e+0 0.70710678
vn 0.0000000e+0 1.00000000 0.0000000e+0
vn 0.0000000e+0 1.00000000 0.0000000e+0
vn 0.86602540 0.0000000e+0 0.50000000
vn 0.86602540 0.0000000e+0 0.50000000
vn 1.00000000 0.0000000e+0 -4.6191878e-16
vn 1.00000000 0.0000000e+0 -4.6191878e-16
vn 0.96592583 0.0000000e+0 0.25881905
vn 0.96592583 0.0000000e+0 0.25881905
vn 0.86602540 0.0000000e+0 0.50000000
vn 0.86602540 0.0000000e+0 0.50000000
vn 0.70710678 0.0000000e+0 0.70710678
vn 0.70710678 0.0000000e+0 0.70710678
vn 0.50000000 0.0000000e+0 0.86602540
vn 0.50000000 0.0000000e+0 0.86602540
vn 0.25881905 0.0000000e+0 0.96592583
vn 0.25881905 0.0000000e+0 0.96592583
vn -6.9987693e-17 0.0000000e+0 1.00000000
vn -6.9987693e-17 0.0000000e+0 1.00000000
vn -0.25881905 0.0000000e+0 0.96592583
vn -0.25881905 0.0000000e+0 0.96592583
vn -0.50000000 0.0000000e+0 0.86602540
vn -0.50000000 0.0000000e+0 0.86602540
vn -0.70710678 0.0000000e+0 0.70710678
vn -0.70710678 0.0000000e+0 0.70710678
vn -0.86602540 0.0000000e+0 0.50000000
vn -0.86602540 0.0000000e+0 0.50000000
vn -0.96592583 0.0000000e+0 0.25881905
vn -0.96592583 0.0000000e+0 0.25881905
vn -1.00000000 0.0000000e+0 5.8789663e-16
vn -1.00000000 0.0000000e+0 5.8789663e-16
vn -0.96592583 0.0000000e+0 -0.25881905
vn -0.96592583 0.0000000e+0 -0.25881905
vn -0.86602540 0.0000000e+0 -0.50000000
vn -0.86602540 0.0000000e+0 -0.50000000
vn -0.70710678 0.0000000e+0 -0.70710678
vn -0.70710678 0.0000000e+0 -0.70710678
vn -0.50000000 0.0000000e+0 -0.86602540
vn -0.50000000 0.0000000e+0 -0.86602540
vn -0.25881905 0.0000000e+0 -0.96592583
vn -0.25881905 0.0000000e+0 -0.96592583
vn -1.1198031e-16 0.0000000e+0 -1.00000000
vn -1.1198031e-16 0.0000000e+0 -1.00000000
vn 0.25881905 0.0000000e+0 -0.96592583
vn 0.25881905 0.0000000e+0 -0.96592583
vn 0.50000000 0.0000000e+0 -0.86602540
vn 0.50000000 0.0000000e+0 -0.86602540
vn 0.70710678 0.0000000e+0 -0.70710678
vn 0.70710678 0.0000000e+0 -0.70710678
vn 0.86602540 0.0000000e+0 -0.50000000
vn 0.86602540 0.0000000e+0 -0.50000000
vn 0.96592583 0.0000000e+0 -0.25881905
vn 0.96592583 0.0000000e+0 -0.25881905
g mesh1_mesh1_auv
usemtl mesh1_auv
s 1
f 1/66/3 25/34/1 24/64/95
f 2/68/6 25/34/1 1/66/2
f 3/67/10 25/34/1 2/68/7
f 4/65/14 25/34/1 3/67/11
f 5/57/18 25/34/1 4/65/15
f 6/51/22 25/34/1 5/57/19
f 7/43/26 25/34/1 6/51/23
f 8/35/30 25/34/1 7/43/27
f 9/32/34 25/34/1 8/35/31
f 10/24/38 25/34/1 9/32/35
f 11/15/42 25/34/1 10/24/39
f 12/5/46 25/34/1 11/15/43
f 13/3/50 25/34/1 12/5/47
f 14/1/54 25/34/1 13/3/51
f 15/2/58 25/34/1 14/1/55
f 16/4/62 25/34/1 15/2/59
f 17/14/66 25/34/1 16/4/63
f 18/23/70 25/34/1 17/14/67
f 19/31/74 25/34/1 18/23/71
f 20/33/78 25/34/1 19/31/75
f 21/42/82 25/34/1 20/33/79
f 22/50/86 25/34/1 21/42/83
f 23/56/90 25/34/1 22/50/87
f 24/64/94 25/34/1 23/56/91
s 2
f 1/29/4 27/27/100 26/38/98 2/40/8
f 2/40/9 26/38/99 49/46/145 3/48/13
f 3/48/12 49/46/144 48/52/143 4/53/17
f 4/53/16 48/52/142 47/60/141 5/62/21
f 5/11/20 47/9/140 46/20/139 6/22/25
f 6/22/24 46/20/138 45/28/137 7/30/29
f 7/30/28 45/28/136 44/39/135 8/41/33
f 8/41/32 44/39/134 43/47/133 9/49/37
f 9/49/36 43/47/132 42/54/131 10/55/41
f 10/55/40 42/54/130 41/61/129 11/63/45
f 11/13/44 41/12/128 40/19/127 12/21/49
f 12/21/48 40/19/126 39/27/125 13/29/53
f 13/29/52 39/27/124 38/38/123 14/40/57
f 14/40/56 38/38/122 37/46/121 15/48/61
f 15/48/60 37/46/120 36/52/119 16/53/65
f 16/53/64 36/52/118 35/58/117 17/59/69
f 17/7/68 35/6/116 34/16/115 18/18/73
f 18/18/72 34/16/114 33/25/113 19/26/77
f 19/26/76 33/25/112 32/36/111 20/37/81
f 20/37/80 32/36/110 31/44/109 21/45/85
f 21/45/84 31/44/108 30/54/107 22/55/89
f 22/55/88 30/54/106 29/61/105 23/63/93
f 23/10/92 29/8/104 28/19/103 24/17/97
f 24/17/96 28/19/102 27/27/101 1/29/5
