# Exported from Wings 3D 1.5.4
mtllib Knight_Fin_S_1_Collider.mtl
o Knight_Fin_S_1_Collider
#10 vertices, 7 faces
v -0.31250000 -0.42125000 1.2500000e-2
v -0.31250000 -3.7500000e-3 1.2500000e-2
v -2.5000000e-2 0.28625000 1.2500000e-2
v -0.31250000 -0.42125000 -1.2500000e-2
v -0.31250000 -3.7500000e-3 -1.2500000e-2
v -2.5000000e-2 0.28625000 -1.2500000e-2
v -0.16250000 -0.42125000 1.2500000e-2
v -2.5000000e-2 -0.33875000 1.2500000e-2
v -0.16250000 -0.42125000 -1.2500000e-2
v -2.5000000e-2 -0.33875000 -1.2500000e-2
vn 0.0000000e+0 -1.00000000 0.0000000e+0
vn -1.00000000 0.0000000e+0 0.0000000e+0
vn -6.1141751e-17 -3.4739631e-19 1.00000000
vn -0.71016120 0.70403912 0.0000000e+0
vn -1.00000000 0.0000000e+0 0.0000000e+0
vn -6.1141751e-17 -3.4739631e-19 1.00000000
vn -0.71016120 0.70403912 0.0000000e+0
vn 1.00000000 0.0000000e+0 0.0000000e+0
vn -6.1141751e-17 -3.4739631e-19 1.00000000
vn 0.0000000e+0 -1.00000000 0.0000000e+0
vn -1.00000000 0.0000000e+0 0.0000000e+0
vn 5.5583410e-17 3.4739631e-19 -1.00000000
vn -0.71016120 0.70403912 0.0000000e+0
vn -1.00000000 0.0000000e+0 0.0000000e+0
vn 5.5583410e-17 3.4739631e-19 -1.00000000
vn -0.71016120 0.70403912 0.0000000e+0
vn 1.00000000 0.0000000e+0 0.0000000e+0
vn 5.5583410e-17 3.4739631e-19 -1.00000000
vn 0.0000000e+0 -1.00000000 0.0000000e+0
vn -6.1141751e-17 -3.4739631e-19 1.00000000
vn 0.51449576 -0.85749293 0.0000000e+0
vn 1.00000000 0.0000000e+0 0.0000000e+0
vn -6.1141751e-17 -3.4739631e-19 1.00000000
vn 0.51449576 -0.85749293 0.0000000e+0
vn 0.0000000e+0 -1.00000000 0.0000000e+0
vn 5.5583410e-17 3.4739631e-19 -1.00000000
vn 0.51449576 -0.85749293 0.0000000e+0
vn 1.00000000 0.0000000e+0 0.0000000e+0
vn 5.5583410e-17 3.4739631e-19 -1.00000000
vn 0.51449576 -0.85749293 0.0000000e+0
g Knight_Fin_S_1_Collider_default2
usemtl default2
s 1
f 4//12 5//15 6//18 10//29 9//26
f 7//20 8//23 3//9 2//6 1//3
s 2
f 2//5 5//14 4//11 1//2
f 3//8 8//22 10//28 6//17
s 3
f 3//7 6//16 5//13 2//4
f 9//27 10//30 8//24 7//21
s 4
f 1//1 4//10 9//25 7//19
