# Exported from Wings 3D 1.5.4
mtllib Arrow_SRM_0_1_Collider.mtl
o Arrow_SRM_0_1_Collider
#32 vertices, 18 faces
v 0.31250000 0.50000000 -6.2160115e-2
v 0.31250000 0.50000000 6.2160115e-2
v 0.26492471 0.50000000 0.17701703
v 0.17701703 0.50000000 0.26492471
v 6.2160115e-2 0.50000000 0.31250000
v -6.2160115e-2 0.50000000 0.31250000
v -0.17701703 0.50000000 0.26492471
v -0.26492471 0.50000000 0.17701703
v -0.31250000 0.50000000 6.2160115e-2
v -0.31250000 0.50000000 -6.2160115e-2
v -0.26492471 0.50000000 -0.17701703
v -0.17701703 0.50000000 -0.26492471
v -6.2160115e-2 0.50000000 -0.31250000
v 6.2160115e-2 0.50000000 -0.31250000
v 0.17701703 0.50000000 -0.26492471
v 0.26492471 0.50000000 -0.17701703
v 0.31250000 -1.3877788e-17 -6.2160115e-2
v 0.31250000 -1.3877788e-17 6.2160115e-2
v 0.26492471 -1.3877788e-17 0.17701703
v 0.17701703 -1.3877788e-17 0.26492471
v 6.2160115e-2 -1.3877788e-17 0.31250000
v -6.2160115e-2 -1.3877788e-17 0.31250000
v -0.17701703 -1.3877788e-17 0.26492471
v -0.26492471 -1.3877788e-17 0.17701703
v -0.31250000 -1.3877788e-17 6.2160115e-2
v -0.31250000 -1.3877788e-17 -6.2160115e-2
v -0.26492471 -1.3877788e-17 -0.17701703
v -0.17701703 -1.3877788e-17 -0.26492471
v -6.2160115e-2 -1.3877788e-17 -0.31250000
v 6.2160115e-2 -1.3877788e-17 -0.31250000
v 0.17701703 -1.3877788e-17 -0.26492471
v 0.26492471 -1.3877788e-17 -0.17701703
vn 0.0000000e+0 1.00000000 4.4651744e-17
vn 0.92387953 0.0000000e+0 -0.38268343
vn 1.00000000 0.0000000e+0 0.0000000e+0
vn 0.0000000e+0 1.00000000 4.4651744e-17
vn 0.92387953 0.0000000e+0 0.38268343
vn 1.00000000 0.0000000e+0 0.0000000e+0
vn 0.0000000e+0 1.00000000 4.4651744e-17
vn 0.70710678 0.0000000e+0 0.70710678
vn 0.92387953 0.0000000e+0 0.38268343
vn 0.0000000e+0 1.00000000 4.4651744e-17
vn 0.38268343 0.0000000e+0 0.92387953
vn 0.70710678 0.0000000e+0 0.70710678
vn 0.0000000e+0 1.00000000 4.4651744e-17
vn 0.0000000e+0 0.0000000e+0 1.00000000
vn 0.38268343 0.0000000e+0 0.92387953
vn 0.0000000e+0 1.00000000 4.4651744e-17
vn -0.38268343 0.0000000e+0 0.92387953
vn 0.0000000e+0 0.0000000e+0 1.00000000
vn 0.0000000e+0 1.00000000 4.4651744e-17
vn -0.70710678 0.0000000e+0 0.70710678
vn -0.38268343 0.0000000e+0 0.92387953
vn 0.0000000e+0 1.00000000 4.4651744e-17
vn -0.92387953 0.0000000e+0 0.38268343
vn -0.70710678 0.0000000e+0 0.70710678
vn 0.0000000e+0 1.00000000 4.4651744e-17
vn -1.00000000 0.0000000e+0 0.0000000e+0
vn -0.92387953 0.0000000e+0 0.38268343
vn 0.0000000e+0 1.00000000 4.4651744e-17
vn -0.92387953 0.0000000e+0 -0.38268343
vn -1.00000000 0.0000000e+0 0.0000000e+0
vn 0.0000000e+0 1.00000000 4.4651744e-17
vn -0.70710678 0.0000000e+0 -0.70710678
vn -0.92387953 0.0000000e+0 -0.38268343
vn 0.0000000e+0 1.00000000 4.4651744e-17
vn -0.38268343 0.0000000e+0 -0.92387953
vn -0.70710678 0.0000000e+0 -0.70710678
vn 0.0000000e+0 1.00000000 4.4651744e-17
vn 0.0000000e+0 0.0000000e+0 -1.00000000
vn -0.38268343 0.0000000e+0 -0.92387953
vn 0.0000000e+0 1.00000000 4.4651744e-17
vn 0.38268343 0.0000000e+0 -0.92387953
vn 0.0000000e+0 0.0000000e+0 -1.00000000
vn 0.0000000e+0 1.00000000 4.4651744e-17
vn 0.70710678 0.0000000e+0 -0.70710678
vn 0.38268343 0.0000000e+0 -0.92387953
vn 0.0000000e+0 1.00000000 4.4651744e-17
vn 0.92387953 0.0000000e+0 -0.38268343
vn 0.70710678 0.0000000e+0 -0.70710678
vn 0.92387953 0.0000000e+0 -0.38268343
vn 1.00000000 0.0000000e+0 0.0000000e+0
vn 0.0000000e+0 -1.00000000 0.0000000e+0
vn 0.92387953 0.0000000e+0 0.38268343
vn 1.00000000 0.0000000e+0 0.0000000e+0
vn 0.0000000e+0 -1.00000000 0.0000000e+0
vn 0.70710678 0.0000000e+0 0.70710678
vn 0.92387953 0.0000000e+0 0.38268343
vn 0.0000000e+0 -1.00000000 0.0000000e+0
vn 0.38268343 0.0000000e+0 0.92387953
vn 0.70710678 0.0000000e+0 0.70710678
vn 0.0000000e+0 -1.00000000 0.0000000e+0
vn 0.0000000e+0 0.0000000e+0 1.00000000
vn 0.38268343 0.0000000e+0 0.92387953
vn 0.0000000e+0 -1.00000000 0.0000000e+0
vn -0.38268343 0.0000000e+0 0.92387953
vn 0.0000000e+0 0.0000000e+0 1.00000000
vn 0.0000000e+0 -1.00000000 0.0000000e+0
vn -0.70710678 0.0000000e+0 0.70710678
vn -0.38268343 0.0000000e+0 0.92387953
vn 0.0000000e+0 -1.00000000 0.0000000e+0
vn -0.92387953 0.0000000e+0 0.38268343
vn -0.70710678 0.0000000e+0 0.70710678
vn 0.0000000e+0 -1.00000000 0.0000000e+0
vn -1.00000000 0.0000000e+0 0.0000000e+0
vn -0.92387953 0.0000000e+0 0.38268343
vn 0.0000000e+0 -1.00000000 0.0000000e+0
vn -0.92387953 0.0000000e+0 -0.38268343
vn -1.00000000 0.0000000e+0 0.0000000e+0
vn 0.0000000e+0 -1.00000000 0.0000000e+0
vn -0.70710678 0.0000000e+0 -0.70710678
vn -0.92387953 0.0000000e+0 -0.38268343
vn 0.0000000e+0 -1.00000000 0.0000000e+0
vn -0.38268343 0.0000000e+0 -0.92387953
vn -0.70710678 0.0000000e+0 -0.70710678
vn 0.0000000e+0 -1.00000000 0.0000000e+0
vn 0.0000000e+0 0.0000000e+0 -1.00000000
vn -0.38268343 0.0000000e+0 -0.92387953
vn 0.0000000e+0 -1.00000000 0.0000000e+0
vn 0.38268343 0.0000000e+0 -0.92387953
vn 0.0000000e+0 0.0000000e+0 -1.00000000
vn 0.0000000e+0 -1.00000000 0.0000000e+0
vn 0.70710678 0.0000000e+0 -0.70710678
vn 0.38268343 0.0000000e+0 -0.92387953
vn 0.0000000e+0 -1.00000000 0.0000000e+0
vn 0.92387953 0.0000000e+0 -0.38268343
vn 0.70710678 0.0000000e+0 -0.70710678
vn 0.0000000e+0 -1.00000000 0.0000000e+0
g Arrow_SRM_0_1_Collider_default
usemtl default
s 1
f 2//6 18//53 17//50 1//3
f 4//12 20//59 19//55 3//8
f 6//18 22//65 21//61 5//14
f 8//24 24//71 23//67 7//20
f 11//33 27//80 26//76 10//29
f 13//39 29//86 28//82 12//35
f 16//48 32//95 31//91 15//44
s 2
f 1//2 17//49 32//94 16//47
f 3//9 19//56 18//52 2//5
f 5//15 21//62 20//58 4//11
f 7//21 23//68 22//64 6//17
f 9//27 25//74 24//70 8//23
f 12//36 28//83 27//79 11//32
f 14//42 30//89 29//85 13//38
s 3
f 1//1 16//46 15//43 14//40 13//37 12//34 11//31 10//28 9//25 8//22 7//19 6//16 5//13 4//10 3//7 2//4
f 18//54 19//57 20//60 21//63 22//66 23//69 24//72 25//75 26//78 27//81 28//84 29//87 30//90 31//93 32//96 17//51
s 4
f 10//30 26//77 25//73 9//26
f 15//45 31//92 30//88 14//41
