# Exported from Wings 3D 1.5.4
mtllib blue_steel_rcs_srf_3.mtl
o mesh1
#32 vertices, 18 faces
v 1.2500000e-2 -3.0135922e-2 2.1201905e-2
v 1.1548494e-2 -3.4278591e-2 1.8810134e-2
v 8.8388348e-3 -3.7790577e-2 1.6782488e-2
v 4.7835429e-3 -4.0137211e-2 1.5427658e-2
v 1.1290850e-18 -4.0961239e-2 1.4951905e-2
v -4.7835429e-3 -4.0137211e-2 1.5427658e-2
v -8.8388348e-3 -3.7790577e-2 1.6782488e-2
v -1.1548494e-2 -3.4278591e-2 1.8810134e-2
v -1.2500000e-2 -3.0135922e-2 2.1201905e-2
v -1.1548494e-2 -2.5993252e-2 2.3593677e-2
v -8.8388348e-3 -2.2481266e-2 2.5621323e-2
v -4.7835429e-3 -2.0134632e-2 2.6976152e-2
v -1.9325320e-18 -1.9310604e-2 2.7451905e-2
v 4.7835429e-3 -2.0134632e-2 2.6976152e-2
v 8.8388348e-3 -2.2481266e-2 2.5621323e-2
v 1.1548494e-2 -2.5993252e-2 2.3593677e-2
v -4.1541687e-18 3.9840031e-2 -2.5000000e-2
v 3.0202277e-2 1.0984287e-2 -2.5000000e-2
v 2.4786403e-2 2.5159634e-2 -2.5000000e-2
v 1.4094939e-2 3.5831133e-2 -2.5000000e-2
v -1.4094939e-2 3.5831133e-2 -2.5000000e-2
v -2.4786403e-2 2.5159634e-2 -2.5000000e-2
v -3.0202277e-2 1.0984287e-2 -2.5000000e-2
v -3.0283122e-2 -3.4612392e-3 -2.5000000e-2
v -2.6058792e-2 -1.5924967e-2 -2.5000000e-2
v -1.8848451e-2 -2.5225556e-2 -2.5000000e-2
v -9.8393972e-3 -3.0890465e-2 -2.5000000e-2
v 3.1416403e-18 -3.2785684e-2 -2.5000000e-2
v 9.8393972e-3 -3.0890465e-2 -2.5000000e-2
v 1.8848451e-2 -2.5225556e-2 -2.5000000e-2
v 2.6058792e-2 -1.5924967e-2 -2.5000000e-2
v 3.0283122e-2 -3.4612392e-3 -2.5000000e-2
vn -8.4994704e-17 -0.50000000 0.86602540
vn 0.94868330 -0.15811388 0.27386128
vn 0.94868330 -0.15811388 0.27386128
vn -8.4994704e-17 -0.50000000 0.86602540
vn 0.87646908 -0.47252041 9.2338588e-2
vn 0.87646908 -0.47252041 9.2338588e-2
vn -8.4994704e-17 -0.50000000 0.86602540
vn 0.67082039 -0.73906138 -6.1548918e-2
vn 0.67082039 -0.73906138 -6.1548918e-2
vn -8.4994704e-17 -0.50000000 0.86602540
vn 0.36304538 -0.91715837 -0.16437326
vn 0.36304538 -0.91715837 -0.16437326
vn -8.4994704e-17 -0.50000000 0.86602540
vn 0.0000000e+0 -0.97969772 -0.20048037
vn 0.0000000e+0 -0.97969772 -0.20048037
vn -8.4994704e-17 -0.50000000 0.86602540
vn -0.36304538 -0.91715837 -0.16437326
vn -0.36304538 -0.91715837 -0.16437326
vn -8.4994704e-17 -0.50000000 0.86602540
vn -0.67082039 -0.73906138 -6.1548918e-2
vn -0.67082039 -0.73906138 -6.1548918e-2
vn -8.4994704e-17 -0.50000000 0.86602540
vn -0.87646908 -0.47252041 9.2338588e-2
vn -0.87646908 -0.47252041 9.2338588e-2
vn -8.4994704e-17 -0.50000000 0.86602540
vn -0.94868330 -0.15811388 0.27386128
vn -0.94868330 -0.15811388 0.27386128
vn -8.4994704e-17 -0.50000000 0.86602540
vn -0.87646908 0.15629264 0.45538397
vn -0.87646908 0.15629264 0.45538397
vn -8.4994704e-17 -0.50000000 0.86602540
vn -0.67082039 0.42283362 0.60927148
vn -0.67082039 0.42283362 0.60927148
vn -8.4994704e-17 -0.50000000 0.86602540
vn -0.36304538 0.60093061 0.71209582
vn -0.36304538 0.60093061 0.71209582
vn -8.4994704e-17 -0.50000000 0.86602540
vn 0.0000000e+0 0.66346995 0.74820293
vn 0.0000000e+0 0.66346995 0.74820293
vn -8.4994704e-17 -0.50000000 0.86602540
vn 0.36304538 0.60093061 0.71209582
vn 0.36304538 0.60093061 0.71209582
vn -8.4994704e-17 -0.50000000 0.86602540
vn 0.67082039 0.42283362 0.60927148
vn 0.67082039 0.42283362 0.60927148
vn -8.4994704e-17 -0.50000000 0.86602540
vn 0.87646908 0.15629264 0.45538397
vn 0.87646908 0.15629264 0.45538397
vn 0.0000000e+0 0.66346995 0.74820293
vn 0.0000000e+0 0.66346995 0.74820293
vn -1.5824487e-17 0.0000000e+0 -1.00000000
vn 0.87646908 0.15629264 0.45538397
vn 0.87646908 0.15629264 0.45538397
vn -1.5824487e-17 0.0000000e+0 -1.00000000
vn 0.67082039 0.42283362 0.60927148
vn 0.67082039 0.42283362 0.60927148
vn -1.5824487e-17 0.0000000e+0 -1.00000000
vn 0.36304538 0.60093061 0.71209582
vn 0.36304538 0.60093061 0.71209582
vn -1.5824487e-17 0.0000000e+0 -1.00000000
vn -0.36304538 0.60093061 0.71209582
vn -0.36304538 0.60093061 0.71209582
vn -1.5824487e-17 0.0000000e+0 -1.00000000
vn -0.67082039 0.42283362 0.60927148
vn -0.67082039 0.42283362 0.60927148
vn -1.5824487e-17 0.0000000e+0 -1.00000000
vn -0.87646908 0.15629264 0.45538397
vn -0.87646908 0.15629264 0.45538397
vn -1.5824487e-17 0.0000000e+0 -1.00000000
vn -0.94868330 -0.15811388 0.27386128
vn -0.94868330 -0.15811388 0.27386128
vn -1.5824487e-17 0.0000000e+0 -1.00000000
vn -0.87646908 -0.47252041 9.2338588e-2
vn -0.87646908 -0.47252041 9.2338588e-2
vn -1.5824487e-17 0.0000000e+0 -1.00000000
vn -0.67082039 -0.73906138 -6.1548918e-2
vn -0.67082039 -0.73906138 -6.1548918e-2
vn -1.5824487e-17 0.0000000e+0 -1.00000000
vn -0.36304538 -0.91715837 -0.16437326
vn -0.36304538 -0.91715837 -0.16437326
vn -1.5824487e-17 0.0000000e+0 -1.00000000
vn 0.0000000e+0 -0.97969772 -0.20048037
vn 0.0000000e+0 -0.97969772 -0.20048037
vn -1.5824487e-17 0.0000000e+0 -1.00000000
vn 0.36304538 -0.91715837 -0.16437326
vn 0.36304538 -0.91715837 -0.16437326
vn -1.5824487e-17 0.0000000e+0 -1.00000000
vn 0.67082039 -0.73906138 -6.1548918e-2
vn 0.67082039 -0.73906138 -6.1548918e-2
vn -1.5824487e-17 0.0000000e+0 -1.00000000
vn 0.87646908 -0.47252041 9.2338588e-2
vn 0.87646908 -0.47252041 9.2338588e-2
vn -1.5824487e-17 0.0000000e+0 -1.00000000
vn 0.94868330 -0.15811388 0.27386128
vn 0.94868330 -0.15811388 0.27386128
vn -1.5824487e-17 0.0000000e+0 -1.00000000
g mesh1_default
usemtl default
s 1
f 1//1 16//46 15//43 14//40 13//37 12//34 11//31 10//28 9//25 8//22 7//19 6//16 5//13 4//10 3//7 2//4
f 32//96 31//93 30//90 29//87 28//84 27//81 26//78 25//75 24//72 23//69 22//66 21//63 17//51 20//60 19//57 18//54
s 2
f 1//2 32//94 18//52 16//47
f 2//6 31//92 32//95 1//3
f 3//9 30//89 31//91 2//5
f 4//12 29//86 30//88 3//8
f 5//15 28//83 29//85 4//11
f 6//18 27//80 28//82 5//14
f 7//21 26//77 27//79 6//17
f 8//24 25//74 26//76 7//20
f 9//27 24//71 25//73 8//23
f 10//30 23//68 24//70 9//26
f 11//33 22//65 23//67 10//29
f 12//36 21//62 22//64 11//32
f 13//39 17//50 21//61 12//35
f 14//42 20//59 17//49 13//38
f 15//45 19//56 20//58 14//41
f 16//48 18//53 19//55 15//44
