# Exported from Wings 3D 1.5.4
mtllib blue_steel_rcs_srf_1.mtl
o mesh1
#86 vertices, 96 faces
v 1.8750000e-2 7.6437874e-18 5.0000000e-2
v 1.6237976e-2 -9.3750000e-3 5.0000000e-2
v 9.3750000e-3 -1.6237976e-2 5.0000000e-2
v 3.1719504e-18 -1.8750000e-2 5.0000000e-2
v -9.3750000e-3 -1.6237976e-2 5.0000000e-2
v -1.6237976e-2 -9.3750000e-3 5.0000000e-2
v -1.8750000e-2 5.3475746e-18 5.0000000e-2
v -1.6237976e-2 9.3750000e-3 5.0000000e-2
v -9.3750000e-3 1.6237976e-2 5.0000000e-2
v -1.4204751e-18 1.8750000e-2 5.0000000e-2
v 9.3750000e-3 1.6237976e-2 5.0000000e-2
v 1.6237976e-2 9.3750000e-3 5.0000000e-2
v 3.7500000e-2 2.3134075e-18 -2.5000000e-2
v 3.2475953e-2 -1.8750000e-2 -2.5000000e-2
v 1.8750000e-2 -3.2475953e-2 -2.5000000e-2
v 6.3439009e-18 -3.7500000e-2 -2.5000000e-2
v -1.8750000e-2 -3.2475953e-2 -2.5000000e-2
v -3.2475953e-2 -1.8750000e-2 -2.5000000e-2
v -3.7500000e-2 -2.2790180e-18 -2.5000000e-2
v -3.2475953e-2 1.8750000e-2 -2.5000000e-2
v -1.8750000e-2 3.2475953e-2 -2.5000000e-2
v -2.8409501e-18 3.7500000e-2 -2.5000000e-2
v 1.8750000e-2 3.2475953e-2 -2.5000000e-2
v 3.2475953e-2 1.8750000e-2 -2.5000000e-2
v 1.6237976e-2 -9.3750000e-3 6.2500000e-2
v 1.8750000e-2 8.4147756e-18 6.2500000e-2
v 1.6237976e-2 9.3750000e-3 6.2500000e-2
v 9.3750000e-3 1.6237976e-2 6.2500000e-2
v -2.0629652e-18 1.8750000e-2 6.2500000e-2
v -9.3750000e-3 1.6237976e-2 6.2500000e-2
v -1.6237976e-2 9.3750000e-3 6.2500000e-2
v -1.8750000e-2 6.1185628e-18 6.2500000e-2
v -1.6237976e-2 -9.3750000e-3 6.2500000e-2
v -9.3750000e-3 -1.6237976e-2 6.2500000e-2
v 2.5294603e-18 -1.8750000e-2 6.2500000e-2
v 9.3750000e-3 -1.6237976e-2 6.2500000e-2
v 2.1650635e-2 -1.2500000e-2 7.5000000e-2
v 2.5000000e-2 8.7139891e-18 7.5000000e-2
v 2.1650635e-2 1.2500000e-2 7.5000000e-2
v 1.2500000e-2 2.1650635e-2 7.5000000e-2
v -4.7530480e-18 2.5000000e-2 7.5000000e-2
v -1.2500000e-2 2.1650635e-2 7.5000000e-2
v -2.1650635e-2 1.2500000e-2 7.5000000e-2
v -2.5000000e-2 5.6523721e-18 7.5000000e-2
v -2.1650635e-2 -1.2500000e-2 7.5000000e-2
v -1.2500000e-2 -2.1650635e-2 7.5000000e-2
v 1.3701860e-18 -2.5000000e-2 7.5000000e-2
v 1.2500000e-2 -2.1650635e-2 7.5000000e-2
v 0.0000000e+0 2.7466455e-18 -2.5000000e-2
v 1.2500000e-2 1.0275485e-17 0.12165064
v 1.0825318e-2 -6.2500000e-3 0.12165064
v 6.2500000e-3 -1.0825318e-2 0.12165064
v 2.1780655e-18 -1.2500000e-2 0.12165064
v -6.2500000e-3 -1.0825318e-2 0.12165064
v -1.0825318e-2 -6.2500000e-3 0.12165064
v -1.2500000e-2 7.2138678e-18 0.12165064
v -1.0825318e-2 6.2500000e-3 0.12165064
v -6.2500000e-3 1.0825318e-2 0.12165064
v -2.4143600e-18 1.2500000e-2 0.12165064
v 6.2500000e-3 1.0825318e-2 0.12165064
v 1.0825318e-2 6.2500000e-3 0.12165064
v 2.1650635e-2 1.0835800e-17 0.11250000
v 1.8750000e-2 -1.0825318e-2 0.11250000
v 1.0825318e-2 -1.8750000e-2 0.11250000
v 3.2986951e-18 -2.1650635e-2 0.11250000
v -1.0825318e-2 -1.8750000e-2 0.11250000
v -1.8750000e-2 -1.0825318e-2 0.11250000
v -2.1650635e-2 5.5329234e-18 0.11250000
v -1.8750000e-2 1.0825318e-2 0.11250000
v -1.0825318e-2 1.8750000e-2 0.11250000
v -4.6556192e-18 2.1650635e-2 0.11250000
v 1.0825318e-2 1.8750000e-2 0.11250000
v 1.8750000e-2 1.0825318e-2 0.11250000
v 2.5000000e-2 8.8802124e-18 1.0000000e-1
v 2.1650635e-2 -1.2500000e-2 1.0000000e-1
v 1.2500000e-2 -2.1650635e-2 1.0000000e-1
v 1.6691336e-18 -2.5000000e-2 1.0000000e-1
v -1.2500000e-2 -2.1650635e-2 1.0000000e-1
v -2.1650635e-2 -1.2500000e-2 1.0000000e-1
v -2.5000000e-2 6.8175920e-18 1.0000000e-1
v -2.1650635e-2 1.2500000e-2 1.0000000e-1
v -1.2500000e-2 2.1650635e-2 1.0000000e-1
v -3.4551038e-18 2.5000000e-2 1.0000000e-1
v 1.2500000e-2 2.1650635e-2 1.0000000e-1
v 2.1650635e-2 1.2500000e-2 1.0000000e-1
v 6.4725704e-19 9.5100806e-18 0.12500000
vt 0.35919751 0.78873728
vt 0.35919751 0.78873728
vt 0.36726559 0.76874184
vt 0.36726559 0.77142072
vt 0.36726559 0.77873956
vt 0.36726559 0.78873728
vt 0.36726559 0.79873500
vt 0.36726559 0.80605384
vt 0.36726559 0.80873272
vt 0.36726559 0.76874184
vt 0.36726559 0.77142072
vt 0.36726559 0.77873956
vt 0.36726559 0.78873728
vt 0.36726559 0.79873500
vt 0.36726559 0.80605384
vt 0.36726559 0.80873272
vt 0.38347916 0.75410416
vt 0.38347916 0.75874412
vt 0.38347916 0.77142072
vt 0.38347916 0.78873728
vt 0.38347916 0.80605384
vt 0.38347916 0.81873044
vt 0.38347916 0.82337040
vt 0.38347916 0.75410416
vt 0.38347916 0.75874412
vt 0.38347916 0.77142072
vt 0.38347916 0.78873728
vt 0.38347916 0.80605384
vt 0.38347916 0.81873044
vt 0.38347916 0.82337040
vt 0.40349379 0.74874640
vt 0.40349379 0.74874640
vt 0.40349379 0.75410416
vt 0.40349379 0.76874184
vt 0.40349379 0.78873728
vt 0.40349379 0.78873728
vt 0.40349379 0.80873272
vt 0.40349379 0.82337040
vt 0.40349379 0.82872816
vt 0.44196123 0.74874640
vt 0.44196123 0.75410416
vt 0.44196123 0.76874184
vt 0.44196123 0.78873728
vt 0.44196123 0.78873728
vt 0.44196123 0.80873272
vt 0.44196123 0.82337040
vt 0.44196123 0.82872816
vt 0.45973773 0.75874412
vt 0.45973773 0.76276244
vt 0.45973773 0.76276244
vt 0.45973773 0.77374070
vt 0.45973773 0.77374070
vt 0.45973773 0.78873728
vt 0.45973773 0.78873728
vt 0.45973773 0.80373386
vt 0.45973773 0.81471212
vt 0.45973773 0.81471212
vt 0.45973773 0.81873044
vt 0.45973773 0.81873044
vt 0.47897145 0.75874412
vt 0.47897145 0.76276244
vt 0.47897145 0.76276244
vt 0.47897145 0.77374070
vt 0.47897145 0.77374070
vt 0.47897145 0.78873728
vt 0.47897145 0.78873728
vt 0.47897145 0.80373386
vt 0.47897145 0.81471212
vt 0.47897145 0.81471212
vt 0.47897145 0.81873044
vt 0.47897145 0.81873044
vt 0.59874540 0.72875095
vt 0.59874540 0.73678760
vt 0.59874540 0.75874412
vt 0.59874540 0.78873728
vt 0.59874540 0.78873728
vt 0.59874540 0.81873044
vt 0.59874540 0.84068696
vt 0.59874540 0.84872361
vt 0.74659040 0.78795605
vt 0.74659040 0.78795605
vt 0.75431487 0.75912792
vt 0.75431487 0.81678417
vt 0.75431487 0.75912792
vt 0.75431487 0.81678417
vt 0.77541852 0.73802427
vt 0.77541852 0.83788783
vt 0.77541852 0.73802427
vt 0.77541852 0.83788783
vt 0.80424665 0.73029980
vt 0.80424665 0.78795605
vt 0.80424665 0.84561230
vt 0.80424665 0.73029980
vt 0.80424665 0.78795605
vt 0.80424665 0.84561230
vn 0.99249270 2.3138422e-16 0.12230386
vn 0.85952389 -0.49624635 0.12230386
vn 0.49624635 -0.85952389 0.12230386
vn 7.2307569e-17 -0.99249270 0.12230386
vn -0.49624635 -0.85952389 0.12230386
vn -0.85952389 -0.49624635 0.12230386
vn -0.99249270 -2.4584573e-16 0.12230386
vn -0.85952389 0.49624635 0.12230386
vn -0.49624635 0.85952389 0.12230386
vn -4.4830693e-16 0.99249270 0.12230386
vn 0.49624635 0.85952389 0.12230386
vn 0.85952389 0.49624635 0.12230386
vn 0.84269970 -0.48653290 -0.23052757
vn 0.97306579 2.8689307e-16 -0.23052757
vn 0.84269970 0.48653290 -0.23052757
vn 0.48653290 0.84269970 -0.23052757
vn -4.3401773e-16 0.97306579 -0.23052757
vn -0.48653290 0.84269970 -0.23052757
vn -0.84269970 0.48653290 -0.23052757
vn -0.97306579 -2.5746814e-16 -0.23052757
vn -0.84269970 -0.48653290 -0.23052757
vn -0.48653290 -0.84269970 -0.23052757
vn 1.4712465e-16 -0.97306579 -0.23052757
vn 0.48653290 -0.84269970 -0.23052757
vn 0.84269970 -0.48653290 -0.23052757
vn 0.97306579 2.9424931e-16 -0.23052757
vn 0.84269970 0.48653290 -0.23052757
vn 0.48653290 0.84269970 -0.23052757
vn -4.5608643e-16 0.97306579 -0.23052757
vn -0.48653290 0.84269970 -0.23052757
vn -0.84269970 0.48653290 -0.23052757
vn -0.97306579 -2.7953684e-16 -0.23052757
vn -0.84269970 -0.48653290 -0.23052757
vn -0.48653290 -0.84269970 -0.23052757
vn 1.3241219e-16 -0.97306579 -0.23052757
vn 0.48653290 -0.84269970 -0.23052757
vn 6.4249018e-18 -3.0839528e-17 -1.00000000
vn 0.49823128 9.4324939e-17 0.86704417
vn 0.43148095 -0.24911564 0.86704417
vn 0.24911564 -0.43148095 0.86704417
vn -1.8211969e-15 -0.49823128 0.86704417
vn -0.24911564 -0.43148095 0.86704417
vn -0.43148095 -0.24911564 0.86704417
vn -0.49823128 -1.5237106e-16 0.86704417
vn -0.43148095 0.24911564 0.86704417
vn -0.24911564 0.43148095 0.86704417
vn -2.1694736e-15 0.49823128 0.86704417
vn 0.24911564 0.43148095 0.86704417
vn 0.43148095 0.24911564 0.86704417
vn 0.86503332 2.0623429e-16 0.50171442
vn 0.74914083 -0.43251666 0.50171442
vn 0.43251666 -0.74914083 0.50171442
vn -2.6515838e-16 -0.86503332 0.50171442
vn -0.43251666 -0.74914083 0.50171442
vn -0.74914083 -0.43251666 0.50171442
vn -0.86503332 -2.6515838e-16 0.50171442
vn -0.74914083 0.43251666 0.50171442
vn -0.43251666 0.74914083 0.50171442
vn -7.2182003e-16 0.86503332 0.50171442
vn 0.43251666 0.74914083 0.50171442
vn 0.74914083 0.43251666 0.50171442
vn 0.99142553 2.4607542e-16 0.13067295
vn 0.85859969 -0.49571276 0.13067295
vn 0.49571276 -0.85859969 0.13067295
vn 4.3425075e-17 -0.99142553 0.13067295
vn -0.49571276 -0.85859969 0.13067295
vn -0.85859969 -0.49571276 0.13067295
vn -0.99142553 -2.8950050e-16 0.13067295
vn -0.85859969 0.49571276 0.13067295
vn -0.49571276 0.85859969 0.13067295
vn -5.0662587e-16 0.99142553 0.13067295
vn 0.49571276 0.85859969 0.13067295
vn 0.85859969 0.49571276 0.13067295
vn -2.2082839e-16 -2.0402623e-17 1.00000000
vn 0.97014250 2.0074612e-16 0.24253563
vn 0.97014250 2.0074612e-16 0.24253563
vn 1.5419764e-16 4.6222319e-32 -1.00000000
vn 1.5419764e-16 4.6222319e-32 -1.00000000
vn 0.84016805 -0.48507125 0.24253563
vn 0.84016805 -0.48507125 0.24253563
vn 7.7098821e-17 -9.2518585e-17 -1.00000000
vn 7.7098821e-17 -9.2518585e-17 -1.00000000
vn 0.48507125 -0.84016805 0.24253563
vn 0.48507125 -0.84016805 0.24253563
vn -2.3129646e-16 -2.5276548e-16 -1.00000000
vn -2.3129646e-16 -2.5276548e-16 -1.00000000
vn 2.8678017e-17 -0.97014250 0.24253563
vn 2.8678017e-17 -0.97014250 0.24253563
vn 4.9303807e-32 -3.7007434e-16 -1.00000000
vn 4.9303807e-32 -3.7007434e-16 -1.00000000
vn -0.48507125 -0.84016805 0.24253563
vn -0.48507125 -0.84016805 0.24253563
vn 2.3129646e-16 -2.5276548e-16 -1.00000000
vn 2.3129646e-16 -2.5276548e-16 -1.00000000
vn -0.84016805 -0.48507125 0.24253563
vn -0.84016805 -0.48507125 0.24253563
vn -1.5419764e-16 -9.2518585e-17 -1.00000000
vn -1.5419764e-16 -9.2518585e-17 -1.00000000
vn -0.97014250 -2.2942414e-16 0.24253563
vn -0.97014250 -2.2942414e-16 0.24253563
vn -1.5419764e-16 -4.3140831e-32 -1.00000000
vn -1.5419764e-16 -4.3140831e-32 -1.00000000
vn -0.84016805 0.48507125 0.24253563
vn -0.84016805 0.48507125 0.24253563
vn -1.5419764e-16 9.2518585e-17 -1.00000000
vn -1.5419764e-16 9.2518585e-17 -1.00000000
vn -0.48507125 0.84016805 0.24253563
vn -0.48507125 0.84016805 0.24253563
vn -1.9274705e-16 1.6024689e-16 -1.00000000
vn -1.9274705e-16 1.6024689e-16 -1.00000000
vn -4.3017025e-16 0.97014250 0.24253563
vn -4.3017025e-16 0.97014250 0.24253563
vn -1.1564823e-16 1.8503717e-16 -1.00000000
vn -1.1564823e-16 1.8503717e-16 -1.00000000
vn 0.48507125 0.84016805 0.24253563
vn 0.48507125 0.84016805 0.24253563
vn 2.3129646e-16 1.6024689e-16 -1.00000000
vn 2.3129646e-16 1.6024689e-16 -1.00000000
vn 0.84016805 0.48507125 0.24253563
vn 0.84016805 0.48507125 0.24253563
vn 3.8549411e-16 9.2518585e-17 -1.00000000
vn 3.8549411e-16 9.2518585e-17 -1.00000000
g mesh1_mesh1_auv
usemtl mesh1_auv
s 1
f 13/80/78 49/91/37 24/83/122
f 14/82/81 49/91/37 13/80/77
f 15/86/85 49/91/37 14/82/82
f 16/90/89 49/91/37 15/86/86
f 17/88/93 49/94/37 16/93/90
f 18/84/97 49/94/37 17/88/94
f 19/81/101 49/94/37 18/84/98
f 20/85/105 49/94/37 19/81/102
f 21/89/109 49/94/37 20/85/106
f 22/95/113 49/94/37 21/89/110
f 23/87/117 49/91/37 22/92/114
f 24/83/121 49/91/37 23/87/118
s 2
f 1/65/1 13/75/75 24/77/119 12/67/12
f 1/65/1 26/53/14 25/51/13 2/63/2
f 2/63/2 14/74/80 13/75/76 1/65/1
f 2/63/2 25/51/13 36/49/24 3/61/3
f 3/61/3 15/73/84 14/74/79 2/63/2
f 3/61/3 36/49/24 35/48/23 4/60/4
f 4/60/4 16/72/88 15/73/83 3/61/3
f 4/60/4 35/48/23 34/50/22 5/62/5
f 5/62/5 17/73/92 16/72/87 4/60/4
f 5/62/5 34/50/22 33/52/21 6/64/6
f 6/64/6 18/74/96 17/73/91 5/62/5
f 6/64/6 33/52/21 32/54/20 7/66/7
f 7/66/7 19/76/100 18/74/95 6/64/6
f 7/66/7 32/54/20 31/55/19 8/67/8
f 8/67/8 20/77/104 19/76/99 7/66/7
f 8/67/8 31/55/19 30/57/18 9/69/9
f 9/69/9 21/78/108 20/77/103 8/67/8
f 9/69/9 30/57/18 29/59/17 10/71/10
f 10/71/10 22/79/112 21/78/107 9/69/9
f 10/70/10 29/58/17 28/56/16 11/68/11
f 11/68/11 23/78/116 22/79/111 10/70/10
f 11/68/11 28/56/16 27/55/15 12/67/12
f 12/67/12 24/77/120 23/78/115 11/68/11
f 12/67/12 27/55/15 26/53/14 1/65/1
f 25/51/13 37/42/25 48/41/36 36/49/24
f 26/53/14 38/43/26 37/42/25 25/51/13
f 27/55/15 39/45/27 38/43/26 26/53/14
f 28/56/16 40/46/28 39/45/27 27/55/15
f 29/58/17 41/47/29 40/46/28 28/56/16
f 30/57/18 42/46/30 41/47/29 29/59/17
f 31/55/19 43/45/31 42/46/30 30/57/18
f 32/54/20 44/44/32 43/45/31 31/55/19
f 33/52/21 45/42/33 44/44/32 32/54/20
f 34/50/22 46/41/34 45/42/33 33/52/21
f 35/48/23 47/40/35 46/41/34 34/50/22
f 36/49/24 48/41/36 47/40/35 35/48/23
f 37/42/25 75/34/63 76/33/64 48/41/36
f 38/43/26 74/35/62 75/34/63 37/42/25
f 39/45/27 85/37/73 74/35/62 38/43/26
f 40/46/28 84/38/72 85/37/73 39/45/27
f 41/47/29 83/39/71 84/38/72 40/46/28
f 42/46/30 82/38/70 83/39/71 41/47/29
f 43/45/31 81/37/69 82/38/70 42/46/30
f 44/44/32 80/36/68 81/37/69 43/45/31
f 45/42/33 79/34/67 80/36/68 44/44/32
f 46/41/34 78/33/66 79/34/67 45/42/33
f 47/40/35 77/32/65 78/33/66 46/41/34
f 48/41/36 76/33/64 77/31/65 47/40/35
f 50/6/38 62/20/50 73/21/61 61/7/49
f 50/6/38 86/1/74 51/5/39
f 51/5/39 63/19/51 62/20/50 50/6/38
f 51/5/39 86/1/74 52/4/40
f 52/4/40 64/18/52 63/19/51 51/5/39
f 52/4/40 86/1/74 53/3/41
f 53/3/41 65/17/53 64/18/52 52/4/40
f 53/10/41 86/2/74 54/11/42
f 54/11/42 66/25/54 65/24/53 53/10/41
f 54/11/42 86/2/74 55/12/43
f 55/12/43 67/26/55 66/25/54 54/11/42
f 55/12/43 86/2/74 56/13/44
f 56/13/44 68/27/56 67/26/55 55/12/43
f 56/13/44 86/2/74 57/14/45
f 57/14/45 69/28/57 68/27/56 56/13/44
f 57/14/45 86/2/74 58/15/46
f 58/15/46 70/29/58 69/28/57 57/14/45
f 58/15/46 86/2/74 59/16/47
f 59/16/47 71/30/59 70/29/58 58/15/46
f 59/9/47 86/1/74 60/8/48
f 60/8/48 72/22/60 71/23/59 59/9/47
f 60/8/48 86/1/74 61/7/49
f 61/7/49 73/21/61 72/22/60 60/8/48
f 61/7/49 86/1/74 50/6/38
f 74/35/62 62/20/50 63/19/51 75/34/63
f 75/34/63 63/19/51 64/18/52 76/33/64
f 76/33/64 64/18/52 65/17/53 77/31/65
f 77/32/65 65/24/53 66/25/54 78/33/66
f 78/33/66 66/25/54 67/26/55 79/34/67
f 79/34/67 67/26/55 68/27/56 80/36/68
f 80/36/68 68/27/56 69/28/57 81/37/69
f 81/37/69 69/28/57 70/29/58 82/38/70
f 82/38/70 70/29/58 71/30/59 83/39/71
f 83/39/71 71/23/59 72/22/60 84/38/72
f 84/38/72 72/22/60 73/21/61 85/37/73
f 85/37/73 73/21/61 62/20/50 74/35/62
