# Exported from Wings 3D 1.5.4
mtllib blue_steel_rcs_srf_4.mtl
o mesh1
#86 vertices, 96 faces
v 1.8750000e-2 -3.2438299e-2 1.5165043e-3
v 1.6237976e-2 -3.9067425e-2 -5.1126218e-3
v 9.3750000e-3 -4.3920282e-2 -9.9654789e-3
v 3.2390362e-18 -4.5696551e-2 -1.1741748e-2
v -9.3750000e-3 -4.3920282e-2 -9.9654789e-3
v -1.6237976e-2 -3.9067425e-2 -5.1126218e-3
v -1.8750000e-2 -3.2438299e-2 1.5165043e-3
v -1.6237976e-2 -2.5809172e-2 8.1456304e-3
v -9.3750000e-3 -2.0956315e-2 1.2998487e-2
v -1.3533893e-18 -1.9180046e-2 1.4774756e-2
v 9.3750000e-3 -2.0956315e-2 1.2998487e-2
v 1.6237976e-2 -2.5809172e-2 8.1456304e-3
v -3.4494407e-18 4.7111214e-2 -2.5000000e-2
v 1.6237976e-2 -4.7906259e-2 3.7262130e-3
v 1.8750000e-2 -4.1277133e-2 1.0355339e-2
v 1.6237976e-2 -3.4648007e-2 1.6984465e-2
v 9.3750000e-3 -2.9795150e-2 2.1837322e-2
v -1.9958795e-18 -2.8018881e-2 2.3613591e-2
v -9.3750000e-3 -2.9795150e-2 2.1837322e-2
v -1.6237976e-2 -3.4648007e-2 1.6984465e-2
v -1.8750000e-2 -4.1277133e-2 1.0355339e-2
v -1.6237976e-2 -4.7906259e-2 3.7262130e-3
v -9.3750000e-3 -5.2759116e-2 -1.1266441e-3
v 2.5965460e-18 -5.4535385e-2 -2.9029131e-3
v 9.3750000e-3 -5.2759116e-2 -1.1266441e-3
v 2.1650635e-2 -5.8954803e-2 1.0355339e-2
v 2.5000000e-2 -5.0115968e-2 1.9194174e-2
v 2.1650635e-2 -4.1277133e-2 2.8033009e-2
v 1.2500000e-2 -3.4806657e-2 3.4503485e-2
v -4.6859623e-18 -3.2438299e-2 3.6871843e-2
v -1.2500000e-2 -3.4806657e-2 3.4503485e-2
v -2.1650635e-2 -4.1277133e-2 2.8033009e-2
v -2.5000000e-2 -5.0115968e-2 1.9194174e-2
v -2.1650635e-2 -5.8954803e-2 1.0355339e-2
v -1.2500000e-2 -6.5425279e-2 3.8848629e-3
v 1.4372717e-18 -6.7793638e-2 1.5165043e-3
v 1.2500000e-2 -6.5425279e-2 3.8848629e-3
v 1.2500000e-2 -8.3102949e-2 5.2181154e-2
v 1.0825318e-2 -8.7522366e-2 4.7761737e-2
v 6.2500000e-3 -9.0757604e-2 4.4526499e-2
v 2.2451513e-18 -9.1941783e-2 4.3342319e-2
v -6.2500000e-3 -9.0757604e-2 4.4526499e-2
v -1.0825318e-2 -8.7522366e-2 4.7761737e-2
v -1.2500000e-2 -8.3102949e-2 5.2181154e-2
v -1.0825318e-2 -7.8683531e-2 5.6600572e-2
v -6.2500000e-3 -7.5448293e-2 5.9835810e-2
v -2.3472742e-18 -7.4264114e-2 6.1019989e-2
v 6.2500000e-3 -7.5448293e-2 5.9835810e-2
v 1.0825318e-2 -7.8683531e-2 5.6600572e-2
v 2.1650635e-2 -7.6632472e-2 4.5710678e-2
v 1.8750000e-2 -8.4287128e-2 3.8056023e-2
v 1.0825318e-2 -8.9890725e-2 3.2452426e-2
v 3.3657809e-18 -9.1941783e-2 3.0401367e-2
v -1.0825318e-2 -8.9890725e-2 3.2452426e-2
v -1.8750000e-2 -8.4287128e-2 3.8056023e-2
v -2.1650635e-2 -7.6632472e-2 4.5710678e-2
v -1.8750000e-2 -6.8977817e-2 5.3365334e-2
v -1.0825318e-2 -6.3374220e-2 5.8968930e-2
v -4.5885334e-18 -6.1323161e-2 6.1019989e-2
v 1.0825318e-2 -6.3374220e-2 5.8968930e-2
v 1.8750000e-2 -6.8977817e-2 5.3365334e-2
v 2.5000000e-2 -6.7793638e-2 3.6871843e-2
v 2.1650635e-2 -7.6632472e-2 2.8033009e-2
v 1.2500000e-2 -8.3102949e-2 2.1562532e-2
v 1.7362194e-18 -8.5471307e-2 1.9194174e-2
v -1.2500000e-2 -8.3102949e-2 2.1562532e-2
v -2.1650635e-2 -7.6632472e-2 2.8033009e-2
v -2.5000000e-2 -6.7793638e-2 3.6871843e-2
v -2.1650635e-2 -5.8954803e-2 4.5710678e-2
v -1.2500000e-2 -5.2484327e-2 5.2181154e-2
v -3.3880180e-18 -5.0115968e-2 5.4549513e-2
v 1.2500000e-2 -5.2484327e-2 5.2181154e-2
v 2.1650635e-2 -5.8954803e-2 4.5710678e-2
v 7.1434280e-19 -8.5471307e-2 5.4549513e-2
v 3.7115374e-2 1.6806638e-2 -2.5000000e-2
v 2.3931272e-2 3.8042761e-2 -2.5000000e-2
v -2.3931272e-2 3.8042761e-2 -2.5000000e-2
v -3.7115374e-2 1.6806638e-2 -2.5000000e-2
v -3.7500000e-2 -5.9217943e-3 -2.5000000e-2
v -2.8867513e-2 -2.3599464e-2 -2.5000000e-2
v -1.5412990e-2 -3.4237265e-2 -2.5000000e-2
v 5.4136135e-18 -3.7741599e-2 -2.5000000e-2
v 1.5412990e-2 -3.4237265e-2 -2.5000000e-2
v 2.8867513e-2 -2.3599464e-2 -2.5000000e-2
v 3.7500000e-2 -5.9217943e-3 -2.5000000e-2
v 2.4904508e-19 0.0000000e+0 -2.5000000e-2
vt 0.35919751 0.78873728
vt 0.35919751 0.78873728
vt 0.36726559 0.76874184
vt 0.36726559 0.77142072
vt 0.36726559 0.77873956
vt 0.36726559 0.78873728
vt 0.36726559 0.79873500
vt 0.36726559 0.80605384
vt 0.36726559 0.80873272
vt 0.36726559 0.76874184
vt 0.36726559 0.77142072
vt 0.36726559 0.77873956
vt 0.36726559 0.78873728
vt 0.36726559 0.79873500
vt 0.36726559 0.80605384
vt 0.36726559 0.80873272
vt 0.38347916 0.75410416
vt 0.38347916 0.75874412
vt 0.38347916 0.77142072
vt 0.38347916 0.78873728
vt 0.38347916 0.80605384
vt 0.38347916 0.81873044
vt 0.38347916 0.82337040
vt 0.38347916 0.75410416
vt 0.38347916 0.75874412
vt 0.38347916 0.77142072
vt 0.38347916 0.78873728
vt 0.38347916 0.80605384
vt 0.38347916 0.81873044
vt 0.38347916 0.82337040
vt 0.40349379 0.74874640
vt 0.40349379 0.74874640
vt 0.40349379 0.75410416
vt 0.40349379 0.76874184
vt 0.40349379 0.78873728
vt 0.40349379 0.78873728
vt 0.40349379 0.80873272
vt 0.40349379 0.82337040
vt 0.40349379 0.82872816
vt 0.44196123 0.74874640
vt 0.44196123 0.75410416
vt 0.44196123 0.76874184
vt 0.44196123 0.78873728
vt 0.44196123 0.78873728
vt 0.44196123 0.80873272
vt 0.44196123 0.82337040
vt 0.44196123 0.82872816
vt 0.45973773 0.75874412
vt 0.45973773 0.76276244
vt 0.45973773 0.76276244
vt 0.45973773 0.77374070
vt 0.45973773 0.77374070
vt 0.45973773 0.78873728
vt 0.45973773 0.78873728
vt 0.45973773 0.80373386
vt 0.45973773 0.81471212
vt 0.45973773 0.81471212
vt 0.45973773 0.81873044
vt 0.45973773 0.81873044
vt 0.47897145 0.75874412
vt 0.47897145 0.76276244
vt 0.47897145 0.76276244
vt 0.47897145 0.77374070
vt 0.47897145 0.77374070
vt 0.47897145 0.78873728
vt 0.47897145 0.78873728
vt 0.47897145 0.80373386
vt 0.47897145 0.81471212
vt 0.47897145 0.81471212
vt 0.47897145 0.81873044
vt 0.47897145 0.81873044
vt 0.59868814 0.85970932
vt 0.59870015 0.84521512
vt 0.59870015 0.84521512
vt 0.59872828 0.81127320
vt 0.59875839 0.77494610
vt 0.59875839 0.77494610
vt 0.59878181 0.74669169
vt 0.59879590 0.72968918
vt 0.59879590 0.72968918
vt 0.59880054 0.72408817
vt 0.74824184 0.79985223
vt 0.74882784 0.76737913
vt 0.76135149 0.82637008
vt 0.76883457 0.73961877
vt 0.78175510 0.84230585
vt 0.80514734 0.72776536
vt 0.80514734 0.79097721
vt 0.80514734 0.84756228
vt 0.82853959 0.84230585
vt 0.84146012 0.73961877
vt 0.84894319 0.82637008
vt 0.86146685 0.76737913
vt 0.86205284 0.79985223
vn 0.97353385 -0.12918620 0.18852788
vn 0.84395982 -0.50215490 -0.18860615
vn 0.47363029 -0.73056886 -0.49187751
vn 7.2090538e-17 -0.79565306 -0.60575260
vn -0.47363029 -0.73056886 -0.49187751
vn -0.84395982 -0.50215490 -0.18860615
vn -0.97353385 -0.12918620 0.18852788
vn -0.81961724 0.25360735 0.51372259
vn -0.45891837 0.51968500 0.72063959
vn -5.1799900e-16 0.61249238 0.79047649
vn 0.45891837 0.51968500 0.72063959
vn 0.81961724 0.25360735 0.51372259
vn 0.84269970 -0.18102310 -0.50703832
vn 0.97306579 0.16300761 -0.16300761
vn 0.84269970 0.50703832 0.18102310
vn 0.48653290 0.75888628 0.43287106
vn -5.1493629e-16 0.85106903 0.52505381
vn -0.48653290 0.75888628 0.43287106
vn -0.84269970 0.50703832 0.18102310
vn -0.97306579 0.16300761 -0.16300761
vn -0.84269970 -0.18102310 -0.50703832
vn -0.48653290 -0.43287106 -0.75888628
vn 7.3562327e-17 -0.52505381 -0.85106903
vn 0.48653290 -0.43287106 -0.75888628
vn 0.84269970 -0.18102310 -0.50703832
vn 0.97306579 0.16300761 -0.16300761
vn 0.84269970 0.50703832 0.18102310
vn 0.48653290 0.75888628 0.43287106
vn -4.7079889e-16 0.85106903 0.52505381
vn -0.48653290 0.75888628 0.43287106
vn -0.84269970 0.50703832 0.18102310
vn -0.97306579 0.16300761 -0.16300761
vn -0.84269970 -0.18102310 -0.50703832
vn -0.48653290 -0.43287106 -0.75888628
vn 2.3539945e-16 -0.52505381 -0.85106903
vn 0.48653290 -0.43287106 -0.75888628
vn 0.49823128 -0.61309281 0.61309281
vn 0.43148095 -0.78924417 0.43694145
vn 0.24911564 -0.91819592 0.30798970
vn -8.1264563e-16 -0.96539553 0.26079009
vn -0.24911564 -0.91819592 0.30798970
vn -0.43148095 -0.78924417 0.43694145
vn -0.49823128 -0.61309281 0.61309281
vn -0.43148095 -0.43694145 0.78924417
vn -0.24911564 -0.30798970 0.91819592
vn -1.7268720e-15 -0.26079009 0.96539553
vn 0.24911564 -0.30798970 0.91819592
vn 0.43148095 -0.43694145 0.78924417
vn 0.86503332 -0.35476567 0.35476567
vn 0.74914083 -0.66060113 4.8930207e-2
vn 0.43251666 -0.88448823 -0.17495689
vn -7.3655105e-17 -0.96643659 -0.25690526
vn -0.43251666 -0.88448823 -0.17495689
vn -0.74914083 -0.66060113 4.8930207e-2
vn -0.86503332 -0.35476567 0.35476567
vn -0.74914083 -4.8930207e-2 0.66060113
vn -0.43251666 0.17495689 0.88448823
vn -9.2805432e-16 0.25690526 0.96643659
vn 0.43251666 0.17495689 0.88448823
vn 0.74914083 -4.8930207e-2 0.66060113
vn 0.99142553 -9.2399727e-2 9.2399727e-2
vn 0.85859969 -0.44292158 -0.25812213
vn 0.49571276 -0.69952139 -0.51472194
vn 2.4607542e-16 -0.79344344 -0.60864399
vn -0.49571276 -0.69952139 -0.51472194
vn -0.85859969 -0.44292158 -0.25812213
vn -0.99142553 -9.2399727e-2 9.2399727e-2
vn -0.85859969 0.25812213 0.44292158
vn -0.49571276 0.51472194 0.69952139
vn -6.3690110e-16 0.60864399 0.79344344
vn 0.49571276 0.51472194 0.69952139
vn 0.85859969 0.25812213 0.44292158
vn -9.7452528e-16 -0.70710678 0.70710678
vn -9.3903302e-18 1.9383835e-17 -1.00000000
vn -4.3975433e-16 0.50951906 0.86045937
vn -4.3975433e-16 0.50951906 0.86045937
vn -1.2020712e-16 -1.0676537e-32 -1.00000000
vn -1.2020712e-16 -1.0676537e-32 -1.00000000
vn 0.74260173 0.14453251 0.65395186
vn 0.74260173 0.14453251 0.65395186
vn -1.0737151e-16 -7.5743521e-17 -1.00000000
vn -1.0737151e-16 -7.5743521e-17 -1.00000000
vn 0.40832036 0.41669731 0.81218091
vn 0.40832036 0.41669731 0.81218091
vn -1.0737151e-16 0.0000000e+0 -1.00000000
vn -1.0737151e-16 0.0000000e+0 -1.00000000
vn -0.40832036 0.41669731 0.81218091
vn -0.40832036 0.41669731 0.81218091
vn -1.2835609e-17 1.2752428e-16 -1.00000000
vn -1.2835609e-17 1.2752428e-16 -1.00000000
vn -0.74260173 0.14453251 0.65395186
vn -0.74260173 0.14453251 0.65395186
vn 1.0737151e-16 5.1780763e-17 -1.00000000
vn 1.0737151e-16 5.1780763e-17 -1.00000000
vn -0.89522202 -0.25189151 0.36759788
vn -0.89522202 -0.25189151 0.36759788
vn -7.5921075e-17 -5.6106357e-18 -1.00000000
vn -7.5921075e-17 -5.6106357e-18 -1.00000000
vn -0.77942666 -0.62635199 -1.3313781e-2
vn -0.77942666 -0.62635199 -1.3313781e-2
vn -7.5921075e-17 7.0132885e-17 -1.00000000
vn -7.5921075e-17 7.0132885e-17 -1.00000000
vn -0.43354247 -0.82725285 -0.35734250
vn -0.43354247 -0.82725285 -0.35734250
vn 1.6308392e-16 0.0000000e+0 -1.00000000
vn 1.6308392e-16 0.0000000e+0 -1.00000000
vn 1.9895978e-16 -0.86906105 -0.49470485
vn 1.9895978e-16 -0.86906105 -0.49470485
vn 1.3978621e-16 0.0000000e+0 -1.00000000
vn 1.3978621e-16 0.0000000e+0 -1.00000000
vn 0.43354247 -0.82725285 -0.35734250
vn 0.43354247 -0.82725285 -0.35734250
vn -2.3297702e-17 0.0000000e+0 -1.00000000
vn -2.3297702e-17 0.0000000e+0 -1.00000000
vn 0.77942666 -0.62635199 -1.3313781e-2
vn 0.77942666 -0.62635199 -1.3313781e-2
vn 0.0000000e+0 7.0132885e-17 -1.00000000
vn 0.0000000e+0 7.0132885e-17 -1.00000000
vn 0.89522202 -0.25189151 0.36759788
vn 0.89522202 -0.25189151 0.36759788
vn 0.0000000e+0 -5.6106357e-18 -1.00000000
vn 0.0000000e+0 -5.6106357e-18 -1.00000000
g mesh1_mesh1_auv
usemtl mesh1_auv
s 1
f 13/87/77 86/88/74 77/85/89
f 75/93/81 86/88/74 76/91/86
f 76/91/85 86/88/74 13/87/78
f 77/85/90 86/88/74 78/83/94
f 78/83/93 86/88/74 79/82/98
f 79/82/97 86/88/74 80/84/102
f 80/84/101 86/88/74 81/86/106
f 81/86/105 86/88/74 82/89/110
f 82/89/109 86/88/74 83/90/114
f 83/90/113 86/88/74 84/92/118
f 84/92/117 86/88/74 85/94/122
f 85/94/121 86/88/74 75/93/82
s 2
f 1/65/1 15/53/14 14/51/13 2/63/2
f 1/65/1 85/77/119 75/75/79 12/67/12
f 2/63/2 14/51/13 25/49/24 3/61/3
f 2/63/2 84/78/116 85/77/120 1/65/1
f 3/61/3 25/49/24 24/48/23 4/60/4
f 3/61/3 83/79/112 84/78/115 2/63/2
f 4/60/4 24/48/23 23/50/22 5/62/5
f 4/60/4 82/81/108 83/79/111 3/61/3
f 5/62/5 23/50/22 22/52/21 6/64/6
f 5/62/5 81/80/104 82/81/107 4/60/4
f 6/64/6 22/52/21 21/54/20 7/66/7
f 6/64/6 80/78/100 81/80/103 5/62/5
f 7/66/7 21/54/20 20/55/19 8/67/8
f 7/66/7 79/76/96 80/78/99 6/64/6
f 8/67/8 20/55/19 19/57/18 9/69/9
f 8/67/8 78/75/92 79/76/95 7/66/7
f 9/69/9 19/57/18 18/59/17 10/71/10
f 9/69/9 77/73/88 78/75/91 8/67/8
f 10/71/10 13/72/76 77/73/87 9/69/9
f 10/70/10 18/58/17 17/56/16 11/68/11
f 11/68/11 17/56/16 16/55/15 12/67/12
f 11/68/11 76/74/84 13/72/75 10/70/10
f 12/67/12 16/55/15 15/53/14 1/65/1
f 12/67/12 75/75/80 76/74/83 11/68/11
f 14/51/13 26/42/25 37/41/36 25/49/24
f 15/53/14 27/43/26 26/42/25 14/51/13
f 16/55/15 28/45/27 27/43/26 15/53/14
f 17/56/16 29/46/28 28/45/27 16/55/15
f 18/58/17 30/47/29 29/46/28 17/56/16
f 19/57/18 31/46/30 30/47/29 18/59/17
f 20/55/19 32/45/31 31/46/30 19/57/18
f 21/54/20 33/44/32 32/45/31 20/55/19
f 22/52/21 34/42/33 33/44/32 21/54/20
f 23/50/22 35/41/34 34/42/33 22/52/21
f 24/48/23 36/40/35 35/41/34 23/50/22
f 25/49/24 37/41/36 36/40/35 24/48/23
f 26/42/25 63/34/62 64/33/63 37/41/36
f 27/43/26 62/35/61 63/34/62 26/42/25
f 28/45/27 73/37/72 62/35/61 27/43/26
f 29/46/28 72/38/71 73/37/72 28/45/27
f 30/47/29 71/39/70 72/38/71 29/46/28
f 31/46/30 70/38/69 71/39/70 30/47/29
f 32/45/31 69/37/68 70/38/69 31/46/30
f 33/44/32 68/36/67 69/37/68 32/45/31
f 34/42/33 67/34/66 68/36/67 33/44/32
f 35/41/34 66/33/65 67/34/66 34/42/33
f 36/40/35 65/32/64 66/33/65 35/41/34
f 37/41/36 64/33/63 65/31/64 36/40/35
f 38/6/37 50/20/49 61/21/60 49/7/48
f 38/6/37 74/1/73 39/5/38
f 39/5/38 51/19/50 50/20/49 38/6/37
f 39/5/38 74/1/73 40/4/39
f 40/4/39 52/18/51 51/19/50 39/5/38
f 40/4/39 74/1/73 41/3/40
f 41/3/40 53/17/52 52/18/51 40/4/39
f 41/10/40 74/2/73 42/11/41
f 42/11/41 54/25/53 53/24/52 41/10/40
f 42/11/41 74/2/73 43/12/42
f 43/12/42 55/26/54 54/25/53 42/11/41
f 43/12/42 74/2/73 44/13/43
f 44/13/43 56/27/55 55/26/54 43/12/42
f 44/13/43 74/2/73 45/14/44
f 45/14/44 57/28/56 56/27/55 44/13/43
f 45/14/44 74/2/73 46/15/45
f 46/15/45 58/29/57 57/28/56 45/14/44
f 46/15/45 74/2/73 47/16/46
f 47/16/46 59/30/58 58/29/57 46/15/45
f 47/9/46 74/1/73 48/8/47
f 48/8/47 60/22/59 59/23/58 47/9/46
f 48/8/47 74/1/73 49/7/48
f 49/7/48 61/21/60 60/22/59 48/8/47
f 49/7/48 74/1/73 38/6/37
f 62/35/61 50/20/49 51/19/50 63/34/62
f 63/34/62 51/19/50 52/18/51 64/33/63
f 64/33/63 52/18/51 53/17/52 65/31/64
f 65/32/64 53/24/52 54/25/53 66/33/65
f 66/33/65 54/25/53 55/26/54 67/34/66
f 67/34/66 55/26/54 56/27/55 68/36/67
f 68/36/67 56/27/55 57/28/56 69/37/68
f 69/37/68 57/28/56 58/29/57 70/38/69
f 70/38/69 58/29/57 59/30/58 71/39/70
f 71/39/70 59/23/58 60/22/59 72/38/71
f 72/38/71 60/22/59 61/21/60 73/37/72
f 73/37/72 61/21/60 50/20/49 62/35/61
