# Exported from Wings 3D 1.5.4
mtllib blue_steel_rcs_srf_3.mtl
o mesh1
#86 vertices, 96 faces
v 1.8750000e-2 -3.0529842e-2 2.1201905e-2
v 1.6237976e-2 -3.8648830e-2 1.6514405e-2
v 9.3750000e-3 -4.4592342e-2 1.3082917e-2
v 1.9609520e-18 -4.6767818e-2 1.1826905e-2
v -9.3750000e-3 -4.4592342e-2 1.3082917e-2
v -1.6237976e-2 -3.8648830e-2 1.6514405e-2
v -1.8750000e-2 -3.0529842e-2 2.1201905e-2
v -1.6237976e-2 -2.2410854e-2 2.5889405e-2
v -9.3750000e-3 -1.6467342e-2 2.9320893e-2
v -2.6314735e-18 -1.4291866e-2 3.0576905e-2
v 9.3750000e-3 -1.6467342e-2 2.9320893e-2
v 1.6237976e-2 -2.2410854e-2 2.5889405e-2
v -4.6828750e-18 3.9446111e-2 -2.5000000e-2
v 1.6237976e-2 -4.4898830e-2 2.7339723e-2
v 1.8750000e-2 -3.6779842e-2 3.2027223e-2
v 1.6237976e-2 -2.8660854e-2 3.6714723e-2
v 9.3750000e-3 -2.2717342e-2 4.0146211e-2
v -3.2739636e-18 -2.0541866e-2 4.1402223e-2
v -9.3750000e-3 -2.2717342e-2 4.0146211e-2
v -1.6237976e-2 -2.8660854e-2 3.6714723e-2
v -1.8750000e-2 -3.6779842e-2 3.2027223e-2
v -1.6237976e-2 -4.4898830e-2 2.7339723e-2
v -9.3750000e-3 -5.0842342e-2 2.3908235e-2
v 1.3184619e-18 -5.3017818e-2 2.2652223e-2
v 9.3750000e-3 -5.0842342e-2 2.3908235e-2
v 2.1650635e-2 -5.3855159e-2 3.6602540e-2
v 2.5000000e-2 -4.3029842e-2 4.2852540e-2
v 2.1650635e-2 -3.2204524e-2 4.9102540e-2
v 1.2500000e-2 -2.4279842e-2 5.3677858e-2
v -5.9640464e-18 -2.1379207e-2 5.5352540e-2
v -1.2500000e-2 -2.4279842e-2 5.3677858e-2
v -2.1650635e-2 -3.2204524e-2 4.9102540e-2
v -2.5000000e-2 -4.3029842e-2 4.2852540e-2
v -2.1650635e-2 -5.3855159e-2 3.6602540e-2
v -1.2500000e-2 -6.1779842e-2 3.2027223e-2
v 1.5918756e-19 -6.4680477e-2 3.0352540e-2
v 1.2500000e-2 -6.1779842e-2 3.2027223e-2
v 1.2500000e-2 -6.6355159e-2 8.3253175e-2
v 1.0825318e-2 -7.1767818e-2 8.0128175e-2
v 6.2500000e-3 -7.5730159e-2 7.7840517e-2
v 9.6706714e-19 -7.7180477e-2 7.7003175e-2
v -6.2500000e-3 -7.5730159e-2 7.7840517e-2
v -1.0825318e-2 -7.1767818e-2 8.0128175e-2
v -1.2500000e-2 -6.6355159e-2 8.3253175e-2
v -1.0825318e-2 -6.0942501e-2 8.6378175e-2
v -6.2500000e-3 -5.6980159e-2 8.8665834e-2
v -3.6253584e-18 -5.5529842e-2 8.9503175e-2
v 6.2500000e-3 -5.6980159e-2 8.8665834e-2
v 1.0825318e-2 -6.0942501e-2 8.6378175e-2
v 2.1650635e-2 -6.1779842e-2 7.5328493e-2
v 1.8750000e-2 -7.1154842e-2 6.9915834e-2
v 1.0825318e-2 -7.8017818e-2 6.5953493e-2
v 2.0876967e-18 -8.0529842e-2 6.4503175e-2
v -1.0825318e-2 -7.8017818e-2 6.5953493e-2
v -1.8750000e-2 -7.1154842e-2 6.9915834e-2
v -2.1650635e-2 -6.1779842e-2 7.5328493e-2
v -1.8750000e-2 -5.2404842e-2 8.0741152e-2
v -1.0825318e-2 -4.5541866e-2 8.4703493e-2
v -5.8666175e-18 -4.3029842e-2 8.6153811e-2
v 1.0825318e-2 -4.5541866e-2 8.4703493e-2
v 1.8750000e-2 -5.2404842e-2 8.0741152e-2
v 2.5000000e-2 -5.5529842e-2 6.4503175e-2
v 2.1650635e-2 -6.6355159e-2 5.8253175e-2
v 1.2500000e-2 -7.4279842e-2 5.3677858e-2
v 4.5813525e-19 -7.7180477e-2 5.2003175e-2
v -1.2500000e-2 -7.4279842e-2 5.3677858e-2
v -2.1650635e-2 -6.6355159e-2 5.8253175e-2
v -2.5000000e-2 -5.5529842e-2 6.4503175e-2
v -2.1650635e-2 -4.4704524e-2 7.0753175e-2
v -1.2500000e-2 -3.6779842e-2 7.5328493e-2
v -4.6661022e-18 -3.3879207e-2 7.7003175e-2
v 1.2500000e-2 -3.6779842e-2 7.5328493e-2
v 2.1650635e-2 -4.4704524e-2 7.0753175e-2
v -5.6374135e-19 -6.8029842e-2 8.6153811e-2
v 3.5002005e-2 1.6111441e-2 -2.5000000e-2
v 2.1428571e-2 3.2816088e-2 -2.5000000e-2
v -2.1428571e-2 3.2816088e-2 -2.5000000e-2
v -3.5002005e-2 1.6111441e-2 -2.5000000e-2
v -3.7500000e-2 -3.8551595e-3 -2.5000000e-2
v -3.0289963e-2 -2.1133815e-2 -2.5000000e-2
v -1.6666667e-2 -3.2377241e-2 -2.5000000e-2
v 4.1810334e-18 -3.6233079e-2 -2.5000000e-2
v 1.6666667e-2 -3.2377241e-2 -2.5000000e-2
v 3.0289963e-2 -2.1133815e-2 -2.5000000e-2
v 3.7500000e-2 -3.8551595e-3 -2.5000000e-2
v 5.2577204e-20 0.0000000e+0 -2.5000000e-2
vt 0.35919751 0.78873728
vt 0.35919751 0.78873728
vt 0.36726559 0.76874184
vt 0.36726559 0.77142072
vt 0.36726559 0.77873956
vt 0.36726559 0.78873728
vt 0.36726559 0.79873500
vt 0.36726559 0.80605384
vt 0.36726559 0.80873272
vt 0.36726559 0.76874184
vt 0.36726559 0.77142072
vt 0.36726559 0.77873956
vt 0.36726559 0.78873728
vt 0.36726559 0.79873500
vt 0.36726559 0.80605384
vt 0.36726559 0.80873272
vt 0.38347916 0.75410416
vt 0.38347916 0.75874412
vt 0.38347916 0.77142072
vt 0.38347916 0.78873728
vt 0.38347916 0.80605384
vt 0.38347916 0.81873044
vt 0.38347916 0.82337040
vt 0.38347916 0.75410416
vt 0.38347916 0.75874412
vt 0.38347916 0.77142072
vt 0.38347916 0.78873728
vt 0.38347916 0.80605384
vt 0.38347916 0.81873044
vt 0.38347916 0.82337040
vt 0.40349379 0.74874640
vt 0.40349379 0.74874640
vt 0.40349379 0.75410416
vt 0.40349379 0.76874184
vt 0.40349379 0.78873728
vt 0.40349379 0.78873728
vt 0.40349379 0.80873272
vt 0.40349379 0.82337040
vt 0.40349379 0.82872816
vt 0.44196123 0.74874640
vt 0.44196123 0.75410416
vt 0.44196123 0.76874184
vt 0.44196123 0.78873728
vt 0.44196123 0.78873728
vt 0.44196123 0.80873272
vt 0.44196123 0.82337040
vt 0.44196123 0.82872816
vt 0.45973773 0.75874412
vt 0.45973773 0.76276244
vt 0.45973773 0.76276244
vt 0.45973773 0.77374070
vt 0.45973773 0.77374070
vt 0.45973773 0.78873728
vt 0.45973773 0.78873728
vt 0.45973773 0.80373386
vt 0.45973773 0.81471212
vt 0.45973773 0.81471212
vt 0.45973773 0.81873044
vt 0.45973773 0.81873044
vt 0.47897145 0.75874412
vt 0.47897145 0.76276244
vt 0.47897145 0.76276244
vt 0.47897145 0.77374070
vt 0.47897145 0.77374070
vt 0.47897145 0.78873728
vt 0.47897145 0.78873728
vt 0.47897145 0.80373386
vt 0.47897145 0.81471212
vt 0.47897145 0.81471212
vt 0.47897145 0.81873044
vt 0.47897145 0.81873044
vt 0.59748332 0.85721752
vt 0.59749092 0.84661629
vt 0.59751009 0.81990601
vt 0.59753300 0.78797996
vt 0.59753300 0.78797996
vt 0.59755282 0.76035185
vt 0.59756572 0.74237392
vt 0.59756572 0.74237392
vt 0.59757014 0.73620854
vt 0.74288368 0.79612873
vt 0.74699140 0.76333448
vt 0.75473349 0.82452962
vt 0.76928033 0.73590541
vt 0.77712363 0.84300061
vt 0.80448383 0.72501336
vt 0.80448383 0.78980702
vt 0.80448383 0.84932670
vt 0.83184402 0.84300061
vt 0.83968732 0.73590541
vt 0.85423417 0.82452962
vt 0.86197625 0.76333448
vt 0.86608397 0.79612873
vn 0.98611854 -7.4862503e-2 0.14820877
vn 0.84885377 -0.51595538 -0.11505355
vn 0.48106082 -0.81838059 -0.31437827
vn 7.2131254e-17 -0.92193391 -0.38734721
vn -0.48106082 -0.81838059 -0.31437827
vn -0.84885377 -0.51595538 -0.11505355
vn -0.98611854 -7.4862503e-2 0.14820877
vn -0.84281036 0.37090821 0.38999717
vn -0.47726853 0.68587431 0.54935524
vn -3.1723003e-16 0.79717160 0.60375280
vn 0.47726853 0.68587431 0.54935524
vn 0.84281036 0.37090821 0.38999717
vn 0.84269970 -0.30608606 -0.44290918
vn 0.97306579 0.11526379 -0.19964273
vn 0.84269970 0.53661363 4.3623714e-2
vn 0.48653290 0.84506313 0.22170711
vn -3.3838670e-16 0.95796348 0.28689016
vn -0.48653290 0.84506313 0.22170711
vn -0.84269970 0.53661363 4.3623714e-2
vn -0.97306579 0.11526379 -0.19964273
vn -0.84269970 -0.30608606 -0.44290918
vn -0.48653290 -0.61453556 -0.62099258
vn 1.1034349e-16 -0.72743591 -0.68617563
vn 0.48653290 -0.61453556 -0.62099258
vn 0.84269970 -0.30608606 -0.44290918
vn 0.97306579 0.11526379 -0.19964273
vn 0.84269970 0.53661363 4.3623714e-2
vn 0.48653290 0.84506313 0.22170711
vn -5.2964875e-16 0.95796348 0.28689016
vn -0.48653290 0.84506313 0.22170711
vn -0.84269970 0.53661363 4.3623714e-2
vn -0.97306579 0.11526379 -0.19964273
vn -0.84269970 -0.30608606 -0.44290918
vn -0.48653290 -0.61453556 -0.62099258
vn 0.0000000e+0 -0.72743591 -0.68617563
vn 0.48653290 -0.61453556 -0.62099258
vn 0.49823128 -0.43352208 0.75088227
vn 0.43148095 -0.64926256 0.62632445
vn 0.24911564 -0.80719555 0.53514180
vn -1.4438971e-15 -0.86500303 0.50176663
vn -0.24911564 -0.80719555 0.53514180
vn -0.43148095 -0.64926256 0.62632445
vn -0.49823128 -0.43352208 0.75088227
vn -0.43148095 -0.21778161 0.87544010
vn -0.24911564 -5.9848620e-2 0.96662275
vn -1.7268720e-15 -2.0411337e-3 0.99999792
vn 0.24911564 -5.9848620e-2 0.96662275
vn 0.43148095 -0.21778161 0.87544010
vn 0.86503332 -0.25085721 0.43449743
vn 0.74914083 -0.62542762 0.21823910
vn 0.43251666 -0.89963220 5.9927020e-2
vn -6.9235798e-16 -0.99999804 1.9807753e-3
vn -0.43251666 -0.89963220 5.9927020e-2
vn -0.74914083 -0.62542762 0.21823910
vn -0.86503332 -0.25085721 0.43449743
vn -0.74914083 0.12371320 0.65075576
vn -0.43251666 0.39791778 0.80906785
vn -1.1637507e-15 0.49828362 0.86701409
vn 0.43251666 0.39791778 0.80906785
vn 0.74914083 0.12371320 0.65075576
vn 0.99142553 -6.5336474e-2 0.11316609
vn 0.85859969 -0.49463632 -0.13469029
vn 0.49571276 -0.80890562 -0.31613375
vn -1.1580020e-16 -0.92393617 -0.38254667
vn -0.49571276 -0.80890562 -0.31613375
vn -0.85859969 -0.49463632 -0.13469029
vn -0.99142553 -6.5336474e-2 0.11316609
vn -0.85859969 0.36396337 0.36102247
vn -0.49571276 0.67823267 0.54246594
vn -7.5270130e-16 0.79326322 0.60887886
vn 0.49571276 0.67823267 0.54246594
vn 0.85859969 0.36396337 0.36102247
vn -9.0731664e-16 -0.50000000 0.86602540
vn 1.0842574e-17 -1.6560266e-17 -1.00000000
vn -3.8476273e-16 0.71666815 0.69741434
vn -3.8476273e-16 0.71666815 0.69741434
vn 3.5273257e-16 1.7590819e-16 -1.00000000
vn 3.5273257e-16 1.7590819e-16 -1.00000000
vn 0.79943173 0.29998778 0.52049614
vn 0.79943173 0.29998778 0.52049614
vn 0.0000000e+0 2.2150081e-16 -1.00000000
vn 0.0000000e+0 2.2150081e-16 -1.00000000
vn 0.44608647 0.60979687 0.65509896
vn 0.44608647 0.60979687 0.65509896
vn 1.9239958e-16 2.9772921e-16 -1.00000000
vn 1.9239958e-16 2.9772921e-16 -1.00000000
vn -0.44608647 0.60979687 0.65509896
vn -0.44608647 0.60979687 0.65509896
vn 2.5378519e-17 -4.5861106e-18 -1.00000000
vn 2.5378519e-17 -4.5861106e-18 -1.00000000
vn -0.79943173 0.29998778 0.52049614
vn -0.79943173 0.29998778 0.52049614
vn -2.8164324e-16 -8.0814514e-17 -1.00000000
vn -2.8164324e-16 -8.0814514e-17 -1.00000000
vn -0.94469924 -0.14785496 0.29271532
vn -0.94469924 -0.14785496 0.29271532
vn -2.2691145e-16 -2.5292452e-17 -1.00000000
vn -2.2691145e-16 -2.5292452e-17 -1.00000000
vn -0.81007223 -0.58587931 2.2987111e-2
vn -0.81007223 -0.58587931 2.2987111e-2
vn -1.6647924e-16 -1.1222446e-16 -1.00000000
vn -1.6647924e-16 -1.1222446e-16 -1.00000000
vn -0.45307569 -0.87092218 -0.19030757
vn -0.45307569 -0.87092218 -0.19030757
vn -6.3814320e-17 -1.7095990e-16 -1.00000000
vn -6.3814320e-17 -1.7095990e-16 -1.00000000
vn 1.4259121e-17 -0.96300437 -0.26948576
vn 1.4259121e-17 -0.96300437 -0.26948576
vn 9.2444637e-33 -1.9150715e-16 -1.00000000
vn 9.2444637e-33 -1.9150715e-16 -1.00000000
vn 0.45307569 -0.87092218 -0.19030757
vn 0.45307569 -0.87092218 -0.19030757
vn -2.2442245e-17 -1.7095990e-16 -1.00000000
vn -2.2442245e-17 -1.7095990e-16 -1.00000000
vn 0.81007223 -0.58587931 2.2987111e-2
vn 0.81007223 -0.58587931 2.2987111e-2
vn 1.6044536e-16 -1.1222446e-16 -1.00000000
vn 1.6044536e-16 -1.1222446e-16 -1.00000000
vn 0.94469924 -0.14785496 0.29271532
vn 0.94469924 -0.14785496 0.29271532
vn 1.6044536e-16 -2.5292452e-17 -1.00000000
vn 1.6044536e-16 -2.5292452e-17 -1.00000000
g mesh1_mesh1_auv
usemtl mesh1_auv
s 1
f 13/86/77 86/87/74 77/84/89
f 75/92/81 86/87/74 76/90/86
f 76/90/85 86/87/74 13/86/78
f 77/84/90 86/87/74 78/82/94
f 78/82/93 86/87/74 79/81/98
f 79/81/97 86/87/74 80/83/102
f 80/83/101 86/87/74 81/85/106
f 81/85/105 86/87/74 82/88/110
f 82/88/109 86/87/74 83/89/114
f 83/89/113 86/87/74 84/91/118
f 84/91/117 86/87/74 85/93/122
f 85/93/121 86/87/74 75/92/82
s 2
f 1/65/1 15/53/14 14/51/13 2/63/2
f 1/65/1 85/75/119 75/74/79 12/67/12
f 2/63/2 14/51/13 25/49/24 3/61/3
f 2/63/2 84/77/116 85/75/120 1/65/1
f 3/61/3 25/49/24 24/48/23 4/60/4
f 3/61/3 83/79/112 84/77/115 2/63/2
f 4/60/4 24/48/23 23/50/22 5/62/5
f 4/60/4 82/80/108 83/79/111 3/61/3
f 5/62/5 23/50/22 22/52/21 6/64/6
f 5/62/5 81/78/104 82/80/107 4/60/4
f 6/64/6 22/52/21 21/54/20 7/66/7
f 6/64/6 80/77/100 81/78/103 5/62/5
f 7/66/7 21/54/20 20/55/19 8/67/8
f 7/66/7 79/76/96 80/77/99 6/64/6
f 8/67/8 20/55/19 19/57/18 9/69/9
f 8/67/8 78/74/92 79/76/95 7/66/7
f 9/69/9 19/57/18 18/59/17 10/71/10
f 9/69/9 77/73/88 78/74/91 8/67/8
f 10/71/10 13/72/76 77/73/87 9/69/9
f 10/70/10 18/58/17 17/56/16 11/68/11
f 11/68/11 17/56/16 16/55/15 12/67/12
f 11/68/11 76/73/84 13/72/75 10/70/10
f 12/67/12 16/55/15 15/53/14 1/65/1
f 12/67/12 75/74/80 76/73/83 11/68/11
f 14/51/13 26/42/25 37/41/36 25/49/24
f 15/53/14 27/43/26 26/42/25 14/51/13
f 16/55/15 28/45/27 27/43/26 15/53/14
f 17/56/16 29/46/28 28/45/27 16/55/15
f 18/58/17 30/47/29 29/46/28 17/56/16
f 19/57/18 31/46/30 30/47/29 18/59/17
f 20/55/19 32/45/31 31/46/30 19/57/18
f 21/54/20 33/44/32 32/45/31 20/55/19
f 22/52/21 34/42/33 33/44/32 21/54/20
f 23/50/22 35/41/34 34/42/33 22/52/21
f 24/48/23 36/40/35 35/41/34 23/50/22
f 25/49/24 37/41/36 36/40/35 24/48/23
f 26/42/25 63/34/62 64/33/63 37/41/36
f 27/43/26 62/35/61 63/34/62 26/42/25
f 28/45/27 73/37/72 62/35/61 27/43/26
f 29/46/28 72/38/71 73/37/72 28/45/27
f 30/47/29 71/39/70 72/38/71 29/46/28
f 31/46/30 70/38/69 71/39/70 30/47/29
f 32/45/31 69/37/68 70/38/69 31/46/30
f 33/44/32 68/36/67 69/37/68 32/45/31
f 34/42/33 67/34/66 68/36/67 33/44/32
f 35/41/34 66/33/65 67/34/66 34/42/33
f 36/40/35 65/32/64 66/33/65 35/41/34
f 37/41/36 64/33/63 65/31/64 36/40/35
f 38/6/37 50/20/49 61/21/60 49/7/48
f 38/6/37 74/1/73 39/5/38
f 39/5/38 51/19/50 50/20/49 38/6/37
f 39/5/38 74/1/73 40/4/39
f 40/4/39 52/18/51 51/19/50 39/5/38
f 40/4/39 74/1/73 41/3/40
f 41/3/40 53/17/52 52/18/51 40/4/39
f 41/10/40 74/2/73 42/11/41
f 42/11/41 54/25/53 53/24/52 41/10/40
f 42/11/41 74/2/73 43/12/42
f 43/12/42 55/26/54 54/25/53 42/11/41
f 43/12/42 74/2/73 44/13/43
f 44/13/43 56/27/55 55/26/54 43/12/42
f 44/13/43 74/2/73 45/14/44
f 45/14/44 57/28/56 56/27/55 44/13/43
f 45/14/44 74/2/73 46/15/45
f 46/15/45 58/29/57 57/28/56 45/14/44
f 46/15/45 74/2/73 47/16/46
f 47/16/46 59/30/58 58/29/57 46/15/45
f 47/9/46 74/1/73 48/8/47
f 48/8/47 60/22/59 59/23/58 47/9/46
f 48/8/47 74/1/73 49/7/48
f 49/7/48 61/21/60 60/22/59 48/8/47
f 49/7/48 74/1/73 38/6/37
f 62/35/61 50/20/49 51/19/50 63/34/62
f 63/34/62 51/19/50 52/18/51 64/33/63
f 64/33/63 52/18/51 53/17/52 65/31/64
f 65/32/64 53/24/52 54/25/53 66/33/65
f 66/33/65 54/25/53 55/26/54 67/34/66
f 67/34/66 55/26/54 56/27/55 68/36/67
f 68/36/67 56/27/55 57/28/56 69/37/68
f 69/37/68 57/28/56 58/29/57 70/38/69
f 70/38/69 58/29/57 59/30/58 71/39/70
f 71/39/70 59/23/58 60/22/59 72/38/71
f 72/38/71 60/22/59 61/21/60 73/37/72
f 73/37/72 61/21/60 50/20/49 62/35/61
