# Exported from Wings 3D 1.5.4
mtllib ArrowStage1_LFO_1.mtl
o ArrowStage1_LFO_1
#96 vertices, 36 faces
v 0.62500000 1.25000000 -1.2576745e-17
v 0.60370364 1.25000000 0.16176190
v 0.54126588 1.25000000 0.31250000
v 0.44194174 1.25000000 0.44194174
v 0.31250000 1.25000000 0.54126588
v 0.16176190 1.25000000 0.60370364
v -1.3771492e-17 1.25000000 0.62500000
v -0.16176190 1.25000000 0.60370364
v -0.31250000 1.25000000 0.54126588
v -0.44194174 1.25000000 0.44194174
v -0.54126588 1.25000000 0.31250000
v -0.60370364 1.25000000 0.16176190
v -0.62500000 1.25000000 6.3963680e-17
v -0.60370364 1.25000000 -0.16176190
v -0.54126588 1.25000000 -0.31250000
v -0.44194174 1.25000000 -0.44194174
v -0.31250000 1.25000000 -0.54126588
v -0.16176190 1.25000000 -0.60370364
v -1.6685234e-16 1.25000000 -0.62500000
v 0.16176190 1.25000000 -0.60370364
v 0.31250000 1.25000000 -0.54126588
v 0.44194174 1.25000000 -0.44194174
v 0.54126588 1.25000000 -0.31250000
v 0.60370364 1.25000000 -0.16176190
v 0.62500000 -1.25000000 -1.2576745e-17
v 0.60370364 -1.25000000 0.16176190
v 0.54126588 -1.25000000 0.31250000
v 0.44194174 -1.25000000 0.44194174
v 0.31250000 -1.25000000 0.54126588
v 0.16176190 -1.25000000 0.60370364
v -1.3771492e-17 -1.25000000 0.62500000
v -0.16176190 -1.25000000 0.60370364
v -0.31250000 -1.25000000 0.54126588
v -0.44194174 -1.25000000 0.44194174
v -0.54126588 -1.25000000 0.31250000
v -0.60370364 -1.25000000 0.16176190
v -0.62500000 -1.25000000 6.3963680e-17
v -0.60370364 -1.25000000 -0.16176190
v -0.54126588 -1.25000000 -0.31250000
v -0.44194174 -1.25000000 -0.44194174
v -0.31250000 -1.25000000 -0.54126588
v -0.16176190 -1.25000000 -0.60370364
v -1.6685234e-16 -1.25000000 -0.62500000
v 0.16176190 -1.25000000 -0.60370364
v 0.31250000 -1.25000000 -0.54126588
v 0.44194174 -1.25000000 -0.44194174
v 0.54126588 -1.25000000 -0.31250000
v 0.60370364 -1.25000000 -0.16176190
v 0.60370364 0.0000000e+0 -0.16176190
v 0.54126588 0.0000000e+0 -0.31250000
v 0.44194174 0.0000000e+0 -0.44194174
v 0.31250000 0.0000000e+0 -0.54126588
v 0.16176190 0.0000000e+0 -0.60370364
v -1.6685234e-16 0.0000000e+0 -0.62500000
v -0.16176190 0.0000000e+0 -0.60370364
v -0.31250000 0.0000000e+0 -0.54126588
v -0.44194174 0.0000000e+0 -0.44194174
v -0.54126588 0.0000000e+0 -0.31250000
v -0.60370364 0.0000000e+0 -0.16176190
v -0.62500000 0.0000000e+0 6.3963680e-17
v -0.60370364 0.0000000e+0 0.16176190
v -0.54126588 0.0000000e+0 0.31250000
v -0.44194174 0.0000000e+0 0.44194174
v -0.31250000 0.0000000e+0 0.54126588
v -0.16176190 0.0000000e+0 0.60370364
v -1.3771492e-17 0.0000000e+0 0.62500000
v 0.16176190 0.0000000e+0 0.60370364
v 0.31250000 0.0000000e+0 0.54126588
v 0.44194174 0.0000000e+0 0.44194174
v 0.54126588 0.0000000e+0 0.31250000
v 0.60370364 0.0000000e+0 0.16176190
v 0.62500000 0.0000000e+0 -1.2576745e-17
v 0.58939701 -0.96875000 -0.27796104
v 0.56052588 -1.00000000 -0.26600219
v 0.58939701 0.96875000 -0.27796104
v 0.56052588 1.00000000 -0.26600219
v 0.61331501 -0.96875000 -0.22021857
v 0.58444361 -1.00000000 -0.20825972
v 0.61331501 0.96875000 -0.22021857
v 0.58444361 1.00000000 -0.20825972
v -0.58939701 -0.96875000 0.27796104
v -0.56052588 -1.00000000 0.26600219
v -0.58939701 0.46875000 0.27796104
v -0.56052588 0.50000000 0.26600219
v -0.61331501 -0.96875000 0.22021857
v -0.58444361 -1.00000000 0.20825972
v -0.61331501 0.46875000 0.22021857
v -0.58444361 0.50000000 0.20825972
v -0.58444361 0.0000000e+0 0.20825972
v -0.61331501 0.0000000e+0 0.22021857
v -0.56052588 0.0000000e+0 0.26600219
v -0.58939701 0.0000000e+0 0.27796104
v 0.58444361 0.0000000e+0 -0.20825972
v 0.61331501 0.0000000e+0 -0.22021857
v 0.56052588 0.0000000e+0 -0.26600219
v 0.58939701 0.0000000e+0 -0.27796104
vt 1.8750000e-2 0.49452199
vt 1.8750000e-2 0.73773471
vt 1.8750000e-2 0.98094743
vt 5.0520833e-2 0.49452199
vt 5.0520833e-2 0.73773471
vt 5.0520833e-2 0.98094743
vt 8.2291667e-2 0.49452199
vt 8.2291667e-2 0.73773471
vt 8.2291667e-2 0.98094743
vt 0.11406250 0.49452199
vt 0.11406250 0.73773471
vt 0.11406250 0.98094743
vt 0.14583333 0.49452199
vt 0.14583333 0.73773471
vt 0.14583333 0.98094743
vt 0.17760417 0.49452199
vt 0.17760417 0.73773471
vt 0.17760417 0.98094743
vt 0.20937500 0.49452199
vt 0.20937500 0.73773471
vt 0.20937500 0.98094743
vt 0.20937500 0.98094743
vt 0.20937500 0.73773471
vt 0.20937500 0.49452199
vt 0.24114583 0.98094743
vt 0.24114583 0.73773471
vt 0.24114583 0.49452199
vt 0.27291667 0.98094743
vt 0.27291667 0.73773471
vt 0.27291667 0.49452199
vt 0.30468750 0.98094743
vt 0.30468750 0.73773471
vt 0.30468750 0.49452199
vt 0.33645833 0.98094743
vt 0.33645833 0.73773471
vt 0.33645833 0.49452199
vt 0.36822917 0.98094743
vt 0.36822917 0.73773471
vt 0.36822917 0.49452199
vt 0.40000000 0.98094743
vt 0.40000000 0.73773471
vt 0.40000000 0.98094743
vt 0.40000000 0.49452199
vt 0.40000000 0.73773471
vt 0.40000000 0.49452199
vt 0.43177083 0.98094743
vt 0.43177083 0.73773471
vt 0.43177083 0.49452199
vt 0.46354167 0.98094743
vt 0.46354167 0.73773471
vt 0.46354167 0.49452199
vt 0.49531250 0.98094743
vt 0.49531250 0.73773471
vt 0.49531250 0.49452199
vt 0.52708333 0.98094743
vt 0.52708333 0.73773471
vt 0.52708333 0.49452199
vt 0.55885417 0.98094743
vt 0.55885417 0.73773471
vt 0.55885417 0.49452199
vt 0.59062500 0.98094743
vt 0.59062500 0.73773471
vt 0.59062500 0.49452199
vt 0.59062500 0.98094743
vt 0.59062500 0.73773471
vt 0.59062500 0.49452199
vt 0.62239583 0.98094743
vt 0.62239583 0.73773471
vt 0.62239583 0.49452199
vt 0.65416667 0.98094743
vt 0.65416667 0.73773471
vt 0.65416667 0.49452199
vt 0.68593750 0.98094743
vt 0.68593750 0.73773471
vt 0.68593750 0.49452199
vt 0.71770833 0.98094743
vt 0.71770833 0.73773471
vt 0.71770833 0.49452199
vt 0.74947917 0.98094743
vt 0.74947917 0.73773471
vt 0.74947917 0.49452199
vt 0.78125000 0.98094743
vt 0.78125000 0.73773471
vt 0.78125000 0.49452199
vt 0.80001544 0.54322883
vt 0.80001544 0.73772883
vt 0.80001544 0.93222883
vt 0.80608796 0.54938569
vt 0.80608797 0.92615071
vt 0.80608797 0.73772883
vt 0.80608797 0.54930696
vt 0.80608797 0.92615250
vt 0.80608798 0.93474828
vt 0.80608800 0.54078990
vt 0.80609359 0.54930696
vt 0.80609359 0.73772883
vt 0.80609359 0.92615071
vt 0.81824423 0.54938569
vt 0.81824423 0.93474828
vt 0.81824424 0.92615253
vt 0.81824424 0.92615071
vt 0.81824424 0.73772883
vt 0.81824424 0.54930696
vt 0.81824425 0.54078993
vt 0.81825771 0.92615071
vt 0.81825771 0.73772883
vt 0.81825771 0.54930696
vt 0.82433581 0.93222883
vt 0.82433581 0.73772883
vt 0.82433581 0.54322883
vt 0.84310819 0.54323345
vt 0.84310819 0.73773345
vt 0.84310819 0.83498345
vt 0.84918634 0.54931157
vt 0.84918634 0.73773345
vt 0.84918634 0.82890532
vt 0.84920523 0.82891632
vt 0.84920523 0.54931821
vt 0.84920524 0.82890532
vt 0.84920524 0.73773345
vt 0.84920524 0.54931157
vt 0.84920525 0.54072245
vt 0.84920527 0.83751211
vt 0.86136148 0.54931824
vt 0.86136150 0.82891632
vt 0.86136151 0.82890532
vt 0.86136151 0.73773345
vt 0.86136151 0.54931157
vt 0.86136152 0.54072245
vt 0.86136152 0.83751207
vt 0.86138675 0.82890532
vt 0.86138675 0.73773345
vt 0.86138675 0.54931157
vt 0.86746486 0.83498345
vt 0.86746486 0.73773345
vt 0.86746486 0.54323345
vn 0.96592583 0.0000000e+0 -0.25881905
vn 0.86602540 0.0000000e+0 -0.50000000
vn 0.70710678 0.0000000e+0 -0.70710678
vn 0.50000000 0.0000000e+0 -0.86602540
vn 0.25881905 0.0000000e+0 -0.96592583
vn -5.8789663e-16 0.0000000e+0 -1.00000000
vn -0.25881905 0.0000000e+0 -0.96592583
vn -0.50000000 0.0000000e+0 -0.86602540
vn -0.70710678 0.0000000e+0 -0.70710678
vn -0.86602540 0.0000000e+0 -0.50000000
vn -0.96592583 0.0000000e+0 -0.25881905
vn -1.00000000 0.0000000e+0 5.5990155e-16
vn -0.96592583 0.0000000e+0 0.25881905
vn -0.86602540 0.0000000e+0 0.50000000
vn -0.70710678 0.0000000e+0 0.70710678
vn -0.50000000 0.0000000e+0 0.86602540
vn -0.25881905 0.0000000e+0 0.96592583
vn 2.3795816e-16 0.0000000e+0 1.00000000
vn 0.25881905 0.0000000e+0 0.96592583
vn 0.50000000 0.0000000e+0 0.86602540
vn 0.70710678 0.0000000e+0 0.70710678
vn 0.86602540 0.0000000e+0 0.50000000
vn 0.96592583 0.0000000e+0 0.25881905
vn 1.00000000 0.0000000e+0 -1.3997539e-16
vn 0.0000000e+0 1.00000000 2.6309377e-16
vn 1.00000000 0.0000000e+0 -1.3997539e-16
vn 1.00000000 0.0000000e+0 -1.3997539e-16
vn 0.0000000e+0 1.00000000 2.6309377e-16
vn 0.96592583 0.0000000e+0 0.25881905
vn 0.96592583 0.0000000e+0 0.25881905
vn 0.0000000e+0 1.00000000 2.6309377e-16
vn 0.86602540 0.0000000e+0 0.50000000
vn 0.86602540 0.0000000e+0 0.50000000
vn 0.0000000e+0 1.00000000 2.6309377e-16
vn 0.70710678 0.0000000e+0 0.70710678
vn 0.70710678 0.0000000e+0 0.70710678
vn 0.0000000e+0 1.00000000 2.6309377e-16
vn 0.50000000 0.0000000e+0 0.86602540
vn 0.50000000 0.0000000e+0 0.86602540
vn 0.0000000e+0 1.00000000 2.6309377e-16
vn 0.25881905 0.0000000e+0 0.96592583
vn 0.25881905 0.0000000e+0 0.96592583
vn 0.0000000e+0 1.00000000 2.6309377e-16
vn 2.3795816e-16 0.0000000e+0 1.00000000
vn 2.3795816e-16 0.0000000e+0 1.00000000
vn 0.0000000e+0 1.00000000 2.6309377e-16
vn -0.25881905 0.0000000e+0 0.96592583
vn -0.25881905 0.0000000e+0 0.96592583
vn 0.0000000e+0 1.00000000 2.6309377e-16
vn -0.50000000 0.0000000e+0 0.86602540
vn -0.50000000 0.0000000e+0 0.86602540
vn 0.0000000e+0 1.00000000 2.6309377e-16
vn -0.70710678 0.0000000e+0 0.70710678
vn -0.70710678 0.0000000e+0 0.70710678
vn 0.0000000e+0 1.00000000 2.6309377e-16
vn -0.86602540 0.0000000e+0 0.50000000
vn -0.86602540 0.0000000e+0 0.50000000
vn 0.0000000e+0 1.00000000 2.6309377e-16
vn -0.96592583 0.0000000e+0 0.25881905
vn -0.96592583 0.0000000e+0 0.25881905
vn 0.0000000e+0 1.00000000 2.6309377e-16
vn -1.00000000 0.0000000e+0 5.5990155e-16
vn -1.00000000 0.0000000e+0 5.5990155e-16
vn 0.0000000e+0 1.00000000 2.6309377e-16
vn -0.96592583 0.0000000e+0 -0.25881905
vn -0.96592583 0.0000000e+0 -0.25881905
vn 0.0000000e+0 1.00000000 2.6309377e-16
vn -0.86602540 0.0000000e+0 -0.50000000
vn -0.86602540 0.0000000e+0 -0.50000000
vn 0.0000000e+0 1.00000000 2.6309377e-16
vn -0.70710678 0.0000000e+0 -0.70710678
vn -0.70710678 0.0000000e+0 -0.70710678
vn 0.0000000e+0 1.00000000 2.6309377e-16
vn -0.50000000 0.0000000e+0 -0.86602540
vn -0.50000000 0.0000000e+0 -0.86602540
vn 0.0000000e+0 1.00000000 2.6309377e-16
vn -0.25881905 0.0000000e+0 -0.96592583
vn -0.25881905 0.0000000e+0 -0.96592583
vn 0.0000000e+0 1.00000000 2.6309377e-16
vn -5.8789663e-16 0.0000000e+0 -1.00000000
vn -5.8789663e-16 0.0000000e+0 -1.00000000
vn 0.0000000e+0 1.00000000 2.6309377e-16
vn 0.25881905 0.0000000e+0 -0.96592583
vn 0.25881905 0.0000000e+0 -0.96592583
vn 0.0000000e+0 1.00000000 2.6309377e-16
vn 0.50000000 0.0000000e+0 -0.86602540
vn 0.50000000 0.0000000e+0 -0.86602540
vn 0.0000000e+0 1.00000000 2.6309377e-16
vn 0.70710678 0.0000000e+0 -0.70710678
vn 0.70710678 0.0000000e+0 -0.70710678
vn 0.0000000e+0 1.00000000 2.6309377e-16
vn 0.86602540 0.0000000e+0 -0.50000000
vn 0.86602540 0.0000000e+0 -0.50000000
vn 0.0000000e+0 1.00000000 2.6309377e-16
vn 0.96592583 0.0000000e+0 -0.25881905
vn 0.96592583 0.0000000e+0 -0.25881905
vn 0.0000000e+0 -1.00000000 -1.1438860e-17
vn 1.00000000 0.0000000e+0 -1.3997539e-16
vn 1.00000000 0.0000000e+0 -1.3997539e-16
vn 0.0000000e+0 -1.00000000 -1.1438860e-17
vn 0.96592583 0.0000000e+0 0.25881905
vn 0.96592583 0.0000000e+0 0.25881905
vn 0.0000000e+0 -1.00000000 -1.1438860e-17
vn 0.86602540 0.0000000e+0 0.50000000
vn 0.86602540 0.0000000e+0 0.50000000
vn 0.0000000e+0 -1.00000000 -1.1438860e-17
vn 0.70710678 0.0000000e+0 0.70710678
vn 0.70710678 0.0000000e+0 0.70710678
vn 0.0000000e+0 -1.00000000 -1.1438860e-17
vn 0.50000000 0.0000000e+0 0.86602540
vn 0.50000000 0.0000000e+0 0.86602540
vn 0.0000000e+0 -1.00000000 -1.1438860e-17
vn 0.25881905 0.0000000e+0 0.96592583
vn 0.25881905 0.0000000e+0 0.96592583
vn 0.0000000e+0 -1.00000000 -1.1438860e-17
vn 2.3795816e-16 0.0000000e+0 1.00000000
vn 2.3795816e-16 0.0000000e+0 1.00000000
vn 0.0000000e+0 -1.00000000 -1.1438860e-17
vn -0.25881905 0.0000000e+0 0.96592583
vn -0.25881905 0.0000000e+0 0.96592583
vn 0.0000000e+0 -1.00000000 -1.1438860e-17
vn -0.50000000 0.0000000e+0 0.86602540
vn -0.50000000 0.0000000e+0 0.86602540
vn 0.0000000e+0 -1.00000000 -1.1438860e-17
vn -0.70710678 0.0000000e+0 0.70710678
vn -0.70710678 0.0000000e+0 0.70710678
vn 0.0000000e+0 -1.00000000 -1.1438860e-17
vn -0.86602540 0.0000000e+0 0.50000000
vn -0.86602540 0.0000000e+0 0.50000000
vn 0.0000000e+0 -1.00000000 -1.1438860e-17
vn -0.96592583 0.0000000e+0 0.25881905
vn -0.96592583 0.0000000e+0 0.25881905
vn 0.0000000e+0 -1.00000000 -1.1438860e-17
vn -1.00000000 0.0000000e+0 5.5990155e-16
vn -1.00000000 0.0000000e+0 5.5990155e-16
vn 0.0000000e+0 -1.00000000 -1.1438860e-17
vn -0.96592583 0.0000000e+0 -0.25881905
vn -0.96592583 0.0000000e+0 -0.25881905
vn 0.0000000e+0 -1.00000000 -1.1438860e-17
vn -0.86602540 0.0000000e+0 -0.50000000
vn -0.86602540 0.0000000e+0 -0.50000000
vn 0.0000000e+0 -1.00000000 -1.1438860e-17
vn -0.70710678 0.0000000e+0 -0.70710678
vn -0.70710678 0.0000000e+0 -0.70710678
vn 0.0000000e+0 -1.00000000 -1.1438860e-17
vn -0.50000000 0.0000000e+0 -0.86602540
vn -0.50000000 0.0000000e+0 -0.86602540
vn 0.0000000e+0 -1.00000000 -1.1438860e-17
vn -0.25881905 0.0000000e+0 -0.96592583
vn -0.25881905 0.0000000e+0 -0.96592583
vn 0.0000000e+0 -1.00000000 -1.1438860e-17
vn -5.8789663e-16 0.0000000e+0 -1.00000000
vn -5.8789663e-16 0.0000000e+0 -1.00000000
vn 0.0000000e+0 -1.00000000 -1.1438860e-17
vn 0.25881905 0.0000000e+0 -0.96592583
vn 0.25881905 0.0000000e+0 -0.96592583
vn 0.0000000e+0 -1.00000000 -1.1438860e-17
vn 0.50000000 0.0000000e+0 -0.86602540
vn 0.50000000 0.0000000e+0 -0.86602540
vn 0.0000000e+0 -1.00000000 -1.1438860e-17
vn 0.70710678 0.0000000e+0 -0.70710678
vn 0.70710678 0.0000000e+0 -0.70710678
vn 0.0000000e+0 -1.00000000 -1.1438860e-17
vn 0.86602540 0.0000000e+0 -0.50000000
vn 0.86602540 0.0000000e+0 -0.50000000
vn 0.0000000e+0 -1.00000000 -1.1438860e-17
vn 0.96592583 0.0000000e+0 -0.25881905
vn 0.96592583 0.0000000e+0 -0.25881905
vn 0.65328060 -0.70710707 -0.27059943
vn 0.92387792 -5.9087392e-17 -0.38268733
vn -0.38268461 2.1570114e-15 -0.92387905
vn 0.65328060 -0.70710707 -0.27059943
vn -0.38268461 2.1570114e-15 -0.92387905
vn 0.65328060 0.70710707 -0.27059943
vn 0.92387792 -5.9087392e-17 -0.38268733
vn -0.38268461 2.1570114e-15 -0.92387905
vn 0.65328060 0.70710707 -0.27059943
vn -0.38268461 2.1570114e-15 -0.92387905
vn 0.65328060 -0.70710707 -0.27059943
vn 0.92387792 -5.9087392e-17 -0.38268733
vn 0.38268164 -2.1992886e-15 0.92388028
vn 0.65328060 -0.70710707 -0.27059943
vn 0.38268164 -2.1992886e-15 0.92388028
vn 0.65328060 0.70710707 -0.27059943
vn 0.92387792 -5.9087392e-17 -0.38268733
vn 0.38268164 -2.1992886e-15 0.92388028
vn 0.65328060 0.70710707 -0.27059943
vn 0.38268164 -2.1992886e-15 0.92388028
vn -0.65328060 -0.70710707 0.27059943
vn -0.92387792 -3.1133784e-16 0.38268733
vn 0.38268461 2.2487991e-15 0.92387905
vn -0.65328060 -0.70710707 0.27059943
vn 0.38268461 2.2487991e-15 0.92387905
vn -0.65328060 0.70710707 0.27059943
vn -0.92387792 -3.1133784e-16 0.38268733
vn 0.38268461 2.2487991e-15 0.92387905
vn -0.65328060 0.70710707 0.27059943
vn 0.38268461 2.2487991e-15 0.92387905
vn -0.65328060 -0.70710707 0.27059943
vn -0.92387792 -3.1133784e-16 0.38268733
vn -0.38268164 -2.2865763e-15 -0.92388028
vn -0.65328060 -0.70710707 0.27059943
vn -0.38268164 -2.2865763e-15 -0.92388028
vn -0.65328060 0.70710707 0.27059943
vn -0.92387792 -3.1133784e-16 0.38268733
vn -0.38268164 -2.2865763e-15 -0.92388028
vn -0.65328060 0.70710707 0.27059943
vn -0.38268164 -2.2865763e-15 -0.92388028
vn -0.38268164 -2.2865763e-15 -0.92388028
vn -0.92387792 -3.1133784e-16 0.38268733
vn -0.38268164 -2.2865763e-15 -0.92388028
vn 0.38268461 2.2487991e-15 0.92387905
vn -0.92387792 -3.1133784e-16 0.38268733
vn 0.38268461 2.2487991e-15 0.92387905
vn 0.38268164 -2.1992886e-15 0.92388028
vn 0.92387792 -5.9087392e-17 -0.38268733
vn 0.38268164 -2.1992886e-15 0.92388028
vn -0.38268461 2.1570114e-15 -0.92387905
vn 0.92387792 -5.9087392e-17 -0.38268733
vn -0.38268461 2.1570114e-15 -0.92387905
g ArrowStage1_LFO_1_ArrowStage1_LFO_1_auv
usemtl ArrowStage1_LFO_1_auv
s 1
f 81/122/189 85/129/199 86/124/202 82/118/192
f 84/130/197 88/123/207 87/117/204 83/125/194
f 96/102/219 75/101/175 79/89/185 94/90/216 77/91/180 73/103/170
s 2
f 1/12/26 72/11/24 25/10/98 48/13/167 49/14/1 24/15/95
f 2/9/30 71/8/23 26/7/102 25/10/99 72/11/24 1/12/27
f 3/6/33 70/5/22 27/4/105 26/7/101 71/8/23 2/9/29
f 4/3/36 69/2/21 28/1/108 27/4/104 70/5/22 3/6/32
f 5/79/39 68/80/20 29/81/111 28/84/107 69/83/21 4/82/35
f 6/76/42 67/77/19 30/78/114 29/81/110 68/80/20 5/79/38
f 7/73/45 66/74/18 31/75/117 30/78/113 67/77/19 6/76/41
f 8/70/48 65/71/17 32/72/120 31/75/116 66/74/18 7/73/44
f 9/67/51 64/68/16 33/69/123 32/72/119 65/71/17 8/70/47
f 10/64/54 63/65/15 34/66/126 33/69/122 64/68/16 9/67/50
f 11/58/57 62/59/14 35/60/129 34/63/125 63/62/15 10/61/53
f 12/55/60 61/56/13 36/57/132 35/60/128 62/59/14 11/58/56
f 13/52/63 60/53/12 37/54/135 36/57/131 61/56/13 12/55/59
f 14/49/66 59/50/11 38/51/138 37/54/134 60/53/12 13/52/62
f 15/46/69 58/47/10 39/48/141 38/51/137 59/50/11 14/49/65
f 16/42/72 57/44/9 40/45/144 39/48/140 58/47/10 15/46/68
f 17/37/75 56/38/8 41/39/147 40/43/143 57/41/9 16/40/71
f 18/34/78 55/35/7 42/36/150 41/39/146 56/38/8 17/37/74
f 19/31/81 54/32/6 43/33/153 42/36/149 55/35/7 18/34/77
f 20/28/84 53/29/5 44/30/156 43/33/152 54/32/6 19/31/80
f 21/25/87 52/26/4 45/27/159 44/30/155 53/29/5 20/28/83
f 22/22/90 51/23/3 46/24/162 45/27/158 52/26/4 21/25/86
f 23/18/93 50/17/2 47/16/165 46/19/161 51/20/3 22/21/89
f 24/15/96 49/14/1 48/13/168 47/16/164 50/17/2 23/18/92
f 73/98/169 77/88/179 78/94/182 74/104/172
f 76/99/177 80/93/187 79/92/184 75/100/174
f 82/136/193 91/135/212 84/134/198 83/131/196 92/132/214 81/133/191
f 85/114/201 90/115/211 87/116/206 88/113/208 89/112/209 86/111/203
s 3
f 74/110/173 95/109/218 76/108/178 75/105/176 96/106/220 73/107/171
f 77/95/181 94/96/217 79/97/186 80/87/188 93/86/215 78/85/183
f 92/127/213 83/126/195 87/119/205 90/120/210 85/121/200 81/128/190
g ArrowStage1_LFO_1_default
usemtl default
s 1
f 1//25 24//94 23//91 22//88 21//85 20//82 19//79 18//76 17//73 16//70 15//67 14//64 13//61 12//58 11//55 10//52 9//49 8//46 7//43 6//40 5//37 4//34 3//31 2//28
f 26//100 27//103 28//106 29//109 30//112 31//115 32//118 33//121 34//124 35//127 36//130 37//133 38//136 39//139 40//142 41//145 42//148 43//151 44//154 45//157 46//160 47//163 48//166 25//97
