# Exported from Wings 3D 1.5.4
mtllib blue_steel_landing_gear_srf_1_suspension.mtl
o suspension1
#46 vertices, 34 faces
v 5.0000000e-2 1.3339941e-18 2.5000000e-2
v 5.0000000e-2 -1.7677670e-2 1.7677670e-2
v 5.0000000e-2 -2.5000000e-2 -3.7643274e-17
v 5.0000000e-2 -1.7677670e-2 -1.7677670e-2
v 5.0000000e-2 -1.2753818e-17 -2.5000000e-2
v 6.2500000e-2 -1.3520464e-17 -2.5000000e-2
v 6.2500000e-2 -1.7677670e-2 -1.7677670e-2
v 6.2500000e-2 -2.5000000e-2 -3.7643274e-17
v 6.2500000e-2 -1.7677670e-2 1.7677670e-2
v 6.2500000e-2 5.6734737e-19 2.5000000e-2
v 5.0000000e-2 0.15000000 -2.5000000e-2
v 5.0000000e-2 0.15000000 2.5000000e-2
v 6.2500000e-2 0.15000000 2.5000000e-2
v 6.2500000e-2 0.15000000 -2.5000000e-2
v 4.4508252e-2 0.16325825 -2.5000000e-2
v 4.4508252e-2 0.16325825 2.5000000e-2
v 5.3347087e-2 0.17209709 2.5000000e-2
v 5.3347087e-2 0.17209709 -2.5000000e-2
v 2.9029131e-3 0.20290291 -2.5000000e-2
v 2.9029131e-3 0.20290291 2.5000000e-2
v 1.1741748e-2 0.21174175 2.5000000e-2
v 1.1741748e-2 0.21174175 -2.5000000e-2
v -6.2500000e-3 0.22500000 -2.5000000e-2
v -6.2500000e-3 0.22500000 2.5000000e-2
v 6.2500000e-3 0.22500000 2.5000000e-2
v 6.2500000e-3 0.22500000 -2.5000000e-2
v -6.2500000e-3 0.35000000 -2.5000000e-2
v -6.2500000e-3 0.35000000 2.5000000e-2
v 6.2500000e-3 0.35000000 2.5000000e-2
v 6.2500000e-3 0.35000000 -2.5000000e-2
v 5.0000000e-2 1.8750000e-2 -4.7304506e-17
v 5.0000000e-2 1.3258252e-2 1.3258252e-2
v 5.0000000e-2 1.3313382e-19 1.8750000e-2
v 5.0000000e-2 -1.3258252e-2 1.3258252e-2
v 5.0000000e-2 -1.8750000e-2 -3.9034860e-17
v 5.0000000e-2 -1.3258252e-2 -1.3258252e-2
v 5.0000000e-2 -1.0432725e-17 -1.8750000e-2
v 5.0000000e-2 1.3258252e-2 -1.3258252e-2
v 3.7500000e-2 1.8750000e-2 -4.7304506e-17
v 3.7500000e-2 1.3258252e-2 1.3258252e-2
v 3.7500000e-2 8.2363771e-19 1.8750000e-2
v 3.7500000e-2 -1.3258252e-2 1.3258252e-2
v 3.7500000e-2 -1.8750000e-2 -3.9034860e-17
v 3.7500000e-2 -1.3258252e-2 -1.3258252e-2
v 3.7500000e-2 -9.7422211e-18 -1.8750000e-2
v 3.7500000e-2 1.3258252e-2 -1.3258252e-2
vt 3.8060125e-2 0.70714352
vt 3.8060125e-2 0.71611627
vt 3.8060125e-2 0.73368565
vt 3.8060125e-2 0.73906930
vt 3.8060125e-2 0.78680205
vt 3.8060125e-2 0.64986422
vt 4.0888777e-2 0.64311379
vt 4.7717747e-2 0.64031767
vt 5.4546718e-2 0.64311379
vt 5.7375370e-2 0.64986422
vt 5.7375370e-2 0.70714352
vt 5.7375370e-2 0.71611627
vt 5.7375370e-2 0.73368565
vt 5.7375370e-2 0.73906930
vt 5.7375370e-2 0.78680205
vt 7.5982118e-2 0.64986422
vt 7.5982118e-2 0.70714352
vt 7.5982118e-2 0.71252717
vt 7.5982118e-2 0.73009655
vt 7.5982118e-2 0.73906930
vt 7.5982118e-2 0.78680205
vt 7.8810771e-2 0.64311379
vt 8.5639741e-2 0.64031767
vt 9.2468712e-2 0.64311379
vt 9.5297364e-2 0.64986422
vt 9.5297364e-2 0.70714352
vt 9.5297364e-2 0.71252717
vt 9.5297364e-2 0.73009655
vt 9.5297364e-2 0.73906930
vt 9.5297364e-2 0.78680205
vt 0.11357899 0.73796187
vt 0.11357899 0.73796187
vt 0.11357899 0.78615248
vt 0.11711480 0.72944290
vt 0.11711480 0.72944290
vt 0.12332414 0.73796187
vt 0.12332414 0.73796187
vt 0.12332414 0.78615248
vt 0.12544563 0.73285049
vt 0.13318715 0.71415889
vt 0.13318715 0.71415889
vt 0.13530864 0.64096724
vt 0.13530864 0.64422393
vt 0.13530864 0.65121877
vt 0.13530864 0.70904751
vt 0.13530864 0.70904751
vt 0.14151798 0.71756648
vt 0.14151798 0.71756648
vt 0.14505380 0.64096724
vt 0.14505380 0.64422393
vt 0.14505380 0.65121877
vt 0.14505380 0.70904751
vt 0.14505380 0.70904751
vt 0.18254912 0.64106217
vt 0.18254912 0.64106217
vt 0.18254912 0.64318366
vt 0.18254912 0.64830539
vt 0.18254912 0.65342712
vt 0.18254912 0.65554861
vt 0.19220674 0.64106217
vt 0.19220674 0.64106217
vt 0.19220674 0.64318366
vt 0.19220674 0.64830539
vt 0.19220674 0.65342712
vt 0.19220674 0.65554861
vn 3.0665868e-16 1.00000000 -3.3046660e-16
vn 1.8399521e-16 0.70710678 0.70710678
vn 0.0000000e+0 1.5021209e-16 1.00000000
vn 0.0000000e+0 -0.70710678 0.70710678
vn -8.1775649e-17 -1.00000000 2.4033935e-16
vn -1.2266347e-16 -0.70710678 -0.70710678
vn -4.0887824e-17 -3.6050902e-16 -1.00000000
vn 1.2266347e-16 0.70710678 -0.70710678
vn 3.0665868e-16 1.00000000 -3.3046660e-16
vn 1.8399521e-16 0.70710678 0.70710678
vn 0.0000000e+0 1.5021209e-16 1.00000000
vn 0.0000000e+0 -0.70710678 0.70710678
vn -8.1775649e-17 -1.00000000 2.4033935e-16
vn -1.2266347e-16 -0.70710678 -0.70710678
vn -4.0887824e-17 -3.6050902e-16 -1.00000000
vn 1.2266347e-16 0.70710678 -0.70710678
vn -1.00000000 -1.8399521e-16 0.0000000e+0
vn 0.0000000e+0 -0.19509032 0.98078528
vn -1.00000000 -1.8399521e-16 0.0000000e+0
vn 0.0000000e+0 -0.19509032 0.98078528
vn -1.00000000 -3.6799042e-16 0.0000000e+0
vn 0.0000000e+0 -0.70710678 0.70710678
vn 0.0000000e+0 -0.70710678 0.70710678
vn -1.00000000 -3.6799042e-16 0.0000000e+0
vn 0.0000000e+0 -1.00000000 3.3046660e-16
vn 0.0000000e+0 -1.00000000 3.3046660e-16
vn -1.00000000 -3.6799042e-16 0.0000000e+0
vn 0.0000000e+0 -0.70710678 -0.70710678
vn 0.0000000e+0 -0.70710678 -0.70710678
vn -1.00000000 -1.8399521e-16 0.0000000e+0
vn 0.0000000e+0 -0.19509032 -0.98078528
vn -1.00000000 -1.8399521e-16 0.0000000e+0
vn 0.0000000e+0 -0.19509032 -0.98078528
vn 1.00000000 -6.1331737e-17 0.0000000e+0
vn 0.0000000e+0 -0.19509032 -0.98078528
vn 1.00000000 -6.1331737e-17 0.0000000e+0
vn 0.0000000e+0 -0.19509032 -0.98078528
vn 1.00000000 -1.2266347e-16 0.0000000e+0
vn 0.0000000e+0 -0.70710678 -0.70710678
vn 0.0000000e+0 -0.70710678 -0.70710678
vn 1.00000000 -1.2266347e-16 0.0000000e+0
vn 0.0000000e+0 -1.00000000 3.3046660e-16
vn 0.0000000e+0 -1.00000000 3.3046660e-16
vn 1.00000000 -1.2266347e-16 0.0000000e+0
vn 0.0000000e+0 -0.70710678 0.70710678
vn 0.0000000e+0 -0.70710678 0.70710678
vn 1.00000000 -6.1331737e-17 0.0000000e+0
vn 0.0000000e+0 -0.19509032 0.98078528
vn 0.0000000e+0 -0.19509032 0.98078528
vn 1.00000000 -6.1331737e-17 0.0000000e+0
vn -0.98078528 -0.19509032 0.0000000e+0
vn 0.0000000e+0 0.0000000e+0 -1.00000000
vn -0.98078528 -0.19509032 0.0000000e+0
vn 0.0000000e+0 0.0000000e+0 -1.00000000
vn -0.98078528 -0.19509032 0.0000000e+0
vn 0.0000000e+0 0.0000000e+0 1.00000000
vn -0.98078528 -0.19509032 0.0000000e+0
vn 0.0000000e+0 0.0000000e+0 1.00000000
vn 0.0000000e+0 0.0000000e+0 1.00000000
vn 0.98078528 0.19509032 0.0000000e+0
vn 0.0000000e+0 0.0000000e+0 1.00000000
vn 0.98078528 0.19509032 0.0000000e+0
vn 0.98078528 0.19509032 0.0000000e+0
vn 0.0000000e+0 0.0000000e+0 -1.00000000
vn 0.98078528 0.19509032 0.0000000e+0
vn 0.0000000e+0 0.0000000e+0 -1.00000000
vn -0.82470723 -0.56555989 0.0000000e+0
vn -1.7080354e-16 1.7080354e-16 -1.00000000
vn -0.82470723 -0.56555989 0.0000000e+0
vn -1.7080354e-16 1.7080354e-16 -1.00000000
vn -0.82470723 -0.56555989 0.0000000e+0
vn 1.7080354e-16 -1.7080354e-16 1.00000000
vn -0.82470723 -0.56555989 0.0000000e+0
vn 1.7080354e-16 -1.7080354e-16 1.00000000
vn 1.7080354e-16 -1.7080354e-16 1.00000000
vn 0.82470723 0.56555989 0.0000000e+0
vn 1.7080354e-16 -1.7080354e-16 1.00000000
vn 0.82470723 0.56555989 0.0000000e+0
vn 0.82470723 0.56555989 0.0000000e+0
vn -1.7080354e-16 1.7080354e-16 -1.00000000
vn 0.82470723 0.56555989 0.0000000e+0
vn -1.7080354e-16 1.7080354e-16 -1.00000000
vn -0.82470723 -0.56555989 0.0000000e+0
vn -1.7080354e-16 1.7080354e-16 -1.00000000
vn -0.82470723 -0.56555989 0.0000000e+0
vn -1.7080354e-16 1.7080354e-16 -1.00000000
vn -0.82470723 -0.56555989 0.0000000e+0
vn 1.7080354e-16 -1.7080354e-16 1.00000000
vn -0.82470723 -0.56555989 0.0000000e+0
vn 1.7080354e-16 -1.7080354e-16 1.00000000
vn 1.7080354e-16 -1.7080354e-16 1.00000000
vn 0.82470723 0.56555989 0.0000000e+0
vn 1.7080354e-16 -1.7080354e-16 1.00000000
vn 0.82470723 0.56555989 0.0000000e+0
vn 0.82470723 0.56555989 0.0000000e+0
vn -1.7080354e-16 1.7080354e-16 -1.00000000
vn 0.82470723 0.56555989 0.0000000e+0
vn -1.7080354e-16 1.7080354e-16 -1.00000000
vn -0.98078528 -0.19509032 0.0000000e+0
vn 0.0000000e+0 0.0000000e+0 -1.00000000
vn -0.98078528 -0.19509032 0.0000000e+0
vn 0.0000000e+0 0.0000000e+0 -1.00000000
vn -0.98078528 -0.19509032 0.0000000e+0
vn 0.0000000e+0 0.0000000e+0 1.00000000
vn -0.98078528 -0.19509032 0.0000000e+0
vn 0.0000000e+0 0.0000000e+0 1.00000000
vn 0.0000000e+0 0.0000000e+0 1.00000000
vn 0.98078528 0.19509032 0.0000000e+0
vn 0.0000000e+0 0.0000000e+0 1.00000000
vn 0.98078528 0.19509032 0.0000000e+0
vn 0.98078528 0.19509032 0.0000000e+0
vn 0.0000000e+0 0.0000000e+0 -1.00000000
vn 0.98078528 0.19509032 0.0000000e+0
vn 0.0000000e+0 0.0000000e+0 -1.00000000
vn -1.00000000 0.0000000e+0 0.0000000e+0
vn 0.0000000e+0 0.0000000e+0 -1.00000000
vn -1.00000000 0.0000000e+0 0.0000000e+0
vn 0.0000000e+0 0.0000000e+0 1.00000000
vn 0.0000000e+0 0.0000000e+0 1.00000000
vn 1.00000000 0.0000000e+0 0.0000000e+0
vn 1.00000000 0.0000000e+0 0.0000000e+0
vn 0.0000000e+0 0.0000000e+0 -1.00000000
g suspension1_suspension1_auv
usemtl suspension1_auv
s 1
f 1/25/17 5/16/30 4/22/27 3/23/24 2/24/21
f 1/25/19 12/26/55 11/17/51 5/16/32
f 2/43/23 9/50/46 10/51/48 1/44/18
f 3/42/26 8/49/43 9/50/45 2/43/22
f 4/43/29 7/50/40 8/49/42 3/42/25
f 5/44/31 6/51/35 7/50/39 4/43/28
f 5/44/33 11/46/52 14/53/64 6/51/37
f 6/10/34 10/6/47 9/7/44 8/8/41 7/9/38
f 6/10/36 14/11/63 13/1/60 10/6/50
f 10/51/49 13/52/59 12/45/56 1/44/20
f 11/46/54 15/41/68 18/48/80 14/53/66
f 12/26/57 16/27/71 15/18/67 11/17/53
f 13/52/61 17/47/75 16/40/72 12/45/58
f 14/11/65 18/12/79 17/2/76 13/1/62
f 15/41/70 19/34/84 22/39/96 18/48/82
f 16/27/73 20/28/87 19/19/83 15/18/69
f 17/47/77 21/39/91 20/35/88 16/40/74
f 18/12/81 22/13/95 21/3/92 17/2/78
f 19/34/86 23/31/100 26/36/112 22/39/98
f 20/28/89 24/29/103 23/20/99 19/19/85
f 21/39/93 25/37/107 24/32/104 20/35/90
f 22/13/97 26/14/111 25/4/108 21/3/94
f 23/31/102 27/33/116 30/38/122 26/36/114
f 24/29/105 28/30/117 27/21/115 23/20/101
f 25/37/109 29/38/119 28/33/118 24/32/106
f 26/14/113 30/15/121 29/5/120 25/4/110
f 31/65/1 39/59/9 40/58/10 32/64/2
f 32/64/2 40/58/10 41/57/11 33/63/3
f 33/63/3 41/57/11 42/56/12 34/62/4
f 34/62/4 42/56/12 43/54/13 35/60/5
f 35/55/5 43/61/13 44/62/14 36/56/6
f 36/56/6 44/62/14 45/63/15 37/57/7
f 37/57/7 45/63/15 46/64/16 38/58/8
f 38/58/8 46/64/16 39/65/9 31/59/1
