# Exported from Wings 3D 1.5.4
mtllib black_knight_engine_s0_1_fairing.mtl
o fairing1
#96 vertices, 72 faces
v 0.31250000 -0.25000000 -2.3057366e-17
v 0.30185182 -0.25000000 8.0880952e-2
v 0.27063294 -0.25000000 0.15625000
v 0.22097087 -0.25000000 0.22097087
v 0.15625000 -0.25000000 0.27063294
v 8.0880952e-2 -0.25000000 0.30185182
v -1.1102230e-16 -0.25000000 0.31250000
v -8.0880952e-2 -0.25000000 0.30185182
v -0.15625000 -0.25000000 0.27063294
v -0.22097087 -0.25000000 0.22097087
v -0.27063294 -0.25000000 0.15625000
v -0.30185182 -0.25000000 8.0880952e-2
v -0.31250000 -0.25000000 1.5212846e-17
v -0.30185182 -0.25000000 -8.0880952e-2
v -0.27063294 -0.25000000 -0.15625000
v -0.22097087 -0.25000000 -0.22097087
v -0.15625000 -0.25000000 -0.27063294
v -8.0880952e-2 -0.25000000 -0.30185182
v -1.1102230e-16 -0.25000000 -0.31250000
v 8.0880952e-2 -0.25000000 -0.30185182
v 0.15625000 -0.25000000 -0.27063294
v 0.22097087 -0.25000000 -0.22097087
v 0.27063294 -0.25000000 -0.15625000
v 0.30185182 -0.25000000 -8.0880952e-2
v 0.28750000 -0.25000000 -2.1197116e-17
v 0.27770368 -0.25000000 7.4410475e-2
v 0.24898230 -0.25000000 0.14375000
v 0.20329320 -0.25000000 0.20329320
v 0.14375000 -0.25000000 0.24898230
v 7.4410475e-2 -0.25000000 0.27770368
v -1.1102230e-16 -0.25000000 0.28750000
v -7.4410475e-2 -0.25000000 0.27770368
v -0.14375000 -0.25000000 0.24898230
v -0.20329320 -0.25000000 0.20329320
v -0.24898230 -0.25000000 0.14375000
v -0.27770368 -0.25000000 7.4410475e-2
v -0.28750000 -0.25000000 1.4011479e-17
v -0.27770368 -0.25000000 -7.4410475e-2
v -0.24898230 -0.25000000 -0.14375000
v -0.20329320 -0.25000000 -0.20329320
v -0.14375000 -0.25000000 -0.24898230
v -7.4410475e-2 -0.25000000 -0.27770368
v -1.1102230e-16 -0.25000000 -0.28750000
v 7.4410475e-2 -0.25000000 -0.27770368
v 0.14375000 -0.25000000 -0.24898230
v 0.20329320 -0.25000000 -0.20329320
v 0.24898230 -0.25000000 -0.14375000
v 0.27770368 -0.25000000 -7.4410475e-2
v 0.31250000 -0.50000000 -2.3057366e-17
v 0.30185182 -0.50000000 8.0880952e-2
v 0.27063294 -0.50000000 0.15625000
v 0.22097087 -0.50000000 0.22097087
v 0.15625000 -0.50000000 0.27063294
v 8.0880952e-2 -0.50000000 0.30185182
v -1.1102230e-16 -0.50000000 0.31250000
v -8.0880952e-2 -0.50000000 0.30185182
v -0.15625000 -0.50000000 0.27063294
v -0.22097087 -0.50000000 0.22097087
v -0.27063294 -0.50000000 0.15625000
v -0.30185182 -0.50000000 8.0880952e-2
v -0.31250000 -0.50000000 1.5212846e-17
v -0.30185182 -0.50000000 -8.0880952e-2
v -0.27063294 -0.50000000 -0.15625000
v -0.22097087 -0.50000000 -0.22097087
v -0.15625000 -0.50000000 -0.27063294
v -8.0880952e-2 -0.50000000 -0.30185182
v -1.1102230e-16 -0.50000000 -0.31250000
v 8.0880952e-2 -0.50000000 -0.30185182
v 0.15625000 -0.50000000 -0.27063294
v 0.22097087 -0.50000000 -0.22097087
v 0.27063294 -0.50000000 -0.15625000
v 0.30185182 -0.50000000 -8.0880952e-2
v 0.28750000 -0.50000000 -2.1197116e-17
v 0.27770368 -0.50000000 7.4410475e-2
v 0.24898230 -0.50000000 0.14375000
v 0.20329320 -0.50000000 0.20329320
v 0.14375000 -0.50000000 0.24898230
v 7.4410475e-2 -0.50000000 0.27770368
v -1.1102230e-16 -0.50000000 0.28750000
v -7.4410475e-2 -0.50000000 0.27770368
v -0.14375000 -0.50000000 0.24898230
v -0.20329320 -0.50000000 0.20329320
v -0.24898230 -0.50000000 0.14375000
v -0.27770368 -0.50000000 7.4410475e-2
v -0.28750000 -0.50000000 1.4011479e-17
v -0.27770368 -0.50000000 -7.4410475e-2
v -0.24898230 -0.50000000 -0.14375000
v -0.20329320 -0.50000000 -0.20329320
v -0.14375000 -0.50000000 -0.24898230
v -7.4410475e-2 -0.50000000 -0.27770368
v -1.1102230e-16 -0.50000000 -0.28750000
v 7.4410475e-2 -0.50000000 -0.27770368
v 0.14375000 -0.50000000 -0.24898230
v 0.20329320 -0.50000000 -0.20329320
v 0.24898230 -0.50000000 -0.14375000
v 0.27770368 -0.50000000 -7.4410475e-2
vt 6.5140649e-2 0.12024011
vt 6.5140649e-2 0.21604115
vt 6.5140649e-2 0.21604115
vt 6.5140649e-2 0.22752013
vt 6.5140649e-2 0.22752013
vt 6.5140649e-2 0.31760568
vt 6.5140649e-2 0.31760568
vt 6.5140649e-2 0.12024011
vt 6.5140649e-2 0.21604115
vt 6.5140649e-2 0.22752013
vt 6.5140649e-2 0.31760568
vt 6.5140649e-2 0.31760568
vt 9.6358738e-2 0.12024011
vt 9.6358738e-2 0.21604115
vt 9.6358738e-2 0.22752013
vt 9.6358738e-2 0.31760568
vt 9.6358738e-2 0.12024011
vt 9.6358738e-2 0.21604115
vt 9.6358738e-2 0.21604115
vt 9.6358738e-2 0.22752013
vt 9.6358738e-2 0.22752013
vt 9.6358738e-2 0.31760568
vt 9.6358738e-2 0.31760568
vt 9.6358738e-2 0.12024011
vt 9.6358738e-2 0.21604115
vt 9.6358738e-2 0.22752013
vt 9.6358738e-2 0.31760568
vt 9.6358738e-2 0.31760568
vt 0.12757183 0.12024011
vt 0.12757183 0.21604115
vt 0.12757183 0.21604115
vt 0.12757183 0.22752013
vt 0.12757183 0.22752013
vt 0.12757183 0.31760568
vt 0.12757183 0.31760568
vt 0.12757183 0.12024011
vt 0.12757183 0.21604115
vt 0.12757183 0.22752013
vt 0.12757183 0.31760568
vt 0.15878492 0.12024011
vt 0.15878492 0.21604115
vt 0.15878492 0.21604115
vt 0.15878492 0.22752013
vt 0.15878492 0.22752013
vt 0.15878492 0.31760568
vt 0.15878492 0.31760568
vt 0.15878492 0.12024011
vt 0.15878492 0.21604115
vt 0.15878492 0.22752013
vt 0.15878492 0.31760568
vt 0.15878492 0.12024011
vt 0.15878492 0.21604115
vt 0.15878492 0.22752013
vt 0.15878492 0.31760568
vt 0.15878492 0.31760568
vt 0.19000301 0.12024011
vt 0.19000301 0.21604115
vt 0.19000301 0.21604115
vt 0.19000301 0.22752013
vt 0.19000301 0.22752013
vt 0.19000301 0.31760568
vt 0.19000301 0.31760568
vt 0.19000301 0.12024011
vt 0.19000301 0.21604115
vt 0.19000301 0.22752013
vt 0.19000301 0.31760568
vn 1.00000000 0.0000000e+0 -1.1477982e-15
vn 1.00000000 0.0000000e+0 -1.1477982e-15
vn 0.96592583 0.0000000e+0 0.25881905
vn 0.96592583 0.0000000e+0 0.25881905
vn 0.86602540 0.0000000e+0 0.50000000
vn 0.86602540 0.0000000e+0 0.50000000
vn 0.70710678 0.0000000e+0 0.70710678
vn 0.70710678 0.0000000e+0 0.70710678
vn 0.50000000 0.0000000e+0 0.86602540
vn 0.50000000 0.0000000e+0 0.86602540
vn 0.25881905 0.0000000e+0 0.96592583
vn 0.25881905 0.0000000e+0 0.96592583
vn 2.3795816e-16 0.0000000e+0 1.00000000
vn 2.3795816e-16 0.0000000e+0 1.00000000
vn -0.25881905 0.0000000e+0 0.96592583
vn -0.25881905 0.0000000e+0 0.96592583
vn -0.50000000 0.0000000e+0 0.86602540
vn -0.50000000 0.0000000e+0 0.86602540
vn -0.70710678 0.0000000e+0 0.70710678
vn -0.70710678 0.0000000e+0 0.70710678
vn -0.86602540 0.0000000e+0 0.50000000
vn -0.86602540 0.0000000e+0 0.50000000
vn -0.96592583 0.0000000e+0 0.25881905
vn -0.96592583 0.0000000e+0 0.25881905
vn -1.00000000 0.0000000e+0 5.7389909e-16
vn -1.00000000 0.0000000e+0 5.7389909e-16
vn -0.96592583 0.0000000e+0 -0.25881905
vn -0.96592583 0.0000000e+0 -0.25881905
vn -0.86602540 0.0000000e+0 -0.50000000
vn -0.86602540 0.0000000e+0 -0.50000000
vn -0.70710678 0.0000000e+0 -0.70710678
vn -0.70710678 0.0000000e+0 -0.70710678
vn -0.50000000 0.0000000e+0 -0.86602540
vn -0.50000000 0.0000000e+0 -0.86602540
vn -0.25881905 0.0000000e+0 -0.96592583
vn -0.25881905 0.0000000e+0 -0.96592583
vn -3.0794585e-16 0.0000000e+0 -1.00000000
vn -3.0794585e-16 0.0000000e+0 -1.00000000
vn 0.25881905 0.0000000e+0 -0.96592583
vn 0.25881905 0.0000000e+0 -0.96592583
vn 0.50000000 0.0000000e+0 -0.86602540
vn 0.50000000 0.0000000e+0 -0.86602540
vn 0.70710678 0.0000000e+0 -0.70710678
vn 0.70710678 0.0000000e+0 -0.70710678
vn 0.86602540 0.0000000e+0 -0.50000000
vn 0.86602540 0.0000000e+0 -0.50000000
vn 0.96592583 0.0000000e+0 -0.25881905
vn 0.96592583 0.0000000e+0 -0.25881905
vn -1.00000000 0.0000000e+0 -1.9596554e-16
vn -1.00000000 0.0000000e+0 -1.9596554e-16
vn -0.96592583 0.0000000e+0 -0.25881905
vn -0.96592583 0.0000000e+0 -0.25881905
vn -0.86602540 0.0000000e+0 -0.50000000
vn -0.86602540 0.0000000e+0 -0.50000000
vn -0.70710678 0.0000000e+0 -0.70710678
vn -0.70710678 0.0000000e+0 -0.70710678
vn -0.50000000 0.0000000e+0 -0.86602540
vn -0.50000000 0.0000000e+0 -0.86602540
vn -0.25881905 0.0000000e+0 -0.96592583
vn -0.25881905 0.0000000e+0 -0.96592583
vn -1.6797046e-16 0.0000000e+0 -1.00000000
vn -1.6797046e-16 0.0000000e+0 -1.00000000
vn 0.25881905 0.0000000e+0 -0.96592583
vn 0.25881905 0.0000000e+0 -0.96592583
vn 0.50000000 0.0000000e+0 -0.86602540
vn 0.50000000 0.0000000e+0 -0.86602540
vn 0.70710678 0.0000000e+0 -0.70710678
vn 0.70710678 0.0000000e+0 -0.70710678
vn 0.86602540 0.0000000e+0 -0.50000000
vn 0.86602540 0.0000000e+0 -0.50000000
vn 0.96592583 0.0000000e+0 -0.25881905
vn 0.96592583 0.0000000e+0 -0.25881905
vn 1.00000000 0.0000000e+0 9.7982771e-17
vn 1.00000000 0.0000000e+0 9.7982771e-17
vn 0.96592583 0.0000000e+0 0.25881905
vn 0.96592583 0.0000000e+0 0.25881905
vn 0.86602540 0.0000000e+0 0.50000000
vn 0.86602540 0.0000000e+0 0.50000000
vn 0.70710678 0.0000000e+0 0.70710678
vn 0.70710678 0.0000000e+0 0.70710678
vn 0.50000000 0.0000000e+0 0.86602540
vn 0.50000000 0.0000000e+0 0.86602540
vn 0.25881905 0.0000000e+0 0.96592583
vn 0.25881905 0.0000000e+0 0.96592583
vn 5.3190647e-16 0.0000000e+0 1.00000000
vn 5.3190647e-16 0.0000000e+0 1.00000000
vn -0.25881905 0.0000000e+0 0.96592583
vn -0.25881905 0.0000000e+0 0.96592583
vn -0.50000000 0.0000000e+0 0.86602540
vn -0.50000000 0.0000000e+0 0.86602540
vn -0.70710678 0.0000000e+0 0.70710678
vn -0.70710678 0.0000000e+0 0.70710678
vn -0.86602540 0.0000000e+0 0.50000000
vn -0.86602540 0.0000000e+0 0.50000000
vn -0.96592583 0.0000000e+0 0.25881905
vn -0.96592583 0.0000000e+0 0.25881905
vn 0.0000000e+0 -1.00000000 0.0000000e+0
vn 0.0000000e+0 -1.00000000 0.0000000e+0
vn 1.00000000 0.0000000e+0 -1.1477982e-15
vn 1.00000000 0.0000000e+0 -1.1477982e-15
vn 0.0000000e+0 -1.00000000 0.0000000e+0
vn 0.0000000e+0 -1.00000000 0.0000000e+0
vn 0.96592583 0.0000000e+0 0.25881905
vn 0.96592583 0.0000000e+0 0.25881905
vn 0.0000000e+0 -1.00000000 0.0000000e+0
vn 0.0000000e+0 -1.00000000 0.0000000e+0
vn 0.86602540 0.0000000e+0 0.50000000
vn 0.86602540 0.0000000e+0 0.50000000
vn 0.0000000e+0 -1.00000000 0.0000000e+0
vn 0.0000000e+0 -1.00000000 0.0000000e+0
vn 0.70710678 0.0000000e+0 0.70710678
vn 0.70710678 0.0000000e+0 0.70710678
vn 0.0000000e+0 -1.00000000 0.0000000e+0
vn 0.0000000e+0 -1.00000000 0.0000000e+0
vn 0.50000000 0.0000000e+0 0.86602540
vn 0.50000000 0.0000000e+0 0.86602540
vn 0.0000000e+0 -1.00000000 0.0000000e+0
vn 0.0000000e+0 -1.00000000 0.0000000e+0
vn 0.25881905 0.0000000e+0 0.96592583
vn 0.25881905 0.0000000e+0 0.96592583
vn 0.0000000e+0 -1.00000000 0.0000000e+0
vn 0.0000000e+0 -1.00000000 0.0000000e+0
vn 2.3795816e-16 0.0000000e+0 1.00000000
vn 2.3795816e-16 0.0000000e+0 1.00000000
vn 0.0000000e+0 -1.00000000 0.0000000e+0
vn 0.0000000e+0 -1.00000000 0.0000000e+0
vn -0.25881905 0.0000000e+0 0.96592583
vn -0.25881905 0.0000000e+0 0.96592583
vn 0.0000000e+0 -1.00000000 0.0000000e+0
vn 0.0000000e+0 -1.00000000 0.0000000e+0
vn -0.50000000 0.0000000e+0 0.86602540
vn -0.50000000 0.0000000e+0 0.86602540
vn 0.0000000e+0 -1.00000000 0.0000000e+0
vn 0.0000000e+0 -1.00000000 0.0000000e+0
vn -0.70710678 0.0000000e+0 0.70710678
vn -0.70710678 0.0000000e+0 0.70710678
vn 0.0000000e+0 -1.00000000 0.0000000e+0
vn 0.0000000e+0 -1.00000000 0.0000000e+0
vn -0.86602540 0.0000000e+0 0.50000000
vn -0.86602540 0.0000000e+0 0.50000000
vn 0.0000000e+0 -1.00000000 0.0000000e+0
vn 0.0000000e+0 -1.00000000 0.0000000e+0
vn -0.96592583 0.0000000e+0 0.25881905
vn -0.96592583 0.0000000e+0 0.25881905
vn 0.0000000e+0 -1.00000000 0.0000000e+0
vn 0.0000000e+0 -1.00000000 0.0000000e+0
vn -1.00000000 0.0000000e+0 5.7389909e-16
vn -1.00000000 0.0000000e+0 5.7389909e-16
vn 0.0000000e+0 -1.00000000 0.0000000e+0
vn 0.0000000e+0 -1.00000000 0.0000000e+0
vn -0.96592583 0.0000000e+0 -0.25881905
vn -0.96592583 0.0000000e+0 -0.25881905
vn 0.0000000e+0 -1.00000000 0.0000000e+0
vn 0.0000000e+0 -1.00000000 0.0000000e+0
vn -0.86602540 0.0000000e+0 -0.50000000
vn -0.86602540 0.0000000e+0 -0.50000000
vn 0.0000000e+0 -1.00000000 0.0000000e+0
vn 0.0000000e+0 -1.00000000 0.0000000e+0
vn -0.70710678 0.0000000e+0 -0.70710678
vn -0.70710678 0.0000000e+0 -0.70710678
vn 0.0000000e+0 -1.00000000 0.0000000e+0
vn 0.0000000e+0 -1.00000000 0.0000000e+0
vn -0.50000000 0.0000000e+0 -0.86602540
vn -0.50000000 0.0000000e+0 -0.86602540
vn 0.0000000e+0 -1.00000000 0.0000000e+0
vn 0.0000000e+0 -1.00000000 0.0000000e+0
vn -0.25881905 0.0000000e+0 -0.96592583
vn -0.25881905 0.0000000e+0 -0.96592583
vn 0.0000000e+0 -1.00000000 0.0000000e+0
vn 0.0000000e+0 -1.00000000 0.0000000e+0
vn -3.0794585e-16 0.0000000e+0 -1.00000000
vn -3.0794585e-16 0.0000000e+0 -1.00000000
vn 0.0000000e+0 -1.00000000 0.0000000e+0
vn 0.0000000e+0 -1.00000000 0.0000000e+0
vn 0.25881905 0.0000000e+0 -0.96592583
vn 0.25881905 0.0000000e+0 -0.96592583
vn 0.0000000e+0 -1.00000000 0.0000000e+0
vn 0.0000000e+0 -1.00000000 0.0000000e+0
vn 0.50000000 0.0000000e+0 -0.86602540
vn 0.50000000 0.0000000e+0 -0.86602540
vn 0.0000000e+0 -1.00000000 0.0000000e+0
vn 0.0000000e+0 -1.00000000 0.0000000e+0
vn 0.70710678 0.0000000e+0 -0.70710678
vn 0.70710678 0.0000000e+0 -0.70710678
vn 0.0000000e+0 -1.00000000 0.0000000e+0
vn 0.0000000e+0 -1.00000000 0.0000000e+0
vn 0.86602540 0.0000000e+0 -0.50000000
vn 0.86602540 0.0000000e+0 -0.50000000
vn 0.0000000e+0 -1.00000000 0.0000000e+0
vn 0.0000000e+0 -1.00000000 0.0000000e+0
vn 0.96592583 0.0000000e+0 -0.25881905
vn 0.96592583 0.0000000e+0 -0.25881905
vn 0.0000000e+0 -1.00000000 0.0000000e+0
vn 0.0000000e+0 -1.00000000 0.0000000e+0
vn -1.00000000 0.0000000e+0 -1.9596554e-16
vn -1.00000000 0.0000000e+0 -1.9596554e-16
vn 0.0000000e+0 -1.00000000 0.0000000e+0
vn 0.0000000e+0 -1.00000000 0.0000000e+0
vn -0.96592583 0.0000000e+0 -0.25881905
vn -0.96592583 0.0000000e+0 -0.25881905
vn 0.0000000e+0 -1.00000000 0.0000000e+0
vn 0.0000000e+0 -1.00000000 0.0000000e+0
vn -0.86602540 0.0000000e+0 -0.50000000
vn -0.86602540 0.0000000e+0 -0.50000000
vn 0.0000000e+0 -1.00000000 0.0000000e+0
vn 0.0000000e+0 -1.00000000 0.0000000e+0
vn -0.70710678 0.0000000e+0 -0.70710678
vn -0.70710678 0.0000000e+0 -0.70710678
vn 0.0000000e+0 -1.00000000 0.0000000e+0
vn 0.0000000e+0 -1.00000000 0.0000000e+0
vn -0.50000000 0.0000000e+0 -0.86602540
vn -0.50000000 0.0000000e+0 -0.86602540
vn 0.0000000e+0 -1.00000000 0.0000000e+0
vn 0.0000000e+0 -1.00000000 0.0000000e+0
vn -0.25881905 0.0000000e+0 -0.96592583
vn -0.25881905 0.0000000e+0 -0.96592583
vn 0.0000000e+0 -1.00000000 0.0000000e+0
vn 0.0000000e+0 -1.00000000 0.0000000e+0
vn -1.6797046e-16 0.0000000e+0 -1.00000000
vn -1.6797046e-16 0.0000000e+0 -1.00000000
vn 0.0000000e+0 -1.00000000 0.0000000e+0
vn 0.0000000e+0 -1.00000000 0.0000000e+0
vn 0.25881905 0.0000000e+0 -0.96592583
vn 0.25881905 0.0000000e+0 -0.96592583
vn 0.0000000e+0 -1.00000000 0.0000000e+0
vn 0.0000000e+0 -1.00000000 0.0000000e+0
vn 0.50000000 0.0000000e+0 -0.86602540
vn 0.50000000 0.0000000e+0 -0.86602540
vn 0.0000000e+0 -1.00000000 0.0000000e+0
vn 0.0000000e+0 -1.00000000 0.0000000e+0
vn 0.70710678 0.0000000e+0 -0.70710678
vn 0.70710678 0.0000000e+0 -0.70710678
vn 0.0000000e+0 -1.00000000 0.0000000e+0
vn 0.0000000e+0 -1.00000000 0.0000000e+0
vn 0.86602540 0.0000000e+0 -0.50000000
vn 0.86602540 0.0000000e+0 -0.50000000
vn 0.0000000e+0 -1.00000000 0.0000000e+0
vn 0.0000000e+0 -1.00000000 0.0000000e+0
vn 0.96592583 0.0000000e+0 -0.25881905
vn 0.96592583 0.0000000e+0 -0.25881905
vn 0.0000000e+0 -1.00000000 0.0000000e+0
vn 0.0000000e+0 -1.00000000 0.0000000e+0
vn 1.00000000 0.0000000e+0 9.7982771e-17
vn 1.00000000 0.0000000e+0 9.7982771e-17
vn 0.0000000e+0 -1.00000000 0.0000000e+0
vn 0.0000000e+0 -1.00000000 0.0000000e+0
vn 0.96592583 0.0000000e+0 0.25881905
vn 0.96592583 0.0000000e+0 0.25881905
vn 0.0000000e+0 -1.00000000 0.0000000e+0
vn 0.0000000e+0 -1.00000000 0.0000000e+0
vn 0.86602540 0.0000000e+0 0.50000000
vn 0.86602540 0.0000000e+0 0.50000000
vn 0.0000000e+0 -1.00000000 0.0000000e+0
vn 0.0000000e+0 -1.00000000 0.0000000e+0
vn 0.70710678 0.0000000e+0 0.70710678
vn 0.70710678 0.0000000e+0 0.70710678
vn 0.0000000e+0 -1.00000000 0.0000000e+0
vn 0.0000000e+0 -1.00000000 0.0000000e+0
vn 0.50000000 0.0000000e+0 0.86602540
vn 0.50000000 0.0000000e+0 0.86602540
vn 0.0000000e+0 -1.00000000 0.0000000e+0
vn 0.0000000e+0 -1.00000000 0.0000000e+0
vn 0.25881905 0.0000000e+0 0.96592583
vn 0.25881905 0.0000000e+0 0.96592583
vn 0.0000000e+0 -1.00000000 0.0000000e+0
vn 0.0000000e+0 -1.00000000 0.0000000e+0
vn 5.3190647e-16 0.0000000e+0 1.00000000
vn 5.3190647e-16 0.0000000e+0 1.00000000
vn 0.0000000e+0 -1.00000000 0.0000000e+0
vn 0.0000000e+0 -1.00000000 0.0000000e+0
vn -0.25881905 0.0000000e+0 0.96592583
vn -0.25881905 0.0000000e+0 0.96592583
vn 0.0000000e+0 -1.00000000 0.0000000e+0
vn 0.0000000e+0 -1.00000000 0.0000000e+0
vn -0.50000000 0.0000000e+0 0.86602540
vn -0.50000000 0.0000000e+0 0.86602540
vn 0.0000000e+0 -1.00000000 0.0000000e+0
vn 0.0000000e+0 -1.00000000 0.0000000e+0
vn -0.70710678 0.0000000e+0 0.70710678
vn -0.70710678 0.0000000e+0 0.70710678
vn 0.0000000e+0 -1.00000000 0.0000000e+0
vn 0.0000000e+0 -1.00000000 0.0000000e+0
vn -0.86602540 0.0000000e+0 0.50000000
vn -0.86602540 0.0000000e+0 0.50000000
vn 0.0000000e+0 -1.00000000 0.0000000e+0
vn 0.0000000e+0 -1.00000000 0.0000000e+0
vn -0.96592583 0.0000000e+0 0.25881905
vn -0.96592583 0.0000000e+0 0.25881905
g fairing1_extension1_auv
usemtl extension1_auv
s 1
f 49/59/97 50/49/101 74/48/197 73/57/193
f 50/49/102 51/32/105 75/30/201 74/48/198
f 51/32/106 52/15/109 76/14/205 75/30/202
f 52/15/110 53/4/113 77/2/209 76/14/206
f 53/4/114 54/20/117 78/18/213 77/2/210
f 54/20/118 55/32/121 79/30/217 78/18/214
f 55/32/122 56/53/125 80/52/221 79/30/218
f 56/53/126 57/59/129 81/57/225 80/52/222
f 57/60/130 58/44/133 82/42/229 81/58/226
f 58/44/134 59/33/137 83/31/233 82/42/230
f 59/33/138 60/21/141 84/19/237 83/31/234
f 60/21/142 61/5/145 85/3/241 84/19/238
f 61/10/146 62/26/149 86/25/245 85/9/242
f 62/26/150 63/38/153 87/37/249 86/25/246
f 63/38/154 64/53/157 88/52/253 87/37/250
f 64/53/158 65/65/161 89/64/257 88/52/254
f 65/59/162 66/53/165 90/52/261 89/57/258
f 66/53/166 67/32/169 91/30/265 90/52/262
f 67/32/170 68/26/173 92/25/269 91/30/266
f 68/26/174 69/10/177 93/9/273 92/25/270
f 69/4/178 70/20/181 94/18/277 93/2/274
f 70/20/182 71/32/185 95/30/281 94/18/278
f 71/32/186 72/43/189 96/41/285 95/30/282
f 73/57/194 96/41/286 72/43/190 49/59/98
s 2
f 1/61/2 49/59/100 72/43/191 24/45/47
f 2/50/3 50/49/103 49/59/99 1/61/1
f 3/34/5 51/32/107 50/49/104 2/50/4
f 4/16/8 52/15/112 51/32/108 3/34/6
f 5/6/9 53/4/115 52/15/111 4/16/7
f 6/23/12 54/20/120 53/4/116 5/7/10
f 7/35/14 55/32/124 54/20/119 6/23/11
f 8/55/16 56/53/128 55/32/123 7/35/13
f 9/62/17 57/59/131 56/53/127 8/55/15
f 10/46/19 58/44/135 57/60/132 9/62/18
f 11/35/21 59/33/139 58/44/136 10/46/20
f 12/23/24 60/21/144 59/33/140 11/35/22
f 13/7/25 61/5/147 60/21/143 12/23/23
f 14/27/28 62/26/152 61/10/148 13/11/26
f 15/39/29 63/38/155 62/26/151 14/27/27
f 16/54/32 64/53/160 63/38/156 15/39/30
f 17/66/33 65/65/163 64/53/159 16/54/31
f 18/55/35 66/53/167 65/59/164 17/62/34
f 19/35/38 67/32/172 66/53/168 18/55/36
f 20/28/39 68/26/175 67/32/171 19/35/37
f 21/12/41 69/10/179 68/26/176 20/28/40
f 22/22/44 70/20/184 69/4/180 21/6/42
f 23/34/45 71/32/187 70/20/183 22/22/43
f 24/45/48 72/43/192 71/32/188 23/34/46
f 25/56/49 73/57/195 74/48/199 26/47/51
f 26/47/52 74/48/200 75/30/203 27/29/53
f 27/29/54 75/30/204 76/14/208 28/13/56
f 28/13/55 76/14/207 77/2/212 29/1/58
f 29/1/57 77/2/211 78/18/215 30/17/59
f 30/17/60 78/18/216 79/30/219 31/29/61
f 31/29/62 79/30/220 80/52/224 32/51/64
f 32/51/63 80/52/223 81/57/227 33/56/65
f 33/56/66 81/58/228 82/42/231 34/40/67
f 34/40/68 82/42/232 83/31/236 35/29/70
f 35/29/69 83/31/235 84/19/239 36/17/71
f 36/17/72 84/19/240 85/3/244 37/1/74
f 37/8/73 85/9/243 86/25/248 38/24/76
f 38/24/75 86/25/247 87/37/251 39/36/77
f 39/36/78 87/37/252 88/52/256 40/51/80
f 40/51/79 88/52/255 89/64/260 41/63/82
f 41/56/81 89/57/259 90/52/264 42/51/84
f 42/51/83 90/52/263 91/30/267 43/29/85
f 43/29/86 91/30/268 92/25/272 44/24/88
f 44/24/87 92/25/271 93/9/275 45/8/89
f 45/1/90 93/2/276 94/18/279 46/17/91
f 46/17/92 94/18/280 95/30/284 47/29/94
f 47/29/93 95/30/283 96/41/288 48/40/96
f 48/40/95 96/41/287 73/57/196 25/56/50
